<svg width="112" height="112" viewBox="0 0 112 112" fill="none" xmlns="http://www.w3.org/2000/svg">
<g id="Content-Media-Mobile-App--Streamline-Brooklyn">
<g id="content-media-mobile-app">
<g id="video">
<path id="Subtract" fill-rule="evenodd" clip-rule="evenodd" d="M33.066 84.3414L11.2989 88.0318C10.2209 88.2132 9.11504 87.959 8.22385 87.3262C7.33267 86.6934 6.72893 85.7324 6.54509 84.655L2.85802 62.8878C2.67664 61.8098 2.93023 60.7038 3.56316 59.8128C4.19609 58.9213 5.1567 58.3176 6.23429 58.1334L28.4665 54.3672C28.5013 54.5962 28.5365 54.8271 28.5721 55.0596L6.35133 58.8238C5.45574 58.9767 4.65745 59.479 4.13158 60.2199C3.60571 60.9608 3.39521 61.8798 3.54626 62.7758L7.23389 84.5368C7.38677 85.4317 7.88836 86.2297 8.62862 86.7555C9.36894 87.2814 10.2875 87.4925 11.183 87.3418L32.9638 83.652C32.9983 83.8844 33.0323 84.114 33.066 84.3414ZM32.4786 80.3967C32.5136 80.6297 32.5482 80.861 32.5824 81.09L13.983 84.24C13.9359 84.2462 13.8881 84.2428 13.8424 84.2299C13.7968 84.2176 13.7541 84.1958 13.7172 84.1661C13.6802 84.1364 13.6495 84.0994 13.6272 84.0574C13.6048 84.0154 13.5912 83.9695 13.587 83.9225C13.5829 83.8754 13.5884 83.8278 13.6032 83.7825C13.6179 83.7377 13.6417 83.6957 13.673 83.6604C13.7043 83.6246 13.7425 83.5954 13.7853 83.5753C13.8281 83.5546 13.8745 83.5434 13.9219 83.5411C13.9259 83.54 23.7265 81.879 32.4786 80.3967ZM30.8347 69.6789C29.9026 70.5278 29.1261 71.2362 28.4783 71.8276C25.3807 74.6534 25.223 74.7973 25.0437 74.8331C25.0341 74.8348 25.0244 74.8365 25.0142 74.8382C25.0097 74.8387 25.0052 74.8398 25.0005 74.8404C24.8371 74.8678 24.6695 74.8298 24.5345 74.7334C24.3994 74.6377 24.308 74.4921 24.2803 74.3286C23.9314 72.2784 23.6564 70.697 23.4438 69.4734C22.7985 65.7617 22.7266 65.3484 22.9003 65.139C22.9221 65.1126 22.9477 65.0897 22.9765 65.0639C22.9834 65.0572 22.9906 65.051 22.9979 65.0443C23.0052 65.0376 23.0123 65.0314 23.0191 65.0247C23.0476 64.9984 23.0728 64.9749 23.1009 64.9558C23.3222 64.8046 23.7198 64.911 27.2492 65.8558C28.0957 66.0826 29.1226 66.3575 30.3703 66.6885C30.4093 66.9394 30.4485 67.1919 30.4879 67.4462L23.5109 65.6054L24.9467 74.0794L30.7065 68.8523C30.749 69.1262 30.7917 69.4017 30.8347 69.6789ZM20.8748 59.4796C20.8229 59.5546 20.7438 59.6067 20.6542 59.6241L18.1068 60.0558C18.0162 60.0698 17.924 60.0474 17.8497 59.9937C17.7754 59.9399 17.7252 59.8593 17.7098 59.7691C17.6944 59.679 17.715 59.586 17.7673 59.511C17.8195 59.4359 17.8992 59.3838 17.9892 59.367L20.5372 58.9353C20.6275 58.9224 20.7192 58.9448 20.793 58.9986C20.8668 59.0523 20.9166 59.1324 20.9318 59.2226C20.9471 59.3127 20.9267 59.4046 20.8748 59.4796ZM6.04736 62.0634L16.1027 60.3599C16.1922 60.3426 16.2713 60.2905 16.3232 60.2154C16.3751 60.1404 16.3955 60.0486 16.3803 59.9584C16.365 59.8682 16.3152 59.7882 16.2414 59.7344C16.1677 59.6806 16.0759 59.6582 15.9857 59.6711L5.93088 61.3758C5.84436 61.3959 5.76887 61.4486 5.71976 61.5225C5.67065 61.597 5.65155 61.6866 5.66639 61.7745C5.68123 61.8618 5.72889 61.9402 5.79961 61.994C5.8704 62.0478 5.95899 62.073 6.04736 62.0634ZM12.4521 84.1823C12.4757 84.3957 12.4169 84.6096 12.2877 84.7804C12.1586 84.9518 11.9689 85.0671 11.7575 85.103C11.5461 85.1388 11.3289 85.0923 11.1506 84.973C10.9723 84.8543 10.8463 84.6712 10.7985 84.4623C10.7749 84.249 10.8337 84.035 10.9629 83.8642C11.092 83.6929 11.2817 83.5775 11.4931 83.5417C11.7045 83.5058 11.9216 83.5523 12.1 83.6716C12.2783 83.7903 12.4043 83.9734 12.4521 84.1823Z" fill="#191919"/>
</g>
<g id="profile">
<path id="Subtract_2" fill-rule="evenodd" clip-rule="evenodd" d="M54.377 17.0607L55.922 8.02312C56.1325 6.7993 56.8202 5.70898 57.8338 4.99135C58.8474 4.27371 60.104 3.98731 61.3282 4.19496L103.72 11.443C104.944 11.6538 106.035 12.3413 106.752 13.3549C107.47 14.3685 107.756 15.6254 107.548 16.8498L103.322 41.5643C103.111 42.7878 102.424 43.8777 101.411 44.5953C100.398 45.3127 99.1416 45.5992 97.9175 45.3919L83.5988 42.9438C83.5495 42.6562 83.5019 42.38 83.4566 42.1158L98.0491 44.6107C99.066 44.7838 100.11 44.5462 100.952 43.9501C101.794 43.3541 102.365 42.4483 102.54 41.4316L106.766 16.7171C106.939 15.7002 106.701 14.6564 106.105 13.8145C105.509 12.9727 104.603 12.4016 103.587 12.2265L61.1949 4.97728C60.1779 4.80453 59.1341 5.04223 58.2924 5.63825C57.4502 6.23426 56.8795 7.13983 56.7043 8.1564L55.1983 16.9635C54.9276 16.9957 54.6538 17.0281 54.377 17.0607ZM82.8143 38.2188C82.8406 38.3963 82.8675 38.575 82.8943 38.7551C82.9072 38.8397 82.9223 38.937 82.9397 39.0464L96.2319 41.3207C96.336 41.3384 96.4424 41.3141 96.5287 41.253C96.6143 41.192 96.6726 41.0994 96.6905 40.9954C96.7084 40.8914 96.6838 40.7847 96.6227 40.6987C96.5617 40.6127 96.4693 40.5544 96.3651 40.5367L82.8143 38.2188ZM71.075 10.2889L59.651 8.33616C59.5995 8.3272 59.5502 8.30816 59.5059 8.28016C59.4617 8.25216 59.4236 8.21576 59.3939 8.17303C59.3637 8.1303 59.3424 8.08203 59.3307 8.03107C59.3195 7.98006 59.3183 7.9273 59.3273 7.87584C59.3363 7.82438 59.3553 7.77515 59.3833 7.73102C59.4113 7.6869 59.4477 7.6487 59.4903 7.61869C59.5328 7.58862 59.5815 7.56728 59.6325 7.55586C59.6835 7.54443 59.7361 7.5432 59.7876 7.55216L71.2083 9.50488C71.3119 9.52258 71.4048 9.58082 71.4659 9.66683C71.5269 9.75285 71.551 9.85953 71.5336 9.96352C71.5157 10.0675 71.4575 10.1602 71.3718 10.2212C71.2855 10.2822 71.1786 10.3066 71.075 10.2889ZM76.2287 11.2112C76.3328 11.229 76.4392 11.2046 76.5255 11.1437C76.6117 11.0827 76.6699 10.9901 76.6873 10.8861C76.7052 10.7821 76.6811 10.6754 76.6201 10.5893C76.5591 10.5032 76.4667 10.445 76.3625 10.4272L73.4679 9.9316C73.3637 9.91385 73.2573 9.93815 73.1711 9.99908C73.0848 10.0601 73.0266 10.1527 73.0087 10.2567C72.9913 10.3607 73.0154 10.4674 73.0764 10.5535C73.1375 10.6396 73.2299 10.6978 73.334 10.7156L76.2287 11.2112ZM98.7838 18.5702C99.299 22.9191 92.7459 23.8246 92.1321 19.2892C91.5385 14.9156 98.2193 13.8163 98.7838 18.5702ZM99.1763 27.3672C101.185 27.6696 98.6421 22.4958 92.9301 22.7679C92.2732 22.7597 91.6214 22.8867 91.016 23.1408C90.4101 23.3949 89.863 23.7708 89.4088 24.2452C88.785 24.9777 88.8337 25.4363 89.8333 25.6603C92.9251 26.3536 96.0443 26.8957 99.1763 27.3672Z" fill="#191919"/>
</g>
<g id="phone">
<path id="Subtract_3" fill-rule="evenodd" clip-rule="evenodd" d="M89.9255 90.6684C90.0481 103.149 88.4533 104.037 52.107 107.748C49.2695 108.038 43.2293 107.878 40.3381 106.628C36.0893 104.797 35.8065 102.883 33.3328 86.1431C32.837 82.787 32.2531 78.8356 31.5315 74.1697C31.0923 71.3288 30.6762 68.6504 30.2836 66.1236L30.2833 66.122C24.6699 29.9894 23.8836 24.928 29.5525 21.705C33.9221 19.2208 42.3201 18.3426 49.674 17.5737C51.1792 17.4163 52.6407 17.2635 54.0149 17.1024C55.7507 16.8989 57.3665 16.7024 58.8724 16.5193C69.4396 15.2345 74.5619 14.6116 77.4061 16.8648C80.0813 18.9842 80.7404 23.6486 82.0189 32.7007L82.0194 32.7017C82.2781 34.5343 82.5626 36.5467 82.8941 38.7542C82.9966 39.4385 83.2559 40.9478 83.6171 43.0525V43.0528C84.4112 47.6793 85.6992 55.1821 86.9049 63.1215C86.3953 63.0683 85.9114 63.0207 85.4517 62.9787C84.3608 55.8195 82.9989 47.265 81.3681 37.0221C81.0008 34.7125 80.6995 32.6603 80.4324 30.8385C78.5827 18.2262 78.3514 16.6508 68.8617 17.0721C66.8317 17.1617 38.7409 20.7093 38.7269 20.7121C32.8447 21.6367 27.4396 23.0462 26.9462 27.9988C26.6343 31.1292 27.4329 37.8039 27.7711 40.1195C28.2067 43.1023 28.6243 45.9643 29.0247 48.7084L29.0249 48.7095L29.0265 48.7205L29.0267 48.722C33.5875 79.9802 35.918 95.9526 37.3264 101.297C38.6167 106.192 43.3386 106.339 48.2594 106.492L48.5723 106.501C51.4154 106.592 52.6821 106.426 55.5044 106.057H55.5047L55.5056 106.057H55.5075C56.6122 105.912 57.9551 105.736 59.7236 105.533C60.8223 105.407 62.2072 105.282 63.7601 105.143H63.7617H63.7634L63.7645 105.143H63.7651H63.7657C68.9311 104.68 75.9445 104.052 80.4161 102.617C80.6105 102.555 80.8014 102.494 80.989 102.434C87.3786 100.397 89.7933 99.6268 88.3228 84.3645C88.7344 84.4032 89.1594 84.444 89.5968 84.486C89.7905 86.8067 89.9081 88.9022 89.9255 90.6684ZM85.5082 92.928C85.497 93.124 85.4853 93.3312 85.2187 93.3648C84.8827 93.4074 84.8351 93.1403 84.7937 92.904L84.7858 92.8608C84.7578 92.7057 84.2678 89.236 83.5286 83.9171C83.7957 83.9428 84.0707 83.9692 84.3541 83.9955C84.7248 86.8028 85.1123 89.7388 85.5172 92.8093C85.5127 92.8474 85.5105 92.8877 85.5082 92.928ZM81.5361 62.7351C76.2105 22.7277 76.0442 22.8007 75.7581 22.9265C75.7452 22.9324 75.7312 22.9383 75.7172 22.9404C75.3269 22.9954 78.0563 43.8281 80.6211 62.7373C80.905 62.7306 81.2097 62.73 81.5361 62.7351ZM75.8426 68.824C75.3162 68.9018 74.8016 68.978 74.2987 69.0524L73.1277 69.226C54.4739 71.9885 52.8324 72.2321 52.7498 72.7322C52.7419 72.7804 52.7484 72.8313 52.7556 72.8868L52.7559 72.889C52.8417 73.5526 52.8428 73.552 74.348 70.182L75.7082 69.9686C75.7508 69.5839 75.7956 69.2003 75.8426 68.824ZM75.4489 72.623C73.1804 72.9769 71.1403 73.2944 69.3063 73.5801C54.3693 75.9052 53.0655 76.1085 53.0044 76.5033C52.9985 76.5413 53.004 76.5805 53.0101 76.6242L53.0102 76.6248C53.0785 77.1103 53.0799 77.1097 69.0537 74.6564C70.9292 74.3685 73.0247 74.0465 75.3661 73.6881C75.3896 73.3555 75.417 72.9977 75.4489 72.623ZM31.2542 28.9604C30.3475 29.1228 41.8242 106.613 41.7155 99.662L41.7145 99.6542L41.7144 99.6536C41.5928 98.7593 32.0789 28.8129 31.2542 28.9604ZM51.734 89.7786C51.7168 89.7271 51.702 89.6828 51.7084 89.6414C51.7497 89.3799 52.6561 89.2544 59.3333 88.3293L59.3338 88.3288C62.2481 87.925 66.2616 87.3695 71.7815 86.5833L71.8313 86.576C72.0553 86.5441 72.2177 86.5205 72.3432 86.5776C72.6736 86.7294 72.7469 87.4428 73.0129 90.0396C73.0717 90.6141 73.1401 91.2805 73.2229 92.0533L73.2246 92.069C73.2442 92.2521 73.2605 92.4028 73.2173 92.5332C73.023 93.1207 71.6292 93.3122 63.9617 94.3661C61.3549 94.7245 58.0234 95.182 53.7679 95.7891C53.6874 95.8008 53.6111 95.812 53.5388 95.8227C53.0646 95.8938 52.7605 95.9392 52.555 95.8176C52.1878 95.6009 52.1345 94.8528 51.9857 92.7679L51.9857 92.7673V92.7668C51.9308 91.9968 51.8629 91.0453 51.7614 89.871C51.758 89.8564 51.754 89.8419 51.7499 89.8284C51.7448 89.8111 51.7393 89.7948 51.734 89.7786ZM72.0553 89.7092C71.8974 88.182 71.8537 87.7564 71.6566 87.6674C71.5805 87.6327 71.4819 87.6484 71.3453 87.6696L71.3352 87.6713L53.1435 90.3991L53.1393 90.3996C52.6069 90.4775 52.5891 90.4803 53.0214 94.4988L53.0225 94.5089C53.0323 94.6008 53.04 94.673 53.0768 94.7251C53.2154 94.9205 53.7668 94.8236 56.3989 94.36L56.5305 94.337C64.6057 92.9152 68.571 92.4638 70.4991 92.2437C72.1494 92.0561 72.3073 92.0382 72.2721 91.7268V91.728C72.1785 90.9025 72.1102 90.2406 72.0559 89.7114L72.0553 89.7108V89.7097V89.7092ZM69.28 37.8806C37.1001 42.6165 37.0973 42.6384 37.2177 43.4308L37.2179 43.4319C37.3315 44.1831 37.3601 44.3727 70.1732 39.0611C70.8821 38.9463 71.4948 38.8567 72.0201 38.78C74.1581 38.4677 74.8402 38.3681 74.5854 37.6488C74.3989 37.1182 74.2242 37.1443 70.7377 37.6643L70.7371 37.6644L70.7337 37.6649C70.302 37.7293 69.8193 37.8012 69.28 37.8806ZM38.0344 47.6529C38.0286 47.6048 38.0231 47.5603 38.0291 47.5174C38.1049 46.9727 40.0178 46.6835 66.1983 42.7259C68.2025 42.423 70.349 42.0985 72.6478 41.7508C74.4454 41.4786 74.7881 41.4937 74.8738 41.9652C74.9836 42.5715 74.633 42.6249 70.6811 43.227C70.2527 43.2923 69.7817 43.3641 69.2649 43.4436C66.3092 43.8985 63.6335 44.3108 61.2115 44.684L61.1925 44.687L61.1493 44.6936L61.1393 44.6952L61.1387 44.6953C39.9454 47.9612 38.2212 48.2269 38.0587 47.8388C38.0444 47.8044 38.0422 47.7649 38.0399 47.7219C38.0388 47.7004 38.0375 47.6779 38.0347 47.6548L38.0344 47.6529ZM38.6111 51.8534L38.6114 51.8582C38.6559 52.6063 39.1014 52.5375 66.1507 48.3585L66.1513 48.3585L66.1518 48.3584C67.7131 48.1173 69.3623 47.8624 71.1056 47.5932L71.4024 47.5474C75.3358 46.9402 75.613 46.8973 75.5038 46.3579L75.5033 46.3555C75.4932 46.3067 75.4842 46.2624 75.4646 46.2238C75.2636 45.8376 73.9437 46.0337 59.4038 48.1945C55.8497 48.7226 51.5057 49.3682 46.1949 50.1513C38.576 51.2748 38.586 51.4403 38.6111 51.8534ZM50.0517 26.7668C45.6806 26.6091 44.6969 25.7274 43.9086 25.0208C43.314 24.4877 42.8305 24.0544 41.0878 24.1068C38.4809 24.1855 35.559 24.7751 33.459 25.1989C31.7909 25.5356 30.6415 25.7675 30.5805 25.5556C30.431 25.0336 40.9607 22.6318 43.4 23.7596C43.867 23.9756 44.1643 24.2257 44.4622 24.4763C44.9645 24.8989 45.4686 25.323 46.7914 25.588C49.9571 26.2214 61.5643 25.5953 63.3641 22.6032C64.3105 21.0303 65.6809 20.7834 69.0868 20.1695C69.817 20.0379 70.6408 19.8895 71.5743 19.7075C74.9388 19.0512 74.7865 19.7685 73.9302 19.964C71.7373 20.4659 70.0668 20.7886 68.7765 21.0378C65.7223 21.6278 64.7994 21.8061 64.119 22.9762C62.2525 26.1872 53.4559 26.7108 50.0517 26.7668ZM54.1493 35.1818C54.1791 35.0891 54.1735 34.9851 54.1669 34.861L54.1659 34.8426C54.0018 33.9647 53.8814 33.2682 53.7861 32.7168L53.786 32.7162L53.7859 32.7159L53.7858 32.7156L53.7857 32.7148C53.4307 30.6611 53.4241 30.6233 52.8018 30.7244L35.9547 33.4684C35.381 33.5597 35.3881 33.6014 35.783 35.9295L35.783 35.9301L35.7831 35.9305C35.87 36.4429 35.9757 37.066 36.0981 37.8246C36.195 38.4098 36.3165 38.4837 36.923 38.3846C40.7131 37.7673 43.6727 37.2988 45.9832 36.933C52.8828 35.8406 53.9946 35.6646 54.1493 35.1818ZM36.5774 36.2918C36.4944 35.8222 36.4101 35.3451 36.3938 34.8387L36.382 34.8116C36.332 34.696 36.2932 34.6062 36.3103 34.5287C36.3698 34.2585 37.1095 34.1382 40.4284 33.5983C41.8331 33.3697 43.7001 33.0661 46.173 32.644C47.8747 32.353 49.1347 32.1214 50.0695 31.9496C52.0911 31.578 52.5917 31.486 52.7494 31.677C52.8014 31.7399 52.8161 31.8334 52.8358 31.9577L52.837 31.9653C52.9659 32.7805 53.0793 33.3597 53.1602 33.7735C53.3584 34.7866 53.3627 34.8086 52.9278 34.8773C46.0419 35.9678 42.0906 36.688 39.8194 37.102C37.4005 37.5429 36.8876 37.6364 36.7653 37.4597C36.7323 37.4121 36.7277 37.3449 36.7217 37.2597C36.7193 37.2248 36.7167 37.1868 36.7118 37.1459C36.6779 36.8607 36.6279 36.5776 36.5774 36.2918ZM83.9996 96.1458C71.8997 103.905 42.7214 103.239 43.2478 101.139C43.2986 100.937 43.5101 100.98 44.1465 101.111C45.7766 101.446 50.1946 102.355 61.8398 101.166C73.0449 100.022 79.2485 97.7166 82.0928 96.6599C83.2324 96.2365 83.8327 96.0136 83.9996 96.1458ZM51.7339 60.672L51.7126 60.6715C51.4371 60.6676 51.1167 60.6625 51.0703 60.3019C51.0216 59.9424 51.3256 59.8337 51.6191 59.7576C53.8109 59.1903 75.1891 56.056 75.7407 56.0369C75.8068 56.0268 75.874 56.0302 75.9389 56.0459C76.0045 56.0621 76.0655 56.0912 76.1193 56.1304C76.173 56.1702 76.2184 56.2206 76.2531 56.2777C76.2878 56.3348 76.3108 56.3987 76.3209 56.4648C76.3309 56.5308 76.3276 56.5986 76.3113 56.6636C76.2957 56.7285 76.2665 56.7896 76.2268 56.8433C76.187 56.8971 76.1372 56.943 76.0801 56.9772C76.0224 57.0119 75.9591 57.0348 75.893 57.0449C75.0245 57.2264 55.6466 60.2548 51.7339 60.672ZM46.2145 80.0508C50.5503 79.5474 50.8729 79.5099 50.7647 78.6788C50.5099 76.7289 50.2199 74.779 49.93 72.8302V72.8296C49.8452 72.2596 49.7605 71.69 49.6766 71.12C49.5783 70.4536 49.3599 70.486 44.3665 71.2292L44.36 71.2297C43.7521 71.3204 43.0735 71.4212 42.316 71.5327C41.8069 71.6077 41.5449 71.7864 41.6843 72.8593C41.9034 74.5404 42.0603 75.8514 42.1825 76.8734C42.6108 80.4529 42.6138 80.4781 43.3766 80.3857C44.4748 80.253 45.4132 80.1438 46.2145 80.0508ZM48.2464 71.7012C48.4287 71.6744 48.5555 71.6559 48.6109 71.6475V71.6486C48.6264 71.6452 48.6408 71.6408 48.6543 71.6368C48.6898 71.6273 48.7191 71.6189 48.745 71.6251C48.8689 71.6542 48.9155 72.0115 49.1852 74.0768C49.3047 74.9924 49.468 76.2428 49.7013 77.9497C49.7156 78.0544 49.7362 78.1463 49.7542 78.2264C49.8159 78.503 49.847 78.6419 49.489 78.6811C46.8537 78.9723 45.3408 79.2584 44.4643 79.4237C43.3668 79.6314 43.2674 79.6499 43.212 79.2551C42.9166 77.1517 42.6929 75.7125 42.5396 74.7269C42.2794 73.0536 42.222 72.684 42.3611 72.5816C42.4005 72.5524 42.4558 72.5452 42.5266 72.5351H42.5282C44.1934 72.3032 47.176 71.8603 48.2464 71.7012ZM48.7869 65.5502C48.7992 65.7865 48.8086 65.9674 48.7423 66.1136C48.5274 66.5879 47.5178 66.7021 43.238 67.1854C42.6978 67.2464 42.1055 67.3131 41.4562 67.3876L41.4259 67.3909C41.2371 67.4128 41.096 67.429 40.9829 67.3803C40.6472 67.2352 40.5594 66.5162 40.2113 63.6613C40.0904 62.6701 39.9381 61.4213 39.7331 59.85C39.6307 59.066 39.6816 58.6432 40.3356 58.5474C40.7621 58.4847 41.1636 58.4259 41.5417 58.3704C47.6029 57.48 47.637 57.475 47.7361 58.1504C48.0295 60.1501 48.3137 62.151 48.582 64.041L48.5825 64.0438L48.5825 64.0444C48.6499 64.5187 48.7163 64.9863 48.7816 65.4449C48.7833 65.4813 48.7851 65.516 48.7869 65.5502ZM40.9499 64.2476C41.1986 66.1203 41.2515 66.5196 41.4235 66.58C41.4701 66.5963 41.5254 66.5879 41.5958 66.5767H41.5973C43.4444 66.2972 44.7506 66.1141 45.6727 65.9853C47.885 65.6751 47.8855 65.6751 47.8369 65.4007C47.3292 62.5396 47.1679 60.868 47.075 59.9048C46.9611 58.7244 46.95 58.609 46.5292 58.6728C44.4867 58.9836 43.1052 59.178 42.1744 59.309C40.6328 59.5263 40.3272 59.5694 40.3025 59.6769C40.2964 59.7038 40.3074 59.734 40.3212 59.7721C40.3263 59.7861 40.3317 59.8012 40.3368 59.8175C40.6288 61.829 40.8172 63.248 40.9499 64.2476ZM51.3137 63.9016C51.3073 63.9408 51.3132 63.9822 51.3196 64.0281L51.3197 64.0287C51.3919 64.5405 51.4748 64.554 74.362 60.9806C74.6358 60.938 74.8828 60.9005 75.1062 60.8669C76.6753 60.6312 77.0472 60.5752 76.9822 60.0672C76.9173 59.5571 76.3595 59.6344 75.8281 59.7167C72.3997 60.2498 69.4497 60.7062 66.9106 61.0993L66.9028 61.1004C52.6681 63.3046 51.3775 63.5045 51.3137 63.9016ZM52.3365 21.817C53.5606 21.7996 53.4704 23.6157 52.3801 23.665C51.222 23.7204 51.2008 21.8332 52.3365 21.817ZM55.632 21.5874C56.4067 21.6675 56.2969 22.69 55.6483 22.6346C55.5762 22.6414 55.5034 22.6332 55.4346 22.6105C55.3658 22.5878 55.3024 22.5512 55.2484 22.5028C55.1945 22.4545 55.1511 22.3955 55.121 22.3296C55.091 22.2637 55.0749 22.1922 55.0738 22.1198C55.0727 22.0473 55.0866 21.9754 55.1146 21.9086C55.1426 21.8418 55.184 21.7815 55.2365 21.7315C55.2889 21.6815 55.3512 21.6429 55.4192 21.6181C55.4873 21.5933 55.5598 21.5829 55.632 21.5874Z" fill="#9012FF"/>
</g>
<g id="message">
<path id="vector" d="M92.7346 63.8108C113.937 66.5184 109.149 64.3786 107.707 79.6089C107.537 81.4166 107.459 84.3213 105.536 85.3512C105.171 85.5466 105.67 86.4241 105.941 90.1437C106.069 91.9105 105.04 90.8487 103.046 89.5361C95.6903 84.6937 97.7892 85.3473 95.3179 85.0751C73.2825 82.6464 75.0123 84.7458 75.2805 75.2191C75.3416 73.0429 75.9587 66.6248 76.5495 64.788C77.3156 62.4147 79.3321 62.1022 92.7346 63.8108ZM105.141 89.8782C104.949 87.8516 104.826 87.4775 104.604 85.8501C104.343 83.9389 106.162 86.0876 106.859 80.1857C107.885 71.5001 109.201 67.3853 106.758 66.6847C104.158 65.9393 82.6076 63.1752 78.9205 63.6417C76.9925 63.8853 76.9437 65.4958 76.601 68.5501C76.1922 72.4398 76.0119 76.3497 76.0606 80.2602C76.1502 83.2036 82.5628 82.7483 91.5413 83.8873C98.2904 84.7447 94.8167 82.9617 105.141 89.8782Z" fill="#191919"/>
<path id="vector_2" d="M91.8253 71.9282C92.1703 71.9455 92.5085 72.0335 92.8176 72.1875C93.1273 72.3409 93.4017 72.5571 93.6235 72.8219C93.8458 73.0868 94.011 73.3943 94.1084 73.7258C94.2059 74.0573 94.2339 74.4056 94.1907 74.7483C94.1476 75.0911 94.0339 75.4215 93.857 75.7183C93.68 76.0151 93.4443 76.2727 93.1631 76.4737C92.8826 76.6753 92.5628 76.8164 92.2251 76.8887C91.8869 76.9609 91.538 76.962 91.1992 76.8931C90.544 76.8047 89.9482 76.4658 89.536 75.9484C89.1244 75.431 88.9284 74.7741 88.9895 74.1155C89.1009 73.4615 89.4548 72.8735 89.9801 72.468C90.5054 72.0626 91.1645 71.8699 91.8253 71.9282Z" fill="#191919"/>
<path id="vector_3" d="M99.6331 72.8293C103.436 73.3053 102.358 78.2389 99.0411 77.7719C95.6599 77.2953 96.3425 72.4177 99.6331 72.8293Z" fill="#191919"/>
<path id="vector_4" d="M83.4707 76.1403C80.0665 75.7018 80.7643 70.7643 84.0246 71.1373C87.8242 71.5707 86.7921 76.5687 83.4707 76.1403Z" fill="#191919"/>
</g>
</g>
</g>
</svg>
