<svg width="140" height="140" viewBox="0 0 140 140" fill="none" xmlns="http://www.w3.org/2000/svg">
<path d="M115.606 19.6872C115.513 19.7009 115.426 19.7375 115.351 19.7937C115.276 19.8499 115.217 19.9239 115.178 20.0089C115.139 20.094 115.123 20.1873 115.129 20.2806C115.136 20.3738 115.165 20.4639 115.216 20.5426C115.216 20.5426 116.829 23.1123 117.481 24.0832C117.533 24.1596 117.565 24.2475 117.575 24.3392C117.585 24.431 117.572 24.5237 117.538 24.6095C117.504 24.6953 117.45 24.7714 117.38 24.8314C117.31 24.8913 117.226 24.9332 117.136 24.9533C114.725 25.507 115.149 25.4293 113.175 25.899C113.085 25.9219 113.002 25.9666 112.934 26.0291C112.865 26.0916 112.813 26.17 112.782 26.2575C112.751 26.3449 112.742 26.4386 112.755 26.5304C112.769 26.6222 112.805 26.7093 112.86 26.7838C112.86 26.7838 115.476 30.2138 115.786 30.61C115.843 30.6812 115.881 30.7652 115.899 30.8547C115.916 30.9442 115.911 31.0366 115.884 31.1238C115.858 31.211 115.81 31.2904 115.746 31.355C115.682 31.4197 115.602 31.4677 115.515 31.4948C109.419 33.4548 111.27 33.8482 117.736 32.7702L118.591 32.6351C118.683 32.6203 118.77 32.583 118.844 32.5266C118.918 32.4702 118.976 32.3964 119.015 32.3118C119.054 32.2271 119.071 32.1343 119.065 32.0415C119.059 31.9487 119.03 31.8588 118.981 31.7797C118.203 30.5442 117.76 29.7966 116.716 28.2545C116.664 28.1781 116.632 28.0901 116.622 27.9984C116.612 27.9066 116.624 27.8138 116.658 27.728C116.692 27.6422 116.747 27.566 116.817 27.506C116.887 27.446 116.971 27.404 117.061 27.3837C119.472 26.83 119.048 26.9084 121.022 26.4387C121.112 26.4159 121.195 26.3713 121.263 26.3089C121.332 26.2464 121.384 26.168 121.415 26.0805C121.447 25.9931 121.456 25.8993 121.442 25.8075C121.429 25.7156 121.393 25.6285 121.337 25.5539C121.337 25.5539 118.721 22.1071 118.411 21.713C118.354 21.6419 118.315 21.5578 118.298 21.4682C118.281 21.3786 118.286 21.2861 118.312 21.1988C118.339 21.1115 118.386 21.0321 118.451 20.9673C118.515 20.9026 118.594 20.8546 118.681 20.8275C123.923 19.1335 124.25 18.2886 115.606 19.6872Z" fill="#DB80F2"/>
<path d="M104.518 23.8434C104.418 23.8037 104.33 23.7402 104.26 23.6584C104.19 23.5766 104.141 23.479 104.117 23.3741C104.094 23.2691 104.096 23.16 104.124 23.0561C104.152 22.9522 104.205 22.8568 104.278 22.778C104.967 22.0269 106.814 19.9878 106.814 19.9878C106.887 19.9062 106.938 19.8078 106.963 19.7014C106.989 19.5949 106.987 19.4839 106.959 19.3782C106.931 19.2725 106.877 19.1755 106.801 19.0959C106.726 19.0164 106.633 18.9568 106.529 18.9224C106.529 18.9224 102.643 17.6323 102.208 17.4972C102.107 17.4644 102.015 17.4076 101.941 17.3318C101.866 17.2559 101.811 17.1633 101.78 17.0617C101.749 16.96 101.743 16.8525 101.763 16.748C101.783 16.6436 101.827 16.5455 101.893 16.4619C105.127 12.3074 104.969 11.2875 98.7426 17.2872C98.6636 17.3621 98.6044 17.4556 98.5705 17.5591C98.5365 17.6626 98.5289 17.7729 98.5483 17.8801C98.5677 17.9873 98.6135 18.0879 98.6815 18.173C98.7495 18.2581 98.8376 18.3249 98.9379 18.3673C101.394 19.4019 100.301 18.9532 102.568 19.8828C102.668 19.9224 102.757 19.9859 102.827 20.0676C102.897 20.1494 102.946 20.2471 102.97 20.3521C102.993 20.4571 102.991 20.5663 102.963 20.6702C102.935 20.7741 102.882 20.8695 102.808 20.9482C102.119 21.6993 100.273 23.7538 100.273 23.7538C100.2 23.8354 100.149 23.9338 100.124 24.0402C100.098 24.1465 100.1 24.2574 100.128 24.363C100.156 24.4686 100.21 24.5655 100.285 24.645C100.36 24.7245 100.454 24.7842 100.558 24.8185C100.558 24.8185 104.444 26.1093 104.879 26.2444C104.98 26.2772 105.071 26.3339 105.146 26.4096C105.22 26.4854 105.275 26.578 105.306 26.6796C105.337 26.7812 105.343 26.8887 105.323 26.9931C105.304 27.0974 105.259 27.1955 105.194 27.279C101.992 31.3929 102.096 32.4898 108.344 26.4691C108.423 26.3941 108.481 26.3007 108.515 26.1973C108.549 26.0939 108.557 25.9837 108.537 25.8767C108.518 25.7696 108.472 25.6691 108.405 25.5839C108.337 25.4988 108.249 25.4319 108.149 25.389C106.963 24.871 105.428 24.2032 104.518 23.8434Z" fill="#DB80F2"/>
<path d="M132.184 37.3799C132.119 37.3109 132.038 37.2592 131.947 37.2294C131.857 37.1995 131.761 37.1924 131.667 37.2088C131.574 37.2251 131.486 37.2644 131.411 37.3231C131.336 37.3818 131.277 37.458 131.239 37.5451C130.577 39.0851 130.437 39.3777 129.634 41.4007C129.599 41.4884 129.544 41.5664 129.473 41.6278C129.401 41.6892 129.316 41.7321 129.224 41.7529C129.132 41.7736 129.037 41.7715 128.946 41.7467C128.855 41.7219 128.772 41.6752 128.703 41.6107C127.928 40.8855 125.703 38.9101 125.703 38.9101C125.632 38.8463 125.545 38.8014 125.452 38.7795C125.358 38.7577 125.261 38.7595 125.169 38.7849C125.076 38.8103 124.991 38.8584 124.922 38.9249C124.853 38.9914 124.802 39.0742 124.773 39.1656C124.773 39.1656 123.413 43.248 123.272 43.7114C123.244 43.7993 123.195 43.8792 123.129 43.9443C123.064 44.0094 122.983 44.058 122.895 44.0859C122.807 44.1137 122.714 44.1202 122.623 44.1046C122.532 44.089 122.446 44.0519 122.372 43.9963C117.272 40.0763 118.098 41.9236 122.597 46.5618L123.182 47.1771C123.248 47.2459 123.329 47.2975 123.419 47.3272C123.51 47.357 123.606 47.364 123.699 47.3477C123.793 47.3313 123.881 47.2921 123.955 47.2335C124.03 47.1749 124.089 47.0988 124.127 47.0119C124.127 47.0119 125.299 44.2371 125.733 43.1563C125.767 43.0686 125.822 42.9906 125.893 42.9292C125.965 42.8678 126.05 42.8249 126.142 42.8041C126.234 42.7834 126.329 42.7855 126.42 42.8103C126.511 42.8351 126.594 42.8818 126.663 42.9463C127.438 43.6722 129.649 45.6469 129.649 45.6469C129.72 45.7101 129.805 45.7549 129.897 45.7772C129.99 45.7996 130.086 45.7989 130.178 45.7752C130.27 45.7514 130.355 45.7054 130.424 45.6411C130.494 45.5769 130.547 45.4964 130.579 45.4068C130.579 45.4068 131.945 41.3258 132.094 40.861C132.123 40.7734 132.172 40.6939 132.238 40.6291C132.303 40.5642 132.383 40.5159 132.471 40.488C132.559 40.4601 132.652 40.4535 132.743 40.4687C132.834 40.4839 132.92 40.5204 132.994 40.5754C137.261 43.8199 138.32 43.7499 132.184 37.3799Z" fill="#DB80F2"/>
<path d="M133.19 57.6763C133.19 57.5819 133.167 57.489 133.122 57.4059C133.077 57.3228 133.012 57.252 132.934 57.2C132.855 57.148 132.764 57.1164 132.67 57.1079C132.576 57.0993 132.482 57.1143 132.395 57.1513C132.395 57.1513 129.623 58.3413 128.569 58.8166C128.485 58.8571 128.392 58.8763 128.299 58.8723C128.206 58.8683 128.115 58.8414 128.035 58.7938C127.955 58.7463 127.888 58.6796 127.839 58.5998C127.791 58.52 127.764 58.4295 127.759 58.3364C127.709 57.271 127.474 54.3156 127.474 54.3156C127.466 54.221 127.435 54.1298 127.383 54.0502C127.332 53.9705 127.261 53.9048 127.178 53.8588C127.095 53.8129 127.002 53.7881 126.907 53.7867C126.812 53.7853 126.718 53.8073 126.634 53.8508C126.634 53.8508 122.837 55.8591 122.403 56.1013C122.322 56.1448 122.232 56.1682 122.14 56.1696C122.048 56.1709 121.957 56.1501 121.874 56.109C121.792 56.0678 121.721 56.0075 121.667 55.933C121.612 55.8586 121.577 55.7723 121.563 55.6813C120.99 51.9307 120.422 50.6413 120.138 52.8456C119.975 54.7363 119.915 56.6344 119.958 58.5317C119.958 58.6261 119.982 58.719 120.026 58.8021C120.071 58.8852 120.136 58.9559 120.215 59.0079C120.293 59.0599 120.384 59.0916 120.478 59.1001C120.572 59.1086 120.666 59.0937 120.753 59.0567C120.753 59.0567 123.525 57.8667 124.579 57.3914C124.663 57.351 124.755 57.3321 124.849 57.3361C124.942 57.3402 125.032 57.3672 125.113 57.4147C125.193 57.4622 125.26 57.5287 125.308 57.6084C125.357 57.6881 125.384 57.7785 125.389 57.8716C125.439 58.9377 125.674 61.8924 125.674 61.8924C125.682 61.987 125.713 62.0783 125.765 62.158C125.816 62.2378 125.887 62.3036 125.97 62.3496C126.053 62.3957 126.146 62.4205 126.241 62.4219C126.336 62.4234 126.43 62.4014 126.514 62.3579C126.514 62.3579 130.311 60.3496 130.745 60.1074C130.826 60.0635 130.917 60.0398 131.009 60.0383C131.101 60.0368 131.192 60.0576 131.274 60.0988C131.357 60.14 131.428 60.2005 131.482 60.2751C131.536 60.3497 131.572 60.4362 131.585 60.5274C132.16 64.292 132.726 65.5835 133.011 63.3778C133.174 61.4819 133.234 59.5786 133.19 57.6763Z" fill="#DB80F2"/>
<path d="M77.0623 116.114C74.5381 116.683 71.8557 116.114 69.3952 115.529C67.1902 115.004 64.7598 114.824 62.629 114.089C60.9322 113.503 61.0687 113.594 60.2882 113.323C61.3543 107.781 62.3819 103.54 65.0146 98.0354C65.5844 98.3805 66.1514 98.7305 66.7401 99.0854C73.2123 102.993 77.4319 102.252 80.2277 92.9793C81.4688 88.8633 81.8944 84.454 83.0186 80.6313C83.1586 80.1672 82.6525 79.6142 82.4635 79.2061C81.1741 76.4292 81.4772 73.6761 83.9636 72.0199C84.4464 71.6702 84.9528 71.3542 85.4791 71.0742C86.2862 70.6038 86.8161 70.5898 86.6495 70.5191C86.1595 70.3091 85.33 70.762 84.8939 70.9545C84.0807 71.2547 83.3376 71.7184 82.7105 72.3171C82.0835 72.9157 81.5859 73.6365 81.2483 74.4349C80.5532 76.3949 81.1006 78.6559 82.0883 80.4668C80.8864 84.0445 80.3439 89.2231 78.7283 93.9068C77.4207 97.6973 75.1212 101.27 71.3167 100.043C66.6561 98.5401 59.059 92.1897 52.6225 91.223C51.8086 91.0417 50.9665 91.0265 50.1466 91.1782C50.0717 91.2832 50.7766 91.2846 52.2774 91.6129C56.2674 92.4858 60.9812 95.549 64.2649 97.5699C60.8944 103.392 59.5588 110.294 59.7639 113.818C59.8339 115.041 59.7212 115.598 60.0341 116.114C55.6773 114.438 55.7641 114.335 51.2141 111.778C49.9438 111.007 48.5899 110.382 47.1786 109.917C47.8352 107.207 48.4092 103.605 48.0935 100.81C47.936 99.4144 47.7708 99.2807 47.6434 100.691C46.83 109.69 44.366 114.426 42.1344 122.43C41.8673 123.463 41.657 124.51 41.5044 125.566C40.6189 125.551 35.6384 125.485 34.0326 125.461C32.7271 125.441 30.6537 125.797 29.4567 125.206C29.1132 124.994 28.8268 124.702 28.6228 124.354C28.4187 124.006 28.3032 123.613 28.2863 123.21C28.0413 121.005 28.2422 99.4151 28.1512 94.5389C28.077 90.5489 27.986 86.5722 27.881 82.5815C29.3864 82.5471 30.8827 82.8228 32.277 83.3914C32.4821 83.3914 30.8686 82.0152 27.867 81.9662C27.8019 79.3706 26.5643 29.1162 27.2818 26.5591C28.1484 23.4742 32.7705 23.8004 35.77 23.8004C37.961 23.8004 40.1359 23.7703 42.3269 23.7556C42.3719 24.0604 42.5258 24.3386 42.7602 24.5386C42.9946 24.7386 43.2935 24.8469 43.6016 24.8434H65.2092C65.5533 24.7783 65.8781 24.6357 66.1589 24.4264C66.4397 24.217 66.6691 23.9465 66.8297 23.6352C68.3438 23.7864 71.4889 23.8662 78.022 24.1007C79.5137 24.1539 80.5644 24.0307 81.4282 25.5861C82.0974 26.7894 82.1779 28.4953 82.313 30.1767C82.8296 36.6048 81.8734 33.0747 83.363 54.2119L84.203 53.3117C83.993 47.3778 83.643 41.1408 83.6626 36.3584C83.6703 34.5881 83.4225 27.6413 82.9577 26.3659C82.6339 25.1799 81.8655 24.1643 80.8122 23.5302C79.8207 23.1474 78.769 22.9443 77.7063 22.9303C66.2214 22.5677 47.8989 23.0003 32.8769 22.9149C30.9561 22.9037 28.5166 23.2649 27.2069 24.8357C25.8223 26.494 26.1394 29.1057 26.1114 31.2869C25.8776 49.5009 26.3529 64.5691 26.7568 82.0432C23.2295 82.3372 20.1999 84.0347 17.1843 86.3195C14.6402 88.3777 12.3128 90.6901 10.2382 93.2208C8.23651 95.6878 6.39232 98.2785 4.71659 100.978C3.95709 102.133 2.77129 102.355 4.08659 105.194C4.74602 106.523 5.55662 107.771 6.50229 108.914C5.51179 110.549 5.25559 111.493 5.94719 111.014C6.93419 110.332 9.49269 106.891 10.1472 105.222C13.9916 108.535 16.9806 111.963 21.2072 116.562C20.6268 117.34 20.11 118.163 19.6616 119.023C19.6763 119.008 19.7064 118.963 19.7218 118.948C18.8055 121.161 25.3008 113.636 27.1033 110.441C27.1033 123.128 26.8443 123.461 27.5681 124.931C28.7987 127.429 32.6543 126.611 34.8446 126.611C58.8546 126.611 68.6322 127.682 78.6093 125.996C80.9046 125.608 82.7393 125.263 83.2454 122.86C83.5002 121.644 83.3994 120.984 83.5457 113.558C86.7545 110.412 89.0918 105.934 90.7774 101.798C94.283 93.1879 95.4716 85.2016 95.2336 84.9041C94.8885 84.2223 89.4992 113.314 77.0623 116.114ZM21.5047 116.159C18.3935 112.104 14.9716 108.297 11.27 104.772C9.84339 103.467 8.34329 102.119 6.45399 101.531C6.21968 101.453 5.97849 101.398 5.73369 101.366C10.4503 94.1763 18.2063 83.803 26.7379 82.6571C26.9479 91.4771 27.1131 100.511 27.1285 109.648C26.5188 109.852 22.61 114.5 21.5047 116.159ZM82.3732 121.651C82.2388 124.381 80.9032 124.521 78.2474 124.967C74.8187 125.472 71.3605 125.753 67.8951 125.807C62.9188 125.909 60.6921 125.768 41.9251 125.552C43.1697 121.552 45.5217 116.324 47.0414 110.338C47.7015 110.834 48.9587 111.633 50.4623 112.604C53.1769 114.354 55.4323 115.666 58.3086 116.354C58.8699 116.489 59.4428 116.569 60.0194 116.595C60.4541 116.602 60.6795 116.564 60.6795 116.49C61.5041 116.474 62.5548 115.335 62.7494 114.659C65.2813 115.423 69.5772 116.521 72.5319 117.045C74.1031 117.398 75.7275 117.449 77.3178 117.194C79.2037 116.76 80.9582 115.881 82.4341 114.629C82.46 116.603 82.5167 118.746 82.3732 121.651Z" fill="#101828"/>
<path d="M96.3116 78.6053C96.2316 78.4956 96.1302 78.4032 96.0136 78.3336C95.897 78.264 95.7675 78.2188 95.6329 78.2005C95.4984 78.1823 95.3615 78.1915 95.2306 78.2275C95.0996 78.2635 94.9773 78.3256 94.871 78.41C94.451 78.7523 93.9414 79.1765 93.506 79.5657C93.3116 79.7371 93.193 79.9784 93.176 80.2369C93.1591 80.4955 93.2453 80.7502 93.4157 80.9454C93.8944 81.5144 94.4053 82.0554 94.9459 82.5659C95.0826 82.6959 95.2462 82.7942 95.4251 82.8538C95.604 82.9135 95.7939 82.933 95.9812 82.911C96.2448 82.89 96.5017 82.8168 96.7369 82.6958C96.972 82.5747 97.1808 82.4081 97.3511 82.2058C97.5214 82.0034 97.6498 81.7692 97.7288 81.5168C97.8079 81.2644 97.8361 80.9988 97.8117 80.7354C97.811 80.0165 97.1761 79.7624 96.3116 78.6053Z" fill="#101828"/>
<path d="M99.3422 61.88C95.9946 61.8671 92.6923 62.6541 89.7102 64.1753C86.8171 63.0819 84.5624 60.7495 82.8985 58.114C81.9185 56.5649 81.6637 56.4179 82.4183 58.1889C83.644 61.0004 85.7716 63.3233 88.4649 64.7906C80.1909 69.1705 81.7274 68.5986 77.2425 71.4819C75.6338 70.9148 74.3062 69.7485 73.5367 68.2262C72.5567 65.9421 72.2865 63.6349 72.0814 63.6349C71.9134 63.6349 72.0975 65.3716 72.1563 65.7055C72.117 65.7176 72.077 65.7276 72.0366 65.7356C71.6985 65.9493 71.424 66.2499 71.2418 66.606C71.0597 66.9622 70.9766 67.3607 71.0013 67.76C71.016 69.8292 72.9984 71.2845 74.3319 70.7903C75.1735 71.6546 76.2219 72.2898 77.3776 72.6355C81.3676 70.1113 83.8589 68.5013 86.4692 67.1146C86.8745 68.4495 87.7446 70.2646 87.9847 70.9107C88.5447 70.5838 87.7306 71.0367 86.9949 72.261C86.4206 73.117 86.1606 74.1455 86.2592 75.1716C86.374 75.7274 86.5392 75.7393 86.7093 75.2612C87.3267 73.5434 87.8335 72.5557 90.5054 70.2653C91.1998 69.65 91.984 69.1441 92.8308 68.7652C93.0709 68.6448 93.2361 68.5699 93.2361 68.495C93.2508 68.4201 93.1157 68.3445 92.8161 68.3151C92.2639 68.2976 91.715 68.4053 91.2103 68.6301C90.7903 67.5801 90.1904 65.8693 89.9951 65.3289C95.1219 62.937 97.3171 62.8502 99.2974 62.3287C100.272 62.0704 100.347 61.9073 99.3422 61.88ZM72.2466 66.276C72.3767 67.1177 72.598 67.9427 72.9067 68.7365C73.0998 69.1596 73.336 69.5616 73.6116 69.9363C72.9841 69.5894 72.5014 69.0293 72.2511 68.3574C72.0007 67.6855 71.9991 66.9462 72.2466 66.2732V66.276Z" fill="#101828"/>
<path d="M55.2606 124.65C55.7698 124.66 56.2621 124.446 56.6293 124.055C56.9965 123.665 57.2085 123.131 57.2186 122.57C57.2287 122.009 57.0362 121.467 56.6833 121.064C56.3305 120.661 55.8462 120.429 55.337 120.42C54.8279 120.411 54.3355 120.625 53.9684 121.015C53.6012 121.405 53.3892 121.94 53.379 122.501C53.3689 123.062 53.5614 123.603 53.9143 124.006C54.2672 124.409 54.7515 124.641 55.2606 124.65Z" fill="#101828"/>
<path d="M47.8054 67.4732C47.5796 67.5665 47.3987 67.7437 47.3008 67.9676C47.2029 68.1915 47.1956 68.4446 47.2804 68.6737C47.4134 69.2295 47.8656 69.604 48.2856 69.499C48.5112 69.4054 48.6918 69.2282 48.7897 69.0044C48.8875 68.7807 48.895 68.5277 48.8106 68.2985C48.6755 67.7287 48.2254 67.3682 47.8054 67.4732Z" fill="#101828"/>
<path d="M91.63 76.7001C89.8891 79.8501 90.1509 82.2784 90.7445 81.171C90.9692 80.751 91.294 79.9376 91.7798 78.9807C92.8298 76.9108 93.3898 75.529 95.4107 74.5707C95.6347 74.4643 95.7705 74.3908 95.7859 74.3159C95.8468 74.0086 94.1451 73.8812 92.7997 75.1713C92.3357 75.6197 91.9415 76.135 91.63 76.7001Z" fill="#101828"/>
<path d="M93.3857 71.2246C92.4985 71.3565 91.6666 71.736 90.9854 72.3194C87.6338 74.8681 87.512 79.1143 88.345 77.841C88.8182 77.1165 90.1587 73.921 93.4907 71.6747C93.8701 71.4213 93.9401 71.2393 93.3857 71.2246Z" fill="#101828"/>
<path d="M53.6119 58.036C51.2613 54.8958 34.2919 47.2903 29.051 62.957C26.7522 69.8275 31.5416 75.0348 36.1329 77.0599C35.8627 78.0805 35.0388 81.5014 34.9478 81.9361C34.7832 82.367 34.7517 82.8374 34.8575 83.2864C36.0124 84.8515 37.3245 86.2943 38.7733 87.5921C39.0421 87.8021 39.3284 88.0121 39.6133 88.2074C42.1627 89.9497 44.6862 90.3858 45.8097 89.8125C46.3655 89.529 46.425 89.1524 46.3949 89.123C46.3347 89.0775 46.0498 89.2427 45.9749 89.2875C45.2546 89.5731 43.6047 89.1377 43.5445 89.1076C42.4404 88.7154 41.3993 88.1646 40.454 87.4724C39.376 86.7024 35.953 82.8811 35.9376 82.8664C35.9376 82.8664 36.7482 78.4256 36.9281 77.3749C40.0039 78.4851 42.8081 78.0952 43.0643 75.725C43.3926 72.694 43.0342 69.4831 43.6796 67.2179C43.1427 67.7261 42.5687 68.4142 42.7045 67.6526C42.9306 66.3751 44.0877 65.5134 45.165 64.9226C46.4657 64.2648 47.9424 64.0387 49.3804 64.2772C49.5302 64.294 49.6807 64.322 49.8158 64.3374C50.2057 65.5827 50.6663 67.0051 51.0912 68.5528C51.2144 69.0022 51.4209 69.9934 51.4062 70.0088C50.9932 70.58 50.7923 71.2905 51.3761 70.9986C51.8017 70.7886 52.5395 70.1306 52.6963 70.3686C52.9288 70.7235 53.0346 71.1465 52.9966 71.5691C52.8774 72.1357 52.6535 72.6751 52.3365 73.1595C49.9957 73.5039 44.9501 74.4034 44.5798 76.67C44.5378 77.8514 44.8916 79.0131 45.585 79.9705C43.8945 79.3937 42.995 78.7343 42.8389 78.7854C42.764 78.8155 42.9908 79.1284 43.6789 79.6408C44.2323 80.0368 44.8256 80.3737 45.4492 80.646C45.2581 81.579 45.2226 82.5372 45.3442 83.4817C45.4247 84.3037 45.7196 85.0901 46.1996 85.7623C46.5041 86.1032 46.6497 86.0619 46.635 85.6419C46.4114 84.1975 46.3712 82.7306 46.5153 81.276C48.2856 83.5118 50.8063 85.3871 52.081 85.0119C53.6567 84.5478 53.8814 79.4987 53.8814 77.8551C53.9501 76.2053 53.7884 74.554 53.4012 72.9488C53.8503 72.5129 54.1147 71.9212 54.1399 71.2958C54.165 70.6705 53.9489 70.0594 53.5363 69.5888C53.4073 69.447 53.2448 69.3399 53.0637 69.2771C52.8826 69.2144 52.6886 69.1981 52.4996 69.2297C52.3701 69.2297 52.0677 67.7366 50.6992 64.1897C51.8864 63.4071 55.5964 60.6897 53.6119 58.036ZM47.5653 57.0903C44.2151 56.7403 38.8671 56.727 36.0426 58.5757C33.4708 60.2599 33.3665 62.397 32.922 62.3417C32.8023 62.3116 32.6658 62.0568 32.6371 61.5766C32.4355 58.2614 35.9971 56.062 38.8034 55.4866C41.2058 54.9966 45.0075 55.0526 47.4001 56.3721C47.6234 56.4953 48 56.8369 47.9405 57.0021C47.9251 57.0756 47.8096 57.1155 47.5653 57.0903ZM52.7264 77.8705C51.3012 78.1554 48.2401 75.3645 47.9706 74.8997C47.8054 74.6148 50.4612 74.8542 52.4716 74.2991C52.5164 74.5392 52.5465 74.7646 52.5766 75.0047C52.1174 75.2966 51.8668 75.4128 50.6558 75.2595C47.5821 74.8703 49.5645 76.3655 51.241 76.5048C51.4961 76.5411 51.756 76.5239 52.004 76.4541C52.2521 76.3843 52.4828 76.2635 52.6816 76.0995C52.7385 76.688 52.7535 77.2799 52.7264 77.8705Z" fill="#101828"/>
<path d="M49.0807 65.6882C48.9763 65.5221 48.8356 65.3819 48.6693 65.2779C48.503 65.1739 48.3153 65.1088 48.1203 65.0876C46.9667 64.8636 45.9762 65.7988 46.0651 66.4834C46.1582 67.2065 46.9632 66.3434 47.9404 66.1684C48.6033 66.0501 49.2571 66.1642 49.0807 65.6882Z" fill="#101828"/>
<path d="M105.689 43.7834C105.351 43.4747 104.519 42.8034 104.293 43.1982C103.774 44.3679 105.517 48.5882 107.399 49.9798C107.515 50.0659 107.648 50.1272 107.789 50.1597C107.981 49.9672 107.929 49.144 107.894 48.8696C107.802 48.1877 107.652 47.515 107.444 46.8592C107.197 46.0192 107.309 45.9142 107.699 46.484C107.579 46.1822 107.433 45.8911 107.264 45.6139C106.799 44.9547 106.271 44.3417 105.689 43.7834Z" fill="#DB80F2"/>
<path d="M114.796 53.4446C111.702 41.2296 102.649 29.7496 98.8771 31.375C98.599 31.4965 98.3565 31.6871 98.1727 31.9287C97.989 32.1703 97.87 32.4549 97.8271 32.7554C97.8873 32.2598 98.8477 31.7334 99.2831 31.69C100.865 31.5311 103.063 33.7417 104.113 34.9303C110.456 42.1207 116.093 56.7899 113.715 60.6462C112.008 63.4147 107.205 57.5725 106.273 56.4007C105.491 55.4116 104.803 54.4351 104.188 53.5048C105.49 52.6215 106.843 51.8149 108.239 51.0891C109.472 50.5158 108.632 47.9643 107.909 46.7834C107.37 45.9028 107.197 45.9217 107.459 46.873C107.783 47.8242 107.94 48.8243 107.924 49.8291C107.806 50.6397 106.98 49.6625 106.739 49.3937C105.733 48.216 104.996 46.8337 104.578 45.3428C104.298 44.7067 104.19 44.0086 104.263 43.3177C104.268 43.2822 104.28 43.2481 104.299 43.2177C104.318 43.1873 104.343 43.1613 104.373 43.1414C104.403 43.1215 104.436 43.1083 104.472 43.1024C104.507 43.0966 104.543 43.0984 104.578 43.1077C105.424 43.3023 106.562 44.7086 107.098 45.3876C107.722 46.1765 107.93 46.2346 107.533 45.2378C106.894 43.6334 105.008 41.2758 103.692 42.372L99.5218 44.9396C99.5071 45.5549 99.792 46.0799 100.182 47.2496C100.431 48.1077 100.757 48.9414 101.158 49.7402C103.182 53.8401 107.115 60.5783 111.329 62.2233C113.144 62.931 114.456 61.8348 115.006 60.1373C115.704 57.9785 115.35 55.6349 114.796 53.4446Z" fill="#101828"/>
<path d="M99.7175 62.207C103.187 61.7865 106.68 61.591 110.175 61.6218C106.501 59.3706 102.895 53.5963 101.145 49.5594C100.254 47.5063 99.7049 45.6737 99.0147 43.5583C99.1197 43.888 98.5303 44.5453 98.3546 44.7882C97.9696 45.3216 97.6168 45.897 97.2143 46.4234C95.3537 48.8559 91.8537 52.1228 88.9774 53.3254C88.0464 53.7139 88.0093 53.4381 88.6624 52.7101C90.0442 51.1701 95.185 47.0772 98.4442 41.6501C97.7224 38.927 97.4738 36.1001 97.7092 33.2928C97.7225 33.1577 93.6772 40.7226 91.993 43.2853C87.3222 50.3483 81.5357 56.6061 74.8591 61.8143C73.4374 62.914 72.5337 63.3599 72.4287 64.7102C72.7066 65.9075 73.0778 67.0813 73.5389 68.2207C74.3084 69.743 75.636 70.9094 77.2447 71.4764C77.4547 71.3266 77.6815 71.1796 77.9195 71.0263C81.6372 68.6358 82.8804 67.5781 88.4671 64.7851C85.7744 63.3171 83.647 60.9944 82.4205 58.1834C81.6659 56.4124 81.9228 56.5594 82.9007 58.1085C84.5541 60.7279 86.8144 63.0743 89.7124 64.1698C92.6937 62.6464 95.9965 61.8593 99.3444 61.8745C100.17 61.9046 100.258 62.0271 99.7175 62.207Z" fill="#DB80F2"/>
</svg>
