<svg width="140" height="140" viewBox="0 0 140 140" fill="none" xmlns="http://www.w3.org/2000/svg">
<path d="M107.548 107.506C107.464 107.193 107.27 106.922 107.002 106.741C106.733 106.559 106.409 106.481 106.088 106.519C105.653 106.519 90.6086 104.005 86.3477 102.098C81.9769 100.138 79.0474 98.632 76.5589 94.3221C76.4798 94.1639 76.2397 94.2038 76.2824 94.4012C76.7489 96.5875 77.7063 98.6391 79.0824 100.401C83.736 106.384 91.2071 108.954 98.6999 110.271C101.887 110.825 105.103 111.207 108.331 111.415C108.884 111.452 109.078 110.864 108.883 110.428C108.449 109.442 107.994 108.487 107.548 107.506Z" fill="#DB80F2"/>
<path d="M131.626 37.5623C131.276 37.2438 130.564 37.7163 130.956 38.0754C136.37 43.0384 130.84 59.0754 129.061 67.4054C127.248 75.8922 126.231 84.5694 124.285 92.9834C123.765 95.2311 120.618 102.902 118.916 103.483C118.788 103.523 118.671 103.594 118.577 103.691C118.483 103.788 118.415 103.907 118.38 104.037C118.344 104.167 118.342 104.304 118.374 104.435C118.406 104.566 118.47 104.687 118.561 104.786C119.29 105.711 120.013 106.648 120.771 107.549C120.901 107.673 121.067 107.752 121.245 107.773C121.423 107.795 121.603 107.757 121.758 107.667C125.706 105.417 126.798 100.521 127.837 96.4575C129.855 88.5258 132.215 77.8032 135.455 63.1823C136.418 59.0912 136.934 54.9079 136.995 50.7055C136.995 45.8923 135.28 40.8523 131.626 37.5623Z" fill="#DB80F2"/>
<path d="M116.351 105.533C115.721 104.903 112.991 106.01 113.153 106.283C113.345 106.602 115.603 109.989 116.035 110.27C116.143 110.346 116.266 110.396 116.396 110.417C116.526 110.437 116.659 110.428 116.785 110.388C116.864 110.388 118.837 109.954 118.837 109.128C118.837 108.77 116.625 105.769 116.351 105.533Z" fill="#DB80F2"/>
<path d="M111.142 105.966C110.862 105.773 110.59 106.085 110.629 106.361C111.302 107.86 112.053 109.322 112.879 110.742C112.971 110.88 113.109 110.98 113.269 111.024C113.428 111.067 113.598 111.051 113.747 110.979C113.892 110.894 113.998 110.755 114.042 110.593C114.087 110.431 114.066 110.258 113.984 110.111C113.476 109.399 111.493 106.209 111.142 105.966Z" fill="#DB80F2"/>
<path d="M29.0787 84.6919C36.0948 84.1445 43.0087 82.5009 49.9597 81.2969C51.814 80.9763 53.711 80.753 55.5646 80.4681C56.315 80.3533 56.1561 79.08 55.3672 79.1262C51.8958 79.435 48.4523 80.0022 45.0653 80.823C41.5506 81.5657 30.8154 83.665 29.0003 83.9807C28.6055 84.0997 28.6832 84.7227 29.0787 84.6919Z" fill="#DB80F2"/>
<path d="M37.805 89.3087C41.4772 88.9643 45.106 88.2678 48.739 87.8485C49.0939 87.8079 50.16 87.6511 49.7652 87.0988C49.5678 86.8223 48.8181 86.7859 48.5416 86.8223C44.9548 87.2955 41.1748 87.5279 37.6867 88.5982C37.3255 88.7081 37.3675 89.35 37.805 89.3087Z" fill="#DB80F2"/>
<path d="M33.8147 95.585C39.6289 94.8976 50.222 92.8179 55.7611 91.875C56.5094 91.7476 56.1972 90.5814 55.4454 90.7298C49.7376 91.8582 39.4889 93.4542 33.7755 94.9144C33.3408 94.9928 33.4199 95.662 33.8147 95.585Z" fill="#DB80F2"/>
<path d="M65.8269 98.2307C59.9063 98.5002 40.2972 102.286 24.0656 104.783C23.8591 100.527 23.4242 96.2838 22.7629 92.0735C20.203 74.3096 13.9527 51.1935 9.73729 39.5735C19.4743 33.5101 42.4231 31.5284 53.7883 30.3762C55.7679 39.1556 63.1025 63.4729 63.9327 89.1895C64.051 91.5576 63.7353 94.163 64.2484 96.4919C64.2894 96.633 64.375 96.7569 64.4925 96.8451C64.61 96.9333 64.7529 96.9809 64.8997 96.9809C65.0466 96.9809 65.1895 96.9333 65.307 96.8451C65.4244 96.7569 65.5101 96.633 65.5511 96.4919C66.0243 94.3604 65.7478 92.1519 65.6295 89.9819C65.3434 83.3499 64.7245 76.7363 63.7752 70.1663C61.594 54.8286 57.3352 38.1679 54.4995 30.1018C54.8936 29.6286 54.6969 28.7998 53.9465 28.8782C43.1189 29.924 17.2896 32.1906 9.02749 39.0982C8.83359 39.2606 8.90919 39.493 9.06669 39.6505C9.85629 42.9664 10.725 46.2823 11.6322 49.5975C11.593 49.6374 9.62949 52.6075 9.22489 53.15C8.83919 53.6701 7.13259 55.7946 7.05489 55.9136C6.46059 53.8248 5.82919 51.7731 5.07949 49.72C5.11869 49.6801 8.03979 44.7066 8.59279 41.2724C8.67119 40.7992 7.96279 40.7992 7.80319 41.1541C6.77139 43.6587 6.68319 44.6674 4.09319 48.8905C4.03535 48.981 4.00321 49.0855 4.00023 49.1928C3.99725 49.3001 4.02353 49.4062 4.07626 49.4997C4.12899 49.5933 4.20618 49.6707 4.29955 49.7237C4.39293 49.7766 4.49896 49.8032 4.60629 49.8005C5.22089 51.9509 7.21869 60.1031 9.18429 70.3231C13.0581 89.7747 14.7073 102.297 16.2109 110.19C15.9736 110.505 16.3292 111.018 16.6841 110.743C19.7179 108.467 21.8641 107.086 23.3551 105.65C30.0751 105.44 45.6186 102.332 57.2617 100.558C59.6592 100.197 62.0833 99.9177 64.4899 99.5838C63.0269 100.854 61.6199 102.212 60.2199 103.523C55.6104 103.645 30.4531 109.488 19.4099 110.505C19.1733 110.545 19.1733 110.866 19.4099 110.861C29.0321 110.613 38.4751 108.471 51.7772 105.887C54.601 105.346 57.5382 104.956 60.3298 104.16C60.3964 104.186 60.4686 104.195 60.5397 104.187C60.6108 104.178 60.6787 104.152 60.7372 104.111C62.6713 102.571 64.6054 101.071 66.4604 99.4529C66.9175 99.0721 66.3071 98.2027 65.8269 98.2307ZM7.29009 56.5877C7.56659 56.4694 11.7505 51.1802 12.0263 50.7854C12.5004 52.5639 12.9734 54.3398 13.4452 56.1131C13.0504 56.5863 8.86649 61.1258 8.51159 61.5206C8.31629 60.8115 7.52669 57.4956 7.29009 56.5877ZM8.67119 62.39C9.04009 62.39 13.5236 57.7357 13.7637 57.4564C14.2369 59.2323 14.6737 61.0089 15.1448 62.7848C15.0265 62.9031 10.1748 68.3897 10.053 68.5087C9.61899 66.4556 9.14509 64.4032 8.67119 62.39ZM10.2112 69.2976C10.4485 69.1401 15.2638 64.245 15.422 64.0084C15.4612 64.2058 16.2508 67.5217 16.6057 68.9819C15.7377 69.9689 12.1061 73.4822 11.2381 74.2711C10.9252 72.6135 10.5661 70.9531 10.2105 69.2976H10.2112ZM11.3956 75.0215C13.34 73.51 15.1736 71.861 16.8822 70.0872C17.1981 71.5082 17.5138 72.9292 17.8293 74.3502C16.843 75.2602 12.5793 79.1263 12.2643 79.442C11.9871 77.9818 11.7106 76.5216 11.3949 75.0215H11.3956ZM12.4617 80.429C12.9748 80.1133 17.277 76.3235 18.1058 75.5346C18.3431 76.7183 18.5797 77.8635 18.8163 79.0472C17.7901 79.995 14.0402 83.4292 13.1323 84.139C12.895 82.9154 12.6584 81.6526 12.461 80.429H12.4617ZM14.0801 89.6263C13.8428 88.3236 13.3297 85.2863 13.2905 85.0469C13.7245 84.8103 18.1457 81.0604 19.0536 80.1924C19.2902 81.4524 19.5667 82.6788 19.7641 83.9423C19.6843 83.9815 14.316 89.3498 14.0794 89.6263H14.0801ZM14.2376 90.4943C14.3559 90.376 19.2111 86.3104 20.0007 85.3234C20.1981 86.5078 20.3955 87.7314 20.5929 88.955C20.119 89.389 15.2638 94.1259 14.869 94.4808C14.6709 93.1389 14.4343 91.8362 14.2369 90.4943H14.2376ZM14.988 95.3887C16.1717 94.5599 20.5138 90.5734 20.7903 90.2577C20.8295 90.376 21.4609 94.7573 21.7003 96.8097C21.463 97.1254 17.0803 101.15 15.9764 102.296C15.8952 101.31 15.184 96.6522 14.9852 95.3887H14.988ZM22.6047 104.903C21.5393 105.732 17.5528 108.93 16.7632 109.758C16.6449 107.548 16.4076 105.337 16.1332 103.166C16.8038 102.614 21.3433 98.7452 21.9355 98.1929C22.0538 99.2583 22.4486 103.759 22.646 104.903H22.6047Z" fill="#101828"/>
<path d="M19.6834 44.5488C19.997 44.2997 20.3588 44.1184 20.7461 44.0164C21.1334 43.9145 21.5377 43.8941 21.9332 43.9566C22.8116 44.253 23.5542 44.8552 24.0255 45.6534C25.0517 46.9561 26.8675 48.4954 28.5251 47.1934C29.7487 46.2456 29.7851 44.6272 29.9853 43.2461C30.1827 41.9434 30.5775 40.1276 32.275 40.3642C35.1037 40.6967 35.4334 44.0511 37.959 45.0619C38.4738 45.2939 39.0526 45.342 39.5986 45.1983C40.1446 45.0546 40.6247 44.7277 40.9585 44.2723C42.0141 42.7771 40.9809 40.1843 42.8142 39.338C43.4195 39.1326 44.0652 39.0757 44.6971 39.1719C45.3289 39.2681 45.9284 39.5148 46.4451 39.891C48.3008 41.1937 49.2087 43.4036 50.9055 44.8645C51.0124 44.9595 51.1515 45.01 51.2944 45.0057C51.4373 45.0014 51.5731 44.9426 51.674 44.8414C51.775 44.7402 51.8334 44.6042 51.8373 44.4613C51.8412 44.3184 51.7904 44.1794 51.6951 44.0728C49.4061 41.3099 47.2347 37.0469 42.9325 37.9128C41.1167 38.2684 40.2879 39.6894 40.1325 41.4261C40.0534 42.0967 40.1717 43.2419 39.5403 43.7151C38.6303 44.3864 37.5271 43.2811 37.0539 42.6105C36.0669 41.2679 35.1989 39.9659 33.5805 39.2946C33.1399 39.0784 32.6575 38.9605 32.1668 38.9489C31.6761 38.9373 31.1887 39.0323 30.7383 39.2275C30.288 39.4226 29.8853 39.7132 29.5582 40.0791C29.231 40.4451 28.9872 40.8777 28.8436 41.347C28.6452 42.1501 28.5263 42.9707 28.4887 43.797C28.4887 44.8232 28.2913 46.6789 26.7513 46.2841C25.527 45.9775 24.8907 44.3353 23.5936 43.363C21.936 42.1786 19.5679 42.8107 18.3835 44.35C17.7518 45.2295 17.4355 46.2964 17.4856 47.378C17.5358 48.4596 17.9496 49.4927 18.66 50.3098C18.8966 50.5863 19.29 50.2314 19.1332 49.915C18.3443 48.2588 17.9859 45.8508 19.6834 44.5488Z" fill="#101828"/>
<path d="M85.4457 74.9804C87.972 74.6255 90.499 74.2286 93.0246 74.9412C95.1169 75.5313 97.0146 76.5512 99.1034 77.0727C102.789 77.9827 106.767 76.5232 109.879 76.9544C113.605 77.4703 117.038 80.1513 119.865 80.1513C119.989 80.1487 120.108 80.1025 120.202 80.0208C120.295 79.9391 120.356 79.8272 120.375 79.7046C120.394 79.5821 120.369 79.4568 120.305 79.3508C120.241 79.2448 120.141 79.1649 120.024 79.1251C118.966 78.7457 117.857 78.4832 116.826 78.0597C115.846 77.6551 114.85 77.1987 113.866 76.7962C107.514 74.1978 104.551 76.9467 99.8139 75.9674C94.7809 74.9272 93.3739 72.1643 85.4065 74.6255C85.0908 74.6619 85.2091 74.9804 85.4457 74.9804Z" fill="#DB80F2"/>
<path d="M84.3001 79.8366C86.5891 79.5153 88.8046 79.0967 91.1286 79.4817C93.3441 79.8478 95.232 80.9874 97.3257 81.6916C101.736 83.1749 106.419 80.7032 110.51 82.6016C112.184 83.5156 113.978 84.1931 115.839 84.6148C116.507 84.7948 117.199 84.8745 117.891 84.8514C118.008 84.8502 118.12 84.8068 118.207 84.7292C118.294 84.6516 118.349 84.5451 118.364 84.4295C118.378 84.3139 118.35 84.197 118.285 84.1004C118.22 84.0038 118.122 83.9342 118.009 83.9043C117.152 83.5977 116.469 83.7349 114.418 83.0755C110.956 81.9618 110.456 80.2755 104.668 80.7858C102.418 80.9853 100.087 81.3045 97.878 80.6283C95.708 79.9626 93.7739 78.767 91.4436 78.4177C89.037 78.0565 86.2734 78.102 84.1419 79.3277C83.787 79.4817 84.0236 79.8758 84.3001 79.8366Z" fill="#DB80F2"/>
<path d="M37.5252 58.6016C37.3677 59.9834 36.7755 64.7616 36.6152 65.7857C36.8518 65.7458 40.6808 64.8379 41.4305 64.6405C41.1568 64.1673 37.5651 58.6016 37.5252 58.6016Z" fill="#DB80F2"/>
<path d="M41.3534 50.1532C32.1169 49.0486 25.5236 53.6266 24.5387 61.8761C23.4313 71.1518 30.3844 76.2359 37.3277 77.1123C40.9295 77.574 44.5693 76.611 47.4714 74.4285C56.8276 67.376 53.0644 51.5539 41.3534 50.1532ZM43.0901 70.0472C43.0308 70.0572 42.97 70.0529 42.9127 70.0346C42.8554 70.0162 42.8034 69.9845 42.7609 69.9419C42.7184 69.8994 42.6867 69.8472 42.6685 69.7899C42.6502 69.7326 42.646 69.6717 42.6561 69.6125C42.7261 69.217 43.2497 69.1848 43.5248 69.0994C43.7628 69.0259 44.2745 68.7837 44.3137 68.4694C44.3137 68.2328 42.1437 65.6694 41.9848 65.3894C41.9064 65.2711 37.446 66.4548 36.5381 66.5339C36.5381 66.6522 35.7583 69.9184 36.1825 70.323C36.6466 70.7654 38.0382 70.0346 38.0382 70.876C38.042 70.9986 38.0054 71.119 37.9341 71.2188C37.8628 71.3185 37.7606 71.3921 37.6434 71.4283C36.8517 71.6992 33.4588 72.1388 32.9856 71.9022C32.7483 71.7839 32.63 71.4283 32.9065 71.31C33.617 71.0734 34.5291 71.2715 34.9197 68.8236C35.0394 68.0739 36.8167 54.0305 37.5244 53.8632C37.9997 53.7512 39.161 55.4298 39.7749 56.3132C40.5064 57.3632 44.2353 62.7868 45.3399 64.4444C46.0504 65.5105 46.8799 67.6245 48.3009 67.8786C49.3292 68.0634 49.6386 68.9216 48.4192 69.1421C46.6363 69.4613 44.8681 69.7819 43.0901 70.0472ZM44.0001 74.2311C42.4874 75.0956 39.3388 75.6192 36.4611 74.7834C36.4203 74.7714 36.3849 74.7454 36.3613 74.7099C36.3376 74.6745 36.3272 74.6318 36.3319 74.5895C36.3366 74.5471 36.356 74.5078 36.3868 74.4783C36.4176 74.4489 36.4578 74.4312 36.5003 74.4285C40.8095 74.4985 42.5203 73.48 43.5661 73.2441C43.6932 73.2056 43.83 73.2151 43.9505 73.2707C44.071 73.3263 44.167 73.4242 44.2202 73.5458C44.2734 73.6675 44.2802 73.8044 44.2393 73.9307C44.1983 74.0569 44.1125 74.1638 43.998 74.2311H44.0001ZM29.4331 68.6262C29.45 68.6631 29.4534 68.7048 29.4428 68.7441C29.4322 68.7833 29.4082 68.8176 29.375 68.841C29.3418 68.8644 29.3014 68.8755 29.2609 68.8723C29.2204 68.8691 29.1823 68.8519 29.1531 68.8236C27.8707 67.8219 27.5046 66.0593 27.3772 64.4836C27.2692 62.615 27.4963 60.7421 28.0478 58.9536C28.4978 57.3477 29.3862 55.8989 30.6133 54.7697C31.7655 53.712 33.1396 52.6186 34.758 52.5997C34.8029 52.5984 34.8467 52.6141 34.8806 52.6435C34.9145 52.673 34.9361 52.7141 34.9411 52.7588C34.9461 52.8034 34.9342 52.8483 34.9077 52.8846C34.8812 52.9208 34.842 52.9458 34.7979 52.9546C33.3553 53.5623 32.0722 54.4943 31.048 55.6783C30.0699 56.7539 29.3787 58.0588 29.0383 59.4723C28.6541 61.0364 28.4428 62.6381 28.4083 64.2484C28.393 65.7688 28.7445 67.2705 29.4331 68.6262ZM47.5904 58.1262C46.5975 56.0536 44.9262 54.3826 42.8535 53.39C42.6561 53.2717 42.8143 52.9952 43.0509 53.0743C45.1033 53.9423 47.0836 55.0826 48.3401 57.0209C49.7688 59.2266 50.6214 62.1589 50.0768 64.758C50.0543 64.8347 50.0075 64.9021 49.9434 64.95C49.8794 64.9979 49.8016 65.0238 49.7216 65.0238C49.6416 65.0238 49.5638 64.9979 49.4998 64.95C49.4357 64.9021 49.3889 64.8347 49.3663 64.758C49.0639 62.4798 48.467 60.2506 47.5904 58.1262Z" fill="#DB80F2"/>
<path d="M76.0108 78.3757C75.5768 82.204 74.6542 86.0337 74.9062 89.9012C74.9811 91.6101 75.4091 93.2849 76.1631 94.8202C76.9172 96.3555 77.9809 97.7181 79.2875 98.822C81.7375 100.827 84.9253 102.076 87.8919 103.162C94.1375 105.572 100.776 106.803 107.47 106.794C114.088 106.794 119.897 105.051 122.865 99.0937C124.82 95.1702 125.45 87.2636 128.509 72.292C131.704 56.6575 135.946 46.112 132.499 38.8194C131.24 36.2726 129.049 34.3079 126.38 33.3328C124.779 32.7382 123.128 32.289 121.446 31.9909C112.324 30.124 102.073 26.0367 92.5525 29.1097C90.9817 29.5603 89.5165 30.3194 88.2425 31.3427C86.9685 32.366 85.9112 33.6329 85.1325 35.0695C83.218 38.3966 82.2779 42.1724 81.5408 45.8852C79.7488 54.9103 77.3485 66.6367 76.7248 75.9236C76.68 76.5942 77.7146 76.5949 77.7909 75.9236C78.9557 65.6336 79.0684 63.99 81.3434 52.5555C84.0139 39.1344 84.6432 30.3494 97.645 29.1881C105.26 28.5084 112.562 31.1593 120.815 32.938C123.736 33.568 126.853 34.2015 129.183 36.2147C134.392 40.7157 132.713 48.8014 131.433 54.6478C130.63 58.3158 129.813 61.9502 128.946 65.5818C126.481 75.9019 125.616 83.1063 123.854 91.7912C123.014 95.9268 122.524 99.1111 119.472 102.054C115.174 106.202 108.58 106.061 103.013 105.606C96.4262 105.036 89.9883 103.33 83.9845 100.562C73.7106 95.8547 75.5068 88.8981 76.4455 78.3393C76.4847 78.0992 76.0108 78.0992 76.0108 78.3757Z" fill="#101828"/>
<path d="M106.483 47.8643C103.42 45.2043 98.4692 45.3744 98.1535 45.4962C97.9547 45.5732 94.9335 58.9593 94.7977 59.6271C94.6927 60.143 94.2461 62.348 94.9559 62.5083C95.9835 62.7414 100.127 63.6808 100.916 63.6927C103.653 63.7354 106.324 62.8254 107.076 60.1801C107.495 58.7249 107.369 57.1669 106.721 55.7981C106.406 55.2279 105.959 54.7409 105.419 54.3771C106.022 54.1163 106.55 53.708 106.954 53.1898C107.358 52.6716 107.625 52.0602 107.731 51.4117C107.837 50.7632 107.778 50.0985 107.56 49.4786C107.342 48.8588 106.972 48.3037 106.483 47.8643ZM99.7726 53.0751C99.97 52.0881 100.76 48.299 100.878 47.2329C102.117 47.4838 103.231 48.1528 104.036 49.1278C105.053 50.8302 103.599 52.5529 101.904 52.996C101.198 53.0924 100.484 53.1189 99.7726 53.0751ZM99.4968 54.6536C100.668 54.8567 101.8 55.2429 102.852 55.7981C103.475 56.2364 103.929 56.8756 104.137 57.6086C104.346 58.3416 104.296 59.1239 103.996 59.8245C103.491 61.2091 102.102 61.8034 100.68 61.8769C99.8688 61.9059 99.0573 61.8129 98.2732 61.6011C98.668 59.2722 99.0621 56.9433 99.4968 54.6536Z" fill="#DB80F2"/>
<path d="M119.35 50.9039C118.742 49.9102 118.084 48.9485 117.377 48.0227C116.821 47.2751 115.758 45.5356 115.64 45.3781C115.166 44.5885 113.784 44.4331 112.995 44.1937C106.772 42.3037 98.9779 40.5467 92.47 40.6811C92.4233 40.6826 92.3775 40.6949 92.3363 40.7171C92.295 40.7392 92.2595 40.7706 92.2324 40.8088C92.2053 40.8469 92.1874 40.8908 92.18 40.937C92.1727 40.9832 92.1761 41.0305 92.19 41.0752C91.3353 43.3544 89.7043 50.885 89.2297 53.1936C88.3932 57.2578 87.5497 61.4004 87.4531 65.5479C88.5241 67.0017 89.6704 68.3985 90.8873 69.7325C91.3337 70.1467 91.8085 70.5291 92.3083 70.877C92.897 71.2767 93.6166 70.3576 93.058 69.89C92.6282 69.5302 89.7428 67.048 89.3872 66.7323C90.5716 67.0879 91.7966 67.3161 92.9796 67.5611C94.6393 67.9048 105.334 69.1361 106.321 69.1795C107.15 69.2159 108.841 69.6527 108.966 68.7455C109.117 67.6395 99.8074 67.2104 98.0714 67.0088C96.4131 66.8156 88.7558 65.5479 88.7558 65.5479C89.1828 61.8491 89.2122 60.2041 90.4925 53.1936C91.9954 44.9658 92.449 43.7933 92.7031 41.3517C98.4789 41.9809 104.186 43.1303 109.755 44.7859C110.741 45.0659 111.727 45.3844 112.715 45.6546C113.339 45.9051 113.987 46.0902 114.65 46.2069C113.254 53.7606 112.223 60.1019 110.781 65.7453C110.467 66.6043 110.32 67.5155 110.347 68.4298C110.387 68.6272 112.642 71.9375 113.147 72.5346C113.254 72.6344 113.393 72.6926 113.539 72.6986C113.686 72.7047 113.829 72.6581 113.944 72.5673C114.058 72.4766 114.137 72.3478 114.165 72.2042C114.192 72.0606 114.168 71.9118 114.095 71.7849C113.858 71.4293 111.608 68.5873 111.411 68.3899C111.826 67.6846 112.107 66.9085 112.239 66.1009C112.477 65.1538 112.708 64.1654 112.911 63.219C113.331 61.2436 115.121 50.5091 115.476 47.0749C115.52 47.1449 117.983 51.0915 118.276 51.4961C118.316 51.5647 118.37 51.6245 118.434 51.6719C118.498 51.7192 118.571 51.7531 118.649 51.7716C118.726 51.79 118.806 51.7926 118.885 51.7792C118.963 51.7658 119.038 51.7366 119.105 51.6935C119.178 51.6635 119.244 51.6177 119.297 51.5594C119.35 51.5011 119.39 51.4318 119.413 51.3564C119.437 51.2809 119.443 51.2012 119.432 51.123C119.421 51.0448 119.393 50.97 119.35 50.9039Z" fill="#101828"/>
<path d="M95.944 35.7065C96.0995 35.807 96.2742 35.874 96.4571 35.9032C96.6146 35.9431 97.6415 36.1356 97.9572 36.1797C100.212 36.4989 100.68 36.2588 100.72 35.9431C100.735 35.7882 100.696 35.6329 100.609 35.5035C100.523 35.3741 100.395 35.2784 100.246 35.2326C99.1748 35.0535 98.0941 34.9348 97.0094 34.877C96.6362 34.888 96.2654 34.9411 95.9041 35.0352C95.8555 35.0781 95.8174 35.1314 95.7925 35.1913C95.7676 35.2511 95.7567 35.3158 95.7605 35.3805C95.7644 35.4452 95.7829 35.5082 95.8147 35.5646C95.8465 35.6211 95.8907 35.6696 95.944 35.7065Z" fill="#101828"/>
<path d="M107.075 37.2472C107.863 37.4166 110.233 37.803 110.588 37.8394C111.022 37.8828 111.572 38.0704 111.93 37.8394C112.007 37.79 112.072 37.7244 112.12 37.6473C112.168 37.5702 112.199 37.4834 112.211 37.3931C112.222 37.3027 112.213 37.211 112.185 37.1243C112.157 37.0377 112.111 36.9582 112.049 36.8916C111.602 36.389 107.819 36.3393 107.154 36.3393C106.68 36.2994 106.561 37.1359 107.075 37.2472Z" fill="#101828"/>
<path d="M117.536 38.9823C118.212 39.3687 121.681 40.5608 122.076 40.285C122.188 40.2174 122.275 40.1158 122.326 39.9951C122.376 39.8744 122.387 39.7408 122.356 39.6137C122.237 39.298 118.525 38.2137 117.736 38.2718C117.651 38.2691 117.568 38.295 117.499 38.3452C117.431 38.3954 117.381 38.4672 117.358 38.5489C117.335 38.6307 117.34 38.7178 117.372 38.7964C117.405 38.8749 117.462 38.9404 117.536 38.9823Z" fill="#101828"/>
<path d="M90.4969 88.5987C93.3907 89.4345 93.5531 89.0187 103.447 91.0487C104.533 91.2706 104.847 90.1737 104.236 89.8643C103.147 89.4419 102.005 89.1761 100.842 89.0747C97.2939 88.4524 93.1933 87.7895 90.5788 87.9694C90.5035 87.9735 90.432 88.0038 90.3768 88.055C90.3215 88.1063 90.2859 88.1753 90.2761 88.25C90.2664 88.3248 90.2832 88.4006 90.3235 88.4643C90.3638 88.528 90.4252 88.5755 90.4969 88.5987Z" fill="#101828"/>
<path d="M93.378 92.6248C94.6463 93.0221 95.9385 93.3384 97.2469 93.5719C97.7201 93.6909 98.3501 93.8085 98.5069 93.217C98.7414 92.3476 97.5598 92.2699 97.0068 92.1908C95.8367 91.9675 94.642 91.9012 93.4543 91.9934C93.3755 91.9925 93.2992 92.0208 93.2399 92.0727C93.1806 92.1247 93.1426 92.1966 93.1332 92.2749C93.1237 92.3531 93.1435 92.4321 93.1887 92.4967C93.2338 92.5612 93.3013 92.6069 93.378 92.6248Z" fill="#101828"/>
<path d="M85.2473 94.7958C86.9231 95.8563 97.0017 97.5692 98.9442 97.9143C101.628 98.391 104.273 98.9818 106.994 99.2562C107.783 99.336 107.94 98.0774 107.192 97.9143C103.514 97.1121 99.7716 96.6137 96.0616 95.941C94.3249 95.626 89.0721 94.6971 88.167 94.5592C87.2613 94.3533 86.3316 94.2737 85.4041 94.3226C85.3461 94.3161 85.2876 94.3298 85.2384 94.3613C85.1892 94.3928 85.1524 94.4402 85.134 94.4957C85.1157 94.5511 85.1169 94.6111 85.1375 94.6658C85.1581 94.7204 85.1969 94.7663 85.2473 94.7958Z" fill="#101828"/>
</svg>
