<svg width="120" height="120" viewBox="0 0 120 120" fill="none" xmlns="http://www.w3.org/2000/svg">
<g id="Analyze-Data-3--Streamline-Brooklyn">
<path id="Vector" d="M39.8496 25.3346C38.7324 26.381 34.3296 30.5462 33.0474 31.37C32.8674 31.151 30.1674 27.5132 30.1674 27.5132C30.1172 27.4438 30.0509 27.3876 29.9742 27.3495C29.8975 27.3114 29.8127 27.2925 29.727 27.2945C29.6414 27.2966 29.5575 27.3194 29.4827 27.361C29.4078 27.4027 29.3442 27.4619 29.2974 27.5336L23.2584 36.6452L19.4352 35.138C19.3403 35.0974 19.2345 35.0902 19.135 35.1176C19.0355 35.1449 18.9482 35.2052 18.8874 35.2886L10.5846 46.4756C10.5428 46.5313 10.5178 46.5978 10.5127 46.6673C10.5076 46.7368 10.5225 46.8063 10.5556 46.8675C10.5888 46.9288 10.6388 46.9792 10.6998 47.0129C10.7607 47.0466 10.8301 47.0621 10.8996 47.0576L39.2124 45.1196C39.3396 45.1106 39.4592 45.0556 39.5487 44.9648C39.6383 44.874 39.6917 44.7537 39.699 44.6264L40.761 25.76C40.7679 25.6516 40.742 25.5436 40.6866 25.4502C40.6312 25.3567 40.5489 25.2822 40.4505 25.2362C40.3521 25.1903 40.2421 25.1751 40.1349 25.1926C40.0277 25.2102 39.9282 25.2597 39.8496 25.3346Z" fill="#DB6704"/>
<path id="Vector_2" d="M43.2938 71.7238L5.6576 77.314C5.45751 77.3455 5.25294 77.3328 5.05831 77.2767C4.86368 77.2205 4.68375 77.1224 4.5312 76.9891C4.37865 76.8558 4.25721 76.6907 4.17545 76.5054C4.09368 76.3201 4.05359 76.1191 4.058 75.9165V21.757C4.07731 21.3913 4.22968 21.0454 4.4864 20.7844C4.61546 20.655 4.76941 20.5531 4.93894 20.4848C5.10847 20.4165 5.29008 20.3833 5.4728 20.3872C11.4596 20.4898 58.3784 21.2842 61.3994 21.3322C61.776 21.3476 62.1336 21.5016 62.4036 21.7646C62.6736 22.0276 62.8369 22.3811 62.8622 22.7572V53.6734C62.879 53.7726 62.9304 53.8626 63.0073 53.9276C63.0842 53.9925 63.1816 54.0281 63.2822 54.0281C63.3828 54.0281 63.4802 53.9925 63.5571 53.9276C63.634 53.8626 63.6854 53.7726 63.7022 53.6734V22.7572C63.7143 22.4483 63.664 22.1402 63.5544 21.8512C63.4448 21.5622 63.2781 21.2982 63.0642 21.0751C62.8504 20.8519 62.5938 20.6741 62.3097 20.5523C62.0256 20.4305 61.7199 20.3672 61.4108 20.3662C58.3964 20.3062 11.4782 19.4212 5.4908 19.3114C5.16574 19.3029 4.84233 19.3602 4.53991 19.4797C4.23749 19.5992 3.96229 19.7784 3.73077 20.0068C3.49925 20.2351 3.31618 20.5078 3.1925 20.8085C3.06883 21.1092 3.00709 21.4318 3.011 21.757C3.011 79.729 2.8958 76.147 3.251 76.9234C3.47161 77.3981 3.83985 77.7887 4.30075 78.0368C4.76164 78.285 5.29044 78.3775 5.8082 78.3004L43.4036 72.4366C43.497 72.4201 43.5804 72.3681 43.6363 72.2914C43.6922 72.2148 43.7164 72.1195 43.7036 72.0256C43.6892 71.9312 43.638 71.8464 43.5612 71.7898C43.4843 71.7332 43.3882 71.7095 43.2938 71.7238ZM80.8754 66.0039L76.1486 66.664C75.7862 66.7117 75.418 66.6415 75.0985 66.4639C74.779 66.2863 74.5251 66.0106 74.3744 65.6776C74.1464 65.1573 74.2544 66.5938 74.3054 48.3376C74.3052 47.9345 74.4578 47.5464 74.7325 47.2516C75.0072 46.9567 75.3836 46.777 75.7856 46.7488C98.8256 45.1828 97.8056 45.0766 98.4056 45.2896C98.737 45.4026 99.0255 45.6153 99.2315 45.8985C99.4374 46.1817 99.5509 46.5216 99.5564 46.8718L99.6044 50.8792C99.6044 50.9754 99.6426 51.0678 99.7107 51.1358C99.7788 51.2039 99.8711 51.2422 99.9674 51.2422C100.064 51.2422 100.156 51.2039 100.224 51.1358C100.292 51.0678 100.33 50.9754 100.33 50.8792C100.36 46.567 100.46 46.5202 100.186 45.8578C99.9785 45.3696 99.6247 44.9577 99.1736 44.6784C98.7225 44.3992 98.196 44.2662 97.6664 44.2978C95.5976 44.4214 78.5396 45.49 75.7172 45.6778C75.0413 45.7232 74.4078 46.0236 73.9449 46.5183C73.482 47.0129 73.2242 47.6649 73.2236 48.3424C73.2308 50.6512 73.2836 63.2698 73.2992 64.9822C73.3017 65.3529 73.3844 65.7187 73.5416 66.0545C73.6988 66.3902 73.9268 66.688 74.2099 66.9274C74.493 67.1668 74.8245 67.3421 75.1817 67.4413C75.5389 67.5405 75.9134 67.5613 76.2794 67.5022L80.9852 66.7222C81.0795 66.7074 81.164 66.6558 81.2203 66.5787C81.2765 66.5017 81.2999 66.4054 81.2852 66.3111C81.2707 66.2165 81.2196 66.1314 81.143 66.0739C81.0664 66.0165 80.9703 65.9914 80.8754 66.0039ZM97.9124 21.1336C73.8524 20.542 75.5696 20.4988 74.8946 20.7772C74.4091 20.972 73.9922 21.3063 73.6966 21.738C73.401 22.1696 73.2399 22.6792 73.2338 23.2024V39.9106C73.231 40.2718 73.3029 40.6297 73.4452 40.9617C73.5875 41.2937 73.797 41.5927 74.0605 41.8398C74.324 42.0869 74.6358 42.2768 74.9762 42.3974C75.3167 42.5181 75.6785 42.567 76.0388 42.541L98.0492 41.0476C98.7069 41.0134 99.3244 40.7206 99.7671 40.233C100.21 39.7455 100.442 39.1027 100.413 38.4448V23.593C100.382 22.9442 100.107 22.331 99.6435 21.8762C99.1799 21.4214 98.5616 21.1585 97.9124 21.1402V21.1336ZM97.9052 21.8596C98.3585 21.873 98.7888 22.0621 99.1052 22.387C99.3992 22.7179 99.5517 23.1508 99.53 23.593V38.4448C99.5012 38.8488 99.3292 39.2294 99.0451 39.5182C98.7609 39.807 98.3832 39.985 97.9796 40.0204L75.9596 41.4658C75.747 41.4773 75.5342 41.4459 75.334 41.3732C75.1338 41.3006 74.9504 41.1883 74.7946 41.0431C74.6389 40.8979 74.5141 40.7227 74.4276 40.5281C74.3412 40.3335 74.2949 40.1235 74.2916 39.9106C74.2916 21.6652 74.243 23.0044 74.405 22.5928C74.4866 22.3999 74.6055 22.2249 74.7547 22.078C74.904 21.9311 75.0808 21.8151 75.275 21.7366C75.7172 21.5626 73.9796 21.5986 97.9016 21.8668L97.9052 21.8596Z" fill="#191919"/>
<path id="Vector_3" d="M11.4128 46.1143C12.824 46.0045 39.1502 44.2369 39.1502 44.2369C39.1975 44.2323 39.2452 44.2372 39.2906 44.2513C39.336 44.2654 39.3781 44.2885 39.4145 44.3191C39.4508 44.3498 39.4806 44.3874 39.5022 44.4297C39.5238 44.4721 39.5367 44.5183 39.5402 44.5657C39.5482 44.6629 39.5174 44.7592 39.4545 44.8338C39.3917 44.9083 39.3019 44.9549 39.2048 44.9635L10.9124 47.2309C10.8387 47.237 10.7646 47.2274 10.6949 47.2025C10.6253 47.1777 10.5618 47.1383 10.5086 47.0869C10.3988 46.9843 10.4258 46.8403 10.4258 46.6897V25.7275C10.4258 25.5355 10.6796 25.3711 10.8716 25.3711C10.9666 25.3714 11.0578 25.4088 11.1256 25.4754C11.1934 25.542 11.2326 25.6325 11.2346 25.7275C11.2346 25.7275 11.4128 44.6071 11.4128 46.1143Z" fill="#191919"/>
<path id="Vector_4" d="M81.1003 55.9712C81.7003 55.8512 82.2403 54.2972 82.5403 53.6972C82.5808 53.6088 82.6544 53.5397 82.7453 53.505C82.8362 53.4703 82.9372 53.4728 83.0263 53.5118C83.07 53.5312 83.1095 53.5589 83.1425 53.5935C83.1754 53.6281 83.2013 53.6688 83.2185 53.7134C83.2357 53.758 83.244 53.8055 83.2428 53.8533C83.2416 53.9011 83.2311 53.9482 83.2117 53.9918C83.0109 54.7937 82.6995 55.5637 82.2865 56.2796C81.7999 56.9504 80.9509 57.314 80.3617 56.7248C79.8889 56.2652 79.7359 55.2344 79.0807 54.6764C78.8113 54.425 78.6007 54.4964 78.3133 54.7244C78.0976 54.9006 77.9002 55.098 77.7241 55.3136C77.1486 56.1339 76.7071 57.0404 76.4161 57.9992C76.4047 58.0458 76.3839 58.0896 76.355 58.1279C76.3261 58.1661 76.2897 58.1981 76.2481 58.2218C76.2064 58.2455 76.1603 58.2605 76.1126 58.2657C76.065 58.271 76.0167 58.2665 75.9709 58.2524C75.8809 58.2275 75.8041 58.1686 75.7567 58.0881C75.7094 58.0076 75.6952 57.9118 75.7171 57.821C75.8819 56.7 76.286 55.6275 76.9021 54.6764C78.2623 52.8626 79.7029 52.9742 80.8069 55.3754C80.8699 55.5893 80.9692 55.7909 81.1003 55.9712Z" fill="#DB6704"/>
<path id="Vector_5" d="M83.6404 24.4199C81.8656 24.467 80.1792 25.2052 78.9406 26.4772C77.7019 27.7492 77.0088 29.4545 77.0088 31.2299C77.0088 33.0054 77.7019 34.7107 78.9406 35.9827C80.1792 37.2546 81.8656 37.9928 83.6404 38.0399C84.514 38.0227 85.3755 37.8324 86.1751 37.48C86.9747 37.1276 87.6964 36.62 88.2985 35.9868C88.9006 35.3536 89.3711 34.6072 89.6828 33.7909C89.9945 32.9745 90.1412 32.1045 90.1144 31.2311C90.0394 27.6851 87.3898 24.4199 83.6404 24.4199ZM83.6404 36.9911C82.1453 36.9571 80.7247 36.3317 79.6899 35.252C78.6552 34.1722 78.0908 32.7263 78.1204 31.2311C78.1204 27.8483 80.8984 25.2659 83.9362 25.4711C83.8828 26.3969 83.6062 30.3155 83.572 31.1441C83.5713 31.2391 83.5956 31.3326 83.6425 31.4151C83.6894 31.4977 83.7573 31.5664 83.8393 31.6143C83.9213 31.6623 84.0144 31.6878 84.1094 31.6882C84.2044 31.6887 84.2978 31.6641 84.3802 31.6169C85.8832 30.6944 87.3365 29.693 88.7338 28.6169C90.5212 32.5127 87.7204 37.0241 83.6404 36.9881V36.9911Z" fill="#DB6704"/>
<path id="Vector_6" d="M44.8636 51.8592C44.8561 51.7624 44.811 51.6725 44.738 51.6086C44.665 51.5447 44.5699 51.5118 44.473 51.5172C44.473 51.5172 14.7418 53.4144 12.6004 53.565C12.099 53.6018 11.6293 53.8246 11.2835 54.1896C10.9376 54.5546 10.7406 55.0356 10.7308 55.5384C10.7104 56.9904 10.5508 71.7258 10.5508 71.7258C10.549 71.8212 10.5852 71.9135 10.6514 71.9823C10.7176 72.0511 10.8085 72.0908 10.9039 72.0927C10.9994 72.0945 11.0917 72.0583 11.1605 71.9921C11.2293 71.9259 11.269 71.835 11.2708 71.7396C11.2708 71.7396 11.5216 64.0398 11.6758 59.2254L15.3478 58.9902C15.1432 62.6976 14.9032 67.6248 14.9278 71.3244C14.9239 71.373 14.9299 71.4218 14.9452 71.4681C14.9606 71.5144 14.9852 71.5571 15.0174 71.5937C15.0496 71.6303 15.0888 71.66 15.1328 71.6811C15.1767 71.7023 15.2245 71.7143 15.2732 71.7166C15.3219 71.7189 15.3705 71.7114 15.4163 71.6945C15.462 71.6776 15.5039 71.6517 15.5394 71.6183C15.5749 71.5849 15.6034 71.5447 15.623 71.5C15.6427 71.4554 15.6532 71.4073 15.6538 71.3586C16.0384 67.5258 16.2538 62.8014 16.3948 58.9224C22.5862 58.524 38.0296 57.4002 39.361 57.273C39.1168 61.026 38.8852 64.773 38.8852 68.073C38.8807 68.1696 38.9145 68.2642 38.9793 68.3361C39.0441 68.408 39.1347 68.4514 39.2313 68.4568C39.328 68.4623 39.4229 68.4294 39.4954 68.3652C39.5679 68.3011 39.6121 68.2109 39.6184 68.1144C39.9214 64.8504 40.2058 61.365 40.4206 57.171C41.2432 57.09 41.713 57.0408 41.713 57.0408C41.8091 57.0331 41.8982 56.9878 41.961 56.9148C42.0238 56.8417 42.0552 56.7468 42.0484 56.6508C42.0454 56.6029 42.0329 56.5561 42.0115 56.5132C41.9902 56.4702 41.9605 56.432 41.9241 56.4007C41.8878 56.3694 41.8456 56.3457 41.8 56.3309C41.7543 56.3162 41.7062 56.3107 41.6584 56.3148C41.6584 56.3148 41.2234 56.3322 40.4584 56.3676C40.5034 55.3476 40.5256 53.5704 40.5286 52.5444L44.5192 52.2444C44.6159 52.2386 44.7063 52.1949 44.7708 52.1227C44.8354 52.0506 44.8687 51.9558 44.8636 51.8592ZM11.7004 58.4958C11.7478 57.0138 11.7826 55.9074 11.7922 55.5588C11.7971 55.3201 11.8914 55.092 12.0564 54.9194C12.2213 54.7469 12.445 54.6425 12.6832 54.627C13.0336 54.6036 14.1232 54.5232 15.7066 54.4062C15.6268 55.3296 15.4528 57.363 15.4 58.1316C15.3004 58.14 12.2404 58.44 11.7004 58.4958ZM39.4204 56.415C39.4834 56.415 24.0178 57.4506 16.4242 58.05C16.4446 57.3504 16.4656 54.7212 16.465 54.3498C22.351 53.9124 33.4768 53.0754 39.805 52.5984C39.7612 53.0238 39.4804 55.7526 39.4204 56.415Z" fill="#191919"/>
<path id="Vector_7" d="M44.6038 29.0884C45.209 29.1561 45.8195 29.1629 46.426 29.1088C47.3289 29.0908 48.2281 28.9875 49.1116 28.8004C49.2079 28.7986 49.2995 28.7586 49.3663 28.6892C49.4331 28.6198 49.4696 28.5268 49.4677 28.4305C49.4659 28.3342 49.4259 28.2426 49.3565 28.1758C49.2872 28.1091 49.1941 28.0726 49.0978 28.0744C48.7138 28.0264 48.3376 27.9718 47.947 27.958C47.1819 27.9629 46.4178 28.0131 45.6586 28.1086C45.2794 28.176 44.9043 28.2653 44.5354 28.3762C44.4883 28.3798 44.4424 28.3928 44.4005 28.4145C44.3585 28.4363 44.3214 28.4662 44.2913 28.5026C44.2613 28.5391 44.2388 28.5812 44.2254 28.6265C44.212 28.6717 44.2078 28.7193 44.2132 28.7662C44.2241 28.86 44.2709 28.9459 44.3437 29.0059C44.4165 29.066 44.5097 29.0955 44.6038 29.0884Z" fill="#191919"/>
<path id="Vector_8" d="M54.6916 28.6364C55.5537 28.7082 56.4205 28.7012 57.2812 28.6154C57.868 28.5909 58.4508 28.5083 59.0212 28.3688C59.1155 28.3595 59.2026 28.3142 59.2642 28.2422C59.3259 28.1702 59.3573 28.0772 59.3519 27.9826C59.3466 27.888 59.3049 27.7991 59.2355 27.7346C59.1662 27.67 59.0746 27.6348 58.9798 27.6362C58.4233 27.5593 57.8615 27.5272 57.2998 27.5402C56.3844 27.5109 55.4709 27.6406 54.5998 27.9236C54.5505 27.9263 54.5024 27.9391 54.4583 27.9613C54.4141 27.9834 54.3751 28.0144 54.3434 28.0523C54.3118 28.0902 54.2883 28.1342 54.2744 28.1815C54.2605 28.2289 54.2564 28.2786 54.2625 28.3275C54.2686 28.3765 54.2847 28.4237 54.3098 28.4662C54.335 28.5087 54.3685 28.5455 54.4085 28.5745C54.4485 28.6035 54.4939 28.6239 54.5421 28.6346C54.5903 28.6452 54.6402 28.6458 54.6886 28.6364H54.6916Z" fill="#191919"/>
<path id="Vector_9" d="M43.8514 33.3561C44.3389 33.4425 44.8306 33.5042 45.3244 33.5409C46.3109 33.58 47.2988 33.5639 48.2836 33.4929C48.7768 33.4455 49.2634 33.3561 49.75 33.2739C49.7979 33.2715 49.8449 33.2597 49.8882 33.2391C49.9315 33.2185 49.9703 33.1895 50.0024 33.1538C50.0345 33.1181 50.0592 33.0765 50.0751 33.0312C50.091 32.9859 50.0977 32.938 50.095 32.8901C50.0923 32.8422 50.0801 32.7953 50.0592 32.7521C50.0382 32.7089 50.0089 32.6703 49.973 32.6385C49.9371 32.6067 49.8952 32.5823 49.8499 32.5668C49.8045 32.5512 49.7564 32.5448 49.7086 32.5479C48.2511 32.436 46.7878 32.4222 45.3286 32.5065C44.9308 32.5179 44.038 32.6229 43.8694 32.6367C43.7739 32.634 43.6812 32.6693 43.6118 32.7349C43.5424 32.8005 43.5019 32.891 43.4992 32.9865C43.4965 33.082 43.5318 33.1746 43.5974 33.2441C43.663 33.3135 43.7535 33.354 43.849 33.3567L43.8514 33.3561Z" fill="#DB6704"/>
<path id="Vector_10" d="M53.4144 32.9549C54.0046 33.0473 54.5992 33.109 55.1958 33.1397C56.3795 33.1719 57.564 33.1398 58.7442 33.0437C59.34 32.9891 59.9226 32.8931 60.5046 32.8109C60.5534 32.8102 60.6015 32.7997 60.6461 32.7801C60.6907 32.7604 60.7309 32.732 60.7643 32.6965C60.7977 32.661 60.8236 32.6191 60.8405 32.5733C60.8574 32.5276 60.865 32.4789 60.8627 32.4302C60.8604 32.3815 60.8483 32.3338 60.8272 32.2898C60.8061 32.2459 60.7763 32.2067 60.7397 32.1744C60.7031 32.1422 60.6604 32.1177 60.6142 32.1023C60.5679 32.0869 60.519 32.081 60.4704 32.0849C60.0456 32.0645 59.6208 32.0369 59.196 32.0303C58.0782 32.0027 54.756 32.1287 54.6132 32.1395C54.2226 32.1671 53.8332 32.2085 53.4348 32.2355C53.3393 32.2328 53.2467 32.2681 53.1772 32.3337C53.1078 32.3993 53.0673 32.4898 53.0646 32.5853C53.0619 32.6808 53.0972 32.7734 53.1628 32.8429C53.2284 32.9123 53.3189 32.9528 53.4144 32.9555V32.9549Z" fill="#DB6704"/>
<path id="Vector_11" d="M45.3427 38.905C45.5515 38.9248 45.9271 38.9806 46.2061 38.9806C46.4851 38.9806 47.5687 38.9206 47.9119 38.8708C48.2059 38.83 48.4801 38.7544 48.7681 38.6908C48.8629 38.6856 48.952 38.6438 49.0167 38.5743C49.0813 38.5047 49.1164 38.4128 49.1146 38.3178C49.1129 38.2229 49.0743 38.1323 49.0071 38.0653C48.9399 37.9982 48.8493 37.9598 48.7543 37.9582C47.8857 37.7935 46.9943 37.7888 46.1239 37.9444C45.8316 38.0011 45.5449 38.0837 45.2671 38.191C45.2167 38.1911 45.1669 38.2019 45.121 38.2225C45.075 38.2431 45.0338 38.2731 45.0002 38.3106C44.9665 38.3481 44.9412 38.3923 44.9257 38.4403C44.9102 38.4882 44.9049 38.5389 44.9102 38.589C44.9155 38.6391 44.9313 38.6875 44.9565 38.7311C44.9818 38.7748 45.0158 38.8126 45.0566 38.8422C45.0974 38.8719 45.1439 38.8926 45.1932 38.9031C45.2425 38.9136 45.2934 38.9136 45.3427 38.9032V38.905Z" fill="#191919"/>
<path id="Vector_12" d="M42.4436 43.5921C42.9236 43.6137 43.3526 43.6521 44.2382 43.6329C45.1088 43.6131 46.9598 43.4529 47.8076 43.3251C48.3968 43.2357 48.9788 43.0989 49.568 42.9753C49.6642 42.9625 49.7515 42.9121 49.8106 42.835C49.8697 42.7579 49.8957 42.6605 49.883 42.5643C49.8702 42.468 49.8198 42.3807 49.7427 42.3216C49.6656 42.2626 49.5682 42.2365 49.472 42.2493C48.0528 42.2609 46.6351 42.3455 45.2246 42.5025C44.2782 42.571 43.3366 42.6946 42.4046 42.8727C42.3574 42.8758 42.3112 42.8882 42.2688 42.9091C42.2264 42.9301 42.1886 42.9592 42.1574 42.9948C42.1263 43.0304 42.1024 43.0718 42.0873 43.1167C42.0722 43.1615 42.066 43.2089 42.0692 43.2561C42.0716 43.3027 42.0833 43.3484 42.1034 43.3906C42.1236 43.4328 42.1519 43.4705 42.1866 43.5018C42.2214 43.533 42.262 43.557 42.3061 43.5725C42.3502 43.588 42.3969 43.5946 42.4436 43.5921Z" fill="#DB6704"/>
<path id="Vector_13" d="M55.4718 38.4342C55.7029 38.5002 55.9388 38.5482 56.1774 38.5776C56.6537 38.6166 57.1323 38.619 57.609 38.5848C57.8538 38.5461 58.0962 38.4934 58.335 38.427C58.384 38.4271 58.4326 38.4173 58.4778 38.3983C58.523 38.3792 58.5639 38.3513 58.5981 38.3162C58.6324 38.2811 58.6592 38.2394 58.677 38.1937C58.6949 38.148 58.7033 38.0992 58.702 38.0502C58.7006 38.0012 58.6894 37.9529 58.6691 37.9083C58.6487 37.8637 58.6196 37.8236 58.5835 37.7904C58.5474 37.7572 58.505 37.7316 58.4588 37.7151C58.4126 37.6987 58.3635 37.6916 58.3146 37.6944C57.7601 37.5519 57.1869 37.4965 56.6154 37.53C56.2215 37.5209 55.8294 37.5835 55.458 37.7148C55.3623 37.7184 55.2717 37.7589 55.2053 37.8278C55.1388 37.8967 55.1017 37.9887 55.1016 38.0844C55.1053 38.1795 55.1462 38.2694 55.2153 38.3348C55.2845 38.4002 55.3766 38.4359 55.4718 38.4342Z" fill="#191919"/>
<path id="Vector_14" d="M53.0836 43.2266C53.6068 43.2386 54.124 43.2716 54.913 43.2542C56.7451 43.2423 58.5725 43.0658 60.373 42.7268C60.468 42.7149 60.5546 42.6665 60.6144 42.5918C60.6743 42.5171 60.7028 42.4221 60.6938 42.3268C60.6849 42.2315 60.6392 42.1435 60.5664 42.0813C60.4936 42.0191 60.3995 41.9877 60.304 41.9936C58.848 41.9552 57.3909 42.001 55.9402 42.131C54.9615 42.1848 53.9883 42.313 53.029 42.5144C52.9818 42.5166 52.9354 42.5285 52.8929 42.5492C52.8504 42.57 52.8126 42.5992 52.7818 42.6351C52.751 42.671 52.7279 42.7129 52.7138 42.758C52.6998 42.8032 52.6952 42.8508 52.7002 42.8978C52.7082 42.992 52.7529 43.0792 52.8246 43.1408C52.8963 43.2023 52.9893 43.2331 53.0836 43.2266Z" fill="#DB6704"/>
<path id="Vector_15" d="M13.0977 61.1187C12.9697 61.5032 12.9818 61.9206 13.1319 62.2971C13.2633 62.7879 13.7505 62.7705 13.8585 62.2767C13.9753 61.8925 13.9608 61.4804 13.8171 61.1055C13.7511 60.9177 13.6527 60.7455 13.4541 60.7491C13.2555 60.7527 13.1481 60.9267 13.0977 61.1187Z" fill="#191919"/>
<path id="Vector_16" d="M21.7315 62.1328C24.4063 61.822 27.5227 61.5928 32.2057 60.667C32.3028 60.6523 32.3902 60.6001 32.4492 60.5215C32.5081 60.4429 32.5338 60.3444 32.5207 60.247C32.506 60.1522 32.4548 60.0668 32.378 60.0092C32.3012 59.9515 32.2049 59.9262 32.1097 59.9386C30.3937 60.0772 30.7633 59.9956 28.0543 60.2884C25.8725 60.4797 23.7112 60.8579 21.5941 61.4188C21.5018 61.44 21.4212 61.4958 21.3689 61.5748C21.3167 61.6538 21.2967 61.7498 21.3133 61.843C21.3313 61.9364 21.3851 62.0191 21.4633 62.0733C21.5415 62.1274 21.6377 62.1488 21.7315 62.1328Z" fill="#191919"/>
<path id="Vector_17" d="M20.4599 67.3139C20.5199 67.3139 21.1307 67.3241 21.3917 67.3001C22.3136 67.2227 23.2225 67.0319 24.0977 66.7319C24.194 66.7201 24.2817 66.6704 24.3415 66.5939C24.4012 66.5174 24.4281 66.4203 24.4163 66.3239C24.4044 66.2276 24.3548 66.1399 24.2783 66.0801C24.2018 66.0204 24.1046 65.9935 24.0083 66.0053C23.6915 65.9817 23.3736 65.9749 23.0561 65.9849C22.4332 66.0384 21.815 66.1369 21.2063 66.2795C20.9033 66.3717 20.606 66.4814 20.3159 66.6083C20.2235 66.6295 20.1428 66.6854 20.0905 66.7645C20.0382 66.8436 20.0184 66.9398 20.0351 67.0331C20.0445 67.0795 20.063 67.1235 20.0895 67.1627C20.1159 67.2019 20.1499 67.2355 20.1893 67.2615C20.2288 67.2876 20.273 67.3057 20.3194 67.3147C20.3658 67.3236 20.4136 67.3234 20.4599 67.3139Z" fill="#191919"/>
<path id="Vector_18" d="M49.0861 59.423C52.2967 59.3462 55.1893 58.7252 58.3615 58.223C58.4089 58.2196 58.4552 58.2067 58.4976 58.1852C58.54 58.1636 58.5777 58.1338 58.6084 58.0974C58.6391 58.0611 58.6622 58.019 58.6764 57.9735C58.6905 57.9281 58.6955 57.8803 58.6909 57.833C58.683 57.7368 58.6376 57.6477 58.5645 57.5848C58.4914 57.5219 58.3965 57.4903 58.3003 57.497C57.5395 57.5108 56.7865 57.5312 56.0329 57.593C53.6753 57.8448 51.3322 58.2175 49.0129 58.7096C48.9624 58.7096 48.9126 58.7203 48.8666 58.7408C48.8205 58.7614 48.7793 58.7914 48.7456 58.8289C48.7119 58.8664 48.6864 58.9105 48.6709 58.9585C48.6553 59.0064 48.65 59.0571 48.6553 59.1073C48.6606 59.1574 48.6763 59.2059 48.7015 59.2495C48.7267 59.2932 48.7608 59.3311 48.8016 59.3607C48.8424 59.3904 48.8889 59.4111 48.9383 59.4216C48.9876 59.4322 49.0385 59.4322 49.0879 59.4218L49.0861 59.423Z" fill="#DB6704"/>
<path id="Vector_19" d="M45.9856 64.8518C49.288 64.4303 52.5667 63.8403 55.8088 63.0842C55.9035 63.0674 55.9876 63.0138 56.0428 62.9351C56.098 62.8564 56.1198 62.759 56.1034 62.6642C56.0861 62.5685 56.0319 62.4834 55.9524 62.4273C55.873 62.3712 55.7746 62.3485 55.6786 62.3642C53.6272 62.594 53.8984 62.5064 51.8698 62.8304C49.8211 63.0906 47.7993 63.5307 45.8278 64.1456C45.7342 64.1666 45.6527 64.2238 45.6013 64.3049C45.5498 64.3859 45.5327 64.484 45.5536 64.5776C45.5746 64.6713 45.6318 64.7528 45.7128 64.8042C45.7939 64.8556 45.892 64.8728 45.9856 64.8518Z" fill="#DB6704"/>
<path id="Vector_20" d="M52.4439 67.2604C53.6379 67.186 54.8257 67.0327 55.9995 66.8014C56.7937 66.6823 57.5788 66.5085 58.3491 66.2812C58.4424 66.2642 58.5255 66.2117 58.5809 66.1348C58.6364 66.0579 58.66 65.9625 58.6468 65.8686C58.6335 65.7747 58.5844 65.6896 58.5098 65.631C58.4352 65.5725 58.3408 65.5451 58.2465 65.5546C57.238 65.5636 56.232 65.6576 55.2393 65.8354C54.2332 65.9632 53.2449 66.2048 52.2933 66.5554C52.1997 66.5753 52.1179 66.6317 52.0658 66.712C52.0138 66.7922 51.9958 66.8899 52.0158 66.9835C52.0357 67.077 52.0921 67.1588 52.1723 67.2109C52.2526 67.2629 52.3503 67.2809 52.4439 67.261V67.2604Z" fill="#DB6704"/>
<path id="Vector_21" d="M93.065 27.9067C93.3524 27.9633 93.6429 28.0034 93.935 28.0267C94.5223 28.0491 95.1105 28.0309 95.6954 27.9721C95.9935 27.9227 96.2886 27.8564 96.5792 27.7735C96.6763 27.765 96.7661 27.7183 96.8289 27.6438C96.8918 27.5693 96.9225 27.4729 96.9146 27.3757C96.9107 27.3278 96.8972 27.2812 96.875 27.2386C96.8528 27.196 96.8223 27.1582 96.7853 27.1276C96.7483 27.0969 96.7055 27.074 96.6595 27.0602C96.6135 27.0463 96.5652 27.0418 96.5174 27.0469C95.8299 26.9275 95.1299 26.8977 94.4348 26.9581C93.9582 26.9639 93.4851 27.0401 93.0308 27.1843C92.9833 27.1859 92.9367 27.197 92.8936 27.2169C92.8505 27.2369 92.8118 27.2652 92.7799 27.3004C92.7479 27.3355 92.7234 27.3767 92.7076 27.4215C92.6919 27.4663 92.6853 27.5137 92.6882 27.5611C92.69 27.6086 92.7013 27.6553 92.7212 27.6984C92.7412 27.7416 92.7695 27.7803 92.8046 27.8124C92.8396 27.8446 92.8806 27.8694 92.9253 27.8856C92.97 27.9018 93.0175 27.909 93.065 27.9067Z" fill="#191919"/>
<path id="Vector_22" d="M93.0794 31.5332C93.5211 31.6571 93.9904 31.6403 94.4222 31.4852C94.9022 31.3694 94.9052 30.857 94.4012 30.7592C93.9546 30.6529 93.4872 30.6737 93.0518 30.8192C92.8616 30.8792 92.7026 30.9836 92.7092 31.1894C92.7158 31.3952 92.885 31.4906 93.0794 31.5332Z" fill="#DB6704"/>
<path id="Vector_23" d="M92.5166 35.6998C93.444 35.7824 94.3767 35.7868 95.3048 35.713C95.9324 35.6952 96.5576 35.6288 97.175 35.5144C97.2724 35.5113 97.3647 35.4701 97.432 35.3996C97.4993 35.3291 97.5363 35.2351 97.535 35.1376C97.5326 35.0416 97.4925 34.9504 97.4233 34.8838C97.3541 34.8172 97.2614 34.7805 97.1654 34.7818C96.3847 34.6525 95.5922 34.6089 94.802 34.6516C94.0018 34.6444 93.2051 34.7574 92.4386 34.987C92.3884 34.9875 92.3389 34.9985 92.2932 35.0192C92.2476 35.0399 92.2067 35.07 92.1733 35.1074C92.14 35.1449 92.1148 35.1889 92.0994 35.2366C92.084 35.2843 92.0788 35.3348 92.084 35.3847C92.0893 35.4346 92.1049 35.4828 92.1299 35.5263C92.1548 35.5698 92.1886 35.6076 92.2291 35.6373C92.2695 35.6669 92.3157 35.6878 92.3647 35.6986C92.4137 35.7094 92.4644 35.7098 92.5136 35.6998H92.5166Z" fill="#DB6704"/>
<path id="Vector_24" d="M86.3888 68.9258C86.679 69.0846 87.0146 69.1401 87.3404 69.083C87.7973 68.9431 88.1937 68.6534 88.4658 68.2607C88.7379 67.868 88.8699 67.3951 88.8404 66.9182C88.849 66.8708 88.848 66.8223 88.8375 66.7753C88.827 66.7284 88.8071 66.684 88.7792 66.6448C88.7512 66.6057 88.7157 66.5725 88.6747 66.5473C88.6337 66.5222 88.588 66.5055 88.5404 66.4982C88.4452 66.4823 88.3476 66.5043 88.2683 66.5593C88.1889 66.6143 88.1342 66.6981 88.1157 66.7928C87.9329 67.1542 87.7073 67.4922 87.4437 67.7996C87.3182 67.9417 87.161 68.0522 86.9847 68.1218C86.8642 68.1869 86.7308 68.2242 86.5941 68.231C86.5014 68.2053 86.4023 68.2167 86.3179 68.2627C86.2335 68.3087 86.1703 68.3858 86.1417 68.4776C86.1282 68.5233 86.1239 68.5711 86.1291 68.6185C86.1342 68.6658 86.1487 68.7116 86.1717 68.7533C86.1947 68.795 86.2257 68.8317 86.263 68.8613C86.3003 68.8909 86.343 68.9128 86.3888 68.9258Z" fill="#191919"/>
<path id="Vector_25" d="M88.0603 61.112C88.3003 61.472 88.0603 62.057 87.5203 62.4134C86.9803 62.7698 86.3557 62.7698 86.1163 62.4134C85.8769 62.057 86.1163 61.475 86.6503 61.112C87.1843 60.749 87.8221 60.7544 88.0603 61.112Z" fill="#191919"/>
<path id="Vector_26" d="M70.5281 67.504C70.9403 67.9963 71.2834 68.5425 71.5481 69.1276C72.1013 70.285 72.3668 71.5589 72.3221 72.841C72.3273 73.4943 72.263 74.1464 72.1301 74.7862C72.1158 74.8325 72.1108 74.8812 72.1155 74.9294C72.1202 74.9777 72.1345 75.0245 72.1574 75.0672C72.1803 75.1099 72.2115 75.1476 72.2492 75.1782C72.2868 75.2087 72.3302 75.2315 72.3767 75.2452C72.4226 75.2593 72.4708 75.2641 72.5186 75.2593C72.5663 75.2545 72.6127 75.2401 72.6548 75.2172C72.697 75.1942 72.7341 75.163 72.764 75.1255C72.7939 75.0879 72.8161 75.0448 72.8291 74.9986C73.0984 74.3248 73.2736 73.6171 73.3499 72.8956C73.4756 71.4239 73.1684 69.9475 72.4661 68.6482C72.0974 68.0061 71.6085 67.441 71.0261 66.9838C70.9571 66.9177 70.8647 66.8818 70.7692 66.8839C70.6737 66.886 70.583 66.9259 70.517 66.9949C70.4509 67.0638 70.415 67.1562 70.4171 67.2517C70.4192 67.3472 70.4591 67.4379 70.5281 67.504Z" fill="#191919"/>
<path id="Vector_27" d="M73.343 68.351C73.463 68.531 73.7102 69.0842 73.7474 69.1592C74.0073 69.7025 74.2005 70.2753 74.3228 70.865C74.3984 71.18 74.4944 71.4812 74.5418 71.783C74.5428 71.8802 74.5823 71.9731 74.6518 72.0411C74.7212 72.1092 74.8148 72.1469 74.912 72.146C75.0093 72.145 75.1021 72.1055 75.1702 72.0361C75.2383 71.9666 75.276 71.873 75.275 71.7758C75.3295 71.4223 75.3496 71.0645 75.335 70.7072C75.2621 69.9745 75.0257 69.2675 74.6432 68.6384C74.4351 68.329 74.1705 68.0618 73.8632 67.8506C73.7966 67.7813 73.7054 67.741 73.6093 67.7384C73.5132 67.7358 73.4199 67.7712 73.3496 67.8368C73.315 67.8699 73.2873 67.9095 73.2682 67.9534C73.2491 67.9973 73.2389 68.0446 73.2383 68.0925C73.2377 68.1404 73.2466 68.1879 73.2646 68.2323C73.2826 68.2767 73.3093 68.317 73.343 68.351Z" fill="#191919"/>
<path id="Vector_28" d="M75.9054 68.4652C75.9282 68.5498 76.0152 69.0718 76.0428 69.1912C76.0908 69.4246 76.1454 69.6574 76.1862 69.8968C76.227 70.1362 76.2414 70.3834 76.2822 70.6234C76.3164 70.8904 76.3854 71.1304 76.4124 71.3836C76.4061 71.4808 76.4386 71.5766 76.5028 71.6499C76.5671 71.7231 76.6578 71.7678 76.755 71.7742C76.8523 71.7806 76.948 71.748 77.0213 71.6838C77.0945 71.6195 77.1393 71.5288 77.1456 71.4316C77.2252 71.157 77.2802 70.8759 77.31 70.5916C77.3253 70.008 77.23 69.4268 77.0292 68.8786C76.9028 68.6061 76.739 68.3524 76.5426 68.125C76.4972 68.0405 76.4201 67.9775 76.3282 67.9499C76.2363 67.9223 76.1372 67.9323 76.0527 67.9777C75.9682 68.0231 75.9052 68.1003 75.8776 68.1921C75.85 68.284 75.86 68.3831 75.9054 68.4676V68.4652Z" fill="#191919"/>
<path id="Vector_29" d="M79.32 74.5689C80.4156 75.2361 81.8772 75.9561 83.22 76.9395C83.3007 76.9917 83.3576 77.0737 83.3782 77.1677C83.3988 77.2616 83.3814 77.3599 83.3299 77.4411C83.2785 77.5223 83.197 77.5799 83.1032 77.6014C83.0095 77.6228 82.9111 77.6064 82.8294 77.5557C81.5382 76.8435 80.1786 76.3761 78.4314 75.2817C78.335 75.2224 78.2598 75.134 78.2167 75.0294C78.1736 74.9247 78.1647 74.8091 78.1914 74.6991C78.5655 72.6873 78.479 70.6168 77.9382 68.6433C77.9229 68.5983 77.9166 68.5507 77.9197 68.5033C77.9228 68.4559 77.9352 68.4095 77.9562 68.3669C77.9772 68.3243 78.0064 68.2862 78.0421 68.2549C78.0778 68.2236 78.1194 68.1996 78.1644 68.1843C78.2094 68.169 78.2569 68.1627 78.3043 68.1658C78.3518 68.1689 78.3981 68.1813 78.4407 68.2023C78.4833 68.2233 78.5214 68.2525 78.5528 68.2882C78.5841 68.3239 78.6081 68.3655 78.6234 68.4105C79.4736 70.3454 79.7165 72.4929 79.32 74.5689Z" fill="#191919"/>
<path id="Vector_30" d="M74.3434 78.2258C71.1124 79.274 67.8178 77.0594 67.5754 74.0258C67.5364 73.6782 67.5526 73.3267 67.6234 72.9842C67.6402 72.8891 67.6935 72.8044 67.7721 72.7483C67.8506 72.6922 67.9481 72.6692 68.0434 72.6842C68.1369 72.7032 68.2195 72.7574 68.2743 72.8355C68.3291 72.9136 68.3519 73.0098 68.338 73.1042C68.3125 73.3722 68.3287 73.6426 68.386 73.9058C68.5213 74.524 68.7869 75.1063 69.1649 75.6138C69.543 76.1213 70.0249 76.5424 70.5785 76.849C71.1322 77.1555 71.7448 77.3406 72.3756 77.3918C73.0063 77.443 73.6408 77.3591 74.2366 77.1458C74.3174 77.1145 74.4047 77.1037 74.4907 77.1141C74.5767 77.1246 74.6588 77.1561 74.7298 77.2058C76.0366 78.179 76.555 78.482 78.4084 79.994C78.4476 80.0224 78.4807 80.0584 78.5057 80.0999C78.5308 80.1413 78.5473 80.1873 78.5543 80.2352C78.5612 80.2832 78.5586 80.332 78.5464 80.3789C78.5342 80.4257 78.5128 80.4697 78.4834 80.5082C78.4255 80.5842 78.3401 80.6347 78.2455 80.6487C78.1509 80.6627 78.0545 80.6392 77.977 80.5832C76.7656 79.7642 75.5272 79.0598 74.3434 78.2258Z" fill="#191919"/>
<path id="Vector_31" d="M70.3996 71.7003C69.6796 69.9603 70.0474 70.2165 69.7558 70.0635C69.3922 69.8721 64.7314 67.3851 63.0826 66.3651C63.8506 64.8121 64.239 63.099 64.2158 61.3667C64.1926 59.6343 63.7586 57.9322 62.9494 56.4003H62.956C62.3234 55.093 61.4381 53.924 60.3511 52.9608C59.2642 51.9976 57.9971 51.2594 56.6232 50.7887C55.2493 50.318 53.7958 50.1242 52.3465 50.2185C50.8973 50.3128 49.4811 50.6933 48.1798 51.3381C46.6806 52.0815 45.3679 53.1524 44.3386 54.4717C43.3093 55.791 42.5899 57.3249 42.2335 58.9598C41.8772 60.5947 41.8931 62.2888 42.2799 63.9168C42.6668 65.5447 43.4149 67.0648 44.4686 68.3646C45.5224 69.6644 46.855 70.7106 48.3678 71.4258C49.8806 72.1409 51.5348 72.5068 53.2081 72.4962C54.8813 72.4856 56.5308 72.0989 58.0344 71.3647C59.538 70.6305 60.8573 69.5675 61.8946 68.2545C62.578 68.6463 63.3268 68.9511 63.9808 69.3231C65.8773 70.402 67.8328 71.3739 69.838 72.2343C69.9138 72.2677 69.9978 72.2779 70.0793 72.2636C70.1609 72.2494 70.2365 72.2113 70.2965 72.1542C70.3565 72.0972 70.3983 72.0236 70.4167 71.9429C70.435 71.8621 70.4291 71.7777 70.3996 71.7003ZM57.4552 69.7593C55.2189 70.8478 52.6439 71.0119 50.2875 70.216C47.9311 69.4202 45.9829 67.7285 44.8645 65.507C43.7461 63.2855 43.5474 60.713 44.3115 58.3461C45.0756 55.9793 46.7409 54.0085 48.9472 52.8603C51.205 51.7015 53.8287 51.48 56.2488 52.2439C58.6689 53.0078 60.6901 54.6953 61.8736 56.9403H61.8808C62.9745 59.23 63.1234 61.858 62.2953 64.2566C61.4672 66.6552 59.7286 68.6316 57.4552 69.7587V69.7593Z" fill="#191919"/>
<path id="Vector_32" d="M100.835 58.5597C100.71 58.0633 100.484 57.5983 100.17 57.1939C99.8565 56.7895 99.4625 56.4545 99.0128 56.2101C99.4784 55.2467 99.5787 54.1472 99.2953 53.1154C99.0118 52.0837 98.3638 51.1898 97.4714 50.5995C95.048 48.9375 91.1114 49.2015 88.9634 47.2839C88.3514 46.7379 87.8642 46.0989 86.963 46.0989C86.7921 46.0956 86.6224 46.1281 86.4648 46.1943C86.3071 46.2604 86.1651 46.3588 86.0477 46.4831C85.9303 46.6074 85.8402 46.7548 85.7831 46.916C85.726 47.0771 85.7032 47.2484 85.7162 47.4189C85.2257 47.211 84.6743 47.1986 84.1748 47.3841C83.45 47.7903 83.7698 48.6669 83.9216 49.0149C83.6684 49.0128 83.4231 49.103 83.2315 49.2686C83.0399 49.4342 82.9152 49.664 82.8806 49.9149C82.7216 50.7087 83.2508 51.9171 83.5928 52.6557C84.6356 54.8949 86.1188 57.3831 88.436 58.2357C88.436 58.4535 88.4474 58.6731 88.4636 58.8957C87.473 57.9897 85.2752 58.9863 85.6376 59.6595C85.8464 60.0321 86.3702 59.7489 87.1718 59.6319C87.8102 59.5389 88.289 59.6559 88.5236 59.4969C88.6645 60.6456 88.9863 61.7649 89.477 62.8131C89.5318 62.924 89.6227 63.013 89.7349 63.0654C89.847 63.1178 89.9736 63.1303 90.0938 63.1011C91.2386 62.8215 92.6738 63.8379 92.0738 65.0397C91.8804 65.2927 91.6359 65.5022 91.3562 65.6545C91.0764 65.8068 90.7678 65.8984 90.4502 65.9235C90.324 65.9448 90.2098 66.0114 90.1291 66.1108C90.0484 66.2101 90.0066 66.3355 90.0116 66.4635C90.0246 67.4384 90.2509 68.3986 90.6745 69.2768C91.0982 70.1549 91.7089 70.9297 92.4638 71.5467C92.552 71.6168 92.6607 71.6561 92.7733 71.6585C92.8859 71.6609 92.9962 71.6262 93.0872 71.5599C94.5872 70.4697 95.7188 68.9679 96.8672 67.5729C98.5298 65.5605 101.902 62.3649 100.835 58.5597Z" fill="#191919"/>
<path id="Vector_33" d="M116.995 96.4135C116.58 94.4302 115.948 92.4986 115.111 90.6535C112.869 85.3021 109.508 80.5075 104.171 78.1135C101.864 77.0881 99.6883 77.0479 97.3063 76.6267C97.4539 74.4259 97.6063 74.3605 97.3543 74.0509C97.3031 73.9963 97.2417 73.9522 97.1736 73.9213C97.1054 73.8904 97.0318 73.8733 96.9571 73.8709C95.4896 73.8451 94.0218 73.9028 92.5609 74.0437C92.5829 73.2455 92.5244 72.447 92.3863 71.6605C92.3826 71.5642 92.3408 71.4734 92.2702 71.4079C92.1995 71.3424 92.1057 71.3076 92.0094 71.3113C91.9132 71.315 91.8223 71.3567 91.7568 71.4274C91.6913 71.498 91.6566 71.5918 91.6602 71.6881C91.5723 72.4989 91.6034 73.3181 91.7527 74.1199C90.8065 74.2165 89.7372 74.3503 88.374 74.5627C88.374 74.3737 88.3801 72.7723 88.3507 72.3493C88.3408 72.2383 88.2896 72.1351 88.2071 72.0603C88.1245 71.9855 88.0168 71.9445 87.9055 71.9455C85.5241 71.9131 85.128 68.5975 85.0489 66.2185C85.044 66.101 85.0014 65.9883 84.9273 65.8969C84.8533 65.8056 84.7518 65.7406 84.6379 65.7115L83.3778 65.3899C84.125 62.9116 85.0008 60.4739 86.0016 58.0867C86.0213 58.0434 86.0323 57.9966 86.0339 57.949C86.0355 57.9014 86.0278 57.854 86.0111 57.8094C85.9943 57.7649 85.969 57.724 85.9365 57.6892C85.904 57.6544 85.865 57.6264 85.8216 57.6067C85.7783 57.587 85.7315 57.576 85.6839 57.5744C85.6364 57.5728 85.5889 57.5806 85.5444 57.5973C85.4998 57.614 85.459 57.6393 85.4242 57.6718C85.3894 57.7043 85.3613 57.7434 85.3416 57.7867C84.2514 60.1105 83.2015 61.9015 82.1977 65.6467C82.179 65.7162 82.1745 65.7887 82.1845 65.8599C82.1945 65.9311 82.2188 65.9996 82.2559 66.0612C82.2929 66.1228 82.3421 66.1763 82.4003 66.2185C82.4586 66.2607 82.5247 66.2907 82.5949 66.3067L83.9856 66.6667C84.1242 69.3811 84.7939 72.6163 87.5137 72.8185C87.5317 73.0057 87.5976 74.1715 87.627 74.6851C86.6922 74.8387 85.7544 75.0067 84.8071 75.1825C84.6891 75.2059 84.5822 75.2676 84.5029 75.3579C84.4236 75.4483 84.3763 75.5623 84.3684 75.6823C84.3126 76.6303 84.2184 77.2207 84.177 78.3337C75.2712 81.7171 68.6922 90.8323 68.217 100.31C68.2135 100.406 68.2472 100.499 68.3111 100.571C68.375 100.642 68.4641 100.686 68.5596 100.693C68.6074 100.696 68.6553 100.69 68.7005 100.675C68.7457 100.659 68.7874 100.635 68.8231 100.603C68.8588 100.571 68.8878 100.532 68.9084 100.489C68.929 100.446 68.9408 100.399 68.943 100.351C69.6696 89.5411 78.9079 79.8043 87.1231 78.8419C87.6367 78.7819 93.6307 78.1015 94.4047 77.9989C104.177 76.7461 110.431 82.0711 114.335 90.9931C115.182 92.7711 115.832 94.6364 116.273 96.5557C116.291 96.6511 116.345 96.7356 116.425 96.7908C116.505 96.8461 116.603 96.8674 116.698 96.8503C116.795 96.831 116.88 96.7743 116.936 96.6926C116.991 96.6109 117.012 96.5107 116.995 96.4135ZM89.4744 77.4661C88.0507 77.6212 86.6414 77.8878 85.2594 78.2635C85.2876 77.6035 85.3794 76.6495 85.4208 76.1635C89.0263 75.4325 92.6899 75.0245 96.3679 74.9443C96.3169 75.5791 96.2821 76.1977 96.1843 76.9243C95.0743 76.9795 92.6532 77.0395 89.4744 77.4661Z" fill="#191919"/>
<path id="Vector_34" d="M83.3756 96.0002C83.3624 96.203 83.348 97.4144 83.348 97.6166C83.348 98.2082 83.2952 99.8018 83.8484 99.8018C84.3362 99.8018 84.3584 98.7566 84.4238 97.706C84.4542 97.0687 84.4427 96.4302 84.3896 95.7944C84.2912 95.0552 84.2198 94.514 83.8142 94.541C83.4686 94.5674 83.4596 94.8746 83.3756 96.0002Z" fill="#191919"/>
<path id="Vector_35" d="M107.905 94.3603C107.965 94.6387 108.166 95.5381 108.254 95.8123C108.462 96.5629 108.593 97.1287 108.994 97.0591C109.419 96.9859 109.339 96.3715 109.248 95.5657C109.136 94.8727 108.985 94.1866 108.795 93.5107C108.485 92.5789 108.322 92.1751 107.967 92.2639C107.455 92.3737 107.737 93.5401 107.905 94.3603Z" fill="#191919"/>
</g>
</svg>
