<svg width="122" height="122" viewBox="0 0 122 122" fill="none" xmlns="http://www.w3.org/2000/svg">
<g id="user-block-01">
<g id="elements">
<path id="Vector" d="M66.0837 111.835H33.5039C25.6482 111.835 19.3999 108.012 13.7897 102.667C2.30493 91.7256 21.1612 82.9816 28.353 78.6994C40.549 71.4373 55.1164 69.427 68.6253 72.6684" stroke="#475467" stroke-width="6.5" stroke-linecap="round" stroke-linejoin="round"/>
<path id="Ellipse 1382" d="M83.875 33.043C83.875 45.6765 73.6335 55.918 61 55.918C48.3665 55.918 38.125 45.6765 38.125 33.043C38.125 20.4095 48.3665 10.168 61 10.168C73.6335 10.168 83.875 20.4095 83.875 33.043Z" stroke="#475467" stroke-width="6.5"/>
<path id="Vector_2" d="M81.5875 81.5875L106.496 106.496M111.833 94.0417C111.833 84.2156 103.868 76.25 94.0417 76.25C84.2156 76.25 76.25 84.2156 76.25 94.0417C76.25 103.868 84.2156 111.833 94.0417 111.833C103.868 111.833 111.833 103.868 111.833 94.0417Z" stroke="#DE3024" stroke-width="6.5" stroke-linecap="round"/>
</g>
</g>
</svg>
