<svg width="24" height="24" viewBox="0 0 24 24" fill="none" xmlns="http://www.w3.org/2000/svg">
<path d="M12 22C16.9706 22 21 17.9706 21 13C21 8.02944 16.9706 4 12 4C7.02944 4 3 8.02944 3 13C3 17.9706 7.02944 22 12 22Z" stroke="#667085" stroke-width="1.5" stroke-linecap="round"/>
<path d="M5 19L3 21M19 19L21 21" stroke="#667085" stroke-width="1.5" stroke-linecap="round" stroke-linejoin="round"/>
<path d="M19 3.5697L19.5955 3.27195C20.4408 2.84932 20.7583 2.89769 21.4303 3.5697C22.1023 4.2417 22.1507 4.55924 21.728 5.4045L21.4303 6M5 3.5697L4.4045 3.27195C3.55924 2.84932 3.2417 2.89769 2.5697 3.5697C1.89769 4.2417 1.84932 4.55924 2.27195 5.4045L2.5697 6" stroke="#667085" stroke-width="1.5" stroke-linecap="round"/>
<path d="M12 9.5V13.5L14 15.5" stroke="#667085" stroke-width="1.5" stroke-linecap="round" stroke-linejoin="round"/>
<path d="M12 3.5V2" stroke="#667085" stroke-width="1.5" stroke-linecap="round" stroke-linejoin="round"/>
<path d="M10 2H14" stroke="#667085" stroke-width="1.5" stroke-linecap="round" stroke-linejoin="round"/>
</svg>
