<svg width="18" height="18" viewBox="0 0 18 18" fill="none" xmlns="http://www.w3.org/2000/svg">
<path d="M5.25 12.75L5.25 9.75" stroke="#475467" stroke-width="1.5" stroke-linecap="round"/>
<path d="M9 12.75L9 5.25" stroke="#475467" stroke-width="1.5" stroke-linecap="round"/>
<path d="M12.75 12.75L12.75 8.25" stroke="#475467" stroke-width="1.5" stroke-linecap="round"/>
<path d="M1.875 9C1.875 5.64124 1.875 3.96186 2.91843 2.91843C3.96186 1.875 5.64124 1.875 9 1.875C12.3588 1.875 14.0381 1.875 15.0816 2.91843C16.125 3.96186 16.125 5.64124 16.125 9C16.125 12.3588 16.125 14.0381 15.0816 15.0816C14.0381 16.125 12.3588 16.125 9 16.125C5.64124 16.125 3.96186 16.125 2.91843 15.0816C1.875 14.0381 1.875 12.3588 1.875 9Z" stroke="#475467" stroke-width="1.5" stroke-linejoin="round"/>
</svg>
