<svg width="93" height="92" viewBox="0 0 93 92" fill="none" xmlns="http://www.w3.org/2000/svg">
<g clip-path="url(#clip0_24_9926)">
<path d="M89.7202 23.3342C87.3052 14.4451 78.0603 5.19836 69.1694 2.78336C63.7177 1.42492 56.4152 0.0251563 46.5 0C36.5884 0.0251563 29.2859 1.42492 23.8342 2.78336C14.9451 5.19836 5.69836 14.4433 3.28336 23.3342C1.92492 28.7841 0.525156 36.0884 0.5 46C0.523359 55.9134 1.92312 63.2159 3.28156 68.6676C5.69656 77.5585 14.9433 86.8034 23.8324 89.2184C29.2841 90.5769 36.5902 91.9766 46.5 92C56.4116 91.9766 63.7159 90.5769 69.1676 89.2184C78.0585 86.8034 87.3034 77.5585 89.7184 68.6676C91.0769 63.2159 92.4766 55.9098 92.5018 46C92.4784 36.0884 91.0787 28.7859 89.7202 23.3342Z" fill="#D3F8E0"/>
<path d="M74.7262 24.5078C73.2735 23.1384 71.3364 22.4021 69.3409 22.4608C67.3454 22.5194 65.4549 23.3682 64.0851 24.8204L39.4913 50.8967L29.0406 39.2475C28.3799 38.5117 27.5807 37.9131 26.6887 37.4861C25.7967 37.0591 24.8293 36.812 23.8418 36.7588C21.8474 36.6515 19.892 37.3408 18.4058 38.6752C16.9197 40.0096 16.0245 41.8797 15.9171 43.8741C15.8098 45.8685 16.4992 47.8239 17.8335 49.31L33.7502 67.0524C34.447 67.8254 35.2964 68.4456 36.245 68.8736C37.1936 69.3017 38.2206 69.5283 39.2613 69.5392H39.3565C40.3822 69.5391 41.3971 69.3295 42.3389 68.9232C43.2806 68.5168 44.1295 67.9224 44.8334 67.1763L75.0388 35.1453C76.407 33.6927 77.1427 31.7564 77.084 29.7618C77.0254 27.7672 76.1773 25.8774 74.7262 24.5078Z" fill="url(#paint0_linear_24_9926)"/>
</g>
<defs>
<linearGradient id="paint0_linear_24_9926" x1="60.238" y1="51.7807" x2="32.762" y2="24.3047" gradientUnits="userSpaceOnUse">
<stop stop-color="#0B9055"/>
<stop offset="0.57" stop-color="#3BCC84"/>
<stop offset="1" stop-color="#AAF0C7"/>
</linearGradient>
<clipPath id="clip0_24_9926">
<rect width="92" height="92" fill="white" transform="translate(0.5)"/>
</clipPath>
</defs>
</svg>
