<svg width="9" height="12" viewBox="0 0 9 12" fill="none" xmlns="http://www.w3.org/2000/svg">
<path d="M8.57741 8.39768V3.17691L4.54652 0.566528L0.515625 3.17691V8.39768L4.54652 11.0081L8.57741 8.39768Z" fill="url(#paint0_linear_3308_38724)"/>
<path d="M4.54652 0.566528V1.92609L1.56542 3.85669L0.515625 3.17691L4.54652 0.566528Z" fill="url(#paint1_linear_3308_38724)"/>
<path d="M4.54492 11.015V9.6554L7.52602 7.72479L8.57581 8.40457L4.54492 11.015Z" fill="url(#paint2_linear_3308_38724)"/>
<path d="M8.57714 3.18176L7.52734 3.86154V7.72275L8.57714 8.40253V3.18176Z" fill="url(#paint3_linear_3308_38724)"/>
<path d="M0.515625 8.40457L1.56542 7.72479L4.54652 9.6554V11.015L0.515625 8.40457Z" fill="url(#paint4_linear_3308_38724)"/>
<path d="M7.5286 3.84635V7.706L4.54837 9.63833L1.50391 7.7472V3.80514L4.54837 1.91418L7.03496 3.52654L7.5286 3.84635Z" fill="#FFCCEA"/>
<path d="M7.52751 3.84635V7.706L4.54728 9.63833L1.56445 7.706V3.84635L4.54728 1.91418L7.03386 3.52654L7.52751 3.84635Z" fill="url(#paint5_linear_3308_38724)"/>
<g style="mix-blend-mode:screen" opacity="0.35">
<path d="M7.52751 3.84532V7.70497L4.54728 9.6373L1.56445 7.70497C1.56445 7.70497 5.19728 4.86828 7.03386 3.52551L7.52751 3.84532Z" fill="url(#paint6_linear_3308_38724)"/>
</g>
<g style="mix-blend-mode:screen">
<path d="M4.60148 3.10367C5.22708 3.10367 5.73422 2.59653 5.73422 1.97093C5.73422 1.34534 5.22708 0.838196 4.60148 0.838196C3.97589 0.838196 3.46875 1.34534 3.46875 1.97093C3.46875 2.59653 3.97589 3.10367 4.60148 3.10367Z" fill="url(#paint7_radial_3308_38724)"/>
</g>
<g style="mix-blend-mode:screen">
<path d="M8.27356 7.76093C8.27356 8.17354 7.93904 8.50806 7.52643 8.50806C7.11382 8.50806 6.7793 8.17354 6.7793 7.76093C6.7793 7.34832 7.11382 7.01379 7.52643 7.01379C7.93904 7.01379 8.27356 7.34814 8.27356 7.76093Z" fill="url(#paint8_radial_3308_38724)"/>
</g>
<defs>
<linearGradient id="paint0_linear_3308_38724" x1="4.54653" y1="0.566511" x2="4.54653" y2="11.008" gradientUnits="userSpaceOnUse">
<stop stop-color="#D3076D"/>
<stop offset="0.2633" stop-color="#E32880"/>
<stop offset="0.5589" stop-color="#F34591"/>
<stop offset="0.8131" stop-color="#FC589B"/>
<stop offset="0.9946" stop-color="#FF5E9F"/>
</linearGradient>
<linearGradient id="paint1_linear_3308_38724" x1="0.515677" y1="2.21158" x2="4.54653" y2="2.21158" gradientUnits="userSpaceOnUse">
<stop offset="0.0108" stop-color="#FCA6CD"/>
<stop offset="0.1539" stop-color="#FCA0C9"/>
<stop offset="0.3443" stop-color="#FB8FBE"/>
<stop offset="0.5614" stop-color="#FA74AD"/>
<stop offset="0.7963" stop-color="#F94D94"/>
<stop offset="1" stop-color="#F7267B"/>
</linearGradient>
<linearGradient id="paint2_linear_3308_38724" x1="4.54494" y1="9.36982" x2="8.57581" y2="9.36982" gradientUnits="userSpaceOnUse">
<stop stop-color="#91055C"/>
<stop offset="0.0209" stop-color="#93055D"/>
<stop offset="0.4365" stop-color="#B60665"/>
<stop offset="0.7777" stop-color="#CB076B"/>
<stop offset="1" stop-color="#D3076D"/>
</linearGradient>
<linearGradient id="paint3_linear_3308_38724" x1="8.05228" y1="8.40248" x2="8.05228" y2="3.18173" gradientUnits="userSpaceOnUse">
<stop stop-color="#D3076D"/>
<stop offset="0.2633" stop-color="#E32880"/>
<stop offset="0.5589" stop-color="#F34591"/>
<stop offset="0.8131" stop-color="#FC589B"/>
<stop offset="0.9946" stop-color="#FF5E9F"/>
</linearGradient>
<linearGradient id="paint4_linear_3308_38724" x1="0.515677" y1="9.36982" x2="4.54653" y2="9.36982" gradientUnits="userSpaceOnUse">
<stop stop-color="#D3076D"/>
<stop offset="0.2247" stop-color="#D70F71"/>
<stop offset="0.5696" stop-color="#E3247D"/>
<stop offset="0.9897" stop-color="#F6478F"/>
<stop offset="1" stop-color="#F74890"/>
</linearGradient>
<linearGradient id="paint5_linear_3308_38724" x1="4.54602" y1="9.63828" x2="4.54602" y2="1.91413" gradientUnits="userSpaceOnUse">
<stop stop-color="#F487BD"/>
<stop offset="0.0209" stop-color="#F489BE"/>
<stop offset="0.4365" stop-color="#FAACD4"/>
<stop offset="0.7777" stop-color="#FEC1E2"/>
<stop offset="1" stop-color="#FFC9E7"/>
</linearGradient>
<linearGradient id="paint6_linear_3308_38724" x1="3.26075" y1="10.114" x2="6.13761" y2="4.72169" gradientUnits="userSpaceOnUse">
<stop offset="0.5486" stop-color="white"/>
<stop offset="0.587" stop-color="#F4F4F4"/>
<stop offset="0.6539" stop-color="#D7D7D7"/>
<stop offset="0.7416" stop-color="#A8A8A8"/>
<stop offset="0.8466" stop-color="#676767"/>
<stop offset="0.965" stop-color="#161616"/>
<stop offset="0.9946"/>
</linearGradient>
<radialGradient id="paint7_radial_3308_38724" cx="0" cy="0" r="1" gradientUnits="userSpaceOnUse" gradientTransform="translate(4.6015 1.97091) scale(1.13281)">
<stop stop-color="white"/>
<stop offset="0.1187" stop-color="#C6C6C6"/>
<stop offset="0.2438" stop-color="#929292"/>
<stop offset="0.3711" stop-color="#666666"/>
<stop offset="0.498" stop-color="#414141"/>
<stop offset="0.6245" stop-color="#242424"/>
<stop offset="0.7506" stop-color="#101010"/>
<stop offset="0.8759" stop-color="#040404"/>
<stop offset="1"/>
</radialGradient>
<radialGradient id="paint8_radial_3308_38724" cx="0" cy="0" r="1" gradientUnits="userSpaceOnUse" gradientTransform="translate(7.52636 7.76089) scale(0.747169 0.74717)">
<stop stop-color="white"/>
<stop offset="0.0668" stop-color="#E1E1E1"/>
<stop offset="0.2124" stop-color="#A6A6A6"/>
<stop offset="0.3578" stop-color="#747474"/>
<stop offset="0.4995" stop-color="#4A4A4A"/>
<stop offset="0.6369" stop-color="#2A2A2A"/>
<stop offset="0.7686" stop-color="#131313"/>
<stop offset="0.8923" stop-color="#050505"/>
<stop offset="1"/>
</radialGradient>
</defs>
</svg>
