<svg width="20" height="20" viewBox="0 0 20 20" fill="none" xmlns="http://www.w3.org/2000/svg">
<path d="M10 5L10 16.6667" stroke="#667085" stroke-width="1.5" stroke-linecap="round"/>
<path d="M4.9851 2.73786C7.76943 3.268 9.42889 4.37693 10.0013 5.01357C10.5737 4.37693 12.2332 3.268 15.0175 2.73786C16.4281 2.46929 17.1333 2.33501 17.734 2.8497C18.3346 3.3644 18.3346 4.20019 18.3346 5.87176V11.8791C18.3346 13.4076 18.3346 14.1718 17.9491 14.6489C17.5636 15.126 16.7149 15.2876 15.0175 15.6108C13.5044 15.8989 12.3234 16.3579 11.4686 16.8192C10.6277 17.2731 10.2071 17.5 10.0013 17.5C9.79547 17.5 9.37495 17.2731 8.53395 16.8192C7.67917 16.3579 6.49824 15.8989 4.9851 15.6108C3.28768 15.2876 2.43897 15.126 2.05347 14.6489C1.66797 14.1718 1.66797 13.4076 1.66797 11.8791V5.87176C1.66797 4.20019 1.66797 3.3644 2.26862 2.8497C2.86927 2.33501 3.57455 2.46929 4.9851 2.73786Z" stroke="#667085" stroke-width="1.5" stroke-linecap="round" stroke-linejoin="round"/>
</svg>
