<svg width="16" height="16" viewBox="0 0 16 16" fill="none" xmlns="http://www.w3.org/2000/svg">
<path fill-rule="evenodd" clip-rule="evenodd" d="M2.66699 6.47234V11.9879C2.66699 13.5251 2.66699 14.2937 3.18223 14.5689C3.94395 14.9756 5.21498 14.0358 6.16918 13.3302C6.46484 13.1116 6.73008 12.9155 6.94033 12.7889C7.45579 12.4785 7.71353 12.3233 8.00033 12.3233C8.28713 12.3233 8.54486 12.4785 9.06033 12.7889C9.27057 12.9155 9.53581 13.1116 9.83147 13.3302C10.7857 14.0358 12.0567 14.9756 12.8185 14.5689C13.3337 14.2937 13.3337 13.5251 13.3337 11.9879V6.47234C13.3337 6.03205 13.3337 5.63177 13.329 5.26699H2.67168C2.66699 5.63177 2.66699 6.03205 2.66699 6.47234ZM2.71956 4.06699H13.2811C13.2044 3.14069 13.0159 2.53288 12.5526 2.08648C11.7716 1.33398 10.5145 1.33398 8.00033 1.33398C5.48617 1.33398 4.22909 1.33398 3.44804 2.08648C2.9847 2.53288 2.79622 3.14069 2.71956 4.06699Z" fill="#667085"/>
</svg>
