<svg width="18" height="18" viewBox="0 0 18 18" fill="none" xmlns="http://www.w3.org/2000/svg">
<path d="M3 13.4856V7.28065C3 4.55562 3 3.19311 3.87868 2.34656C4.75736 1.5 6.17157 1.5 9 1.5C11.8284 1.5 13.2427 1.5 14.1213 2.34656C15 3.19311 15 4.55562 15 7.28065V13.4856C15 15.215 15 16.0797 14.4204 16.3892C13.2979 16.9886 11.1924 14.9889 10.1925 14.3868C9.6126 14.0376 9.32265 13.863 9 13.863C8.67735 13.863 8.3874 14.0376 7.8075 14.3868C6.8076 14.9889 4.7021 16.9886 3.57964 16.3892C3 16.0797 3 15.215 3 13.4856Z" stroke="#475467" stroke-width="1.5" stroke-linecap="round" stroke-linejoin="round"/>
<path d="M3 5.25H15" stroke="#475467" stroke-width="1.5"/>
</svg>
