<svg width="16" height="16" viewBox="0 0 16 16" fill="none" xmlns="http://www.w3.org/2000/svg">
<g id="book-edit">
<g id="elements">
<path id="Vector 4531" d="M7.33301 4.33594L7.33301 13.0026" stroke="white" stroke-width="1.5" stroke-linecap="round"/>
<path id="Vector" d="M7.33301 13.0026C7.18481 13.0026 6.88204 12.8412 6.27652 12.5185C5.66107 12.1905 4.81081 11.864 3.72134 11.6592C2.4992 11.4293 1.88813 11.3144 1.61057 10.9751C1.33301 10.6359 1.33301 10.0924 1.33301 9.00554V4.73364C1.33301 3.54496 1.33301 2.95062 1.76548 2.58462C2.19795 2.21861 2.70575 2.3141 3.72134 2.50508C5.72606 2.88207 6.92088 3.67064 7.33301 4.12336C7.74514 3.67064 8.93996 2.88207 10.9447 2.50508C11.9603 2.3141 12.4681 2.21861 12.9005 2.58462C13.333 2.95062 13.333 3.54496 13.333 4.73364V6.66927" stroke="white" stroke-width="1.5" stroke-linecap="round" stroke-linejoin="round"/>
<path id="Vector_2" d="M10.2315 13.5731L10.0747 12.8397H10.0747L10.2315 13.5731ZM9.42919 12.7708L10.1626 12.9276L9.42919 12.7708ZM10.0135 11.0771L9.48313 10.5468H9.48313L10.0135 11.0771ZM14.5305 9.3208L15.18 8.9458V8.9458L14.5305 9.3208ZM14.5305 10.3347L15.18 10.7097L14.5305 10.3347ZM13.6815 8.47177L14.0565 7.82225L13.6815 8.47177ZM12.2187 8.87186L12.749 9.40219L12.2187 8.87186ZM12.6676 8.47177L12.2926 7.82225L12.6676 8.47177ZM13.6001 10.2533L11.3949 12.4585L12.4555 13.5192L14.6608 11.3139L13.6001 10.2533ZM10.5438 11.6074L12.749 9.40219L11.6884 8.34153L9.48313 10.5468L10.5438 11.6074ZM10.0747 12.8397C9.95671 12.8649 9.86685 12.884 9.79052 12.8982C9.7131 12.9126 9.6714 12.9177 9.65018 12.919C9.62752 12.9204 9.65901 12.9153 9.71712 12.9303C9.74875 12.9385 9.78769 12.9524 9.82944 12.9756C9.8717 12.9991 9.90965 13.0281 9.94193 13.0603L8.88127 14.121C9.17257 14.4123 9.53205 14.4295 9.74539 14.416C9.94527 14.4033 10.1827 14.3505 10.3883 14.3065L10.0747 12.8397ZM8.69577 12.614C8.6518 12.8196 8.59901 13.057 8.5863 13.2569C8.57274 13.4702 8.58997 13.8297 8.88127 14.121L9.94193 13.0603C9.97422 13.0926 10.0032 13.1306 10.0267 13.1728C10.0499 13.2146 10.0638 13.2535 10.0719 13.2852C10.0869 13.3433 10.0818 13.3748 10.0833 13.3521C10.0846 13.3309 10.0897 13.2892 10.104 13.2118C10.1182 13.1354 10.1374 13.0456 10.1626 12.9276L8.69577 12.614ZM13.6001 9.40219C13.716 9.51811 13.7851 9.58749 13.8348 9.64194C13.8818 9.6934 13.8861 9.70465 13.881 9.6958L15.18 8.9458C15.0515 8.72314 14.8488 8.52962 14.6608 8.34153L13.6001 9.40219ZM14.6608 11.3139C14.8488 11.1258 15.0515 10.9323 15.18 10.7097L13.881 9.95965C13.8861 9.9508 13.8818 9.96205 13.8348 10.0135C13.7851 10.068 13.716 10.1373 13.6001 10.2533L14.6608 11.3139ZM13.881 9.6958C13.9281 9.77744 13.9281 9.87802 13.881 9.95965L15.18 10.7097C15.4951 10.1639 15.4951 9.49154 15.18 8.9458L13.881 9.6958ZM14.6608 8.34153C14.4727 8.15344 14.2791 7.9508 14.0565 7.82225L13.3065 9.12129C13.2976 9.11618 13.3089 9.12046 13.3603 9.16744C13.4148 9.21714 13.4842 9.28626 13.6001 9.40219L14.6608 8.34153ZM12.749 9.40219C12.8649 9.28626 12.9343 9.21714 12.9888 9.16744C13.0402 9.12047 13.0515 9.11618 13.0426 9.12129L12.2926 7.82225C12.07 7.9508 11.8764 8.15344 11.6884 8.34153L12.749 9.40219ZM14.0565 7.82225C13.5107 7.50717 12.8384 7.50717 12.2926 7.82225L13.0426 9.12129C13.1243 9.07415 13.2248 9.07415 13.3065 9.12129L14.0565 7.82225ZM11.3949 12.4585C11.3095 12.5439 11.1805 12.613 10.9482 12.6723C10.8317 12.7021 10.7048 12.7257 10.5546 12.7516C10.4133 12.776 10.2405 12.8042 10.0747 12.8397L10.3883 14.3065C10.5166 14.2791 10.6474 14.2578 10.81 14.2297C10.9637 14.2032 11.1409 14.1712 11.3192 14.1257C11.6766 14.0344 12.1004 13.8743 12.4555 13.5192L11.3949 12.4585ZM10.1626 12.9276C10.1981 12.7618 10.2262 12.5889 10.2506 12.4476C10.2766 12.2975 10.3002 12.1706 10.33 12.0541C10.3893 11.8218 10.4584 11.6928 10.5438 11.6074L9.48313 10.5468C9.12795 10.9019 8.96783 11.3257 8.87659 11.683C8.83106 11.8614 8.7991 12.0385 8.77254 12.1923C8.74445 12.3548 8.7232 12.4857 8.69577 12.614L10.1626 12.9276Z" fill="white"/>
</g>
</g>
</svg>
