<svg width="16" height="16" viewBox="0 0 16 16" fill="none" xmlns="http://www.w3.org/2000/svg">
<path d="M5 3.33398H10.6667C11.219 3.33398 11.6667 3.7817 11.6667 4.33398V5.33398" stroke="#667085" stroke-width="1.25" stroke-linecap="round" stroke-linejoin="round"/>
<path d="M10 12L9.42857 10.6667M6 12L6.57143 10.6667M6.57143 10.6667L7.60504 8.2549C7.67117 8.10061 7.82706 8 8 8C8.17294 8 8.32883 8.10061 8.39496 8.2549L9.42857 10.6667M6.57143 10.6667H9.42857" stroke="#667085" stroke-width="1.25" stroke-linecap="round" stroke-linejoin="round"/>
<path d="M12.8843 13.8863L12.4424 13.4443H12.4424L12.8843 13.8863ZM12.332 1.95898C12.6772 1.95898 12.957 1.67916 12.957 1.33398C12.957 0.988806 12.6772 0.708984 12.332 0.708984V1.95898ZM13.0404 6.66732V9.33398H14.2904V6.66732H13.0404ZM8.33203 14.0423H7.66536V15.2923H8.33203V14.0423ZM2.95703 9.33398V3.33398H1.70703V9.33398H2.95703ZM7.66536 14.0423C6.39062 14.0423 5.49743 14.041 4.82259 13.9503C4.16572 13.8619 3.81007 13.6994 3.55502 13.4443L2.67114 14.3282C3.19714 14.8542 3.86055 15.0822 4.65603 15.1891C5.43352 15.2936 6.42595 15.2923 7.66536 15.2923V14.0423ZM1.70703 9.33398C1.70703 10.5734 1.7057 11.5658 1.81024 12.3433C1.91718 13.1388 2.14513 13.8022 2.67114 14.3282L3.55502 13.4443C3.29998 13.1893 3.1374 12.8336 3.04909 12.1768C2.95836 11.5019 2.95703 10.6087 2.95703 9.33398H1.70703ZM13.0404 9.33398C13.0404 10.6087 13.039 11.5019 12.9483 12.1768C12.86 12.8336 12.6974 13.1893 12.4424 13.4443L13.3263 14.3282C13.8523 13.8022 14.0802 13.1388 14.1872 12.3433C14.2917 11.5658 14.2904 10.5734 14.2904 9.33398H13.0404ZM8.33203 15.2923C9.57144 15.2923 10.5639 15.2936 11.3414 15.1891C12.1368 15.0822 12.8003 14.8542 13.3263 14.3282L12.4424 13.4443C12.1873 13.6994 11.8317 13.8619 11.1748 13.9503C10.5 14.041 9.60678 14.0423 8.33203 14.0423V15.2923ZM12.332 0.708984H4.33203V1.95898H12.332V0.708984ZM4.33203 5.95898H12.332V4.70898H4.33203V5.95898ZM1.70703 3.33398C1.70703 4.78373 2.88228 5.95898 4.33203 5.95898V4.70898C3.57264 4.70898 2.95703 4.09338 2.95703 3.33398H1.70703ZM4.33203 0.708984C2.88228 0.708984 1.70703 1.88424 1.70703 3.33398H2.95703C2.95703 2.57459 3.57264 1.95898 4.33203 1.95898V0.708984ZM14.2904 6.66732C14.2904 5.58576 13.4136 4.70898 12.332 4.70898V5.95898C12.7232 5.95898 13.0404 6.27612 13.0404 6.66732H14.2904Z" fill="#667085"/>
</svg>
