<svg width="18" height="18" viewBox="0 0 18 18" fill="none" xmlns="http://www.w3.org/2000/svg">
<g id="bubble-chat-notification" clip-path="url(#clip0_3308_235413)">
<g id="elements">
<path id="Vector" d="M16.5 8.67504C16.5 12.6374 13.1417 15.8501 9 15.8501C8.51301 15.8507 8.02743 15.8057 7.54906 15.7158C7.20474 15.6512 7.03259 15.6188 6.9124 15.6372C6.79221 15.6556 6.62188 15.7461 6.28124 15.9273C5.3176 16.4398 4.19396 16.6207 3.11333 16.4197C3.52406 15.9145 3.80456 15.3084 3.92833 14.6586C4.00333 14.2611 3.8175 13.875 3.53917 13.5923C2.275 12.3087 1.5 10.5788 1.5 8.67504C1.5 4.71268 4.85833 1.5 9 1.5C9.51369 1.5 10.0153 1.54942 10.5 1.64357" stroke="#475467" stroke-width="1.5" stroke-linecap="round" stroke-linejoin="round"/>
<path id="Vector_2" d="M17.25 4.125C17.25 5.57475 16.0747 6.75 14.625 6.75C13.1753 6.75 12 5.57475 12 4.125C12 2.67525 13.1753 1.5 14.625 1.5C16.0747 1.5 17.25 2.67525 17.25 4.125Z" stroke="#475467" stroke-width="1.5"/>
<path id="Vector_3" d="M8.99664 9H9.00336M11.9933 9H12M6 9H6.00673" stroke="#475467" stroke-width="2" stroke-linecap="round" stroke-linejoin="round"/>
</g>
</g>
<defs>
<clipPath id="clip0_3308_235413">
<rect width="18" height="18" fill="white"/>
</clipPath>
</defs>
</svg>
