<svg width="96" height="24" viewBox="0 0 96 24" fill="none" xmlns="http://www.w3.org/2000/svg">
<rect x="0.5" width="95" height="24" rx="6" fill="#FEE4E2"/>
<circle cx="16.5" cy="12" r="3" fill="#9A221A"/>
<path d="M24.944 11.812C24.944 10.996 25.132 10.264 25.508 9.616C25.892 8.968 26.408 8.464 27.056 8.104C27.712 7.736 28.428 7.552 29.204 7.552C30.092 7.552 30.88 7.772 31.568 8.212C32.264 8.644 32.768 9.26 33.08 10.06H31.436C31.22 9.62 30.92 9.292 30.536 9.076C30.152 8.86 29.708 8.752 29.204 8.752C28.652 8.752 28.16 8.876 27.728 9.124C27.296 9.372 26.956 9.728 26.708 10.192C26.468 10.656 26.348 11.196 26.348 11.812C26.348 12.428 26.468 12.968 26.708 13.432C26.956 13.896 27.296 14.256 27.728 14.512C28.16 14.76 28.652 14.884 29.204 14.884C29.708 14.884 30.152 14.776 30.536 14.56C30.92 14.344 31.22 14.016 31.436 13.576H33.08C32.768 14.376 32.264 14.992 31.568 15.424C30.88 15.856 30.092 16.072 29.204 16.072C28.42 16.072 27.704 15.892 27.056 15.532C26.408 15.164 25.892 14.656 25.508 14.008C25.132 13.36 24.944 12.628 24.944 11.812ZM34.2253 12.664C34.2253 12 34.3613 11.412 34.6333 10.9C34.9133 10.388 35.2893 9.992 35.7613 9.712C36.2413 9.424 36.7693 9.28 37.3453 9.28C37.8653 9.28 38.3173 9.384 38.7013 9.592C39.0933 9.792 39.4053 10.044 39.6373 10.348V9.388H41.0173V16H39.6373V15.016C39.4053 15.328 39.0893 15.588 38.6893 15.796C38.2893 16.004 37.8333 16.108 37.3213 16.108C36.7533 16.108 36.2333 15.964 35.7613 15.676C35.2893 15.38 34.9133 14.972 34.6333 14.452C34.3613 13.924 34.2253 13.328 34.2253 12.664ZM39.6373 12.688C39.6373 12.232 39.5413 11.836 39.3493 11.5C39.1653 11.164 38.9213 10.908 38.6173 10.732C38.3133 10.556 37.9853 10.468 37.6333 10.468C37.2813 10.468 36.9533 10.556 36.6493 10.732C36.3453 10.9 36.0973 11.152 35.9053 11.488C35.7213 11.816 35.6293 12.208 35.6293 12.664C35.6293 13.12 35.7213 13.52 35.9053 13.864C36.0973 14.208 36.3453 14.472 36.6493 14.656C36.9613 14.832 37.2893 14.92 37.6333 14.92C37.9853 14.92 38.3133 14.832 38.6173 14.656C38.9213 14.48 39.1653 14.224 39.3493 13.888C39.5413 13.544 39.6373 13.144 39.6373 12.688ZM46.1501 9.28C46.6701 9.28 47.1341 9.388 47.5421 9.604C47.9581 9.82 48.2821 10.14 48.5141 10.564C48.7461 10.988 48.8621 11.5 48.8621 12.1V16H47.5061V12.304C47.5061 11.712 47.3581 11.26 47.0621 10.948C46.7661 10.628 46.3621 10.468 45.8501 10.468C45.3381 10.468 44.9301 10.628 44.6261 10.948C44.3301 11.26 44.1821 11.712 44.1821 12.304V16H42.8141V9.388H44.1821V10.144C44.4061 9.872 44.6901 9.66 45.0341 9.508C45.3861 9.356 45.7581 9.28 46.1501 9.28ZM50.151 12.688C50.151 12.008 50.287 11.412 50.559 10.9C50.839 10.38 51.223 9.98 51.711 9.7C52.199 9.42 52.759 9.28 53.391 9.28C54.191 9.28 54.851 9.472 55.371 9.856C55.899 10.232 56.255 10.772 56.439 11.476H54.963C54.843 11.148 54.651 10.892 54.387 10.708C54.123 10.524 53.791 10.432 53.391 10.432C52.831 10.432 52.383 10.632 52.047 11.032C51.719 11.424 51.555 11.976 51.555 12.688C51.555 13.4 51.719 13.956 52.047 14.356C52.383 14.756 52.831 14.956 53.391 14.956C54.183 14.956 54.707 14.608 54.963 13.912H56.439C56.247 14.584 55.887 15.12 55.359 15.52C54.831 15.912 54.175 16.108 53.391 16.108C52.759 16.108 52.199 15.968 51.711 15.688C51.223 15.4 50.839 15 50.559 14.488C50.287 13.968 50.151 13.368 50.151 12.688ZM63.8623 12.532C63.8623 12.78 63.8463 13.004 63.8143 13.204H58.7623C58.8023 13.732 58.9983 14.156 59.3503 14.476C59.7023 14.796 60.1343 14.956 60.6463 14.956C61.3823 14.956 61.9023 14.648 62.2063 14.032H63.6823C63.4823 14.64 63.1183 15.14 62.5903 15.532C62.0703 15.916 61.4223 16.108 60.6463 16.108C60.0143 16.108 59.4463 15.968 58.9423 15.688C58.4463 15.4 58.0543 15 57.7663 14.488C57.4863 13.968 57.3463 13.368 57.3463 12.688C57.3463 12.008 57.4823 11.412 57.7543 10.9C58.0343 10.38 58.4223 9.98 58.9183 9.7C59.4223 9.42 59.9983 9.28 60.6463 9.28C61.2703 9.28 61.8263 9.416 62.3143 9.688C62.8023 9.96 63.1823 10.344 63.4543 10.84C63.7263 11.328 63.8623 11.892 63.8623 12.532ZM62.4343 12.1C62.4263 11.596 62.2463 11.192 61.8943 10.888C61.5423 10.584 61.1063 10.432 60.5863 10.432C60.1143 10.432 59.7103 10.584 59.3743 10.888C59.0383 11.184 58.8383 11.588 58.7743 12.1H62.4343ZM66.5766 7.12V16H65.2086V7.12H66.5766ZM74.4327 12.532C74.4327 12.78 74.4167 13.004 74.3847 13.204H69.3327C69.3727 13.732 69.5687 14.156 69.9207 14.476C70.2727 14.796 70.7047 14.956 71.2167 14.956C71.9527 14.956 72.4727 14.648 72.7767 14.032H74.2527C74.0527 14.64 73.6887 15.14 73.1607 15.532C72.6407 15.916 71.9927 16.108 71.2167 16.108C70.5847 16.108 70.0167 15.968 69.5127 15.688C69.0167 15.4 68.6247 15 68.3367 14.488C68.0567 13.968 67.9167 13.368 67.9167 12.688C67.9167 12.008 68.0527 11.412 68.3247 10.9C68.6047 10.38 68.9927 9.98 69.4887 9.7C69.9927 9.42 70.5687 9.28 71.2167 9.28C71.8407 9.28 72.3967 9.416 72.8847 9.688C73.3727 9.96 73.7527 10.344 74.0247 10.84C74.2967 11.328 74.4327 11.892 74.4327 12.532ZM73.0047 12.1C72.9967 11.596 72.8167 11.192 72.4647 10.888C72.1127 10.584 71.6767 10.432 71.1567 10.432C70.6847 10.432 70.2807 10.584 69.9447 10.888C69.6087 11.184 69.4087 11.588 69.3447 12.1H73.0047ZM75.3229 12.664C75.3229 12 75.4589 11.412 75.7309 10.9C76.0109 10.388 76.3869 9.992 76.8589 9.712C77.3389 9.424 77.8709 9.28 78.4549 9.28C78.8869 9.28 79.3109 9.376 79.7269 9.568C80.1509 9.752 80.4869 10 80.7349 10.312V7.12H82.1149V16H80.7349V15.004C80.5109 15.324 80.1989 15.588 79.7989 15.796C79.4069 16.004 78.9549 16.108 78.4429 16.108C77.8669 16.108 77.3389 15.964 76.8589 15.676C76.3869 15.38 76.0109 14.972 75.7309 14.452C75.4589 13.924 75.3229 13.328 75.3229 12.664ZM80.7349 12.688C80.7349 12.232 80.6389 11.836 80.4469 11.5C80.2629 11.164 80.0189 10.908 79.7149 10.732C79.4109 10.556 79.0829 10.468 78.7309 10.468C78.3789 10.468 78.0509 10.556 77.7469 10.732C77.4429 10.9 77.1949 11.152 77.0029 11.488C76.8189 11.816 76.7269 12.208 76.7269 12.664C76.7269 13.12 76.8189 13.52 77.0029 13.864C77.1949 14.208 77.4429 14.472 77.7469 14.656C78.0589 14.832 78.3869 14.92 78.7309 14.92C79.0829 14.92 79.4109 14.832 79.7149 14.656C80.0189 14.48 80.2629 14.224 80.4469 13.888C80.6389 13.544 80.7349 13.144 80.7349 12.688Z" fill="#9A221A"/>
</svg>
