<svg width="116" height="20" viewBox="0 0 116 20" fill="none" xmlns="http://www.w3.org/2000/svg">
<path d="M11.439 2.86754L12.9056 5.82479C13.1055 6.23645 13.6388 6.63131 14.0888 6.70692L16.7468 7.15219C18.4466 7.43784 18.8466 8.68122 17.6217 9.90781L15.5553 11.9913C15.2053 12.3442 15.0136 13.0247 15.122 13.512L15.7136 16.0911C16.1802 18.1327 15.1053 18.9224 13.3138 17.8554L10.8224 16.3684C10.3725 16.0995 9.63091 16.0995 9.17263 16.3684L6.68124 17.8554C4.8981 18.9224 3.81489 18.1243 4.2815 16.0911L4.87311 13.512C4.98143 13.0247 4.78978 12.3442 4.43982 11.9913L2.37338 9.90781C1.15685 8.68122 1.54847 7.43784 3.24828 7.15219L5.90632 6.70692C6.34794 6.63131 6.88122 6.23645 7.08119 5.82479L8.5477 2.86754C9.34761 1.2629 10.6475 1.2629 11.439 2.86754Z" fill="#98A2B3"/>
<path d="M35.439 2.86754L36.9056 5.82479C37.1055 6.23645 37.6388 6.63131 38.0888 6.70692L40.7468 7.15219C42.4466 7.43784 42.8466 8.68122 41.6217 9.90781L39.5553 11.9913C39.2053 12.3442 39.0136 13.0247 39.122 13.512L39.7136 16.0911C40.1802 18.1327 39.1053 18.9224 37.3138 17.8554L34.8224 16.3684C34.3725 16.0995 33.6309 16.0995 33.1726 16.3684L30.6812 17.8554C28.8981 18.9224 27.8149 18.1243 28.2815 16.0911L28.8731 13.512C28.9814 13.0247 28.7898 12.3442 28.4398 11.9913L26.3734 9.90781C25.1568 8.68122 25.5485 7.43784 27.2483 7.15219L29.9063 6.70692C30.3479 6.63131 30.8812 6.23645 31.0812 5.82479L32.5477 2.86754C33.3476 1.2629 34.6475 1.2629 35.439 2.86754Z" fill="#98A2B3"/>
<path d="M59.439 2.86754L60.9056 5.82479C61.1055 6.23645 61.6388 6.63131 62.0888 6.70692L64.7468 7.15219C66.4466 7.43784 66.8466 8.68122 65.6217 9.90781L63.5553 11.9913C63.2053 12.3442 63.0136 13.0247 63.122 13.512L63.7136 16.0911C64.1802 18.1327 63.1053 18.9224 61.3138 17.8554L58.8224 16.3684C58.3725 16.0995 57.6309 16.0995 57.1726 16.3684L54.6812 17.8554C52.8981 18.9224 51.8149 18.1243 52.2815 16.0911L52.8731 13.512C52.9814 13.0247 52.7898 12.3442 52.4398 11.9913L50.3734 9.90781C49.1568 8.68122 49.5485 7.43784 51.2483 7.15219L53.9063 6.70692C54.3479 6.63131 54.8812 6.23645 55.0812 5.82479L56.5477 2.86754C57.3476 1.2629 58.6475 1.2629 59.439 2.86754Z" fill="#98A2B3"/>
<path d="M83.439 2.86754L84.9056 5.82479C85.1055 6.23645 85.6388 6.63131 86.0888 6.70692L88.7468 7.15219C90.4466 7.43784 90.8466 8.68122 89.6217 9.90781L87.5553 11.9913C87.2053 12.3442 87.0136 13.0247 87.122 13.512L87.7136 16.0911C88.1802 18.1327 87.1053 18.9224 85.3138 17.8554L82.8224 16.3684C82.3725 16.0995 81.6309 16.0995 81.1726 16.3684L78.6812 17.8554C76.8981 18.9224 75.8149 18.1243 76.2815 16.0911L76.8731 13.512C76.9814 13.0247 76.7898 12.3442 76.4398 11.9913L74.3734 9.90781C73.1568 8.68122 73.5485 7.43784 75.2483 7.15219L77.9063 6.70692C78.3479 6.63131 78.8812 6.23645 79.0812 5.82479L80.5477 2.86754C81.3476 1.2629 82.6475 1.2629 83.439 2.86754Z" fill="#98A2B3"/>
<path d="M106.767 3.20075L106.766 3.19935C106.423 2.50386 106.1 2.41406 105.996 2.41406C105.892 2.41406 105.566 2.50548 105.219 3.20145C105.219 3.20168 105.219 3.20191 105.219 3.20215L103.754 6.15563C103.588 6.49689 103.312 6.78417 103.033 6.99257C102.754 7.20146 102.402 7.38299 102.033 7.44617L102.03 7.44662L99.3726 7.89182C98.6557 8.01229 98.4689 8.28788 98.4322 8.40359C98.3946 8.52217 98.3909 8.86043 98.9059 9.37967L100.972 11.4632L100.44 11.9913L100.972 11.4632C101.259 11.7523 101.447 12.1341 101.55 12.4964C101.653 12.8592 101.693 13.2807 101.605 13.6747L101.604 13.6796L101.604 13.6796L101.013 16.2588L101.012 16.2589C100.794 17.21 101.031 17.494 101.082 17.5317C101.13 17.5665 101.464 17.71 102.296 17.2118L102.297 17.2114L104.788 15.7244L104.793 15.7215L104.793 15.7215C105.164 15.5041 105.603 15.4168 106.001 15.4168C106.398 15.4168 106.838 15.5038 107.207 15.7244C107.207 15.7244 107.207 15.7245 107.207 15.7246L109.698 17.211C109.698 17.2111 109.698 17.2112 109.698 17.2113C110.538 17.7115 110.871 17.5678 110.916 17.5346C110.965 17.4992 111.202 17.2177 110.983 16.2588L106.767 3.20075ZM106.767 3.20075L108.232 6.15563C108.399 6.49712 108.675 6.78474 108.956 6.99362C109.238 7.20328 109.592 7.38397 109.964 7.44655L109.965 7.44662L112.623 7.89182C113.34 8.01242 113.529 8.28863 113.566 8.40495C113.604 8.52176 113.609 8.85879 113.091 9.37785L113.089 9.37967L111.023 11.4632C110.736 11.7523 110.548 12.1341 110.445 12.4964C110.342 12.8592 110.302 13.2807 110.39 13.6747L110.39 13.6747L110.391 13.6796L110.982 16.2583L106.767 3.20075Z" stroke="#98A2B3" stroke-width="1.5" stroke-linecap="round" stroke-linejoin="round"/>
<mask id="mask0_608_19628" style="mask-type:alpha" maskUnits="userSpaceOnUse" x="97" y="1" width="18" height="18">
<path d="M107.439 2.86754L108.906 5.82479C109.106 6.23645 109.639 6.63131 110.089 6.70692L112.747 7.15219C114.447 7.43784 114.847 8.68122 113.622 9.90781L111.555 11.9913C111.205 12.3442 111.014 13.0247 111.122 13.512L111.714 16.0911C112.18 18.1327 111.105 18.9224 109.314 17.8554L106.822 16.3684C106.372 16.0995 105.631 16.0995 105.173 16.3684L102.681 17.8554C100.898 18.9224 99.8149 18.1243 100.282 16.0911L100.873 13.512C100.981 13.0247 100.79 12.3442 100.44 11.9913L98.3734 9.90781C97.1568 8.68122 97.5485 7.43784 99.2483 7.15219L101.906 6.70692C102.348 6.63131 102.881 6.23645 103.081 5.82479L104.548 2.86754C105.348 1.2629 106.647 1.2629 107.439 2.86754Z" fill="#F78E09"/>
</mask>
<g mask="url(#mask0_608_19628)">
<rect x="96" y="1" width="24" height="21" fill="#98A2B3"/>
</g>
</svg>
