<svg width="16" height="16" viewBox="0 0 16 16" fill="none" xmlns="http://www.w3.org/2000/svg">
<path d="M13.8493 12C14.3489 12 14.7462 11.6857 15.103 11.2461C15.8333 10.3463 14.6342 9.6272 14.1769 9.27507C13.712 8.91707 13.1929 8.71427 12.6667 8.66667M12 7.33333C12.9205 7.33333 13.6667 6.58714 13.6667 5.66667C13.6667 4.74619 12.9205 4 12 4" stroke="#791F89" stroke-width="1.2" stroke-linecap="round"/>
<path d="M2.15048 12C1.65094 12 1.25362 11.6857 0.896869 11.2461C0.166562 10.3463 1.36562 9.6272 1.82294 9.27507C2.28782 8.91707 2.80689 8.71427 3.33317 8.66667M3.6665 7.33333C2.74603 7.33333 1.99984 6.58714 1.99984 5.66667C1.99984 4.74619 2.74603 4 3.6665 4" stroke="#791F89" stroke-width="1.2" stroke-linecap="round"/>
<path d="M5.38904 10.0742C4.70786 10.4954 2.92183 11.3554 4.00964 12.4316C4.54102 12.9574 5.13285 13.3334 5.87692 13.3334H10.1228C10.8668 13.3334 11.4586 12.9574 11.99 12.4316C13.0778 11.3554 11.2918 10.4954 10.6106 10.0742C9.01324 9.08644 6.98644 9.08644 5.38904 10.0742Z" stroke="#791F89" stroke-width="1.2" stroke-linecap="round" stroke-linejoin="round"/>
<path d="M10.3332 4.99996C10.3332 6.28863 9.2885 7.33329 7.99984 7.33329C6.71117 7.33329 5.6665 6.28863 5.6665 4.99996C5.6665 3.71129 6.71117 2.66663 7.99984 2.66663C9.2885 2.66663 10.3332 3.71129 10.3332 4.99996Z" stroke="#791F89" stroke-width="1.2"/>
</svg>
