<svg width="20" height="20" viewBox="0 0 20 20" fill="none" xmlns="http://www.w3.org/2000/svg">
<g clip-path="url(#clip0_1659_80260)">
<path d="M18.3346 9.63633C18.3346 14.0389 14.6032 17.6086 10.0013 17.6086C9.46021 17.6093 8.92067 17.5593 8.38915 17.4594C8.00657 17.3876 7.81528 17.3517 7.68174 17.3721C7.5482 17.3925 7.35895 17.4931 6.98046 17.6944C5.90975 18.2638 4.66126 18.4649 3.46056 18.2415C3.91692 17.6802 4.22859 17.0067 4.36612 16.2847C4.44945 15.8431 4.24297 15.414 3.93371 15.1C2.52908 13.6737 1.66797 11.7516 1.66797 9.63633C1.66797 5.2337 5.39945 1.66406 10.0013 1.66406C14.6032 1.66406 18.3346 5.2337 18.3346 9.63633Z" stroke="#182230" stroke-width="1.5" stroke-linejoin="round"/>
<path d="M9.99756 10H10.005M13.3272 10H13.3346M6.66797 10H6.67545" stroke="#182230" stroke-width="2" stroke-linecap="round" stroke-linejoin="round"/>
</g>
<defs>
<clipPath id="clip0_1659_80260">
<rect width="20" height="20" fill="white"/>
</clipPath>
</defs>
</svg>
