<svg width="28" height="28" viewBox="0 0 28 28" fill="none" xmlns="http://www.w3.org/2000/svg">
<rect x="0.583333" y="0.583333" width="26.8333" height="26.8333" rx="5.25" fill="white"/>
<rect x="0.583333" y="0.583333" width="26.8333" height="26.8333" rx="5.25" stroke="#D0D5DD" stroke-width="1.16667"/>
<g clip-path="url(#clip0_2120_2900)">
<path d="M12 16C12 14.1144 12 13.1716 12.5858 12.5858C13.1716 12 14.1144 12 16 12H16.6667C18.5523 12 19.4951 12 20.0809 12.5858C20.6667 13.1716 20.6667 14.1144 20.6667 16V16.6667C20.6667 18.5523 20.6667 19.4951 20.0809 20.0809C19.4951 20.6667 18.5523 20.6667 16.6667 20.6667H16C14.1144 20.6667 13.1716 20.6667 12.5858 20.0809C12 19.4951 12 18.5523 12 16.6667V16Z" stroke="#667085" stroke-width="1.2" stroke-linecap="round" stroke-linejoin="round"/>
<path d="M17.3349 11.9999C17.3333 10.0285 17.3035 9.00739 16.7296 8.30821C16.6188 8.17318 16.495 8.04937 16.36 7.93856C15.6224 7.33325 14.5266 7.33325 12.335 7.33325C10.1433 7.33325 9.04748 7.33325 8.30991 7.93856C8.17489 8.04937 8.05108 8.17318 7.94027 8.30821C7.33496 9.04577 7.33496 10.1416 7.33496 12.3333C7.33496 14.5249 7.33496 15.6207 7.94027 16.3583C8.05107 16.4933 8.17489 16.6171 8.30991 16.7279C9.0091 17.3018 10.0302 17.3316 12.0016 17.3332" stroke="#667085" stroke-width="1.2" stroke-linecap="round" stroke-linejoin="round"/>
</g>
<defs>
<clipPath id="clip0_2120_2900">
<rect width="16" height="16" fill="white" transform="translate(6 6)"/>
</clipPath>
</defs>
</svg>
