<svg width="18" height="18" viewBox="0 0 18 18" fill="none" xmlns="http://www.w3.org/2000/svg">
<path d="M5.25 5.25H12.5625C14.1425 5.25 14.9325 5.25 15.5 5.62919C15.7457 5.79335 15.9567 6.00429 16.1208 6.24997C16.5 6.81747 16.5 7.60748 16.5 9.1875C16.5 11.8209 16.5 13.1375 15.868 14.0834C15.5944 14.4929 15.2429 14.8444 14.8334 15.118C13.8875 15.75 12.5709 15.75 9.9375 15.75H9C5.46447 15.75 3.6967 15.75 2.59835 14.6517C1.5 13.5533 1.5 11.7855 1.5 8.25V5.9582C1.5 4.59585 1.5 3.91467 1.78524 3.40355C1.98857 3.0392 2.2892 2.73857 2.65355 2.53524C3.16467 2.25 3.84585 2.25 5.2082 2.25C6.08102 2.25 6.51742 2.25 6.89944 2.39326C7.77167 2.72034 8.13134 3.51268 8.52492 4.29984L9 5.25" stroke="#475467" stroke-width="1.5" stroke-linecap="round"/>
</svg>
