<svg width="37" height="30" viewBox="0 0 37 30" fill="none" xmlns="http://www.w3.org/2000/svg">
<path d="M29.504 26.2658V28.73C29.504 28.8573 29.1549 29.0078 28.5283 29.1581C27.1881 29.482 24.5679 29.8117 21.3632 29.9428C20.4377 29.9814 19.464 30.0025 18.4575 30.0025C17.9657 30.0025 17.4818 29.9968 17.0056 29.989C13.6621 29.9196 10.7776 29.6285 9.04805 29.3103C7.96051 29.1098 7.33008 28.8996 7.33008 28.7299V26.2656L29.504 26.2658Z" fill="url(#paint0_linear_3308_38667)"/>
<g style="mix-blend-mode:multiply">
<path d="M28.5296 29.1531C27.1894 29.4771 24.5692 29.8067 21.3646 29.9378L21.3105 26.6137L24.8797 26.2608L28.4488 25.908L28.4585 26.2608L28.5296 29.1531Z" fill="url(#paint1_linear_3308_38667)"/>
</g>
<g style="mix-blend-mode:screen" opacity="0.85">
<path d="M17.0257 26.2668C17.0219 26.6389 16.9987 28.5287 17.0044 29.9901C13.6609 29.9206 10.7765 29.6296 9.04688 29.3113L9.068 26.4923L15.2767 26.2667L17.0275 26.2031C17.0275 26.2031 17.0276 26.2263 17.0257 26.2668Z" fill="url(#paint2_linear_3308_38667)"/>
</g>
<path d="M29.504 26.2787C29.504 26.891 24.5322 27.6043 18.409 27.6043C12.2858 27.6043 7.33008 26.891 7.33008 26.2787C7.33008 25.6665 12.2939 25.17 18.4171 25.17C24.5401 25.17 29.504 25.6663 29.504 26.2787Z" fill="#FADF52"/>
<path d="M29.504 26.2787C29.504 26.891 24.5322 27.6043 18.409 27.6043C12.2858 27.6043 7.33008 26.891 7.33008 26.2787C7.33008 25.6665 12.2939 25.17 18.4171 25.17C24.5401 25.17 29.504 25.6663 29.504 26.2787Z" fill="#FADF52"/>
<path d="M18.406 27.4602C13.1537 27.4602 8.74273 26.9589 7.45312 26.436C8.25982 27.002 12.8528 27.5888 18.4061 27.5888C23.9613 27.5888 28.5684 27.0017 29.3754 26.4355C28.0839 26.9586 23.6601 27.4602 18.406 27.4602Z" fill="#FFFF73"/>
<path d="M35.1907 11.252C34.9805 11.5836 34.7722 11.9229 34.5698 12.2701C34.4695 12.4379 34.3731 12.6057 34.2766 12.7773C30.9929 18.5521 28.7563 25.7712 28.6561 26.1008C28.6599 26.1105 28.6639 26.1201 28.6639 26.1298C28.6639 26.5751 25.4592 26.9493 21.1054 27.0611C20.2667 27.0824 19.3855 27.0938 18.4755 27.0938H18.4176C15.859 27.0938 13.5182 27.0052 11.7211 26.8585C11.3085 26.8258 10.9229 26.7891 10.5719 26.7505C9.07368 26.5827 8.1695 26.3649 8.1695 26.1296C8.1695 26.1258 8.17331 26.1218 8.17331 26.118C8.02094 25.6205 5.82091 18.5498 2.60676 12.8598C2.49491 12.6632 2.38306 12.4665 2.2693 12.2737C2.06498 11.9266 1.85859 11.5853 1.64648 11.2537C1.73514 11.3038 4.56386 12.9139 7.32696 13.9841C9.06225 14.6531 10.7726 15.112 11.7637 14.8363C11.7753 14.8325 11.7869 14.8304 11.7985 14.8266C14.5981 13.9917 18.0535 2.81604 18.391 1.69975C18.4045 1.66304 18.4121 1.63603 18.4161 1.6227V1.60919C18.4199 1.60919 18.4199 1.6227 18.4199 1.6227C18.4969 1.88294 19.8139 6.24454 21.4761 9.89451C22.5964 12.3491 23.8728 14.4816 25.0355 14.8268C27.6052 15.5942 35.1907 11.252 35.1907 11.252Z" fill="url(#paint3_linear_3308_38667)"/>
<path d="M35.1907 11.252C34.9805 11.5836 34.7722 11.9229 34.5698 12.2701C34.4695 12.4379 34.3731 12.6057 34.2766 12.7773C30.9929 18.5521 28.7563 25.7712 28.6561 26.1008C28.6599 26.1105 28.6639 26.1201 28.6639 26.1298C28.6639 26.5751 25.4592 26.9493 21.1054 27.0611C20.2667 27.0824 19.3855 27.0938 18.4755 27.0938H18.4176C15.859 27.0938 13.5182 27.0052 11.7211 26.8585C11.3085 26.8258 10.9229 26.7891 10.5719 26.7505C9.07368 26.5827 8.1695 26.3649 8.1695 26.1296C8.1695 26.1258 8.17331 26.1218 8.17331 26.118C8.02094 25.6205 5.82091 18.5498 2.60676 12.8598C2.49491 12.6632 2.38306 12.4665 2.2693 12.2737C2.06498 11.9266 1.85859 11.5853 1.64648 11.2537C1.73514 11.3038 4.56386 12.9139 7.32696 13.9841C9.06225 14.6531 10.7726 15.112 11.7637 14.8363C11.7753 14.8325 11.7869 14.8304 11.7985 14.8266C14.5981 13.9917 18.0535 2.81604 18.391 1.69975C18.4045 1.66304 18.4121 1.63603 18.4161 1.6227V1.60919C18.4199 1.60919 18.4199 1.6227 18.4199 1.6227C18.4969 1.88294 19.8139 6.24454 21.4761 9.89451C22.5964 12.3491 23.8728 14.4816 25.0355 14.8268C27.6052 15.5942 35.1907 11.252 35.1907 11.252Z" fill="url(#paint4_linear_3308_38667)"/>
<g style="mix-blend-mode:screen" opacity="0.85">
<path d="M21.4218 27.0836H18.4176C15.859 27.0836 13.5182 26.9949 11.7211 26.8482C11.3085 26.8155 10.9229 26.7788 10.5719 26.7402C9.07368 26.5724 8.1695 26.3546 8.1695 26.1193C8.1695 26.1155 8.17331 26.1115 8.17331 26.1077C8.02094 25.614 5.85572 18.6514 2.68191 12.9846C2.38306 12.4504 2.07641 11.9279 1.76024 11.4247C1.72163 11.3631 1.6851 11.3032 1.64648 11.2434C1.65809 11.2512 1.71973 11.2859 1.82587 11.3437C2.13061 11.5134 2.80346 11.8817 3.6692 12.3194C4.70844 12.8438 6.0235 13.4686 7.32696 13.9738C9.06225 14.6428 10.7726 15.1017 11.7637 14.826C11.7753 14.8222 11.7869 14.8202 11.7985 14.8163C14.5982 13.9814 18.0535 2.80574 18.391 1.68945L21.4218 27.0836Z" fill="url(#paint5_linear_3308_38667)"/>
</g>
<g style="mix-blend-mode:multiply">
<path d="M34.1899 12.9334C30.9545 18.6812 28.7564 25.7808 28.6561 26.1086C28.6599 26.1183 28.6639 26.1278 28.6639 26.1375C28.6639 26.5828 25.4593 26.957 21.1055 27.0688L21.4757 9.9024C22.5959 12.357 23.8724 14.4895 25.0351 14.8347C26.8341 15.3727 31.0934 13.404 33.4844 12.1758C34.5082 11.6495 35.1907 11.2599 35.1907 11.2599C34.8474 11.7977 34.5137 12.3587 34.1899 12.9334Z" fill="url(#paint6_linear_3308_38667)"/>
</g>
<path d="M34.5707 12.2632C34.4704 12.4309 34.374 12.5987 34.2775 12.7703C32.1759 13.8925 27.0566 17.126 25.0358 16.5226C23.8731 16.1775 22.5966 14.0448 21.4763 11.5903C19.8143 7.94033 18.4973 3.57873 18.4201 3.31848V3.30498C18.4163 3.30498 18.4163 3.31848 18.4163 3.31848C18.4125 3.33199 18.4047 3.359 18.3912 3.39553C18.0537 4.51199 14.5986 15.6877 11.7987 16.5224C11.7871 16.5262 11.7755 16.5281 11.7639 16.5321C10.7728 16.8078 9.06266 16.3489 7.32719 15.6799C5.63224 15.0243 3.73107 13.5261 2.607 12.8532C2.49514 12.6565 2.38329 12.4598 2.26953 12.2671C3.26635 12.807 5.31417 13.8733 7.32719 14.6523C9.06248 15.3213 10.7728 15.7801 11.7639 15.5045C11.7755 15.5007 11.7871 15.4986 11.7987 15.4948C14.5984 14.6599 18.0537 3.48419 18.3912 2.3679C18.4047 2.33119 18.4123 2.30418 18.4163 2.29085V2.27734C18.4201 2.27734 18.4201 2.29085 18.4201 2.29085C18.4972 2.55109 19.8141 6.9127 21.4763 10.5627C22.5966 13.0172 23.8731 15.1497 25.0358 15.495C27.1608 16.1292 32.7081 13.2736 34.5707 12.2632Z" fill="url(#paint7_linear_3308_38667)"/>
<path d="M35.1908 11.252C34.8766 11.7475 34.5699 12.2604 34.2711 12.7849C33.5056 13.1937 32.3372 13.7933 31.0645 14.3621C28.8529 15.3473 26.3251 16.2343 25.0409 15.8564C23.8725 15.5092 22.596 13.3767 21.4758 10.9221C20.1183 7.94122 18.9923 4.48588 18.5816 3.17861C18.489 2.88356 18.4332 2.69847 18.4197 2.65033V2.63683C18.4159 2.63683 18.4159 2.65033 18.4159 2.65033C18.4121 2.66384 18.4043 2.69085 18.3908 2.72738C18.3638 2.81413 18.3195 2.9646 18.2559 3.1651C17.5541 5.40564 14.7003 14.1036 12.2073 15.6635C12.0704 15.7502 11.9336 15.8139 11.7985 15.8543C11.7869 15.8581 11.7753 15.86 11.7637 15.864C10.7726 16.1396 9.06243 15.6808 7.32696 15.0117C6.84492 14.8247 6.36097 14.6223 5.89052 14.414C4.57165 13.8298 3.35494 13.207 2.56435 12.7847C2.2674 12.2602 1.96075 11.7474 1.64648 11.2537C1.71401 11.2923 3.38386 12.2429 5.40259 13.1665C6.0216 13.4499 6.67713 13.7315 7.32696 13.9841C9.06225 14.6531 10.7726 15.112 11.7637 14.8363C11.7753 14.8325 11.7869 14.8304 11.7985 14.8266C11.9315 14.7861 12.0665 14.7245 12.2014 14.6396C14.4266 13.2591 16.9389 6.18654 17.9551 3.07836C18.1808 2.38801 18.3331 1.89246 18.391 1.69975C18.4045 1.66304 18.4121 1.63603 18.4161 1.6227V1.60919C18.4199 1.60919 18.4199 1.6227 18.4199 1.6227C18.4469 1.71135 18.6147 2.27252 18.8922 3.11905C19.4321 4.76378 20.3789 7.48446 21.4759 9.89468C22.5654 12.2838 23.8032 14.3661 24.9408 14.7962C24.9735 14.8078 25.0044 14.8173 25.0354 14.827C26.3175 15.2107 28.8474 14.3217 31.0609 13.3346C33.2859 12.3433 35.1908 11.252 35.1908 11.252Z" fill="#FADF52"/>
<path opacity="0.65" d="M18.5469 25.006L22.8912 22.6351L22.8429 17.2121L18.5469 14.5645V25.006Z" fill="url(#paint8_linear_3308_38667)"/>
<g style="mix-blend-mode:screen" opacity="0.85">
<path d="M12.2089 15.6513C12.0719 15.738 11.9351 15.8017 11.8 15.8421C11.7884 15.8459 11.7768 15.8478 11.7652 15.8518C10.7741 16.1274 9.06396 15.6686 7.32849 14.9995C6.84645 14.8125 6.3625 14.6101 5.89206 14.4018L5.4043 13.1543C6.0233 13.4377 6.67884 13.7193 7.32867 13.9719C9.06396 14.6409 10.7743 15.0998 11.7654 14.8241C11.777 14.8203 11.7886 14.8183 11.8002 14.8144C11.9332 14.7739 12.0683 14.7123 12.2031 14.6274L12.2089 15.6513Z" fill="url(#paint9_linear_3308_38667)"/>
</g>
<path d="M35.189 11.25C34.8458 11.788 34.5121 12.3491 34.1882 12.9237C33.8912 12.7231 33.6599 12.4532 33.4824 12.166C34.5064 11.6394 35.189 11.25 35.189 11.25Z" fill="#DB7E40"/>
<path d="M35.0113 12.6632C35.7834 12.6632 36.4093 12.0373 36.4093 11.2652C36.4093 10.4931 35.7834 9.86719 35.0113 9.86719C34.2392 9.86719 33.6133 10.4931 33.6133 11.2652C33.6133 12.0373 34.2392 12.6632 35.0113 12.6632Z" fill="url(#paint10_radial_3308_38667)"/>
<g style="mix-blend-mode:screen">
<path d="M35.5755 10.9664C35.5755 11.4278 35.2015 11.802 34.7399 11.802C34.2785 11.802 33.9043 11.428 33.9043 10.9664C33.9043 10.5049 34.2783 10.1307 34.7399 10.1307C35.2013 10.1307 35.5755 10.5049 35.5755 10.9664Z" fill="url(#paint11_radial_3308_38667)"/>
</g>
<path d="M18.8922 3.11887C18.7841 3.1535 18.6801 3.17099 18.5817 3.17861C18.466 3.1883 18.358 3.18242 18.2558 3.1651C18.1459 3.14588 18.0456 3.11697 17.9551 3.07836C18.1807 2.38801 18.3331 1.89246 18.3909 1.69975C18.4044 1.66304 18.412 1.63603 18.416 1.6227V1.60919C18.4198 1.60919 18.4198 1.6227 18.4198 1.6227C18.4468 1.71135 18.6144 2.27235 18.8922 3.11887Z" fill="#DB7E40"/>
<path d="M18.4332 2.79405C19.2052 2.79405 19.8312 2.16814 19.8312 1.39605C19.8312 0.623952 19.2052 -0.00195312 18.4332 -0.00195312C17.6611 -0.00195312 17.0352 0.623952 17.0352 1.39605C17.0352 2.16814 17.6611 2.79405 18.4332 2.79405Z" fill="url(#paint12_radial_3308_38667)"/>
<g style="mix-blend-mode:screen">
<path d="M18.1618 1.93301C18.6233 1.93301 18.9974 1.55889 18.9974 1.09739C18.9974 0.635897 18.6233 0.26178 18.1618 0.26178C17.7003 0.26178 17.3262 0.635897 17.3262 1.09739C17.3262 1.55889 17.7003 1.93301 18.1618 1.93301Z" fill="url(#paint13_radial_3308_38667)"/>
</g>
<g style="mix-blend-mode:multiply">
<path d="M31.0634 14.3562C28.8517 15.3414 26.3239 16.2284 25.0397 15.8504L24.9395 14.7899C24.9722 14.8015 25.003 14.811 25.034 14.8207C26.3162 15.2044 28.846 14.3155 31.0596 13.3284C31.0596 13.6677 31.0615 14.0168 31.0634 14.3562Z" fill="url(#paint14_linear_3308_38667)"/>
</g>
<path d="M3.67068 12.3175C3.42394 12.6993 3.03626 12.8882 2.68339 12.9827C2.38453 12.4486 2.07789 11.926 1.76172 11.4228L1.82734 11.3418C2.13191 11.5115 2.80494 11.8798 3.67068 12.3175Z" fill="#DB7E40"/>
<path d="M1.99175 12.6632C2.76384 12.6632 3.38975 12.0373 3.38975 11.2652C3.38975 10.4931 2.76384 9.86719 1.99175 9.86719C1.21966 9.86719 0.59375 10.4931 0.59375 11.2652C0.59375 12.0373 1.21966 12.6632 1.99175 12.6632Z" fill="url(#paint15_radial_3308_38667)"/>
<g style="mix-blend-mode:screen">
<path d="M2.45638 10.9664C2.45638 11.4278 2.08238 11.802 1.62077 11.802C1.15933 11.802 0.785156 11.428 0.785156 10.9664C0.785156 10.5049 1.15916 10.1307 1.62077 10.1307C2.08221 10.1307 2.45638 10.5049 2.45638 10.9664Z" fill="url(#paint16_radial_3308_38667)"/>
</g>
<path opacity="0.65" d="M27.0522 21.3115L28.3151 20.608L28.2348 19.0815L26.9395 18.3984L27.0522 21.3115Z" fill="url(#paint17_linear_3308_38667)"/>
<path opacity="0.65" d="M10.4682 21.3115L11.7311 20.608L11.6508 19.0815L10.3555 18.3984L10.4682 21.3115Z" fill="url(#paint18_linear_3308_38667)"/>
<defs>
<linearGradient id="paint0_linear_3308_38667" x1="7.33006" y1="28.1342" x2="29.504" y2="28.1342" gradientUnits="userSpaceOnUse">
<stop stop-color="#EAA80C"/>
<stop offset="0.3459" stop-color="#FDCC06"/>
<stop offset="0.4836" stop-color="#FBC708"/>
<stop offset="0.6355" stop-color="#F5BA0D"/>
<stop offset="0.7943" stop-color="#EBA415"/>
<stop offset="0.9568" stop-color="#DC8521"/>
<stop offset="1" stop-color="#D87C25"/>
</linearGradient>
<linearGradient id="paint1_linear_3308_38667" x1="21.3105" y1="27.9229" x2="28.5295" y2="27.9229" gradientUnits="userSpaceOnUse">
<stop offset="1e-08" stop-color="white"/>
<stop offset="0.1047" stop-color="#FFE9C9"/>
<stop offset="0.2613" stop-color="#FFCB7F"/>
<stop offset="0.3914" stop-color="#FFB548"/>
<stop offset="0.488" stop-color="#FFA727"/>
<stop offset="0.5405" stop-color="#FFA21A"/>
<stop offset="0.5852" stop-color="#FFA727"/>
<stop offset="0.6676" stop-color="#FFB549"/>
<stop offset="0.7785" stop-color="#FFCB7F"/>
<stop offset="0.9122" stop-color="#FFE9CA"/>
<stop offset="1" stop-color="white"/>
</linearGradient>
<linearGradient id="paint2_linear_3308_38667" x1="9.04689" y1="28.0966" x2="17.0276" y2="28.0966" gradientUnits="userSpaceOnUse">
<stop/>
<stop offset="0.042" stop-color="#0F0F0F"/>
<stop offset="0.1224" stop-color="#353535"/>
<stop offset="0.2331" stop-color="#747474"/>
<stop offset="0.3682" stop-color="#C9C9C9"/>
<stop offset="0.4481" stop-color="white"/>
<stop offset="0.4829" stop-color="#EAEAEA"/>
<stop offset="0.6286" stop-color="#989898"/>
<stop offset="0.7577" stop-color="#575757"/>
<stop offset="0.8654" stop-color="#282828"/>
<stop offset="0.9476" stop-color="#0B0B0B"/>
<stop offset="0.9946"/>
</linearGradient>
<linearGradient id="paint3_linear_3308_38667" x1="1.64635" y1="14.3515" x2="35.1907" y2="14.3515" gradientUnits="userSpaceOnUse">
<stop stop-color="#EAA80C"/>
<stop offset="0.3459" stop-color="#FDCC06"/>
<stop offset="0.4836" stop-color="#FBC708"/>
<stop offset="0.6355" stop-color="#F5BA0D"/>
<stop offset="0.7943" stop-color="#EBA415"/>
<stop offset="0.9568" stop-color="#DC8521"/>
<stop offset="1" stop-color="#D87C25"/>
</linearGradient>
<linearGradient id="paint4_linear_3308_38667" x1="1.64635" y1="14.3515" x2="35.1907" y2="14.3515" gradientUnits="userSpaceOnUse">
<stop stop-color="#EAA80C"/>
<stop offset="0.3459" stop-color="#FDCC06"/>
<stop offset="0.4836" stop-color="#FBC708"/>
<stop offset="0.6355" stop-color="#F5BA0D"/>
<stop offset="0.7943" stop-color="#EBA415"/>
<stop offset="0.9568" stop-color="#DC8521"/>
<stop offset="1" stop-color="#D87C25"/>
</linearGradient>
<linearGradient id="paint5_linear_3308_38667" x1="2.86941" y1="18.9935" x2="19.1149" y2="14.6005" gradientUnits="userSpaceOnUse">
<stop/>
<stop offset="0.042" stop-color="#0F0F0F"/>
<stop offset="0.1224" stop-color="#353535"/>
<stop offset="0.2331" stop-color="#747474"/>
<stop offset="0.3682" stop-color="#C9C9C9"/>
<stop offset="0.4481" stop-color="white"/>
<stop offset="0.4829" stop-color="#EAEAEA"/>
<stop offset="0.6286" stop-color="#989898"/>
<stop offset="0.7577" stop-color="#575757"/>
<stop offset="0.8654" stop-color="#282828"/>
<stop offset="0.9476" stop-color="#0B0B0B"/>
<stop offset="0.9946"/>
</linearGradient>
<linearGradient id="paint6_linear_3308_38667" x1="21.6128" y1="18.4855" x2="35.6981" y2="18.4855" gradientUnits="userSpaceOnUse">
<stop offset="0.0054" stop-color="white"/>
<stop offset="0.0829" stop-color="#FFE9C9"/>
<stop offset="0.1988" stop-color="#FFCB7F"/>
<stop offset="0.295" stop-color="#FFB548"/>
<stop offset="0.3666" stop-color="#FFA727"/>
<stop offset="0.4054" stop-color="#FFA21A"/>
<stop offset="0.4632" stop-color="#FFA727"/>
<stop offset="0.5698" stop-color="#FFB549"/>
<stop offset="0.7134" stop-color="#FFCB7F"/>
<stop offset="0.8863" stop-color="#FFE9CA"/>
<stop offset="1" stop-color="white"/>
</linearGradient>
<linearGradient id="paint7_linear_3308_38667" x1="2.27005" y1="9.44546" x2="34.5708" y2="9.44546" gradientUnits="userSpaceOnUse">
<stop offset="1e-08" stop-color="white"/>
<stop offset="0.0695" stop-color="#FFECCF"/>
<stop offset="0.1864" stop-color="#FFCF85"/>
<stop offset="0.2834" stop-color="#FFB94E"/>
<stop offset="0.3554" stop-color="#FFAC2D"/>
<stop offset="0.3946" stop-color="#FFA720"/>
<stop offset="0.4548" stop-color="#FFAC2D"/>
<stop offset="0.5656" stop-color="#FFB94F"/>
<stop offset="0.7149" stop-color="#FFCF85"/>
<stop offset="0.8949" stop-color="#FFECD0"/>
<stop offset="1" stop-color="white"/>
</linearGradient>
<linearGradient id="paint8_linear_3308_38667" x1="18.5469" y1="19.7852" x2="22.8911" y2="19.7852" gradientUnits="userSpaceOnUse">
<stop stop-color="white"/>
<stop offset="0.0396" stop-color="#FDF6F3"/>
<stop offset="0.3096" stop-color="#F2BBA5"/>
<stop offset="0.5501" stop-color="#EA8C68"/>
<stop offset="0.7524" stop-color="#E36A3B"/>
<stop offset="0.9087" stop-color="#DF5520"/>
<stop offset="1" stop-color="#DE4D16"/>
</linearGradient>
<linearGradient id="paint9_linear_3308_38667" x1="5.4043" y1="14.5437" x2="12.2088" y2="14.5437" gradientUnits="userSpaceOnUse">
<stop/>
<stop offset="0.042" stop-color="#0F0F0F"/>
<stop offset="0.1224" stop-color="#353535"/>
<stop offset="0.2331" stop-color="#747474"/>
<stop offset="0.3682" stop-color="#C9C9C9"/>
<stop offset="0.4481" stop-color="white"/>
<stop offset="0.4829" stop-color="#EAEAEA"/>
<stop offset="0.6286" stop-color="#989898"/>
<stop offset="0.7577" stop-color="#575757"/>
<stop offset="0.8654" stop-color="#282828"/>
<stop offset="0.9476" stop-color="#0B0B0B"/>
<stop offset="0.9946"/>
</linearGradient>
<radialGradient id="paint10_radial_3308_38667" cx="0" cy="0" r="1" gradientUnits="userSpaceOnUse" gradientTransform="translate(34.6021 10.856) scale(1.39791)">
<stop offset="0.3459" stop-color="#FDCC06"/>
<stop offset="0.4836" stop-color="#FBC708"/>
<stop offset="0.6355" stop-color="#F5BA0D"/>
<stop offset="0.7943" stop-color="#EBA415"/>
<stop offset="0.9568" stop-color="#DC8521"/>
<stop offset="1" stop-color="#D87C25"/>
</radialGradient>
<radialGradient id="paint11_radial_3308_38667" cx="0" cy="0" r="1" gradientUnits="userSpaceOnUse" gradientTransform="translate(34.7399 10.9663) scale(0.835545)">
<stop stop-color="white"/>
<stop offset="1"/>
</radialGradient>
<radialGradient id="paint12_radial_3308_38667" cx="0" cy="0" r="1" gradientUnits="userSpaceOnUse" gradientTransform="translate(18.024 0.986931) scale(1.39793)">
<stop offset="0.3459" stop-color="#FDCC06"/>
<stop offset="0.4836" stop-color="#FBC708"/>
<stop offset="0.6355" stop-color="#F5BA0D"/>
<stop offset="0.7943" stop-color="#EBA415"/>
<stop offset="0.9568" stop-color="#DC8521"/>
<stop offset="1" stop-color="#D87C25"/>
</radialGradient>
<radialGradient id="paint13_radial_3308_38667" cx="0" cy="0" r="1" gradientUnits="userSpaceOnUse" gradientTransform="translate(18.1618 1.09734) scale(0.835544)">
<stop stop-color="white"/>
<stop offset="1"/>
</radialGradient>
<linearGradient id="paint14_linear_3308_38667" x1="24.9395" y1="14.634" x2="31.0634" y2="14.634" gradientUnits="userSpaceOnUse">
<stop offset="1e-08" stop-color="white"/>
<stop offset="0.0785" stop-color="#FFE9C9"/>
<stop offset="0.196" stop-color="#FFCB7F"/>
<stop offset="0.2935" stop-color="#FFB548"/>
<stop offset="0.366" stop-color="#FFA727"/>
<stop offset="0.4054" stop-color="#FFA21A"/>
<stop offset="0.4632" stop-color="#FFA727"/>
<stop offset="0.5698" stop-color="#FFB549"/>
<stop offset="0.7134" stop-color="#FFCB7F"/>
<stop offset="0.8863" stop-color="#FFE9CA"/>
<stop offset="1" stop-color="white"/>
</linearGradient>
<radialGradient id="paint15_radial_3308_38667" cx="0" cy="0" r="1" gradientUnits="userSpaceOnUse" gradientTransform="translate(1.58256 10.856) scale(1.39791)">
<stop offset="0.3459" stop-color="#FDCC06"/>
<stop offset="0.4836" stop-color="#FBC708"/>
<stop offset="0.6355" stop-color="#F5BA0D"/>
<stop offset="0.7943" stop-color="#EBA415"/>
<stop offset="0.9568" stop-color="#DC8521"/>
<stop offset="1" stop-color="#D87C25"/>
</radialGradient>
<radialGradient id="paint16_radial_3308_38667" cx="0" cy="0" r="1" gradientUnits="userSpaceOnUse" gradientTransform="translate(1.62082 10.9663) scale(0.835544)">
<stop stop-color="white"/>
<stop offset="1"/>
</radialGradient>
<linearGradient id="paint17_linear_3308_38667" x1="26.9395" y1="19.855" x2="28.3152" y2="19.855" gradientUnits="userSpaceOnUse">
<stop stop-color="white"/>
<stop offset="0.0396" stop-color="#FDF6F3"/>
<stop offset="0.3096" stop-color="#F2BBA5"/>
<stop offset="0.5501" stop-color="#EA8C68"/>
<stop offset="0.7524" stop-color="#E36A3B"/>
<stop offset="0.9087" stop-color="#DF5520"/>
<stop offset="1" stop-color="#DE4D16"/>
</linearGradient>
<linearGradient id="paint18_linear_3308_38667" x1="10.3555" y1="19.855" x2="11.7312" y2="19.855" gradientUnits="userSpaceOnUse">
<stop stop-color="white"/>
<stop offset="0.0396" stop-color="#FDF6F3"/>
<stop offset="0.3096" stop-color="#F2BBA5"/>
<stop offset="0.5501" stop-color="#EA8C68"/>
<stop offset="0.7524" stop-color="#E36A3B"/>
<stop offset="0.9087" stop-color="#DF5520"/>
<stop offset="1" stop-color="#DE4D16"/>
</linearGradient>
</defs>
</svg>
