<svg width="42" height="42" viewBox="0 0 42 42" fill="none" xmlns="http://www.w3.org/2000/svg">
<rect width="42" height="42" rx="21" fill="#C0D5FF"/>
<path d="M21.172 26.304C20.116 26.304 19.2093 26.1227 18.452 25.76C17.6947 25.3867 17.076 24.9013 16.596 24.304C16.116 23.696 15.7587 23.0453 15.524 22.352C15.3 21.648 15.188 20.9653 15.188 20.304V19.952C15.188 19.2267 15.3053 18.512 15.54 17.808C15.7747 17.0933 16.132 16.448 16.612 15.872C17.1027 15.296 17.716 14.8373 18.452 14.496C19.1987 14.144 20.0787 13.968 21.092 13.968C22.148 13.968 23.0813 14.1653 23.892 14.56C24.7027 14.9547 25.348 15.504 25.828 16.208C26.3187 16.9013 26.6067 17.7173 26.692 18.656H24.052C23.9773 18.1867 23.8067 17.7867 23.54 17.456C23.2733 17.1253 22.9267 16.8693 22.5 16.688C22.084 16.5067 21.6147 16.416 21.092 16.416C20.5693 16.416 20.1053 16.5067 19.7 16.688C19.2947 16.8693 18.9533 17.1253 18.676 17.456C18.4093 17.7867 18.2013 18.1813 18.052 18.64C17.9133 19.088 17.844 19.5893 17.844 20.144C17.844 20.688 17.9133 21.1893 18.052 21.648C18.2013 22.096 18.4147 22.4907 18.692 22.832C18.98 23.1627 19.332 23.4187 19.748 23.6C20.164 23.7707 20.6387 23.856 21.172 23.856C21.9827 23.856 22.6653 23.6587 23.22 23.264C23.7853 22.8693 24.1267 22.3253 24.244 21.632H26.868C26.772 22.4853 26.484 23.2693 26.004 23.984C25.5347 24.688 24.8893 25.2533 24.068 25.68C23.2573 26.096 22.292 26.304 21.172 26.304Z" fill="#122368"/>
</svg>
