<svg width="16" height="18" viewBox="0 0 16 18" fill="none" xmlns="http://www.w3.org/2000/svg">
<path d="M13.625 4.125L13.1602 11.6438C13.0415 13.5648 12.9821 14.5253 12.5006 15.2159C12.2625 15.5573 11.956 15.8455 11.6005 16.062C10.8816 16.5 9.91924 16.5 7.99456 16.5C6.06734 16.5 5.10373 16.5 4.38429 16.0612C4.0286 15.8443 3.722 15.5556 3.48401 15.2136C3.00266 14.5219 2.94459 13.5601 2.82846 11.6364L2.375 4.125" stroke="#DE3024" stroke-width="1.5" stroke-linecap="round"/>
<path d="M1.25 4.125H14.75M11.0418 4.125L10.5298 3.0688C10.1897 2.36719 10.0196 2.01639 9.72628 1.7976C9.66122 1.74907 9.59232 1.70591 9.52027 1.66853C9.19543 1.5 8.80559 1.5 8.0259 1.5C7.22662 1.5 6.82699 1.5 6.49676 1.67559C6.42357 1.71451 6.35374 1.75942 6.28797 1.80988C5.99123 2.03753 5.82547 2.40116 5.49395 3.12844L5.03969 4.125" stroke="#DE3024" stroke-width="1.5" stroke-linecap="round"/>
<path d="M6.125 12.375L6.125 7.875" stroke="#DE3024" stroke-width="1.5" stroke-linecap="round"/>
<path d="M9.875 12.375L9.875 7.875" stroke="#DE3024" stroke-width="1.5" stroke-linecap="round"/>
</svg>
