<svg width="20" height="20" viewBox="0 0 20 20" fill="none" xmlns="http://www.w3.org/2000/svg">
<path d="M3.33203 15.539V6.7127C3.33203 4.33436 3.33203 3.14519 4.06426 2.40634C4.7965 1.66748 5.97501 1.66748 8.33203 1.66748H11.6654C14.0224 1.66748 15.2009 1.66748 15.9331 2.40634C16.6654 3.14519 16.6654 4.33436 16.6654 6.7127V15.539C16.6654 16.7987 16.6654 17.4286 16.2804 17.6765C15.6513 18.0817 14.6788 17.232 14.1896 16.9236C13.7854 16.6686 13.5834 16.5412 13.3591 16.5339C13.1168 16.5259 12.9111 16.6481 12.4744 16.9236L10.882 17.9278C10.4524 18.1986 10.2377 18.3341 9.9987 18.3341C9.7597 18.3341 9.54495 18.1986 9.11536 17.9278L7.52297 16.9236C7.11882 16.6686 6.91675 16.5412 6.69247 16.5339C6.45013 16.5259 6.24447 16.6481 5.80776 16.9236C5.31866 17.232 4.34609 18.0817 3.71699 17.6765C3.33203 17.4286 3.33203 16.7987 3.33203 15.539Z" stroke="#667085" stroke-width="1.3" stroke-linecap="round" stroke-linejoin="round"/>
<path d="M9.16797 9.16748H6.66797" stroke="#667085" stroke-width="1.3" stroke-linecap="round" stroke-linejoin="round"/>
<path d="M11.668 5.83252H6.66797" stroke="#667085" stroke-width="1.3" stroke-linecap="round" stroke-linejoin="round"/>
</svg>
