<svg width="20" height="20" viewBox="0 0 20 20" fill="none" xmlns="http://www.w3.org/2000/svg">
<path d="M12.5 2.08252V3.33252C12.5 4.51103 12.5 5.10029 12.8661 5.4664C13.2322 5.83252 13.8215 5.83252 15 5.83252H16.25" stroke="#667085" stroke-width="1.3" stroke-linecap="round" stroke-linejoin="round"/>
<path d="M3.33203 13.3341V6.66748C3.33203 4.31046 3.33203 3.13195 4.06426 2.39971C4.7965 1.66748 5.97501 1.66748 8.33203 1.66748H11.8084C12.1489 1.66748 12.3193 1.66748 12.4724 1.73091C12.6255 1.79435 12.746 1.91478 12.9869 2.15564L16.1772 5.34599C16.418 5.58685 16.5385 5.70728 16.6019 5.86042C16.6654 6.01356 16.6654 6.18388 16.6654 6.52451V13.3341C16.6654 15.6911 16.6654 16.8696 15.9331 17.6019C15.2009 18.3341 14.0224 18.3341 11.6654 18.3341H8.33203C5.97501 18.3341 4.7965 18.3341 4.06426 17.6019C3.33203 16.8696 3.33203 15.6911 3.33203 13.3341Z" stroke="#667085" stroke-width="1.3" stroke-linecap="round" stroke-linejoin="round"/>
<path d="M6.66797 9.16748H13.3346M6.66797 11.6675H13.3346M6.66797 14.1675H10.1436" stroke="#667085" stroke-width="1.3" stroke-linecap="round" stroke-linejoin="round"/>
</svg>
