<svg width="40" height="41" viewBox="0 0 40 41" fill="none" xmlns="http://www.w3.org/2000/svg">
<rect y="0.5" width="40" height="40" rx="20" fill="#C0EAFF"/>
<path d="M19.6604 25.836C18.7964 25.836 18.0658 25.676 17.4684 25.356C16.8818 25.0253 16.4338 24.556 16.1244 23.948C15.8151 23.3293 15.6604 22.5827 15.6604 21.708V20.188H18.2844V22.012C18.2844 22.4387 18.4071 22.7747 18.6524 23.02C18.9084 23.2653 19.2444 23.388 19.6604 23.388C20.0871 23.388 20.4231 23.2653 20.6684 23.02C20.9138 22.7747 21.0364 22.4387 21.0364 22.012V13.82H23.6604V21.708C23.6604 22.5827 23.5058 23.3293 23.1964 23.948C22.8978 24.556 22.4498 25.0253 21.8524 25.356C21.2551 25.676 20.5244 25.836 19.6604 25.836Z" fill="#124B68"/>
</svg>
