<svg width="90" height="90" viewBox="0 0 90 90" fill="none" xmlns="http://www.w3.org/2000/svg">
<circle cx="45" cy="45" r="45" fill="url(#paint0_linear_2736_16613)"/>
<path d="M68.5337 18.9879C68.1545 19.4734 70.4094 21.1767 70.4994 25.1937C70.5637 28.059 68.8373 30.8056 64.8162 32.1914C63.8152 32.5361 64.0254 33.539 67.303 33.4798C72.7709 33.3813 75.2746 30.2323 75.2797 26.7915C75.2882 21.0712 69.2907 18.0196 68.5337 18.9879ZM66.1483 32.7298C66.4122 32.4715 72.7701 30.4933 71.3079 23.5565C70.9588 21.9003 69.9261 20.0647 69.8685 20.0345C69.9074 20.0004 69.9074 20.033 69.91 20.0595C70.1657 20.0301 70.3557 20.2043 70.5369 20.3201C77.0165 24.4768 74.6995 33.3913 66.1487 32.7294L66.1483 32.7298Z" fill="#7400E0"/>
<path d="M76.9819 39.5521C77.5457 40.6954 77.5431 40.8016 77.7904 40.8372L78.9921 41.0118C79.2868 41.0548 79.4044 41.416 79.1909 41.624C78.278 42.5134 78.1759 42.5431 78.2181 42.7897L78.4236 43.9863C78.4739 44.2795 78.1663 44.5033 77.9025 44.3648C76.7739 43.7713 76.7148 43.6834 76.4931 43.7996L75.4183 44.3648C75.1551 44.5037 74.8468 44.2795 74.8971 43.9863C75.1125 42.7302 75.1779 42.646 74.9993 42.4715L74.1298 41.624C73.9171 41.416 74.0339 41.0544 74.3286 41.0118C75.5906 40.8295 75.6902 40.8648 75.8004 40.6406L76.3381 39.5518C76.4696 39.2846 76.8503 39.285 76.9819 39.5521Z" fill="#7400E0"/>
<path d="M55.8318 25.2769C56.3955 26.4202 56.393 26.5264 56.6403 26.562L57.842 26.7366C58.1367 26.7796 58.2543 27.1408 58.0408 27.3488C57.128 28.2382 57.0258 28.2679 57.0681 28.5145L57.2735 29.711C57.3238 30.0043 57.0162 30.2281 56.7524 30.0896C55.6238 29.4961 55.5647 29.4082 55.3431 29.5244L54.2682 30.0896C54.005 30.2285 53.6967 30.0043 53.7471 29.711C53.9624 28.455 54.0278 28.3708 53.8492 28.1963L52.9798 27.3488C52.767 27.1408 52.8838 26.7792 53.1786 26.7366C54.4405 26.5543 54.5401 26.5896 54.6503 26.3654L55.188 25.2766C55.3195 25.0094 55.7003 25.0094 55.8318 25.2766V25.2769Z" fill="#7400E0"/>
<path d="M28.1842 40.1205C28.748 41.2638 28.7454 41.3699 28.9927 41.4056L30.1944 41.5802C30.4891 41.6232 30.6067 41.9844 30.3932 42.1924C29.4804 43.0817 29.3782 43.1115 29.4205 43.3581L29.6259 44.5546C29.6763 44.8479 29.3686 45.0717 29.1048 44.9331C27.9762 44.3396 27.9171 44.2518 27.6955 44.3679L26.6206 44.9331C26.3575 45.072 26.0491 44.8479 26.0995 44.5546C26.3148 43.2985 26.3802 43.2144 26.2016 43.0398L25.3322 42.1924C25.1194 41.9844 25.2363 41.6228 25.531 41.5802C26.7929 41.3979 26.8925 41.4332 27.0027 41.209L27.5404 40.1201C27.6719 39.8529 28.0527 39.8533 28.1842 40.1205Z" fill="#7400E0"/>
<path d="M21.8461 60.4C22.4098 61.5432 22.4073 61.6494 22.6546 61.6851L23.8563 61.8596C24.151 61.9026 24.2686 62.2639 24.0551 62.4719C23.1422 63.3612 23.0401 63.391 23.0824 63.6375L23.2878 64.8341C23.3381 65.1273 23.0305 65.3511 22.7667 65.2126C21.6381 64.6191 21.579 64.5313 21.3573 64.6474L20.2825 65.2126C20.0193 65.3515 19.711 65.1273 19.7613 64.8341C19.9767 63.578 20.0421 63.4939 19.8635 63.3193L18.994 62.4719C18.7813 62.2639 18.8981 61.9022 19.1928 61.8596C20.4548 61.6774 20.5544 61.7126 20.6646 61.4885L21.2023 60.3996C21.3338 60.1324 21.7146 60.1324 21.8461 60.3996V60.4Z" fill="#7400E0"/>
<path d="M77.3498 54.2555C75.6873 52.8403 74.3272 53.9144 74.461 53.2732C74.9847 50.7654 72.3097 49.1356 69.5646 49.5898C68.9307 49.6949 68.6554 50.1807 68.4386 49.8449C67.4783 48.3565 66.0786 47.9692 64.4249 48.2907C63.2158 48.5259 62.8189 49.0426 62.5926 49.3737C62.8583 52.0087 62.8924 54.7101 62.7704 57.3023L66.0738 57.3115C78.3104 57.3332 78.1862 57.6202 78.3057 56.2869C78.3836 55.4175 77.9672 54.781 77.3502 54.2558L77.3498 54.2555ZM72.3851 54.3349C72.123 54.0004 71.8305 53.2037 70.5527 53.0593C68.3574 52.8116 70.254 52.3243 71.3612 52.5268C72.1708 52.6745 72.7522 53.3257 72.8852 54.1011C72.9374 54.4058 72.6052 54.6156 72.3851 54.3349Z" fill="#7400E0"/>
<path d="M70.1184 39.5152C68.923 38.4976 67.9451 39.2701 68.0417 38.8089C68.4184 37.0067 66.4953 35.8344 64.5215 36.1615C64.0662 36.2372 63.8678 36.5863 63.712 36.3453C63.0215 35.2755 62.0153 34.9966 60.8264 35.2281C59.3432 35.5169 59.5601 36.3945 59.1856 36.1917C58.6796 35.9171 58.1618 35.8087 57.6796 35.8322C59.1705 37.5234 60.2275 39.5755 60.9789 41.7102L62.012 41.7124C70.8085 41.7279 70.7192 41.9344 70.8052 40.976C70.8615 40.3509 70.562 39.8926 70.1184 39.5152ZM66.5486 39.5722C66.3605 39.3319 66.1506 38.7597 65.2319 38.6553C63.6535 38.4767 65.0169 38.1268 65.8133 38.2724C66.3946 38.3786 66.8128 38.8464 66.9084 39.4042C66.9459 39.6225 66.707 39.7739 66.5486 39.5722Z" fill="#7400E0"/>
<path d="M39.956 33.186C39.8641 33.1037 39.7821 33.0364 39.7178 32.9857C36.8194 30.7043 35.8688 32.1081 35.656 31.2078C35.2021 29.2884 32.8149 28.2036 30.5979 29.4064C30.0775 29.689 30.3788 28.4674 28.3158 28.0661C26.6621 27.7446 25.2619 28.1319 24.3017 29.6202C24.0849 29.9565 23.8089 29.4703 23.1757 29.3656C20.4309 28.9114 17.7559 30.5412 18.2793 33.0489C18.4134 33.6913 17.0533 32.616 15.3908 34.0312C14.7738 34.5564 14.3574 35.1932 14.4353 36.0627C14.5548 37.3956 14.4306 37.1078 26.6668 37.0865C30.6989 37.0795 33.6073 37.0623 35.7056 37.0262C36.8518 35.4369 38.2556 34.1183 39.956 33.1867V33.186ZM22.1875 32.8354C20.909 32.9798 20.6172 33.7762 20.3552 34.111C20.1351 34.3925 19.8029 34.1815 19.8551 33.8772C19.9881 33.1011 20.5702 32.4507 21.379 32.3029C22.4863 32.1008 24.3829 32.5877 22.1875 32.8354ZM32.9197 32.2364C32.8403 32.3566 31.618 31.7465 30.6717 32.6406C30.0496 33.2283 29.8776 31.5348 31.6801 31.5294C32.5334 31.5268 33.0409 32.0523 32.9197 32.2364Z" fill="#7400E0"/>
<path d="M64.333 61.7939C63.9872 61.085 62.8902 60.8722 62.1247 60.9251C61.5059 60.9677 61.7455 61.2051 61.9494 57.5394C62.5142 47.378 60.5655 34.578 50.6017 32.6986C50.3445 32.6501 50.2916 32.5612 50.2861 32.3161C50.2375 30.2651 49.1292 27.6938 47.1841 27.6063C45.0019 27.5078 43.8337 30.0038 43.8877 32.208C43.9138 33.2701 42.3457 32.1955 38.9013 34.7661C34.8637 37.7795 32.9711 43.8203 32.3548 49.8894C32.4732 50.1004 32.5713 50.3249 32.6466 50.5612C32.891 50.5652 33.1427 50.5913 33.3977 50.638C34.0971 42.5881 36.9642 34.1491 45.0438 33.5167C47.2649 33.3425 50.909 33.4843 53.0904 34.5622C60.6992 38.3227 61.5128 52.087 60.8624 60.6234C60.844 60.867 60.7746 60.9119 60.5497 60.91C33.347 60.7054 33.372 61.3073 33.3456 60.7616C33.2857 59.5415 33.2423 58.5074 33.2125 57.6217C32.8987 57.6291 32.5643 57.635 32.2078 57.6405C32.2725 58.6978 32.3699 59.7076 32.4941 60.6488C32.5518 61.0864 32.2229 60.8009 31.4809 60.9152C30.8625 61.0103 30.2348 61.1144 29.9107 61.7637C29.4178 62.7519 29.2352 63.7798 29.5347 64.8628C30.0106 66.583 31.3589 66.7877 33.3125 66.7924C43.6974 66.8181 43.9553 66.3272 43.8815 66.8784C43.0958 72.7432 52.1327 72.5737 50.9251 66.6789C53.5596 66.6789 60.6871 67.0614 62.7402 66.6855C64.9875 66.2739 65.3083 63.7926 64.333 61.7939ZM49.245 32.5112C47.0323 32.229 45.5374 32.5075 44.859 32.5413C44.5764 32.5553 44.669 32.3977 44.6764 32.2683C44.9681 27.1422 49.0608 27.0514 49.4967 32.0599C49.4967 32.3815 49.5632 32.5516 49.245 32.5112ZM49.0576 70.0888C47.477 71.1931 44.7616 70.4427 44.5815 67.7008C44.5643 67.4396 44.6039 67.1739 44.6036 66.91C44.6029 66.3426 45.0556 66.7869 49.909 66.6763C50.6186 66.6601 50.7259 68.9231 49.0576 70.0888ZM63.698 65.2177C63.3168 66.1651 61.3012 65.9556 48.3656 65.7657C31.5669 65.5191 30.6673 66.917 30.2712 64.0932C30.1826 63.4608 30.3167 62.8625 30.6081 62.2863C30.7805 61.9452 31.0488 61.8372 31.3857 61.7861C31.7893 61.7248 62.7737 61.8104 62.7825 61.8111C64.1125 61.9489 64.2077 63.9503 63.698 65.2177Z" fill="#191919"/>
<path d="M51.5047 50.8352C51.3658 50.4666 51.7119 50.2579 51.9707 50.4666C53.1716 51.4349 55.1222 50.9495 55.5463 50.2781C55.8297 49.8297 56.3423 50.0142 56.2203 50.5809C55.8513 52.2949 52.1338 52.5036 51.5051 50.8348L51.5047 50.8352Z" fill="#191919"/>
<path d="M40.4039 52.2779C38.8443 52.2448 38.0939 51.3441 38.0446 50.7223C38.0145 50.3416 38.3889 50.1516 38.6738 50.4618C39.5649 51.4312 41.2223 51.5782 42.2737 50.7767C43.1244 50.1281 43.1318 52.336 40.4039 52.2779Z" fill="#191919"/>
<path d="M53.4295 44.4043C55.278 44.523 55.7399 45.5145 55.4136 45.8284C55.2795 45.9573 55.1619 45.8115 55.045 45.7593C53.4571 45.0515 52.5435 45.5491 52.4098 45.039C52.2962 44.6061 52.9676 44.4021 53.4295 44.4043Z" fill="#191919"/>
<path d="M40.412 44.2875C40.8544 44.2765 41.5137 44.5117 41.4009 44.924C41.2524 45.4656 40.2657 44.8839 38.6227 45.7155C38.0568 46.0022 38.009 44.3481 40.412 44.2875Z" fill="#191919"/>
<path d="M50.1424 56.0891C50.1325 56.9311 49.2821 57.0178 49.0146 56.3489C48.6041 55.3218 49.9432 54.3575 50.1424 56.0891Z" fill="#191919"/>
<path d="M22.9412 56.8928C10.7046 56.9141 10.8288 57.2022 10.7094 55.8689C10.6315 54.9995 11.0479 54.363 11.6649 53.8375C13.3274 52.4223 14.6874 53.4972 14.5537 52.8552C14.0304 50.3471 16.7049 48.7173 19.4501 49.1718C20.0833 49.2766 20.3593 49.7628 20.5761 49.4269C21.5363 47.9385 22.9361 47.5512 24.5902 47.8728C26.6532 48.2741 26.3519 49.4956 26.8723 49.213C29.0893 48.0102 31.4766 49.0954 31.9304 51.0144C32.1432 51.9148 33.0939 50.5113 35.9923 52.7923C36.503 53.1944 38.084 54.6272 37.4107 56.2478C37.2031 56.748 35.6832 56.87 22.9416 56.8924L22.9412 56.8928ZM17.6534 52.1099C16.845 52.2576 16.2625 52.9081 16.1295 53.6842C16.0773 53.9885 16.4091 54.1994 16.6296 53.9179C16.8916 53.5832 17.1834 52.7868 18.4619 52.6424C20.6573 52.3947 18.7607 51.9074 17.6534 52.1099ZM27.9545 51.3363C26.152 51.3422 26.324 53.0356 26.9462 52.4476C27.8924 51.5536 29.1151 52.1636 29.1941 52.0434C29.3153 51.8593 28.8078 51.3334 27.9545 51.3363Z" fill="#7400E0"/>
<defs>
<linearGradient id="paint0_linear_2736_16613" x1="45" y1="0" x2="45" y2="90" gradientUnits="userSpaceOnUse">
<stop stop-color="white" stop-opacity="0"/>
<stop offset="1" stop-color="#EEE8F4"/>
</linearGradient>
</defs>
</svg>
