<svg width="18" height="18" viewBox="0 0 18 18" fill="none" xmlns="http://www.w3.org/2000/svg">
<g clip-path="url(#clip0_24_23382)">
<path d="M1.5 1.5L16.5 16.5" stroke="#DE3024" stroke-width="1.5" stroke-linecap="round"/>
<path d="M8.625 5.25L12 5.25" stroke="#DE3024" stroke-width="1.5" stroke-linecap="round"/>
<path d="M12 9H11.625" stroke="#DE3024" stroke-width="1.5" stroke-linecap="round"/>
<path d="M6 9H9" stroke="#DE3024" stroke-width="1.5" stroke-linecap="round"/>
<path d="M6 12.75L9 12.75" stroke="#DE3024" stroke-width="1.5" stroke-linecap="round"/>
<path d="M2.83988 3C2.25 3.88538 2.25 5.24973 2.25 7.64141L2.25 10.5943C2.25 13.3783 2.25 14.7703 3.18037 15.6351C4.11073 16.5 5.60814 16.5 8.60294 16.5H9.39706C12.3919 16.5 13.8893 16.5 14.8196 15.6351C14.8841 15.5752 14.9441 15.5127 15 15.4474" stroke="#DE3024" stroke-width="1.5" stroke-linecap="round"/>
<path d="M15.7353 12.375C15.75 11.8297 15.75 11.2093 15.75 10.5V7.5C15.75 4.67157 15.75 3.25736 14.8196 2.37868C13.8893 1.5 12.3919 1.5 9.39706 1.5L8.60294 1.5C6.96154 1.5 5.76995 1.5 4.875 1.64467" stroke="#DE3024" stroke-width="1.5" stroke-linecap="round"/>
</g>
<defs>
<clipPath id="clip0_24_23382">
<rect width="18" height="18" fill="white"/>
</clipPath>
</defs>
</svg>
