<svg width="16" height="14" viewBox="0 0 16 14" fill="none" xmlns="http://www.w3.org/2000/svg">
<path d="M7.33301 3.33594L7.33301 12.0026" stroke="white" stroke-width="1.5" stroke-linecap="round"/>
<path d="M7.33301 12.0026C7.18481 12.0026 6.88204 11.8412 6.27652 11.5185C5.66107 11.1905 4.81081 10.864 3.72134 10.6592C2.4992 10.4293 1.88813 10.3144 1.61057 9.97515C1.33301 9.63586 1.33301 9.09242 1.33301 8.00554V3.73364C1.33301 2.54496 1.33301 1.95062 1.76548 1.58462C2.19795 1.21861 2.70575 1.3141 3.72134 1.50508C5.72606 1.88207 6.92088 2.67064 7.33301 3.12336C7.74514 2.67064 8.93996 1.88207 10.9447 1.50508C11.9603 1.3141 12.4681 1.21861 12.9005 1.58462C13.333 1.95062 13.333 2.54496 13.333 3.73364V5.66927" stroke="white" stroke-width="1.5" stroke-linecap="round" stroke-linejoin="round"/>
<path d="M10.2315 12.5731L10.0747 11.8397H10.0747L10.2315 12.5731ZM9.42919 11.7708L10.1626 11.9276L9.42919 11.7708ZM10.0135 10.0771L9.48313 9.54675H9.48313L10.0135 10.0771ZM14.5305 8.3208L15.18 7.9458V7.9458L14.5305 8.3208ZM14.5305 9.33465L15.18 9.70965L14.5305 9.33465ZM13.6815 7.47177L14.0565 6.82225L13.6815 7.47177ZM12.2187 7.87186L12.749 8.40219L12.2187 7.87186ZM12.6676 7.47177L12.2926 6.82225L12.6676 7.47177ZM13.6001 9.25327L11.3949 11.4585L12.4555 12.5192L14.6608 10.3139L13.6001 9.25327ZM10.5438 10.6074L12.749 8.40219L11.6884 7.34153L9.48313 9.54675L10.5438 10.6074ZM10.0747 11.8397C9.95671 11.8649 9.86685 11.884 9.79052 11.8982C9.7131 11.9126 9.6714 11.9177 9.65018 11.919C9.62752 11.9204 9.65901 11.9153 9.71712 11.9303C9.74875 11.9385 9.78769 11.9524 9.82944 11.9756C9.8717 11.9991 9.90965 12.0281 9.94193 12.0603L8.88127 13.121C9.17257 13.4123 9.53205 13.4295 9.74539 13.416C9.94527 13.4033 10.1827 13.3505 10.3883 13.3065L10.0747 11.8397ZM8.69577 11.614C8.6518 11.8196 8.59901 12.057 8.5863 12.2569C8.57274 12.4702 8.58997 12.8297 8.88127 13.121L9.94193 12.0603C9.97422 12.0926 10.0032 12.1306 10.0267 12.1728C10.0499 12.2146 10.0638 12.2535 10.0719 12.2852C10.0869 12.3433 10.0818 12.3748 10.0833 12.3521C10.0846 12.3309 10.0897 12.2892 10.104 12.2118C10.1182 12.1354 10.1374 12.0456 10.1626 11.9276L8.69577 11.614ZM13.6001 8.40219C13.716 8.51811 13.7851 8.58749 13.8348 8.64194C13.8818 8.6934 13.8861 8.70465 13.881 8.6958L15.18 7.9458C15.0515 7.72314 14.8488 7.52962 14.6608 7.34153L13.6001 8.40219ZM14.6608 10.3139C14.8488 10.1258 15.0515 9.93231 15.18 9.70965L13.881 8.95965C13.8861 8.9508 13.8818 8.96205 13.8348 9.01352C13.7851 9.06796 13.716 9.13734 13.6001 9.25327L14.6608 10.3139ZM13.881 8.6958C13.9281 8.77744 13.9281 8.87802 13.881 8.95965L15.18 9.70965C15.4951 9.16392 15.4951 8.49154 15.18 7.9458L13.881 8.6958ZM14.6608 7.34153C14.4727 7.15344 14.2791 6.9508 14.0565 6.82225L13.3065 8.12129C13.2976 8.11618 13.3089 8.12046 13.3603 8.16744C13.4148 8.21714 13.4842 8.28626 13.6001 8.40219L14.6608 7.34153ZM12.749 8.40219C12.8649 8.28626 12.9343 8.21714 12.9888 8.16744C13.0402 8.12047 13.0515 8.11618 13.0426 8.12129L12.2926 6.82225C12.07 6.9508 11.8764 7.15344 11.6884 7.34153L12.749 8.40219ZM14.0565 6.82225C13.5107 6.50717 12.8384 6.50717 12.2926 6.82225L13.0426 8.12129C13.1243 8.07415 13.2248 8.07415 13.3065 8.12129L14.0565 6.82225ZM11.3949 11.4585C11.3095 11.5439 11.1805 11.613 10.9482 11.6723C10.8317 11.7021 10.7048 11.7257 10.5546 11.7516C10.4133 11.776 10.2405 11.8042 10.0747 11.8397L10.3883 13.3065C10.5166 13.2791 10.6474 13.2578 10.81 13.2297C10.9637 13.2032 11.1409 13.1712 11.3192 13.1257C11.6766 13.0344 12.1004 12.8743 12.4555 12.5192L11.3949 11.4585ZM10.1626 11.9276C10.1981 11.7618 10.2262 11.5889 10.2506 11.4476C10.2766 11.2975 10.3002 11.1706 10.33 11.0541C10.3893 10.8218 10.4584 10.6928 10.5438 10.6074L9.48313 9.54675C9.12795 9.90192 8.96783 10.3257 8.87659 10.683C8.83106 10.8614 8.7991 11.0385 8.77254 11.1923C8.74445 11.3548 8.7232 11.4857 8.69577 11.614L10.1626 11.9276Z" fill="white"/>
</svg>
