<svg width="18" height="18" viewBox="0 0 18 18" fill="none" xmlns="http://www.w3.org/2000/svg">
<g clip-path="url(#clip0_3070_8930)">
<path d="M16.3245 7.11949C16.4394 7.61896 16.5 8.13793 16.5 8.67044C16.5 12.6351 13.1417 15.8497 9 15.8497C8.51301 15.8503 8.02743 15.8053 7.54906 15.7154C7.20474 15.6507 7.03259 15.6183 6.9124 15.6367C6.79221 15.6551 6.62188 15.7457 6.28124 15.927C5.3176 16.4397 4.19396 16.6208 3.11333 16.4197C3.52406 15.9142 3.80456 15.3077 3.92833 14.6575C4.00333 14.2598 3.8175 13.8734 3.53917 13.5906C2.275 12.3062 1.5 10.5753 1.5 8.67044C1.5 4.82612 4.6575 1.68707 8.625 1.5" stroke="#475467" stroke-width="1.5" stroke-linecap="round" stroke-linejoin="round"/>
<path d="M16.5 3.375L10.5 3.375M16.5 3.375C16.5 3.90017 15.0043 4.88135 14.625 5.25M16.5 3.375C16.5 2.84983 15.0043 1.86865 14.625 1.5" stroke="#475467" stroke-width="1.5" stroke-linecap="round" stroke-linejoin="round"/>
<path d="M8.99664 9H9.00336M11.9933 9H12M6 9H6.00673" stroke="#475467" stroke-width="2" stroke-linecap="round" stroke-linejoin="round"/>
</g>
<defs>
<clipPath id="clip0_3070_8930">
<rect width="18" height="18" fill="white"/>
</clipPath>
</defs>
</svg>
