<svg width="88" height="24" viewBox="0 0 88 24" fill="none" xmlns="http://www.w3.org/2000/svg">
<rect x="0.5" width="87" height="24" rx="6" fill="#D3F8E0"/>
<circle cx="16.5" cy="12" r="3" fill="#0A5B39"/>
<path d="M30.308 7.66V8.776H26.768V11.236H29.528V12.352H26.768V16H25.4V7.66H30.308ZM32.2718 8.512C32.0238 8.512 31.8158 8.428 31.6478 8.26C31.4798 8.092 31.3958 7.884 31.3958 7.636C31.3958 7.388 31.4798 7.18 31.6478 7.012C31.8158 6.844 32.0238 6.76 32.2718 6.76C32.5118 6.76 32.7158 6.844 32.8838 7.012C33.0518 7.18 33.1358 7.388 33.1358 7.636C33.1358 7.884 33.0518 8.092 32.8838 8.26C32.7158 8.428 32.5118 8.512 32.2718 8.512ZM32.9438 9.388V16H31.5758V9.388H32.9438ZM38.0758 9.28C38.5958 9.28 39.0598 9.388 39.4678 9.604C39.8838 9.82 40.2078 10.14 40.4398 10.564C40.6718 10.988 40.7878 11.5 40.7878 12.1V16H39.4318V12.304C39.4318 11.712 39.2838 11.26 38.9878 10.948C38.6918 10.628 38.2878 10.468 37.7758 10.468C37.2638 10.468 36.8558 10.628 36.5518 10.948C36.2558 11.26 36.1078 11.712 36.1078 12.304V16H34.7398V9.388H36.1078V10.144C36.3318 9.872 36.6158 9.66 36.9598 9.508C37.3118 9.356 37.6838 9.28 38.0758 9.28ZM43.2288 8.512C42.9808 8.512 42.7728 8.428 42.6048 8.26C42.4368 8.092 42.3528 7.884 42.3528 7.636C42.3528 7.388 42.4368 7.18 42.6048 7.012C42.7728 6.844 42.9808 6.76 43.2288 6.76C43.4688 6.76 43.6728 6.844 43.8408 7.012C44.0088 7.18 44.0928 7.388 44.0928 7.636C44.0928 7.884 44.0088 8.092 43.8408 8.26C43.6728 8.428 43.4688 8.512 43.2288 8.512ZM43.9008 9.388V16H42.5328V9.388H43.9008ZM48.0969 16.108C47.5769 16.108 47.1089 16.016 46.6929 15.832C46.2849 15.64 45.9609 15.384 45.7209 15.064C45.4809 14.736 45.3529 14.372 45.3369 13.972H46.7529C46.7769 14.252 46.9089 14.488 47.1489 14.68C47.3969 14.864 47.7049 14.956 48.0729 14.956C48.4569 14.956 48.7529 14.884 48.9609 14.74C49.1769 14.588 49.2849 14.396 49.2849 14.164C49.2849 13.916 49.1649 13.732 48.9249 13.612C48.6929 13.492 48.3209 13.36 47.8089 13.216C47.3129 13.08 46.9089 12.948 46.5969 12.82C46.2849 12.692 46.0129 12.496 45.7809 12.232C45.5569 11.968 45.4449 11.62 45.4449 11.188C45.4449 10.836 45.5489 10.516 45.7569 10.228C45.9649 9.932 46.2609 9.7 46.6449 9.532C47.0369 9.364 47.4849 9.28 47.9889 9.28C48.7409 9.28 49.3449 9.472 49.8009 9.856C50.2649 10.232 50.5129 10.748 50.5449 11.404H49.1769C49.1529 11.108 49.0329 10.872 48.8169 10.696C48.6009 10.52 48.3089 10.432 47.9409 10.432C47.5809 10.432 47.3049 10.5 47.1129 10.636C46.9209 10.772 46.8249 10.952 46.8249 11.176C46.8249 11.352 46.8889 11.5 47.0169 11.62C47.1449 11.74 47.3009 11.836 47.4849 11.908C47.6689 11.972 47.9409 12.056 48.3009 12.16C48.7809 12.288 49.1729 12.42 49.4769 12.556C49.7889 12.684 50.0569 12.876 50.2809 13.132C50.5049 13.388 50.6209 13.728 50.6289 14.152C50.6289 14.528 50.5249 14.864 50.3169 15.16C50.1089 15.456 49.8129 15.688 49.4289 15.856C49.0529 16.024 48.6089 16.108 48.0969 16.108ZM55.527 9.28C56.031 9.28 56.479 9.388 56.871 9.604C57.271 9.82 57.583 10.14 57.807 10.564C58.039 10.988 58.155 11.5 58.155 12.1V16H56.799V12.304C56.799 11.712 56.651 11.26 56.355 10.948C56.059 10.628 55.655 10.468 55.143 10.468C54.631 10.468 54.223 10.628 53.919 10.948C53.623 11.26 53.475 11.712 53.475 12.304V16H52.107V7.12H53.475V10.156C53.707 9.876 53.999 9.66 54.351 9.508C54.711 9.356 55.103 9.28 55.527 9.28ZM65.96 12.532C65.96 12.78 65.944 13.004 65.912 13.204H60.86C60.9 13.732 61.096 14.156 61.448 14.476C61.8 14.796 62.232 14.956 62.744 14.956C63.48 14.956 64 14.648 64.304 14.032H65.78C65.58 14.64 65.216 15.14 64.688 15.532C64.168 15.916 63.52 16.108 62.744 16.108C62.112 16.108 61.544 15.968 61.04 15.688C60.544 15.4 60.152 15 59.864 14.488C59.584 13.968 59.444 13.368 59.444 12.688C59.444 12.008 59.58 11.412 59.852 10.9C60.132 10.38 60.52 9.98 61.016 9.7C61.52 9.42 62.096 9.28 62.744 9.28C63.368 9.28 63.924 9.416 64.412 9.688C64.9 9.96 65.28 10.344 65.552 10.84C65.824 11.328 65.96 11.892 65.96 12.532ZM64.532 12.1C64.524 11.596 64.344 11.192 63.992 10.888C63.64 10.584 63.204 10.432 62.684 10.432C62.212 10.432 61.808 10.584 61.472 10.888C61.136 11.184 60.936 11.588 60.872 12.1H64.532ZM66.8503 12.664C66.8503 12 66.9863 11.412 67.2583 10.9C67.5383 10.388 67.9143 9.992 68.3863 9.712C68.8663 9.424 69.3983 9.28 69.9823 9.28C70.4143 9.28 70.8383 9.376 71.2543 9.568C71.6783 9.752 72.0143 10 72.2623 10.312V7.12H73.6423V16H72.2623V15.004C72.0383 15.324 71.7263 15.588 71.3263 15.796C70.9343 16.004 70.4823 16.108 69.9703 16.108C69.3943 16.108 68.8663 15.964 68.3863 15.676C67.9143 15.38 67.5383 14.972 67.2583 14.452C66.9863 13.924 66.8503 13.328 66.8503 12.664ZM72.2623 12.688C72.2623 12.232 72.1663 11.836 71.9743 11.5C71.7903 11.164 71.5463 10.908 71.2423 10.732C70.9383 10.556 70.6103 10.468 70.2583 10.468C69.9063 10.468 69.5783 10.556 69.2743 10.732C68.9703 10.9 68.7223 11.152 68.5303 11.488C68.3463 11.816 68.2543 12.208 68.2543 12.664C68.2543 13.12 68.3463 13.52 68.5303 13.864C68.7223 14.208 68.9703 14.472 69.2743 14.656C69.5863 14.832 69.9143 14.92 70.2583 14.92C70.6103 14.92 70.9383 14.832 71.2423 14.656C71.5463 14.48 71.7903 14.224 71.9743 13.888C72.1663 13.544 72.2623 13.144 72.2623 12.688Z" fill="#0A5B39"/>
</svg>
