<svg width="18" height="18" viewBox="0 0 18 18" fill="none" xmlns="http://www.w3.org/2000/svg">
<g id="folder-02">
<g id="elements">
<path id="Vector" d="M8.6778 15.75H7.88027C4.87258 15.75 3.36874 15.75 2.43437 14.5906C1.5 13.4313 1.5 11.5653 1.5 7.83333V5.41422C1.5 3.97617 1.5 3.25715 1.74265 2.71763C1.91562 2.33304 2.17137 2.01571 2.48133 1.80108C2.91614 1.5 3.49562 1.5 4.65458 1.5C5.39708 1.5 5.76833 1.5 6.09332 1.65121C6.83533 1.99647 7.1413 2.83283 7.47612 3.66372L7.88027 4.66667M5.2531 4.66667H11.6615C13.0056 4.66667 13.6777 4.66667 14.1605 5.06693C14.3695 5.2402 14.5489 5.46286 14.6886 5.72219C14.9061 6.12603 14.9769 6.63662 15 7.4375" stroke="#475467" stroke-width="1.5" stroke-linecap="round"/>
<path id="Rectangle 2297" d="M3.4467 9.43163C3.7702 8.56977 3.93194 8.13884 4.2476 7.86822C4.75715 7.4314 5.48974 7.50461 6.11752 7.50461H12.9393C14.7969 7.50461 15.7257 7.50461 16.1892 8.10231C16.9848 9.12833 16.0462 10.7926 15.6681 11.7999C14.9903 13.6057 14.6514 14.5087 13.9764 15.0594C12.9479 15.8985 11.4518 15.7377 10.2105 15.7377H7.45293C4.79565 15.7377 3.46702 15.7377 2.77607 14.915C1.50056 13.3963 2.87304 10.96 3.4467 9.43163Z" stroke="#475467" stroke-width="1.5" stroke-linecap="round"/>
</g>
</g>
</svg>
