<svg width="20" height="4" viewBox="0 0 20 4" fill="none" xmlns="http://www.w3.org/2000/svg">
<path d="M19.1414 2.54556L19.0851 1.08904L17.9323 0.404236L16.8359 1.17596L16.8922 2.63248L18.045 3.31728L19.1414 2.54556Z" fill="url(#paint0_linear_3308_38697)"/>
<path d="M18.8044 1.28628L18.846 2.36308L18.0353 2.9343L17.1824 2.42732L17.1406 1.35051L17.952 0.779297L18.6631 1.2023L18.8044 1.28628Z" fill="url(#paint1_linear_3308_38697)"/>
<g opacity="0.65">
<path d="M17.9323 0.398438L17.947 0.777804L17.1362 1.3485L16.8359 1.17016L17.9323 0.398438Z" fill="#F5FFCA"/>
</g>
<path opacity="0.35" d="M18.0499 3.32116L18.0352 2.94179L18.846 2.37109L19.1462 2.54944L18.0499 3.32116Z" fill="#F8DEC7"/>
<path d="M19.0863 1.08398L18.8008 1.28501L18.8423 2.36217L19.1426 2.54051L19.0863 1.08398Z" fill="url(#paint2_linear_3308_38697)"/>
<path d="M16.8945 2.63261L17.1801 2.43158L18.0326 2.93804L18.0474 3.31741L16.8945 2.63261Z" fill="url(#paint3_linear_3308_38697)"/>
<g style="mix-blend-mode:screen" opacity="0.35">
<path d="M18.8039 1.29882L18.8454 2.37563L18.0347 2.94684L17.1816 2.43987C17.1816 2.43987 18.1646 1.60928 18.6624 1.21484L18.8039 1.29882Z" fill="url(#paint4_linear_3308_38697)"/>
</g>
<g style="mix-blend-mode:screen">
<path d="M17.412 1.34605C17.4177 1.4953 17.3014 1.62118 17.1521 1.62689C17.0029 1.63261 16.877 1.51625 16.8713 1.367C16.8656 1.21757 16.9819 1.09187 17.1312 1.08615C17.2806 1.08026 17.4063 1.19662 17.412 1.34605Z" fill="url(#paint5_radial_3308_38697)"/>
</g>
<g style="mix-blend-mode:screen">
<path d="M18.0245 0.780996C18.0261 0.820128 17.9956 0.853024 17.9565 0.854582C17.9173 0.85614 17.8844 0.825668 17.8829 0.786536C17.8813 0.747405 17.9118 0.714506 17.9509 0.712948C17.99 0.711389 18.0229 0.741865 18.0245 0.780996Z" fill="url(#paint6_radial_3308_38697)"/>
</g>
<path d="M2.57109 2.51437L2.51482 1.05785L1.362 0.373047L0.265625 1.14477L0.321898 2.60129L1.47472 3.28609L2.57109 2.51437Z" fill="url(#paint7_linear_3308_38697)"/>
<path d="M2.23019 1.26479L2.27174 2.3416L1.46106 2.91282L0.608135 2.40584L0.566406 1.32903L1.37778 0.757812L2.0889 1.18082L2.23019 1.26479Z" fill="url(#paint8_linear_3308_38697)"/>
<g opacity="0.65">
<path d="M1.36395 0.369141L1.37867 0.748508L0.567816 1.31921L0.267578 1.14086L1.36395 0.369141Z" fill="#F5FFCA"/>
</g>
<path opacity="0.35" d="M1.47566 3.28796L1.46094 2.90859L2.27179 2.33789L2.57203 2.51623L1.47566 3.28796Z" fill="#F8DEC7"/>
<path d="M2.51599 1.07227L2.23047 1.27329L2.27202 2.35045L2.57226 2.52879L2.51599 1.07227Z" fill="url(#paint9_linear_3308_38697)"/>
<path d="M0.324219 2.61131L0.609741 2.41028L1.46232 2.91674L1.47704 3.29611L0.324219 2.61131Z" fill="url(#paint10_linear_3308_38697)"/>
<g style="mix-blend-mode:screen" opacity="0.35">
<path d="M2.22948 1.26952L2.27103 2.34633L1.46035 2.91755L0.607422 2.41057C0.607422 2.41057 1.59038 1.57998 2.08819 1.18555L2.22948 1.26952Z" fill="url(#paint11_linear_3308_38697)"/>
</g>
<g style="mix-blend-mode:screen">
<path d="M0.835866 1.32456C0.84158 1.47382 0.725226 1.5997 0.575972 1.60541C0.426718 1.61112 0.300838 1.49477 0.295124 1.34552C0.28941 1.19626 0.405767 1.07038 0.55502 1.06467C0.704274 1.05878 0.830152 1.17514 0.835866 1.32456Z" fill="url(#paint12_radial_3308_38697)"/>
</g>
<g style="mix-blend-mode:screen">
<path d="M1.44833 0.757559C1.44989 0.79669 1.41942 0.829586 1.38029 0.831144C1.34115 0.832703 1.30826 0.80223 1.3067 0.763099C1.30514 0.723967 1.33561 0.691069 1.37475 0.68951C1.41388 0.687952 1.44678 0.718427 1.44833 0.757559Z" fill="url(#paint13_radial_3308_38697)"/>
</g>
<g style="mix-blend-mode:screen" opacity="0.35">
<path d="M2.51482 1.07347L1.362 0.388672L0.265625 1.16039L0.321898 2.61692L1.47472 3.30172L2.57109 2.53L2.51482 1.07347Z" fill="url(#paint14_linear_3308_38697)"/>
</g>
<defs>
<linearGradient id="paint0_linear_3308_38697" x1="18.0449" y1="3.31729" x2="17.9324" y2="0.404226" gradientUnits="userSpaceOnUse">
<stop offset="0.0216" stop-color="#A50085"/>
<stop offset="0.0451" stop-color="#A90085"/>
<stop offset="0.3356" stop-color="#D70288"/>
<stop offset="0.5589" stop-color="#F40489"/>
<stop offset="0.6869" stop-color="#FF048A"/>
</linearGradient>
<linearGradient id="paint1_linear_3308_38697" x1="18.035" y1="2.93429" x2="17.9517" y2="0.779303" gradientUnits="userSpaceOnUse">
<stop offset="0.3077" stop-color="#FF178A"/>
<stop offset="0.4757" stop-color="#F41386"/>
<stop offset="0.7678" stop-color="#D8097B"/>
<stop offset="0.9784" stop-color="#BF0071"/>
</linearGradient>
<linearGradient id="paint2_linear_3308_38697" x1="18.9961" y1="2.54617" x2="18.9399" y2="1.08963" gradientUnits="userSpaceOnUse">
<stop offset="0.3077" stop-color="#E30197"/>
<stop offset="0.5543" stop-color="#D80193"/>
<stop offset="0.9784" stop-color="#BC0087"/>
</linearGradient>
<linearGradient id="paint3_linear_3308_38697" x1="17.485" y1="3.33914" x2="17.4495" y2="2.42123" gradientUnits="userSpaceOnUse">
<stop offset="0.2915" stop-color="#EF0BBB"/>
<stop offset="0.4936" stop-color="#E409B0"/>
<stop offset="0.8452" stop-color="#C80394"/>
<stop offset="0.9784" stop-color="#BC0087"/>
</linearGradient>
<linearGradient id="paint4_linear_3308_38697" x1="17.681" y1="3.09369" x2="18.4255" y2="1.55826" gradientUnits="userSpaceOnUse">
<stop offset="0.3131" stop-color="white"/>
<stop offset="0.3712" stop-color="#F4F4F4"/>
<stop offset="0.4727" stop-color="#D7D7D7"/>
<stop offset="0.6056" stop-color="#A8A8A8"/>
<stop offset="0.7648" stop-color="#676767"/>
<stop offset="0.9443" stop-color="#161616"/>
<stop offset="0.9892"/>
</linearGradient>
<radialGradient id="paint5_radial_3308_38697" cx="0" cy="0" r="1" gradientUnits="userSpaceOnUse" gradientTransform="translate(17.1417 1.35642) rotate(-2.21208) scale(0.270573 0.270574)">
<stop offset="0.0135" stop-color="white"/>
<stop offset="0.079" stop-color="#E9E9E9"/>
<stop offset="0.3409" stop-color="#989898"/>
<stop offset="0.5732" stop-color="#575757"/>
<stop offset="0.7671" stop-color="#282828"/>
<stop offset="0.9152" stop-color="#0B0B0B"/>
<stop offset="1"/>
</radialGradient>
<radialGradient id="paint6_radial_3308_38697" cx="0" cy="0" r="1" gradientUnits="userSpaceOnUse" gradientTransform="translate(17.9537 0.783768) rotate(-2.21207) scale(0.0708722)">
<stop offset="0.0135" stop-color="white"/>
<stop offset="0.079" stop-color="#E9E9E9"/>
<stop offset="0.3409" stop-color="#989898"/>
<stop offset="0.5732" stop-color="#575757"/>
<stop offset="0.7671" stop-color="#282828"/>
<stop offset="0.9152" stop-color="#0B0B0B"/>
<stop offset="1"/>
</radialGradient>
<linearGradient id="paint7_linear_3308_38697" x1="1.47459" y1="3.2861" x2="1.36207" y2="0.373029" gradientUnits="userSpaceOnUse">
<stop offset="0.0216" stop-color="#A50085"/>
<stop offset="0.0451" stop-color="#A90085"/>
<stop offset="0.3356" stop-color="#D70288"/>
<stop offset="0.5589" stop-color="#F40489"/>
<stop offset="0.6869" stop-color="#FF048A"/>
</linearGradient>
<linearGradient id="paint8_linear_3308_38697" x1="1.46072" y1="2.91279" x2="1.37748" y2="0.757828" gradientUnits="userSpaceOnUse">
<stop offset="0.3077" stop-color="#FF178A"/>
<stop offset="0.4757" stop-color="#F41386"/>
<stop offset="0.7678" stop-color="#D8097B"/>
<stop offset="0.9784" stop-color="#BF0071"/>
</linearGradient>
<linearGradient id="paint9_linear_3308_38697" x1="2.42579" y1="2.53444" x2="2.36952" y2="1.0779" gradientUnits="userSpaceOnUse">
<stop offset="0.3077" stop-color="#E30197"/>
<stop offset="0.5543" stop-color="#D80193"/>
<stop offset="0.9784" stop-color="#BC0087"/>
</linearGradient>
<linearGradient id="paint10_linear_3308_38697" x1="0.914661" y1="3.31783" x2="0.879204" y2="2.39992" gradientUnits="userSpaceOnUse">
<stop offset="0.2915" stop-color="#EF0BBB"/>
<stop offset="0.4936" stop-color="#E409B0"/>
<stop offset="0.8452" stop-color="#C80394"/>
<stop offset="0.9784" stop-color="#BC0087"/>
</linearGradient>
<linearGradient id="paint11_linear_3308_38697" x1="1.1066" y1="3.0644" x2="1.85109" y2="1.52898" gradientUnits="userSpaceOnUse">
<stop offset="0.3131" stop-color="white"/>
<stop offset="0.3712" stop-color="#F4F4F4"/>
<stop offset="0.4727" stop-color="#D7D7D7"/>
<stop offset="0.6056" stop-color="#A8A8A8"/>
<stop offset="0.7648" stop-color="#676767"/>
<stop offset="0.9443" stop-color="#161616"/>
<stop offset="0.9892"/>
</linearGradient>
<radialGradient id="paint12_radial_3308_38697" cx="0" cy="0" r="1" gradientUnits="userSpaceOnUse" gradientTransform="translate(0.565467 1.33495) rotate(-2.21207) scale(0.270591)">
<stop offset="0.0135" stop-color="white"/>
<stop offset="0.079" stop-color="#E9E9E9"/>
<stop offset="0.3409" stop-color="#989898"/>
<stop offset="0.5732" stop-color="#575757"/>
<stop offset="0.7671" stop-color="#282828"/>
<stop offset="0.9152" stop-color="#0B0B0B"/>
<stop offset="1"/>
</radialGradient>
<radialGradient id="paint13_radial_3308_38697" cx="0" cy="0" r="1" gradientUnits="userSpaceOnUse" gradientTransform="translate(1.37749 0.760339) rotate(-2.21203) scale(0.0708562 0.0708549)">
<stop offset="0.0135" stop-color="white"/>
<stop offset="0.079" stop-color="#E9E9E9"/>
<stop offset="0.3409" stop-color="#989898"/>
<stop offset="0.5732" stop-color="#575757"/>
<stop offset="0.7671" stop-color="#282828"/>
<stop offset="0.9152" stop-color="#0B0B0B"/>
<stop offset="1"/>
</radialGradient>
<linearGradient id="paint14_linear_3308_38697" x1="0.265608" y1="1.8452" x2="2.57106" y2="1.8452" gradientUnits="userSpaceOnUse">
<stop offset="0.0135" stop-color="white"/>
<stop offset="0.079" stop-color="#E9E9E9"/>
<stop offset="0.3409" stop-color="#989898"/>
<stop offset="0.5732" stop-color="#575757"/>
<stop offset="0.7671" stop-color="#282828"/>
<stop offset="0.9152" stop-color="#0B0B0B"/>
<stop offset="1"/>
</linearGradient>
</defs>
</svg>
