<svg width="23" height="23" viewBox="0 0 23 23" fill="none" xmlns="http://www.w3.org/2000/svg">
<path d="M11.4987 4.79102L10.4408 3.31C10.0469 2.7585 9.84991 2.48275 9.9743 2.22662C10.0987 1.97048 10.4148 1.95582 11.0469 1.92648C11.1966 1.91953 11.3472 1.91602 11.4987 1.91602C16.7914 1.91602 21.082 6.20662 21.082 11.4993C21.082 16.7921 16.7914 21.0827 11.4987 21.0827C6.20597 21.0827 1.91536 16.7921 1.91536 11.4993C1.91536 8.36403 3.42101 5.58038 5.7487 3.83198" stroke="white" stroke-width="1.5" stroke-linecap="round" stroke-linejoin="round"/>
<path d="M9.10356 9.88518L9.85356 9.88518V9.88518H9.10356ZM8.35356 15.332C8.35356 15.7462 8.68935 16.082 9.10356 16.082C9.51777 16.082 9.85356 15.7462 9.85356 15.332H8.35356ZM8.64356 9.6431L8.17885 9.05442C8.16426 9.06594 8.1501 9.078 8.1364 9.09057L8.64356 9.6431ZM7.15886 9.98783C6.8537 10.2679 6.83339 10.7424 7.11348 11.0475C7.39358 11.3527 7.86802 11.373 8.17317 11.0929L7.15886 9.98783ZM12.4044 15.1705L12.8211 14.5469L12.4044 15.1705ZM12.14 14.9061L12.7636 14.4894L12.14 14.9061ZM15.1712 14.9061L14.5476 14.4894L15.1712 14.9061ZM14.9068 15.1705L14.4901 14.5469L14.9068 15.1705ZM14.9068 9.74354L14.4901 10.3671L14.9068 9.74354ZM15.1712 10.0079L14.5476 10.4246L15.1712 10.0079ZM12.4044 9.74354L12.8211 10.3671L12.4044 9.74354ZM12.14 10.0079L12.7636 10.4246L12.14 10.0079ZM8.35356 9.88518L8.35356 15.332H9.85356L9.85356 9.88518L8.35356 9.88518ZM9.85356 9.88518C9.85356 9.08585 8.91942 8.46982 8.17885 9.05442L9.10827 10.2318C8.95285 10.3545 8.74603 10.3575 8.59535 10.2782C8.44849 10.2009 8.35356 10.0482 8.35356 9.88518H9.85356ZM8.1364 9.09057L7.15886 9.98783L8.17317 11.0929L9.15072 10.1956L8.1364 9.09057ZM14.5827 11.2591V13.6549H16.0827V11.2591H14.5827ZM12.7285 13.6549V11.2591H11.2285V13.6549H12.7285ZM13.6556 14.582C13.3035 14.582 13.0959 14.5811 12.9442 14.5657C12.805 14.5515 12.7982 14.5316 12.8211 14.5469L11.9877 15.7941C12.2524 15.9709 12.5346 16.0318 12.7924 16.058C13.0376 16.0829 13.3347 16.082 13.6556 16.082V14.582ZM11.2285 13.6549C11.2285 13.9758 11.2276 14.2729 11.2526 14.5182C11.2788 14.7759 11.3396 15.0582 11.5164 15.3228L12.7636 14.4894C12.7789 14.5124 12.759 14.5055 12.7449 14.3664C12.7294 14.2147 12.7285 14.007 12.7285 13.6549H11.2285ZM12.8211 14.5469C12.7984 14.5317 12.7788 14.5122 12.7636 14.4894L11.5164 15.3228C11.6411 15.5093 11.8012 15.6695 11.9877 15.7941L12.8211 14.5469ZM14.5827 13.6549C14.5827 14.007 14.5818 14.2147 14.5663 14.3664C14.5522 14.5055 14.5323 14.5124 14.5476 14.4894L15.7948 15.3228C15.9716 15.0582 16.0324 14.7759 16.0586 14.5182C16.0836 14.2729 16.0827 13.9758 16.0827 13.6549H14.5827ZM13.6556 16.082C13.9765 16.082 14.2736 16.0829 14.5188 16.058C14.7766 16.0318 15.0588 15.9709 15.3234 15.7941L14.4901 14.5469C14.513 14.5316 14.5062 14.5515 14.367 14.5657C14.2153 14.5811 14.0077 14.582 13.6556 14.582V16.082ZM14.5476 14.4894C14.5324 14.5122 14.5128 14.5317 14.4901 14.5469L15.3234 15.7941C15.51 15.6695 15.6701 15.5093 15.7948 15.3228L14.5476 14.4894ZM13.6556 10.332C14.0077 10.332 14.2153 10.3329 14.367 10.3484C14.5062 10.3625 14.513 10.3825 14.4901 10.3671L15.3234 9.11994C15.0588 8.94312 14.7766 8.88229 14.5188 8.85607C14.2736 8.83112 13.9765 8.83203 13.6556 8.83203V10.332ZM16.0827 11.2591C16.0827 10.9382 16.0836 10.6411 16.0586 10.3959C16.0324 10.1381 15.9716 9.8559 15.7948 9.59127L14.5476 10.4246C14.5323 10.4017 14.5522 10.4086 14.5663 10.5477C14.5818 10.6994 14.5827 10.907 14.5827 11.2591H16.0827ZM14.4901 10.3671C14.5128 10.3823 14.5324 10.4019 14.5476 10.4246L15.7948 9.59127C15.6701 9.40473 15.51 9.24457 15.3234 9.11994L14.4901 10.3671ZM13.6556 8.83203C13.3347 8.83203 13.0376 8.83112 12.7924 8.85607C12.5346 8.88229 12.2524 8.94312 11.9877 9.11994L12.8211 10.3671C12.7982 10.3825 12.805 10.3625 12.9442 10.3484C13.0959 10.3329 13.3035 10.332 13.6556 10.332V8.83203ZM12.7285 11.2591C12.7285 10.907 12.7294 10.6994 12.7449 10.5477C12.759 10.4086 12.7789 10.4017 12.7636 10.4246L11.5164 9.59127C11.3396 9.8559 11.2788 10.1381 11.2526 10.3959C11.2276 10.6411 11.2285 10.9382 11.2285 11.2591H12.7285ZM11.9877 9.11994C11.8012 9.24457 11.6411 9.40473 11.5164 9.59127L12.7636 10.4246C12.7788 10.4019 12.7984 10.3823 12.8211 10.3671L11.9877 9.11994Z" fill="white"/>
</svg>
