<svg width="24" height="24" viewBox="0 0 24 24" fill="none" xmlns="http://www.w3.org/2000/svg">
<path d="M6.08914 14.999C5.71073 14.1484 5.49976 13.2021 5.49976 12.2049C5.49976 8.50135 8.40991 5.49902 11.9998 5.49902C15.5897 5.49902 18.4998 8.50135 18.4998 12.2049C18.4998 13.2021 18.2888 14.1484 17.9104 14.999" stroke="#1D2939" stroke-width="1.5" stroke-linecap="round"/>
<path d="M12 2.00098V3.00098" stroke="#1D2939" stroke-width="1.5" stroke-linecap="round" stroke-linejoin="round"/>
<path d="M22 12H21" stroke="#1D2939" stroke-width="1.5" stroke-linecap="round" stroke-linejoin="round"/>
<path d="M3 12H2" stroke="#1D2939" stroke-width="1.5" stroke-linecap="round" stroke-linejoin="round"/>
<path d="M19.0704 4.92773L18.3633 5.63484" stroke="#1D2939" stroke-width="1.5" stroke-linecap="round" stroke-linejoin="round"/>
<path d="M5.63704 5.63777L4.92993 4.93066" stroke="#1D2939" stroke-width="1.5" stroke-linecap="round" stroke-linejoin="round"/>
<path d="M14.5168 19.3045C15.5272 18.9777 15.9324 18.0529 16.0464 17.1227C16.0804 16.8448 15.8518 16.6143 15.5718 16.6143L8.47661 16.6145C8.18701 16.6145 7.95443 16.8603 7.98901 17.1478C8.10066 18.0762 8.38246 18.7544 9.45321 19.3045M14.5168 19.3045C14.5168 19.3045 9.62947 19.3045 9.45321 19.3045M14.5168 19.3045C14.3953 21.2495 13.8336 22.0198 12.0066 21.9982C10.0524 22.0343 9.60279 21.0822 9.45321 19.3045" stroke="#1D2939" stroke-width="1.5" stroke-linecap="round" stroke-linejoin="round"/>
</svg>
