<svg width="20" height="20" viewBox="0 0 20 20" fill="none" xmlns="http://www.w3.org/2000/svg">
<path d="M5.07318 12.4948C4.75784 11.786 4.58203 10.9974 4.58203 10.1664C4.58203 7.08007 7.00716 4.57812 9.9987 4.57812C12.9903 4.57812 15.4154 7.08007 15.4154 10.1664C15.4154 10.9974 15.2395 11.786 14.9242 12.4948" stroke="#667085" stroke-width="1.5" stroke-linecap="round"/>
<path d="M10 1.67188V2.50521" stroke="#667085" stroke-width="1.5" stroke-linecap="round" stroke-linejoin="round"/>
<path d="M18.3333 10H17.5" stroke="#667085" stroke-width="1.5" stroke-linecap="round" stroke-linejoin="round"/>
<path d="M2.5013 10H1.66797" stroke="#667085" stroke-width="1.5" stroke-linecap="round" stroke-linejoin="round"/>
<path d="M15.892 4.10156L15.3027 4.69082" stroke="#667085" stroke-width="1.5" stroke-linecap="round" stroke-linejoin="round"/>
<path d="M4.69863 4.69863L4.10938 4.10938" stroke="#667085" stroke-width="1.5" stroke-linecap="round" stroke-linejoin="round"/>
<path d="M12.0989 16.0856C12.9409 15.8132 13.2786 15.0426 13.3736 14.2674C13.4019 14.0358 13.2114 13.8438 12.9781 13.8438L7.06543 13.8439C6.8241 13.8439 6.63028 14.0487 6.6591 14.2883C6.75214 15.062 6.98697 15.6272 7.87926 16.0856M12.0989 16.0856C12.0989 16.0856 8.02615 16.0856 7.87926 16.0856M12.0989 16.0856C11.9976 17.7064 11.5296 18.3483 10.0071 18.3303C8.37855 18.3604 8.00391 17.567 7.87926 16.0856" stroke="#667085" stroke-width="1.5" stroke-linecap="round" stroke-linejoin="round"/>
</svg>
