<svg width="24" height="24" viewBox="0 0 24 24" fill="none" xmlns="http://www.w3.org/2000/svg">
<path d="M6.08938 14.999C5.71097 14.1484 5.5 13.2021 5.5 12.2049C5.5 8.50135 8.41015 5.49902 12 5.49902C15.5899 5.49902 18.5 8.50135 18.5 12.2049C18.5 13.2021 18.289 14.1484 17.9106 14.999" stroke="#1D2939" stroke-width="1.5" stroke-linecap="round"/>
<path d="M12 2.00098V3.00098" stroke="#1D2939" stroke-width="1.5" stroke-linecap="round" stroke-linejoin="round"/>
<path d="M22 12H21" stroke="#1D2939" stroke-width="1.5" stroke-linecap="round" stroke-linejoin="round"/>
<path d="M3 12H2" stroke="#1D2939" stroke-width="1.5" stroke-linecap="round" stroke-linejoin="round"/>
<path d="M19.0704 4.92773L18.3633 5.63484" stroke="#1D2939" stroke-width="1.5" stroke-linecap="round" stroke-linejoin="round"/>
<path d="M5.6368 5.63777L4.92969 4.93066" stroke="#1D2939" stroke-width="1.5" stroke-linecap="round" stroke-linejoin="round"/>
<path d="M14.5165 19.3045C15.5269 18.9777 15.9321 18.0529 16.0461 17.1227C16.0801 16.8448 15.8515 16.6143 15.5715 16.6143L8.47637 16.6145C8.18677 16.6145 7.95419 16.8603 7.98877 17.1478C8.10042 18.0762 8.38222 18.7544 9.45297 19.3045M14.5165 19.3045C14.5165 19.3045 9.62923 19.3045 9.45297 19.3045M14.5165 19.3045C14.395 21.2495 13.8333 22.0198 12.0063 21.9982C10.0521 22.0343 9.60255 21.0822 9.45297 19.3045" stroke="#1D2939" stroke-width="1.5" stroke-linecap="round" stroke-linejoin="round"/>
</svg>
