<svg width="18" height="18" viewBox="0 0 18 18" fill="none" xmlns="http://www.w3.org/2000/svg">
<circle cx="5.625" cy="5.625" r="1.125" stroke="#ffffff" stroke-width="1.5" stroke-linecap="round" stroke-linejoin="round"/>
<path d="M1.875 9C1.875 5.64124 1.875 3.96186 2.91843 2.91843C3.96186 1.875 5.64124 1.875 9 1.875C12.3588 1.875 14.0381 1.875 15.0816 2.91843C16.125 3.96186 16.125 5.64124 16.125 9C16.125 12.3588 16.125 14.0381 15.0816 15.0816C14.0381 16.125 12.3588 16.125 9 16.125C5.64124 16.125 3.96186 16.125 2.91843 15.0816C1.875 14.0381 1.875 12.3588 1.875 9Z" stroke="#ffffff" stroke-width="1.5"/>
<path d="M3.75 15.75C7.02934 11.8312 10.7055 6.663 16.1231 10.1568" stroke="#ffffff" stroke-width="1.5"/>
</svg>
