<svg width="14" height="14" viewBox="0 0 14 14" fill="none" xmlns="http://www.w3.org/2000/svg">
<g clip-path="url(#clip0_2736_11615)">
<rect x="1" y="2" width="12" height="11" rx="5.5" fill="white"/>
<path fill-rule="evenodd" clip-rule="evenodd" d="M7 14C8.85652 14 10.637 13.2625 11.9497 11.9497C13.2625 10.637 14 8.85652 14 7C14 5.14348 13.2625 3.36301 11.9497 2.05025C10.637 0.737498 8.85652 0 7 0C5.14348 0 3.36301 0.737498 2.05025 2.05025C0.737498 3.36301 0 5.14348 0 7C0 8.85652 0.737498 10.637 2.05025 11.9497C3.36301 13.2625 5.14348 14 7 14ZM7.875 4.375C7.875 4.60706 7.78281 4.82962 7.61872 4.99372C7.45462 5.15781 7.23206 5.25 7 5.25C6.76794 5.25 6.54538 5.15781 6.38128 4.99372C6.21719 4.82962 6.125 4.60706 6.125 4.375C6.125 4.14294 6.21719 3.92038 6.38128 3.75628C6.54538 3.59219 6.76794 3.5 7 3.5C7.23206 3.5 7.45462 3.59219 7.61872 3.75628C7.78281 3.92038 7.875 4.14294 7.875 4.375ZM6.125 6.125C5.95095 6.125 5.78403 6.19414 5.66096 6.31721C5.53789 6.44028 5.46875 6.6072 5.46875 6.78125C5.46875 6.9553 5.53789 7.12222 5.66096 7.24529C5.78403 7.36836 5.95095 7.4375 6.125 7.4375H6.34375V9.1875H5.46875C5.2947 9.1875 5.12778 9.25664 5.00471 9.37971C4.88164 9.50278 4.8125 9.6697 4.8125 9.84375C4.8125 10.0178 4.88164 10.1847 5.00471 10.3078C5.12778 10.4309 5.2947 10.5 5.46875 10.5H8.53125C8.7053 10.5 8.87222 10.4309 8.99529 10.3078C9.11836 10.1847 9.1875 10.0178 9.1875 9.84375C9.1875 9.6697 9.11836 9.50278 8.99529 9.37971C8.87222 9.25664 8.7053 9.1875 8.53125 9.1875H7.65625V6.125H6.125Z" fill="#217FDB"/>
</g>
<defs>
<clipPath id="clip0_2736_11615">
<rect width="14" height="14" fill="white"/>
</clipPath>
</defs>
</svg>
