<svg width="60" height="24" viewBox="0 0 60 24" fill="none" xmlns="http://www.w3.org/2000/svg">
<rect x="0.5" width="59" height="24" rx="6" fill="#EDE4FF"/>
<circle cx="16.5" cy="12" r="3" fill="#7400E0"/>
<path d="M26.768 14.896H29.588V16H25.4V7.66H26.768V14.896ZM31.428 8.512C31.18 8.512 30.972 8.428 30.804 8.26C30.636 8.092 30.552 7.884 30.552 7.636C30.552 7.388 30.636 7.18 30.804 7.012C30.972 6.844 31.18 6.76 31.428 6.76C31.668 6.76 31.872 6.844 32.04 7.012C32.208 7.18 32.292 7.388 32.292 7.636C32.292 7.884 32.208 8.092 32.04 8.26C31.872 8.428 31.668 8.512 31.428 8.512ZM32.1 9.388V16H30.732V9.388H32.1ZM36.4521 14.776L38.3241 9.388H39.7761L37.2561 16H35.6241L33.1161 9.388H34.5801L36.4521 14.776ZM46.8702 12.532C46.8702 12.78 46.8542 13.004 46.8222 13.204H41.7702C41.8102 13.732 42.0062 14.156 42.3582 14.476C42.7102 14.796 43.1422 14.956 43.6542 14.956C44.3902 14.956 44.9102 14.648 45.2142 14.032H46.6902C46.4902 14.64 46.1262 15.14 45.5982 15.532C45.0782 15.916 44.4302 16.108 43.6542 16.108C43.0222 16.108 42.4542 15.968 41.9502 15.688C41.4542 15.4 41.0622 15 40.7742 14.488C40.4942 13.968 40.3542 13.368 40.3542 12.688C40.3542 12.008 40.4902 11.412 40.7622 10.9C41.0422 10.38 41.4302 9.98 41.9262 9.7C42.4302 9.42 43.0062 9.28 43.6542 9.28C44.2782 9.28 44.8342 9.416 45.3222 9.688C45.8102 9.96 46.1902 10.344 46.4622 10.84C46.7342 11.328 46.8702 11.892 46.8702 12.532ZM45.4422 12.1C45.4342 11.596 45.2542 11.192 44.9022 10.888C44.5502 10.584 44.1142 10.432 43.5942 10.432C43.1222 10.432 42.7182 10.584 42.3822 10.888C42.0462 11.184 41.8462 11.588 41.7822 12.1H45.4422Z" fill="#7400E0"/>
</svg>
