<svg width="18" height="18" viewBox="0 0 18 18" fill="none" xmlns="http://www.w3.org/2000/svg">
<path d="M11.25 13.2187C11.1948 14.6077 10.0373 15.787 8.48673 15.7491C8.12599 15.7403 7.6801 15.6145 6.78834 15.363C4.64221 14.7576 2.77916 13.7403 2.33217 11.4612C2.25 11.0422 2.25 10.5708 2.25 9.62794L2.25 8.37206C2.25 7.42921 2.25 6.95778 2.33217 6.53884C2.77916 4.25974 4.64221 3.24237 6.78834 2.63702C7.6801 2.38548 8.12598 2.25972 8.48673 2.25089C10.0373 2.21296 11.1948 3.3923 11.25 4.78125" stroke="#DE3024" stroke-width="1.5" stroke-linecap="round"/>
<path d="M15.75 9H7.5M15.75 9C15.75 8.47483 14.2543 7.49365 13.875 7.125M15.75 9C15.75 9.52517 14.2543 10.5064 13.875 10.875" stroke="#DE3024" stroke-width="1.5" stroke-linecap="round" stroke-linejoin="round"/>
</svg>
