<svg width="122" height="122" viewBox="0 0 122 122" fill="none" xmlns="http://www.w3.org/2000/svg">
<path fill-rule="evenodd" clip-rule="evenodd" d="M89.4284 102.291C92.615 103.499 95.0727 104.418 96.4202 104.902C96.5824 104.96 96.7014 105.008 96.8118 104.992C97.2077 104.933 97.4798 104.04 99.1652 99.792C101.997 92.655 114.667 59.6088 114.799 59.2422C118.183 49.9246 119.282 48.2732 118.865 47.6679C118.758 47.512 118.55 47.4255 118.255 47.2954C116.546 46.5424 77.9299 31.5767 64.8984 26.8203C64.9045 27.3278 64.9106 27.843 64.9173 28.3653C66.9364 29.1622 70.6788 30.7532 77.767 33.513C113.44 47.407 116.991 48.0052 117.022 48.7509C117.027 48.8469 116.972 48.9453 116.92 49.0748C112.141 61.0545 97.9678 98.2713 96.4806 102.534C96.2347 103.24 96.2329 103.239 92.3783 101.671C91.7177 101.402 90.9442 101.088 90.0372 100.723C89.8261 101.266 89.623 101.789 89.4284 102.291Z" fill="#191919"/>
<path fill-rule="evenodd" clip-rule="evenodd" d="M61.9845 74.1877C61.4843 74.1962 60.9369 74.2048 60.3468 74.2139C61.0775 75.914 61.9754 77.9325 63.0844 80.3249C63.3058 80.8031 63.1307 80.9263 62.8099 81.127L61.9992 81.6339H61.9986C52.7421 87.4173 49.4986 89.4438 45.9737 91.9124C45.5531 92.2058 45.4349 92.1589 43.2508 91.2896C41.397 90.5521 38.0549 89.2217 31.7761 87.0044C31.0727 86.7561 31.0453 86.7189 31.3088 86.0558L35.9046 74.4536C35.3076 74.4579 34.7102 74.4628 34.1132 74.467C31.5715 81.2136 29.7767 86.0223 29.4722 86.8385L29.4263 86.9611C29.2476 87.4283 29.3605 87.6681 29.8204 87.7974C29.9461 87.8328 30.5196 88.0646 31.6295 88.5129C34.9365 89.8482 43.0047 93.1068 58.1714 98.8256C58.9355 99.1147 60.7648 99.8217 63.1692 100.751H63.1704L63.1716 100.752C69.8346 103.327 80.9128 107.61 85.9813 109.431C86.415 109.587 86.609 109.534 86.781 109.099C87.4118 107.5 105.095 61.9791 108.367 53.1799C108.683 52.3301 108.622 52.1801 107.818 51.8263C106.185 51.1062 81.4795 41.5338 64.9986 35.293C65.0059 35.9074 65.0126 36.5254 65.0193 37.1458C68.8653 38.6503 70.7801 39.3655 72.6809 40.0755C73.882 40.5243 75.0782 40.971 76.7526 41.6137C77.9763 42.0824 79.8222 42.8002 82.0493 43.6665L82.0499 43.6666C88.8081 46.2949 99.0793 50.2896 106.151 52.8377C106.619 53.006 106.649 53.1902 106.483 53.605C104.157 59.4257 100.487 68.7855 98.5693 74.0004C97.9117 75.7889 97.2157 77.5616 96.5191 79.3342C95.8859 80.9471 95.2527 82.5593 94.6488 84.1831C94.6073 84.2929 94.5738 84.4046 94.5402 84.5156C94.4988 84.651 94.4585 84.7852 94.4048 84.9151C94.3835 84.9658 94.3694 85.0255 94.3554 85.0859C94.317 85.25 94.2767 85.4202 94.0931 85.4245C94.0846 85.4245 94.076 85.4251 94.0687 85.4251C94.0583 85.4251 94.0486 85.4245 94.0388 85.4226C93.929 85.4025 93.8497 85.2098 93.186 83.5847C93.0104 83.1547 92.7938 82.6246 92.5248 81.9707C92.4339 81.7492 92.3046 81.4332 92.1466 81.0453L92.146 81.0441C91.0663 78.3979 88.6263 72.4187 87.6155 70.4417C87.3971 70.0153 87.2099 69.6352 87.044 69.2997C86.0655 67.3191 85.8557 66.8939 84.6942 67.6088L64.8729 79.8625C64.5106 80.1126 64.3221 80.0699 64.1531 79.6246C63.5925 78.1466 62.8196 76.2098 61.9845 74.1877ZM92.8005 89.0973C93.3636 88.0115 93.5325 86.9842 92.662 85.9954C92.6065 85.9344 86.5291 72.4955 85.4317 69.2204C85.3158 68.8758 85.1786 68.6916 84.8065 68.9636C84.3624 69.2881 54.6559 88.0322 47.2182 92.2467C47.1945 92.2601 47.1684 92.2729 47.1416 92.2864C47.0343 92.3388 46.9178 92.3968 46.9217 92.5078C46.9274 92.6926 46.9393 92.6969 49.8754 93.7955C53.8507 95.2821 63.1862 98.7743 85.1243 107.434C85.5976 107.621 85.849 107.625 86.0442 107.068C88.3463 100.466 92.4205 89.8305 92.8005 89.0973Z" fill="#191919"/>
<path d="M64.7078 13.5866C64.6889 12.6802 64.576 12.5618 63.6982 12.5301C60.9636 12.4313 13.303 12.8559 3.90051 13.2457C3.10751 13.2786 3.05871 13.3097 3.05627 14.0936C2.97758 35.5046 3.77119 74.0145 3.77241 74.0828C3.77851 74.5812 3.97127 74.7648 4.44646 74.7147C5.14308 74.6415 57.2993 74.3689 64.626 74.1298C65.0884 74.1145 65.2464 73.9937 65.2464 73.5252C65.2458 71.8063 64.975 26.5967 64.7078 13.5866ZM4.66728 15.3837C4.65569 14.8127 4.80636 14.6517 5.38281 14.6517C25.0473 14.7042 24.2995 14.5584 31.0547 14.4846C36.7216 14.4236 52.2082 14.4065 62.5228 14.0862C63.0199 14.0704 63.1157 14.2302 63.1145 14.6779C63.0986 20.8267 63.4286 47.9778 63.4249 48.2334C63.4249 48.4366 63.5537 48.7214 63.3231 48.8209C63.1505 48.8953 63.2169 48.9099 60.5933 46.1899C59.2305 44.779 53.693 38.9614 51.7824 37.2821C49.3113 35.1099 48.9831 34.4407 48.0236 35.7242L34.1157 54.42C33.8717 54.786 33.6801 54.8153 33.3587 54.464C30.3123 51.1321 24.4697 45.1499 21.8375 42.8667C21.2733 42.3787 21.0396 42.3707 20.5248 42.8709C17.4675 45.8398 14.4346 48.8343 11.3516 51.7769C5.28399 57.5689 5.88545 57.3407 5.16992 57.7641C4.99302 38.4563 4.94056 28.4304 4.66728 15.3837ZM5.97329 73.2556C5.22909 73.2843 5.18883 73.2599 5.18883 72.5456V59.9088C5.16766 59.7834 5.17854 59.6547 5.22045 59.5346C5.26236 59.4145 5.33395 59.3069 5.42856 59.222C7.45739 57.6018 8.40716 56.5422 16.8355 48.2334C18.1977 46.8914 19.5689 45.5568 20.9262 44.2074C21.7058 43.4327 21.1135 44.5972 32.6169 55.5095C32.9988 55.8712 32.8816 56.05 32.6565 56.355C25.8562 65.5806 23.4352 68.8526 20.9836 72.5865C20.4663 73.3691 20.6303 72.692 5.97329 73.2556ZM63.0968 72.5907C49.1308 72.5993 25.3622 72.8896 25.2768 72.8915C22.2378 72.9445 22.1657 72.997 22.0797 72.7939C22.0248 72.6664 22.1742 72.5499 22.2596 72.4419C27.4062 66.0637 48.2658 37.5102 48.6226 36.9429C48.8666 36.5525 49.0631 36.6721 49.2979 36.9509C51.5714 39.6458 62.1397 49.8499 62.2013 49.8829C63.3719 50.4837 63.5982 51.4969 63.4744 52.7151C63.3908 53.5362 63.5213 64.823 63.816 71.9087C63.841 72.4992 63.6061 72.5907 63.0968 72.5907Z" fill="#9012FF"/>
<path d="M17.0962 33.2136C20.4512 33.2502 22.9784 30.2697 23.001 27.3063C22.9721 25.7784 22.3395 24.3239 21.2415 23.2609C20.1435 22.1979 18.6694 21.6127 17.1413 21.6333C13.9083 21.6815 11.0633 24.0239 11.0743 27.5394C11.0852 30.8053 13.7113 33.177 17.0962 33.2136ZM12.5413 25.9216C12.8763 25.0284 13.4767 24.2593 14.2619 23.7175C15.0471 23.1757 15.9793 22.8873 16.9333 22.8912C17.9662 22.8644 18.9812 23.165 19.8328 23.7501C20.6845 24.3352 21.3293 25.1748 21.6748 26.1486C22.0124 27.2004 21.9374 28.3414 21.4649 29.34C20.9925 30.3386 20.1579 31.1202 19.1305 31.5263C18.4753 31.7968 17.7726 31.9334 17.0638 31.9283C13.729 31.8899 11.5494 28.9491 12.5413 25.9216Z" fill="#9012FF"/>
</svg>
