<svg width="122" height="122" viewBox="0 0 122 122" fill="none" xmlns="http://www.w3.org/2000/svg">
<path d="M62.2381 91.7206C62.1479 91.4034 62.0301 91.0166 61.6836 91.2057C60.1684 92.0323 58.9441 92.929 57.3209 93.6921C57.4301 89.3367 57.729 84.0541 58.1694 79.0484C58.5458 79.3632 58.9203 79.6786 59.301 79.9878C59.3457 80.0256 59.3993 80.0512 59.4568 80.0624C59.5142 80.0735 59.5736 80.0697 59.6291 80.0513C59.6847 80.0329 59.7346 80.0007 59.7741 79.9575C59.8137 79.9144 59.8414 79.8618 59.8549 79.8048C60.0747 79.1403 60.238 78.4583 60.3429 77.7662C64.0968 81.0439 67.4602 84.7436 70.3664 88.792C70.7476 89.3056 71.3607 88.9664 71.1069 88.5297C69.4599 85.6938 63.2123 79.0497 60.6412 76.9677C60.0379 76.4797 59.9092 76.6383 59.7005 77.5167C59.5865 77.9944 59.4199 78.8965 59.3443 79.1637C58.9356 78.841 58.5251 78.5208 58.1176 78.1969C57.7516 77.9059 57.5411 78.458 57.4936 78.7294C56.7006 83.2208 56.6621 89.7131 56.4084 94.3704C56.4063 94.4455 56.4237 94.5198 56.4588 94.5861C56.494 94.6525 56.5456 94.7087 56.6088 94.7492C56.672 94.7898 56.7446 94.8133 56.8195 94.8176C56.8945 94.8219 56.9693 94.8067 57.0367 94.7736C58.6531 94.0745 60.2 93.2245 61.6568 92.2348C62.4895 95.3403 63.1861 99.7579 63.3258 100.142C63.4587 100.505 64.0755 100.313 63.9809 99.6762C63.7101 97.837 62.6291 93.0925 62.2381 91.7206Z" fill="#191919"/>
<path d="M40.9761 35.8216C41.0737 33.5299 40.9206 31.0795 39.3815 29.3013C39.3998 29.2751 39.4181 29.2489 39.4358 29.2214C39.7867 28.7055 39.933 28.0775 39.8463 27.4596C39.7595 26.8418 39.4459 26.2783 38.9666 25.8789C38.4872 25.4796 37.8764 25.2729 37.253 25.2991C36.6297 25.3253 36.0384 25.5826 35.5943 26.0208C35.1502 26.4591 34.8851 27.0469 34.8505 27.6699C34.816 28.2928 35.0146 28.9063 35.4075 29.391C35.8005 29.8756 36.3597 30.1966 36.9764 30.2916C37.593 30.3865 38.2229 30.2486 38.7435 29.9046C40.033 31.7822 40.1544 34.2155 39.9922 36.4274C39.8702 38.1134 39.1003 42.8128 40.3081 44.8454C40.496 45.162 41.1078 44.8948 41.0048 44.5788C40.1636 41.9961 40.862 38.4892 40.9761 35.8216ZM38.1042 29.244C37.7732 29.4276 37.3873 29.4865 37.0165 29.4098C36.6458 29.3331 36.3149 29.126 36.0839 28.8262C35.8454 28.4962 35.7438 28.0868 35.8001 27.6836C35.8564 27.2804 36.0664 26.9145 36.3861 26.6625C36.7059 26.4105 37.1106 26.2918 37.5158 26.3313C37.9211 26.3707 38.2953 26.5652 38.5605 26.8742C38.7072 27.052 38.8128 27.2601 38.8697 27.4835C38.9267 27.7069 38.9336 27.9401 38.89 28.1665C38.8465 28.3928 38.7534 28.6068 38.6176 28.7931C38.4817 28.9793 38.3064 29.1333 38.1042 29.244Z" fill="#191919"/>
<path d="M47.7364 35.3652C46.9855 34.8626 46.8183 35.5653 47.0654 36.0149C47.9313 37.4265 48.4164 39.0385 48.4733 40.6936C48.4721 40.749 48.4819 40.8041 48.502 40.8558C48.5221 40.9075 48.5523 40.9546 48.5906 40.9947C48.629 41.0347 48.6749 41.0668 48.7257 41.089C48.7764 41.1113 48.8311 41.1234 48.8865 41.1246C48.942 41.1257 48.9971 41.116 49.0487 41.0958C49.1004 41.0757 49.1476 41.0456 49.1876 41.0072C49.2276 40.9688 49.2597 40.9229 49.282 40.8721C49.3043 40.8214 49.3163 40.7667 49.3175 40.7113C49.3655 39.5125 49.1325 38.3191 48.6373 37.2264C51.5043 39.5352 54.2353 43.1196 53.0098 47.0162C52.6753 48.1156 51.9742 49.0671 51.0233 49.7122C50.0723 50.3573 48.9291 50.6571 47.784 50.5616C47.7003 50.551 47.6159 50.5735 47.5487 50.6244C47.4815 50.6753 47.4368 50.7504 47.4243 50.8338C47.4118 50.9172 47.4324 51.0021 47.4817 51.0705C47.531 51.1388 47.6051 51.1852 47.6882 51.1996C50.346 51.8334 52.9952 49.8759 53.8199 47.3847C55.4846 42.3534 51.5824 37.9419 47.7364 35.3652Z" fill="#191919"/>
<path d="M59.9717 82.8C59.9733 83 60.0262 83.1963 60.1253 83.37C60.2244 83.5437 60.3664 83.6891 60.5378 83.7923C60.7092 83.8955 60.9041 83.953 61.104 83.9593C61.3039 83.9656 61.5021 83.9206 61.6797 83.8284C61.8474 83.729 61.9868 83.5883 62.0845 83.4196C62.1823 83.2509 62.2351 83.06 62.238 82.865C62.2409 82.6701 62.1937 82.4777 62.101 82.3062C62.0082 82.1347 61.873 81.9899 61.7083 81.8856C61.5389 81.7861 61.3468 81.7314 61.1503 81.7269C60.9539 81.7223 60.7595 81.768 60.5856 81.8595C60.4117 81.9511 60.264 82.0855 60.1566 82.2501C60.0492 82.4147 59.9855 82.6039 59.9717 82.8Z" fill="#191919"/>
<path d="M89.6381 48.8307C89.7789 49.1771 90.0356 49.4639 90.3644 49.6419C90.6932 49.82 91.0737 49.8782 91.4407 49.8067C93.1285 49.5981 93.0535 47.2148 91.5798 46.7763C91.3004 46.7054 91.0073 46.7104 90.7305 46.7908C90.4538 46.8711 90.2036 47.0239 90.0056 47.2333C89.8077 47.4428 89.6693 47.7012 89.6047 47.9821C89.5401 48.2629 89.5516 48.5559 89.6381 48.8307Z" fill="#191919"/>
<path d="M118.933 49.2361C118.82 47.8172 118.633 46.4051 118.372 45.0058C118.162 43.8736 117.554 44.2225 117.585 45.0094C117.638 46.3142 117.88 47.9191 118.026 49.4954C113.612 50.1895 108.183 50.436 103.923 51.2705C102.997 51.4535 103.024 51.7139 103.266 52.5875C103.834 54.6334 104.477 56.683 105.042 58.7485C98.8786 56.4397 92.8552 53.7733 87.0024 50.763C87.2976 50.4878 87.571 50.1902 87.8204 49.873C88.1254 49.4771 88.1608 49.2074 87.8143 48.897C87.278 48.4901 86.6722 48.184 86.0264 47.9936C91.4704 43.8336 97.32 40.2333 103.486 37.2472C103.238 39.65 102.998 41.9137 102.748 44.3165C102.672 45.0521 103.017 44.9936 103.302 44.9374C106.23 44.3622 114.526 43.3795 117.504 43.1611C118.094 43.1178 118.025 42.1802 117.324 42.2297C114.474 42.431 106.539 43.3856 103.731 43.9096C103.988 41.4379 104.238 38.9649 104.497 36.4932C104.5 36.4118 104.481 36.3311 104.444 36.2589C104.406 36.1867 104.35 36.1256 104.281 36.0817C104.213 36.0378 104.134 36.0125 104.053 36.0084C103.971 36.0043 103.89 36.0215 103.818 36.0583C97.1547 39.1471 90.8888 43.0288 85.156 47.619C84.5832 48.0814 84.8918 48.5072 85.4225 48.656C86.0581 48.8081 86.6565 49.087 87.1818 49.4759C86.8471 49.8414 86.4862 50.1821 86.1021 50.4952C85.7117 50.8276 86.1564 51.2497 86.5138 51.4638C91.5219 54.4669 99.2628 57.8158 104.928 59.7421C106.224 60.1826 106.244 59.7281 105.983 58.6368C105.487 56.5677 104.573 54.2546 103.929 52.1385C106.711 51.7115 115.139 50.9344 117.937 50.4634C118.923 50.2975 118.996 50.0614 118.933 49.2361Z" fill="#191919"/>
<path d="M84.7201 72.4221C84.6546 72.6618 84.6454 72.9133 84.6931 73.1572C84.7408 73.401 84.8442 73.6305 84.9951 73.8279C85.1461 74.0252 85.3405 74.185 85.5634 74.2949C85.7862 74.4048 86.0314 74.4617 86.2799 74.4613C86.5555 74.4409 86.8205 74.3463 87.0468 74.1876C87.2731 74.029 87.4523 73.8121 87.5655 73.5599C87.6786 73.3078 87.7216 73.0297 87.6897 72.7552C87.6578 72.4807 87.5524 72.2198 87.3845 72.0003C87.2165 71.7808 86.9924 71.6107 86.7358 71.5081C86.4792 71.4054 86.1996 71.3741 85.9266 71.4173C85.6536 71.4605 85.3974 71.5767 85.185 71.7536C84.9726 71.9304 84.812 72.1614 84.7201 72.4221Z" fill="#191919"/>
<path d="M108.763 83.195C108.269 83.5817 105.724 88.2183 105.317 89.0003C102.064 86.8543 98.4962 84.3235 95.146 82.4587C95.0418 82.373 94.9184 82.3139 94.7862 82.2866C94.6541 82.2592 94.5173 82.2644 94.3877 82.3017C94.258 82.339 94.1393 82.4072 94.0419 82.5006C93.9445 82.5939 93.8712 82.7095 93.8284 82.8375C93.0507 84.612 91.7941 87.7065 91.1676 89.6945C87.8126 84.7437 83.295 77.7043 80.733 72.2229C81.0264 72.1918 81.3198 72.1619 81.6138 72.1204C82.5007 72.0015 82.6612 71.4189 82.1103 70.7491C81.8798 70.4691 81.6419 70.1946 81.4064 69.9189C87.0483 69.731 95.2534 70.0055 102.761 70.5112C101.175 72.24 99.302 73.6277 97.6495 75.2802C97.1999 75.7298 97.1096 76.0769 97.8575 76.4349C100.807 77.8483 106.73 81.5827 108.565 82.3519C108.863 82.477 109.291 82.0469 108.781 81.6809C106.188 79.818 100.562 76.8943 98.3351 75.7383C99.0568 75.0356 102.167 72.4846 103.401 71.181C104.14 70.4008 104.067 69.6889 102.913 69.5596C98.3248 69.0448 86.2644 68.8502 81.1752 69.1125C80.4646 69.1491 79.9442 69.4974 80.5335 70.1458C80.9292 70.5437 81.3013 70.9643 81.648 71.4055C81.16 71.4927 80.733 71.544 80.2419 71.6135C79.8021 71.6745 79.8204 71.9612 79.9302 72.2235C82.2433 77.805 87.0733 85.3306 90.518 90.4064C90.909 90.9822 91.591 91.1146 91.8984 90.1959C92.5499 88.2439 94.5714 83.3151 94.7337 83.1699C98.1826 85.1451 101.701 87.7059 105.058 89.9367C105.382 90.1526 105.761 90.1258 106.034 89.6164C106.739 88.286 108.829 84.6102 109.236 83.6909C109.508 83.0827 109.032 82.9857 108.763 83.195Z" fill="#191919"/>
<path d="M71.1566 89.6196C69.373 89.8026 67.8016 89.9442 66.0192 90.1272C64.9566 90.2364 64.8602 90.456 65.3165 91.5302C66.1705 93.5523 67.3228 96.4962 68.1164 98.4073C67.1042 98.9502 66.0175 99.3407 64.8913 99.5663C64.5332 99.6426 64.5759 100.264 64.9474 100.213C66.304 100.033 67.6146 99.5995 68.8112 98.9356C68.9031 98.8832 68.9716 98.7978 69.0029 98.6968C69.0341 98.5957 69.0258 98.4866 68.9795 98.3915C68.1457 96.2754 66.8897 93.0021 65.9997 90.9086C67.7687 90.8476 69.7036 90.5725 71.4763 90.4163C72.0478 90.3693 71.9917 89.5324 71.1566 89.6196Z" fill="#191919"/>
<path d="M63.1269 49.2033C62.3869 49.2118 55.35 52.784 54.4191 53.3299C54.3449 53.3815 54.2915 53.4578 54.2685 53.5452C54.2454 53.6326 54.2542 53.7253 54.2932 53.8068C54.3322 53.8883 54.399 53.9532 54.4815 53.99C54.564 54.0268 54.6569 54.0331 54.7436 54.0076C55.7501 53.6313 62.9628 50.4227 63.4374 49.8535C63.487 49.7956 63.5187 49.7245 63.5287 49.6488C63.5387 49.5732 63.5266 49.4963 63.4937 49.4274C63.4608 49.3585 63.4086 49.3007 63.3435 49.2609C63.2784 49.2211 63.2031 49.2011 63.1269 49.2033Z" fill="#9012FF"/>
<path d="M55.0769 45.4797C59.3328 43.3337 63.5272 41.1231 64.6404 40.4075C63.3698 38.1353 61.3672 36.8262 58.6332 37.8657C58.1281 38.0578 55.9156 39.1412 53.9209 40.0763C54.7339 41.7587 55.1304 43.6119 55.0769 45.4797Z" fill="#9012FF"/>
<path d="M80.0578 27.8655C80.1762 27.6539 80.223 27.4097 80.1913 27.1694C80.1597 26.929 80.0512 26.7052 79.8821 26.5315C79.7297 26.345 79.5244 26.2091 79.2932 26.1416C79.062 26.074 78.8157 26.0781 78.5869 26.1533C78.358 26.2284 78.1573 26.3711 78.0111 26.5625C77.8649 26.7539 77.7801 26.9851 77.7679 27.2256C77.7552 27.5013 77.8364 27.7731 77.9981 27.9967C78.1598 28.2203 78.3925 28.3824 78.6583 28.4567C78.924 28.5309 79.2071 28.5129 79.4613 28.4056C79.7155 28.2982 79.9258 28.1078 80.0578 27.8655ZM79.5125 27.613C79.4314 27.7285 79.3135 27.813 79.1781 27.8528C79.0427 27.8925 78.8978 27.8851 78.7672 27.8317C78.6366 27.7783 78.5279 27.6822 78.4591 27.559C78.3902 27.4358 78.3653 27.2929 78.3883 27.1537C78.4102 27.0757 78.4474 27.0029 78.4978 26.9395C78.5482 26.876 78.6107 26.8233 78.6817 26.7843C78.7526 26.7453 78.8307 26.7208 78.9112 26.7123C78.9918 26.7037 79.0732 26.7113 79.1508 26.7346C79.4905 26.8499 79.74 27.3281 79.5125 27.613Z" fill="#9012FF"/>
<path d="M40.7972 59.7985C41.1394 60.5574 44.4115 66.683 45.4289 68.0561C45.6906 68.4099 46.2878 68.1744 46.1243 67.8383C45.3362 66.2188 41.7586 60.1273 41.3474 59.5289C41.1577 59.2526 40.649 59.4679 40.7972 59.7985Z" fill="#9012FF"/>
<path d="M63.4403 33.1105C63.8333 31.9037 64.1013 30.6596 64.24 29.398C64.2232 29.3286 64.1868 29.2654 64.1351 29.2161C64.0833 29.1668 64.0185 29.1334 63.9483 29.1199C63.8781 29.1065 63.8055 29.1135 63.7392 29.1402C63.6729 29.1669 63.6157 29.2122 63.5745 29.2705C63.1963 30.4808 62.9394 31.7256 62.8077 32.9867C62.8059 33.0638 62.8313 33.1391 62.8797 33.1993C62.928 33.2594 62.996 33.3006 63.0718 33.3154C63.1475 33.3302 63.226 33.3178 63.2935 33.2803C63.3609 33.2428 63.4129 33.1826 63.4403 33.1105Z" fill="#9012FF"/>
<path d="M65.8187 35.3C66.5292 35.0986 67.2254 34.8498 67.9025 34.5552C68.4991 34.2721 68.3905 33.4572 67.3065 33.8744C66.7197 34.0995 66.1134 34.3319 65.5467 34.5973C65.4567 34.6356 65.3851 34.7074 65.3471 34.7975C65.309 34.8876 65.3075 34.989 65.3428 35.0802C65.3781 35.1715 65.4475 35.2454 65.5363 35.2864C65.6251 35.3274 65.7264 35.3323 65.8187 35.3Z" fill="#9012FF"/>
<path d="M47.3585 67.8032C49.7522 66.6485 52.1745 65.4968 54.5773 64.3567C55.4081 63.9626 55.4569 63.4697 55.1873 62.8616C54.1039 60.4216 52.535 57.7583 51.3059 55.3073C50.7404 54.1801 50.3719 54.2758 49.5253 54.6296C48.8024 54.9346 42.8513 57.6022 42.0747 58.4116C42.0238 58.4704 41.9937 58.5442 41.9889 58.6218C41.9842 58.6994 42.0051 58.7764 42.0485 58.8408C42.0919 58.9053 42.1553 58.9537 42.229 58.9786C42.3026 59.0034 42.3824 59.0033 42.456 58.9783C43.676 58.4555 47.8923 56.3919 50.2731 55.3183C51.5852 57.9309 53.1352 60.7943 54.5504 63.3807C52.5271 64.4817 49.2154 66.1153 47.0962 67.195C46.718 67.3884 46.973 67.9892 47.3585 67.8032Z" fill="#9012FF"/>
<path d="M64.2778 53.1102C62.4557 53.8373 58.6835 55.9845 56.8541 57.0038C56.7698 57.054 56.708 57.1346 56.6814 57.2291C56.6547 57.3235 56.6654 57.4245 56.7111 57.5113C56.7567 57.5982 56.834 57.6642 56.9269 57.6957C57.0198 57.7273 57.1212 57.722 57.2103 57.6809C59.8053 56.6362 62.3108 55.3815 64.7017 53.9294C64.8104 53.8732 64.8922 53.7761 64.9293 53.6596C64.9664 53.543 64.9556 53.4165 64.8994 53.3078C64.8432 53.1992 64.7461 53.1173 64.6295 53.0803C64.5129 53.0432 64.3864 53.054 64.2778 53.1102Z" fill="#9012FF"/>
<path d="M59.0689 61.6697C62.0829 60.0373 63.6439 59.079 66.9507 57.36C67.4997 57.0745 67.0642 56.262 66.5012 56.506C64.3485 57.4521 60.3243 59.2895 58.6517 61.081C58.3833 61.3714 58.6944 61.8704 59.0689 61.6697Z" fill="#9012FF"/>
<path d="M59.3077 33.8557C59.6377 34.7707 60.3898 34.3272 60.0964 33.597C59.7548 32.743 59.4223 31.8817 59.0344 31.0509C59.001 30.9732 58.939 30.9114 58.8613 30.8781C58.7836 30.8449 58.6961 30.8428 58.6169 30.8722C58.5377 30.9017 58.4728 30.9605 58.4358 31.0364C58.3987 31.1124 58.3922 31.1997 58.4177 31.2802C58.6769 32.1477 59.0008 33.0017 59.3077 33.8557Z" fill="#9012FF"/>
<path d="M21.5584 55.923C16.2367 49.4118 12.0405 40.5089 15.0808 32.0488C18.0143 23.8852 27.5657 19.3053 34.7124 25.3211C35.0174 25.5773 35.4584 25.0771 35.1791 24.7947C29.7074 19.2309 20.6056 21.6837 16.3502 27.6483C11.3153 34.7084 12.8464 43.881 16.9602 50.9686C21.4461 58.6838 29.3822 63.9695 33.1112 71.3718C36.898 78.8901 34.7728 88.1243 25.4563 88.7166C17.1127 89.2467 8.37627 83.9519 3.86227 77.0802C3.52555 76.5666 2.80087 77.1961 3.13637 77.7055C5.22515 80.8465 7.94705 83.5167 11.1277 85.5447C14.3083 87.5728 17.8775 88.9141 21.6066 89.4827C30.0856 90.7198 36.7602 85.9972 35.7958 76.9777C34.8411 68.0516 26.8306 62.3737 21.5584 55.923Z" fill="#9012FF"/>
<path d="M81.8831 63.5206C81.5494 64.4588 82.6797 65.2719 83.5856 64.9236C83.7366 64.8784 83.8765 64.8022 83.9964 64.6997C84.1162 64.5973 84.2133 64.471 84.2815 64.3289C84.3497 64.1867 84.3874 64.0319 84.3922 63.8743C84.3971 63.7168 84.369 63.5599 84.3096 63.4138C83.9016 62.2866 82.2674 62.4409 81.8831 63.5206ZM83.2598 64.3478C82.5352 64.5271 82.2796 63.839 82.6212 63.5029C82.714 63.3992 82.835 63.3247 82.9694 63.2885C83.1038 63.2523 83.2458 63.256 83.3782 63.2992C83.494 63.3396 83.5926 63.4182 83.6579 63.522C83.7232 63.6259 83.7513 63.7488 83.7375 63.8707C83.7238 63.9926 83.669 64.1062 83.5822 64.1929C83.4954 64.2796 83.3817 64.3342 83.2598 64.3478Z" fill="#9012FF"/>
<path d="M79.8443 57.2793C79.5649 58.0869 80.4311 59.2264 81.3693 58.5267C81.4985 58.4313 81.6049 58.3083 81.6805 58.1665C81.7562 58.0248 81.7993 57.868 81.8066 57.7075C81.814 57.547 81.7855 57.3869 81.7231 57.2388C81.6607 57.0908 81.5661 56.9585 81.4461 56.8517C81.3212 56.7479 81.1733 56.6756 81.0147 56.6408C80.8562 56.606 80.6915 56.6097 80.5347 56.6516C80.3778 56.6934 80.2333 56.7723 80.1132 56.8815C79.993 56.9907 79.9008 57.1271 79.8443 57.2793ZM81.0075 58.0174C80.6208 58.2711 80.2572 57.699 80.4469 57.3921C80.4896 57.3366 80.5455 57.2928 80.6096 57.2646C80.6736 57.2364 80.7438 57.2248 80.8135 57.2309C80.8832 57.237 80.9503 57.2605 81.0085 57.2994C81.0667 57.3382 81.1142 57.3911 81.1466 57.4531C81.1925 57.5487 81.2037 57.6573 81.1783 57.7602C81.153 57.8632 81.0926 57.9541 81.0075 58.0174Z" fill="#9012FF"/>
<path d="M65.4198 41.6397C65.2429 41.3091 64.6475 41.5903 64.8238 41.9319C67.093 46.3239 69.7556 52.7478 71.9907 57.8602C73.3937 61.0749 72.5482 62.0345 69.3616 63.9328C62.7129 67.8389 55.7205 71.1281 48.4721 73.7593C45.9833 74.6932 43.6257 75.6283 41.8963 72.2819C39.2379 67.1365 37.1383 61.8399 34.566 56.6958C34.4165 56.3956 33.9053 56.6067 34.0261 56.9105C36.1227 62.1973 38.6011 67.5934 41.2631 72.9053C43.1035 76.5793 45.9217 75.6844 48.7454 74.6072C54.7088 72.3307 64.0656 68.2156 69.946 64.7154C73.3272 62.7024 74.3416 61.1457 72.6775 57.4125C70.4791 52.4794 68.0184 46.4953 65.4198 41.6397Z" fill="#9012FF"/>
<path d="M62.2661 74.3082C62.261 74.4698 62.2961 74.6302 62.3682 74.7749C62.4404 74.9196 62.5474 75.0441 62.6796 75.1372C62.8118 75.2303 62.965 75.2891 63.1256 75.3084C63.2861 75.3276 63.4489 75.3066 63.5993 75.2474C63.7498 75.1881 63.8831 75.0924 63.9874 74.9688C64.0917 74.8453 64.1637 74.6977 64.1969 74.5395C64.23 74.3812 64.2234 74.2172 64.1775 74.0622C64.1316 73.9071 64.0478 73.7659 63.9339 73.6513C63.7995 73.516 63.6284 73.4231 63.4418 73.384C63.2552 73.3449 63.0613 73.3613 62.8839 73.4312C62.7065 73.5011 62.5535 73.6214 62.4437 73.7772C62.3339 73.9331 62.2722 74.1177 62.2661 74.3082ZM63.48 74.6388C63.1799 74.9438 62.8761 74.6297 62.8761 74.3222C62.8761 74.052 63.089 73.9306 63.3641 74.0112C63.7106 74.1167 63.6606 74.4558 63.48 74.6388Z" fill="#9012FF"/>
<path d="M87.9942 30.4855C87.363 30.2988 86.6892 30.3134 86.0667 30.5274C85.4442 30.7414 84.9039 31.144 84.5208 31.6793C83.3551 33.577 85.6554 36.2793 87.9911 35.2692C90.1096 34.3529 90.4573 31.1773 87.9942 30.4855ZM87.9539 34.5805C86.4814 35.4308 84.1719 33.6612 84.9844 32.1173C85.2232 31.7292 85.5672 31.4167 85.9764 31.2162C86.3856 31.0157 86.8433 30.9354 87.2963 30.9845C89.4905 31.1248 89.6131 33.6228 87.9539 34.5805Z" fill="#9012FF"/>
<path d="M33.6029 56.0444C36.2479 54.7396 44.5457 50.6959 51.9493 47.0042C52.6727 45.1626 52.2402 43.0971 51.1904 41.3086C44.9825 44.2799 36.9378 48.2656 34.9534 49.5747C31.793 51.6542 32.3304 53.8105 33.6029 56.0444ZM40.8149 48.739C40.888 48.6382 40.9815 48.5539 41.0892 48.4915C41.197 48.4291 41.3166 48.3901 41.4404 48.3768C41.5642 48.3636 41.6894 48.3765 41.8079 48.4148C41.9264 48.453 42.0355 48.5156 42.1283 48.5987C42.2318 48.6859 42.3135 48.7961 42.367 48.9204C42.4205 49.0448 42.4443 49.1799 42.4364 49.315C42.4285 49.4502 42.3892 49.5816 42.3217 49.6989C42.2541 49.8162 42.1601 49.9161 42.0471 49.9907C41.8735 50.0978 41.6686 50.1427 41.4661 50.1182C41.2636 50.0937 41.0754 50.0012 40.9323 49.8558C40.7892 49.7104 40.6997 49.5208 40.6784 49.3179C40.657 49.1151 40.7052 48.911 40.8149 48.739ZM38.1627 49.9053C38.3352 49.7962 38.5396 49.7488 38.7426 49.771C38.9455 49.7932 39.1349 49.8836 39.2798 50.0274C39.4247 50.1712 39.5165 50.3599 39.5402 50.5627C39.5638 50.7655 39.518 50.9703 39.4101 51.1436C39.3362 51.2518 39.2393 51.3425 39.1264 51.4091C39.0135 51.4757 38.8874 51.5166 38.7569 51.5291C38.6264 51.5415 38.4948 51.525 38.3713 51.4809C38.2479 51.4367 38.1357 51.366 38.0427 51.2736C37.9497 51.1813 37.8781 51.0696 37.8331 50.9465C37.788 50.8234 37.7706 50.6919 37.782 50.5614C37.7935 50.4308 37.8335 50.3043 37.8993 50.191C37.9651 50.0776 38.055 49.9801 38.1627 49.9053ZM35.6007 51.1772C35.7606 51.171 35.9191 51.2093 36.0585 51.2879C36.1979 51.3665 36.3127 51.4823 36.3901 51.6224C36.4676 51.7624 36.5046 51.9213 36.497 52.0811C36.4894 52.241 36.4376 52.3956 36.3473 52.5277C36.2372 52.6867 36.0808 52.8079 35.8994 52.8748C35.718 52.9417 35.5204 52.9511 35.3335 52.9016C35.1483 52.824 34.9946 52.6866 34.8967 52.5113C34.7988 52.3361 34.7625 52.133 34.7936 51.9347C34.8246 51.7364 34.9212 51.5542 35.0679 51.4172C35.2147 51.2802 35.4031 51.1963 35.6031 51.179L35.6007 51.1772Z" fill="#9012FF"/>
<path d="M82.6005 43.7972C82.7347 43.5208 82.7996 43.2158 82.7897 42.9087C82.7799 42.6016 82.6955 42.3014 82.5439 42.0342C82.3923 41.7669 82.178 41.5405 81.9194 41.3744C81.6608 41.2083 81.3658 41.1076 81.0597 41.0809C80.5564 41.0539 80.0627 41.2258 79.685 41.5597C79.3074 41.8935 79.0762 42.3623 79.0412 42.8651C79.0355 43.2885 79.1718 43.7015 79.4283 44.0384C79.6847 44.3753 80.0466 44.6166 80.4562 44.7238C80.8657 44.8311 81.2994 44.7981 81.6881 44.6302C82.0767 44.4622 82.398 44.169 82.6005 43.7972ZM79.6652 43.0835C79.6484 42.8961 79.673 42.7074 79.737 42.5305C79.8011 42.3536 79.9032 42.1929 80.0361 42.0597C80.169 41.9265 80.3294 41.8241 80.5062 41.7597C80.6829 41.6952 80.8716 41.6703 81.0591 41.6866C81.2477 41.7109 81.4287 41.7763 81.5893 41.8781C81.7499 41.98 81.8862 42.1158 81.9886 42.276C82.091 42.4363 82.1571 42.617 82.1821 42.8055C82.2071 42.9941 82.1904 43.1858 82.1333 43.3672C82.0463 43.649 81.8634 43.8915 81.6164 44.0527C81.3693 44.2138 81.0737 44.2834 80.7807 44.2494C80.4877 44.2155 80.2158 44.0801 80.0122 43.8667C79.8086 43.6533 79.686 43.3753 79.6658 43.0811L79.6652 43.0835Z" fill="#9012FF"/>
</svg>
