<svg width="122" height="122" viewBox="0 0 122 122" fill="none" xmlns="http://www.w3.org/2000/svg">
<path fill-rule="evenodd" clip-rule="evenodd" d="M90.974 30.3578V29.8271C90.9715 27.7424 90.1419 25.7438 88.6676 24.2698C87.1932 22.7959 85.1948 21.9669 83.1099 21.9648H10.9139C8.82925 21.9671 6.83058 22.7961 5.35629 24.27C3.88203 25.744 3.05255 27.7425 3.0498 29.8271V71.9171C3.05174 74.0021 3.88086 76.0017 5.35522 77.4761C6.82955 78.951 8.8287 79.78 10.9139 79.7825H15.0392V78.4484H10.9139C9.1822 78.4466 7.5219 77.7579 6.29738 76.5336C5.0728 75.3093 4.38398 73.6489 4.38204 71.9171V29.8271C4.38559 28.0963 5.07507 26.4375 6.2994 25.2141C7.52373 23.9906 9.18311 23.3024 10.9139 23.3001H83.1117C84.8423 23.3021 86.5021 23.9902 87.7263 25.2137C88.9506 26.4372 89.6399 28.0963 89.643 29.8271V30.3578H90.974Z" fill="#191919"/>
<path fill-rule="evenodd" clip-rule="evenodd" d="M31.0254 42.2159V38.2229C31.0278 36.138 31.8572 34.1392 33.3314 32.665C34.8057 31.1908 36.8047 30.3616 38.8895 30.3594H111.086C113.171 30.3614 115.17 31.1906 116.644 32.6648C118.118 34.1391 118.947 36.1379 118.95 38.2229V80.3129C118.947 82.3979 118.118 84.3968 116.644 85.8712C115.17 87.3456 113.171 88.1746 111.086 88.177H102.963V86.846H111.087C112.819 86.8442 114.479 86.1555 115.704 84.9306C116.928 83.7063 117.617 82.0459 117.619 80.3141V38.2241C117.617 36.4925 116.928 34.8324 115.703 33.6079C114.479 32.3835 112.819 31.6948 111.087 31.6928L38.8895 31.6916C37.1577 31.6939 35.4975 32.3829 34.2731 33.6074C33.0486 34.8321 32.3598 36.4923 32.3576 38.2241V42.2159H31.0254ZM102.963 80.5837V81.9154H107.145C107.318 81.9099 107.482 81.8379 107.602 81.7134C107.723 81.589 107.791 81.4225 107.791 81.2492C107.791 81.0766 107.723 80.9101 107.602 80.7856C107.482 80.6612 107.318 80.5892 107.145 80.5837H102.963ZM56.736 37.6873H37.2862C37.1144 37.6799 36.9522 37.6065 36.8333 37.4825C36.7143 37.3583 36.6479 37.1931 36.6479 37.0212C36.6479 36.8493 36.7143 36.684 36.8333 36.5599C36.9522 36.4358 37.1144 36.3624 37.2862 36.3551H56.736C56.9078 36.3624 57.07 36.4358 57.1889 36.5599C57.3078 36.684 57.3742 36.8493 57.3742 37.0212C57.3742 37.1931 57.3078 37.3583 57.1889 37.4825C57.07 37.6065 56.9078 37.6799 56.736 37.6873ZM65.5289 37.7538C65.7004 37.7464 65.8626 37.673 65.9816 37.5489C66.1005 37.4248 66.167 37.2596 66.167 37.0877C66.167 36.9158 66.1005 36.7505 65.9816 36.6264C65.8626 36.5023 65.7004 36.4289 65.5289 36.4216H60.5999C60.4282 36.4289 60.2659 36.5023 60.147 36.6264C60.0281 36.7505 59.9617 36.9158 59.9617 37.0877C59.9617 37.2596 60.0281 37.4248 60.147 37.5489C60.2659 37.673 60.4282 37.7464 60.5999 37.7538H65.5289Z" fill="#191919"/>
<path d="M95.0986 100.032H22.9032C20.8184 100.03 18.8196 99.201 17.3454 97.7273C15.871 96.2529 15.0416 94.2546 15.0391 92.1696V50.0796C15.0411 47.9945 15.8704 45.9954 17.3447 44.5209C18.819 43.0465 20.8181 42.2171 22.9032 42.2148H95.0986C97.1836 42.2168 99.1832 43.046 100.658 44.5205C102.132 45.995 102.962 47.9943 102.963 50.0796V92.1696C102.961 94.2546 102.131 96.2529 100.657 97.7273C99.1826 99.201 97.1836 100.031 95.0986 100.032ZM22.9032 43.5471C21.1713 43.5492 19.5111 44.2381 18.2865 45.4628C17.062 46.6874 16.3733 48.3477 16.3713 50.0796V92.1696C16.3733 93.9014 17.062 95.5618 18.2866 96.7861C19.5111 98.0109 21.1714 98.6996 22.9032 98.7015H95.0986C96.8304 98.7002 98.4915 98.0115 99.7163 96.7867C100.941 95.5624 101.631 93.9014 101.632 92.1696V50.0796C101.631 48.3473 100.942 46.6864 99.7169 45.4616C98.4921 44.2368 96.831 43.5482 95.0986 43.5471H22.9032Z" fill="#9012FF"/>
<path d="M52.8655 79.6037C52.5497 79.6037 52.2469 79.4781 52.0236 79.2548C51.8003 79.0316 51.6748 78.729 51.6748 78.413C51.6748 60.5351 51.4399 61.0481 52.2195 60.5455C52.9991 60.0429 52.4288 60.0441 68.7868 67.4531C68.9814 67.5416 69.1491 67.6813 69.2711 67.8576C69.3931 68.0333 69.4663 68.2388 69.4816 68.4523C69.4968 68.6658 69.4547 68.8793 69.3589 69.0709C69.2632 69.2624 69.1174 69.4247 68.9374 69.5406C52.9686 79.7672 53.4078 79.6037 52.8655 79.6037ZM53.007 61.7661V78.1544L68.0005 68.5591L53.007 61.7661Z" fill="#9012FF"/>
<path d="M91.1589 93.7716C91.3303 93.7643 91.4925 93.6911 91.6115 93.5667C91.7304 93.4428 91.7969 93.2775 91.7969 93.1055C91.7969 92.9335 91.7304 92.7682 91.6115 92.6444C91.4925 92.5199 91.3303 92.4467 91.1589 92.4394H29.2683C29.1764 92.4235 29.0823 92.4272 28.9918 92.4498C28.9014 92.4723 28.8167 92.5132 28.7431 92.5705C28.6694 92.6279 28.6085 92.6993 28.5641 92.7816C28.5198 92.8633 28.4931 92.9536 28.4856 93.047C28.4781 93.1397 28.49 93.233 28.5207 93.3208C28.5513 93.4093 28.5999 93.4898 28.6634 93.5581C28.727 93.6265 28.8041 93.6807 28.8897 93.7173C28.9753 93.7539 29.0677 93.7722 29.1609 93.7716H91.1589Z" fill="#9012FF"/>
<path d="M21.3003 49.5426H40.7501C40.9233 49.5373 41.0875 49.4649 41.2081 49.3406C41.3287 49.2163 41.3961 49.0499 41.3961 48.8768C41.3961 48.7036 41.3287 48.5372 41.2081 48.4129C41.0875 48.2887 40.9233 48.2162 40.7501 48.2109H21.3003C21.1272 48.2162 20.963 48.2887 20.8424 48.4129C20.7218 48.5372 20.6543 48.7036 20.6543 48.8768C20.6543 49.0499 20.7218 49.2163 20.8424 49.3406C20.963 49.4649 21.1272 49.5373 21.3003 49.5426Z" fill="#9012FF"/>
<path d="M49.5426 49.6096C49.7143 49.6022 49.8766 49.5288 49.9955 49.4047C50.1144 49.2806 50.1808 49.1154 50.1808 48.9435C50.1808 48.7716 50.1144 48.6063 49.9955 48.4822C49.8766 48.3581 49.7143 48.2847 49.5426 48.2773H44.6138C44.4421 48.2847 44.2798 48.3581 44.1609 48.4822C44.042 48.6063 43.9756 48.7716 43.9756 48.9435C43.9756 49.1154 44.042 49.2806 44.1609 49.4047C44.2798 49.5288 44.4421 49.6022 44.6138 49.6096H49.5426Z" fill="#9012FF"/>
<path d="M26.2956 93.1728C26.2956 95.2889 23.0986 95.2889 23.0986 93.1728C23.0986 91.0567 26.2956 91.0573 26.2956 93.1728Z" fill="#9012FF"/>
</svg>
