<svg width="122" height="122" viewBox="0 0 122 122" fill="none" xmlns="http://www.w3.org/2000/svg">
<path d="M119.186 56.197C99.1566 38.5851 99.4903 38.6302 99.2164 38.5052C98.7095 38.2612 98.0665 38.3923 97.6902 38.8077C94.6591 42.0926 91.7805 45.1243 88.8372 48.3512C88.5273 49.3546 88.212 50.3672 87.8887 51.392L98.6625 39.7526L118.247 57.2004C118.247 57.2004 96.9197 81.5252 95.9553 82.6299C95.6698 82.9569 95.1684 82.9728 94.8622 82.6708C94.5834 82.3957 94.2095 82.0163 93.7337 81.5325C93.1725 80.9622 90.9972 79.001 88.3901 76.6794L88.1552 78.3026C92.9352 82.5311 93.7733 83.1997 94.4657 83.6181C95.1025 84.003 95.7552 83.8091 95.8644 83.5559C96.4238 83.2009 97.764 81.8278 98.5557 81.0336C107.155 72.396 109.75 69.6741 119.362 58.0038C119.801 57.4713 119.694 56.6447 119.185 56.1976L119.186 56.197Z" fill="#9012FF"/>
<path d="M113.19 57.7994C111.843 56.5014 109.613 54.4493 106.937 51.9428C105.437 50.4678 98.193 44.4618 98.1277 44.4252C97.6952 44.1647 97.0974 44.2544 96.7546 44.6472L87.2844 55.3027C86.9062 55.7132 86.9141 56.3629 87.2862 56.7618C90.8187 60.5883 95.1155 64.7765 99.4533 67.8393C100.152 68.3328 101.736 69.4125 102.494 69.7925C102.9 70.0481 103.132 69.7706 103.48 69.4796C106.437 67.0036 113.21 59.4153 113.365 59.153C113.591 58.7882 113.598 58.1929 113.19 57.8L113.19 57.7994ZM112.041 58.6095C111.987 58.6711 105.862 65.6323 103.865 68.2864C105.372 64.9827 105.891 60.922 105.549 59.86C105.163 58.6601 97.2054 61.0567 97.2054 61.0567C97.2054 61.0567 97.7843 55.5101 97.0316 54.6262C96.4521 53.9454 91.2768 54.9794 88.9247 55.4918L97.6043 45.7489C105.983 52.7999 102.823 49.9713 112.041 58.6095H112.041Z" fill="#9012FF"/>
<path d="M102.427 52.5695C101.672 51.8967 100.514 51.9632 99.841 52.719C99.1682 53.4742 99.2347 54.6326 99.9905 55.3054C100.746 55.9782 101.904 55.9117 102.577 55.1559C103.25 54.4001 103.183 53.2424 102.427 52.5695Z" fill="#9012FF"/>
<path d="M92.8931 32.2518C67.3719 24.5042 67.6946 24.4072 67.3933 24.4066C66.8309 24.3937 66.3002 24.7799 66.1288 25.313C63.5918 32.9996 61.1695 39.7243 58.7783 48.4442C58.9022 49.4239 59.0248 50.4176 59.1468 51.4277C60.1886 48.1953 61.1951 44.9001 62.1589 41.5884L67.4055 25.7711L92.4533 33.5529L84.896 58.5818H86.1703C89.0904 50.6091 90.4873 46.1604 93.8014 33.8225C93.9801 33.1564 93.5409 32.4482 92.8925 32.2512L92.8931 32.2518Z" fill="#9012FF"/>
<path d="M83.6914 43.6144C83.5816 43.2765 83.3211 43.2283 83.0625 43.1441L77.315 41.3696C77.0723 40.3576 76.1768 36.5689 75.7162 35.5319C75.6497 35.3794 75.5509 35.1635 75.3948 35.2202C75.3624 35.2355 74.5969 35.2196 73.8081 35.5496C69.9121 37.1801 68.6585 41.9808 70.7832 45.4572C73.4318 49.8828 80.035 50.2524 83.0454 45.4066C83.1479 45.2419 83.4217 44.7033 83.4937 44.5087C83.6993 43.9548 83.7713 43.8578 83.692 43.615L83.6914 43.6144ZM80.9634 46.36C79.788 47.4153 78.0885 48.0577 76.2341 47.8692C70.7691 47.3122 68.6091 40.3277 73.3427 36.6104C73.7953 36.2499 74.7421 35.649 75.3173 35.5844C75.59 37.9152 76.3647 41.6972 76.4177 41.8418C76.4921 42.0443 76.6599 42.2084 76.8722 42.2736L82.5921 44.0518C82.2524 44.9381 81.621 45.7958 80.9634 46.36Z" fill="#9012FF"/>
<path d="M79.6418 31.4466C79.3222 31.3924 78.2364 30.7189 76.1417 31.1264C75.9818 31.1575 75.8592 31.3057 75.9294 31.5577L77.3275 37.826C77.3543 37.8785 77.3855 37.8956 77.4147 37.9322C77.4776 38.0151 77.5081 37.9651 77.6624 37.8614C79.8309 31.7773 79.5766 32.5026 79.8029 31.7437C79.8688 31.604 79.7626 31.4497 79.6418 31.4466Z" fill="#9012FF"/>
<path d="M83.8458 41.5875C83.7958 38.6656 81.9182 36.2909 79.7063 35.6241C79.4941 35.5448 79.416 35.565 77.1614 41.7217C77.1181 41.8407 77.1663 41.9767 77.2688 42.042C77.3298 42.0883 77.6128 42.0633 83.2199 43.9018C83.4048 43.9622 83.5804 43.7988 83.5847 43.6286C83.7482 42.9631 83.8592 42.4073 83.8458 41.5875Z" fill="#9012FF"/>
<path d="M81.3908 54.3548C81.2041 53.901 78.8611 53.108 78.3975 52.9635C69.1548 50.0965 65.2441 48.8075 64.348 48.9209C64.201 48.9398 64.0979 49.0112 64.1473 49.1308C64.3333 49.584 66.6684 50.3752 67.1406 50.5222C77.064 53.607 80.3318 54.6763 81.1901 54.5647C81.3371 54.5458 81.4402 54.4744 81.3908 54.3548Z" fill="#9012FF"/>
<path d="M80.5118 57.0597C80.3257 56.6065 77.99 55.8147 77.5185 55.6683C67.4462 52.5365 62.9334 51.0195 63.2683 51.8351C63.4543 52.2877 65.7858 53.0783 66.2616 53.2259C75.4311 56.0764 80.8656 57.9192 80.5124 57.0591L80.5118 57.0597Z" fill="#9012FF"/>
<path d="M73.5112 57.7886C73.4362 57.3866 72.0344 56.8688 71.644 56.7474C64.8547 54.6337 63.1815 54.0829 62.6251 54.2677C62.4153 54.3373 62.3622 54.5788 62.7819 54.8375C63.7536 55.434 64.0007 55.4231 70.7156 57.5147C71.3219 57.7038 73.6277 58.4102 73.5112 57.7886Z" fill="#9012FF"/>
<path d="M33.0808 73.9185C29.0901 76.8246 25.4606 79.4903 25.2978 79.6245C24.5005 80.279 24.3541 80.57 23.8502 80.5096C23.616 80.4815 23.4043 80.3565 23.2671 80.1649C22.7449 79.439 21.9818 78.5039 21.5481 77.8719C18.916 74.0393 16.1191 70.1652 13.2491 66.3362L3.75381 52.6417L25.0196 37.2886L29.7642 43.7516C29.6337 42.6932 29.5135 41.677 29.3994 40.6839C28.3899 39.3767 27.2809 37.9517 26.045 36.373C25.6199 35.8301 24.7896 35.7557 24.2431 36.1559C2.71986 51.9073 2.83576 51.5913 2.65398 51.8316C2.30628 52.2739 2.29591 52.9296 2.61982 53.3871C8.49166 61.8289 13.2332 69.1898 21.5896 79.2487C22.2063 79.9911 23.0859 81.047 23.3757 81.2562C23.5922 81.6234 24.1632 81.6753 24.5145 81.4484C25.7211 80.8146 26.8984 80.0704 28.0263 79.256L33.3174 75.4344L33.0808 73.9185Z" fill="#9012FF"/>
<path d="M14.9467 55.5565C15.1224 55.5815 15.3237 55.2698 15.1474 54.9569C14.4959 53.535 13.7139 52.5919 13.0667 51.6732C12.8477 51.3628 12.3536 51.217 11.9656 51.4963C11.904 51.5403 8.80276 53.7784 8.71553 53.8631C8.45018 54.1212 8.40321 54.5659 8.63257 54.877C9.10166 55.5144 10.8847 57.9721 10.8847 57.9721C11.1378 58.3326 11.5075 58.4058 11.804 58.2991C11.9278 58.2545 12.0449 58.1618 12.1565 58.0813C12.2169 58.0374 13.7059 56.9345 13.773 56.8778C14.0219 56.6685 14.724 56.0402 14.8662 55.7816C14.9351 55.6559 14.9375 55.5321 14.8149 55.4979C14.5032 55.4101 13.3851 55.9878 11.5966 57.2779L9.56831 54.4683L12.378 52.44C13.0856 53.3983 13.939 54.6092 14.7173 55.2954C14.735 55.2857 14.7673 55.2936 14.7936 55.3332C14.8473 55.3881 14.8125 55.5376 14.9467 55.5565Z" fill="#9012FF"/>
<path d="M20.475 62.6846C20.6244 62.1508 18.6438 59.2501 18.3278 59.072C18.0923 58.939 17.7513 58.9061 17.4653 59.1116C17.012 59.4374 14.4506 61.2987 14.2438 61.4499C13.9523 61.7025 13.8925 62.1685 14.131 62.493C16.5991 65.8505 16.4771 65.8651 16.8943 65.9487C17.3073 66.031 17.5494 65.7639 17.7013 65.6669C19.2831 64.5097 19.7509 64.2126 20.5592 63.3574C20.7031 63.2232 20.7483 63.0134 20.6909 62.8786C20.5946 62.651 20.4372 62.7005 20.4042 62.8054C20.3695 62.8755 20.3194 62.9341 20.2713 62.9408C20.2414 62.9506 20.2469 62.9255 20.2035 62.9408C18.9896 63.4977 18.1607 64.1242 17.0962 64.8928L15.068 62.0831L17.8776 60.0547C18.2906 60.611 20.2847 63.3623 20.475 62.6834V62.6846Z" fill="#9012FF"/>
<path d="M25.973 70.3016C26.1231 69.7678 24.1394 66.8661 23.8258 66.6892C23.5904 66.5562 23.2494 66.5233 22.9633 66.7288C22.5101 67.0546 19.9487 68.9157 19.7419 69.067C19.4503 69.3195 19.3905 69.7855 19.629 70.1101C22.0971 73.4675 21.9751 73.4821 22.3923 73.5657C22.8059 73.6481 23.0475 73.3809 23.1994 73.2839C24.7536 72.1468 25.2563 71.8211 26.0572 70.9744C26.2012 70.8402 26.2463 70.6304 26.189 70.4956C26.0926 70.268 25.9352 70.3175 25.9023 70.4224C25.8675 70.4925 25.8175 70.5511 25.7693 70.5578C25.7394 70.5676 25.7449 70.5425 25.7016 70.5578C24.4877 71.1147 23.6587 71.7412 22.5942 72.5098L20.566 69.7001L23.3757 67.6719C23.7996 68.2422 25.7839 70.975 25.973 70.3004V70.3016Z" fill="#9012FF"/>
<path d="M13.7589 49.4882C13.4045 49.5383 13.1422 50.3776 13.0769 50.7265C13.0751 50.7351 12.3296 54.8074 12.3211 54.8062C12.2082 54.8215 12.0137 54.6946 11.4982 54.8135C11.2017 54.8825 11.1584 55.196 11.4543 55.3979C11.8788 55.6871 12.2064 55.7603 12.4785 55.8298C12.717 55.8908 12.9555 55.7993 13.1025 55.6187C13.2477 55.4406 13.1873 55.5718 13.9882 51.3286C14.0925 50.7772 14.3164 49.4089 13.7583 49.4876L13.7589 49.4882Z" fill="#9012FF"/>
<path d="M19.0996 56.8867C18.7452 56.9367 18.4829 57.7761 18.4176 58.125C18.4158 58.1335 17.6704 62.2057 17.6618 62.2045C17.5386 62.2209 17.3702 62.0892 16.8389 62.2118C16.5425 62.2807 16.4992 62.5943 16.7956 62.7962C17.2208 63.0859 17.552 63.1597 17.8198 63.2281C18.0589 63.2897 18.2968 63.1969 18.4438 63.017C18.589 62.8389 18.5292 62.9706 19.3296 58.727C19.4339 58.175 19.6577 56.8074 19.0996 56.8861V56.8867Z" fill="#9012FF"/>
<path d="M24.665 64.5938C24.3106 64.6438 24.0489 65.4807 23.983 65.8321C23.9812 65.8406 23.2358 69.913 23.2272 69.9117L23.2138 69.9136C23.0052 69.877 22.7844 69.8318 22.4043 69.9191C22.1103 69.9868 22.0627 70.3003 22.3604 70.5034C22.7856 70.7932 23.1144 70.8664 23.3846 70.9353C23.6219 70.9963 23.8598 70.9067 24.0086 70.7243C24.1575 70.5419 24.094 70.6773 24.8944 66.4341C24.9987 65.8821 25.2225 64.5139 24.6644 64.5932L24.665 64.5938Z" fill="#9012FF"/>
<path d="M25.7247 44.2512C25.3337 44.0804 23.913 45.0155 23.5677 45.2656C15.9086 50.7898 15.9958 50.7879 15.6853 51.1106C15.4614 51.343 15.0412 51.778 15.3376 51.9073C15.4791 51.9689 15.6969 51.8981 15.8409 51.8365C16.9425 51.3686 16.9273 51.2881 23.5592 46.5143C24.1003 46.1251 26.3323 44.5147 25.7247 44.2512Z" fill="#9012FF"/>
<path d="M27.053 46.1105C26.662 45.9397 25.2419 46.8749 24.896 47.125C17.4656 52.4838 17.3442 52.6266 17.0136 52.97C16.7885 53.203 16.3694 53.6373 16.6659 53.7667C16.8074 53.8289 17.0252 53.7575 17.1692 53.6959C18.2708 53.228 18.2629 53.1579 24.8875 48.3743C25.4334 47.9802 27.6612 46.3765 27.053 46.1112V46.1105Z" fill="#9012FF"/>
<path d="M31.0236 51.6066C30.6326 51.4358 29.2119 52.371 28.8666 52.6211C21.2087 58.1452 21.2947 58.1434 20.9842 58.4661C20.7597 58.6985 20.3401 59.1334 20.6365 59.2627C20.778 59.325 20.9958 59.2536 21.1398 59.192C22.2414 58.7241 22.2341 58.6546 28.8581 53.8703C29.3943 53.483 31.6354 51.8732 31.0236 51.6066Z" fill="#9012FF"/>
<path d="M27.0792 57.1876C26.8059 56.9765 26.1459 57.3181 25.872 57.5163C25.7354 57.6152 22.3023 60.1034 22.1242 60.2949C22.0071 60.4206 21.8143 60.6847 21.8088 60.8293C21.8015 61.0119 21.9766 61.1815 22.2444 61.1284C22.9312 60.9903 23.0923 60.7664 26.163 58.5497C26.6034 58.2319 27.5099 57.5194 27.0798 57.1882L27.0792 57.1876Z" fill="#9012FF"/>
<path d="M32.441 61.8281C26.6942 65.9883 26.8668 65.9127 26.5771 66.2134C26.352 66.4464 25.9329 66.8808 26.2294 67.0101C26.3709 67.0717 26.5887 67.0009 26.7326 66.9393C27.8001 66.4861 28.193 66.1536 32.6283 62.9365L32.441 61.8281Z" fill="#9012FF"/>
<path d="M32.6847 64.827C32.844 64.5946 33.0294 64.3804 33.2368 64.1895C33.116 63.3087 32.8891 62.1509 32.8055 61.4018C32.2876 56.7809 31.6429 52.0467 30.9133 47.3173L28.9814 30.7656L54.9711 27.23L59.4924 58.5834H60.3489L60.2769 57.6861C59.3051 45.5367 58.9245 41.7956 56.307 26.9043C56.1874 26.2248 55.4902 25.7685 54.8192 25.8642C28.4153 29.6316 28.6667 29.4071 28.3934 29.534C27.8786 29.7603 27.5601 30.3343 27.6309 30.89C28.8381 41.102 29.5561 49.8287 32.1937 62.6371C32.3389 63.3416 32.5304 64.2682 32.6841 64.8276L32.6847 64.827Z" fill="#9012FF"/>
<path d="M39.4273 32.0673C39.3669 31.891 39.1919 31.744 39.0058 31.716C38.9033 31.694 38.7777 31.7178 38.6587 31.7306C38.5617 31.7428 32.2354 32.6316 32.0957 32.6554C31.8944 32.6895 31.5754 32.703 31.4522 32.8012C31.0868 33.0409 31.199 33.3672 31.282 33.7467C31.3345 33.8961 31.3802 34.0389 31.49 34.2505C31.6626 34.5842 31.964 34.5372 32.0488 34.0596C32.0805 33.879 32.086 33.5539 32.1268 33.6082C32.1464 33.5966 32.1659 33.599 32.1817 33.6106C32.2202 33.6369 32.2 33.6241 34.8621 33.2617C34.9353 34.0986 35.6417 39.0592 35.8137 39.6136C36.2151 40.9044 36.855 40.2267 36.6652 38.8328C36.6415 38.6559 36.0437 34.2725 35.8509 33.1275C36.8885 32.9866 38.5813 32.7432 38.5813 32.7432L38.6014 32.7249C38.6209 32.7133 38.6514 32.731 38.6697 32.7438C38.6965 32.8207 38.8478 33.2709 38.9808 33.3923C39.1345 33.5319 39.373 33.4679 39.4365 33.0543C39.4774 32.789 39.5103 32.3101 39.4273 32.0673Z" fill="#9012FF"/>
<path d="M50.3588 30.3464L43.504 31.2789C42.4244 31.4258 41.6682 32.42 41.8151 33.4995L42.3572 37.484C42.5041 38.5636 43.4982 39.3197 44.5778 39.1728L51.4327 38.2403C52.5123 38.0934 53.2684 37.0991 53.1215 36.0196L52.5795 32.0352C52.4326 30.9556 51.4384 30.1995 50.3588 30.3464Z" fill="#9012FF"/>
<path d="M53.9871 42.6635C53.5814 42.336 50.7449 42.6599 50.2283 42.73C38.6986 44.3014 32.8914 44.9669 33.6277 45.561C34.0346 45.8898 36.8686 45.5647 37.3865 45.4946C48.2159 44.019 54.7508 43.2796 53.9871 42.6635Z" fill="#9012FF"/>
<path d="M54.3924 45.6404C53.9849 45.3122 51.1514 45.6367 50.6335 45.7075C45.3192 46.4285 36.3523 47.6363 35.1554 47.9395C34.7705 48.0364 33.7219 48.2872 34.0336 48.5385C34.4393 48.866 37.2757 48.5421 37.7924 48.472C48.6626 46.9903 55.1458 46.251 54.3924 45.6404Z" fill="#9012FF"/>
<path d="M54.7976 48.6172C54.3908 48.2884 51.5573 48.6135 51.0388 48.6843C39.2957 50.2782 33.7148 50.9315 34.4383 51.5153C34.8439 51.8429 37.6804 51.519 38.1971 51.4488C48.503 50.0446 55.5705 49.2406 54.7976 48.6172Z" fill="#9012FF"/>
<path d="M43.2565 53.2169C43.0748 52.8911 42.0317 52.9387 41.6626 52.9893C36.4843 53.6933 35.149 53.844 34.8465 54.227C34.7251 54.3808 34.7934 54.6174 35.1472 54.6876C35.9634 54.8498 36.0128 54.7785 41.3155 54.0532C41.8932 53.9745 43.5426 53.7281 43.2571 53.2163L43.2565 53.2169Z" fill="#9012FF"/>
<path d="M32.1319 67.1686C32.2277 65.7686 33.0164 64.4559 34.3059 63.9026C35.2142 63.5122 35.3869 63.5775 41.3356 63.5946C42.189 63.597 43.0546 63.4232 43.9031 62.8492C44.3106 62.5728 44.3453 62.4374 46.8805 60.0405C47.3917 59.5568 48.0358 59.2976 48.6867 59.2366L86.9471 59.2799C88.3702 59.311 89.7446 60.6695 89.744 62.2587C89.758 62.4332 89.7244 62.593 89.7116 62.7809C85.1256 94.4551 85.2659 93.8823 85.0256 94.4399C84.5742 95.4854 83.4908 96.2418 82.2733 96.2491C39.1201 96.5163 39.6654 96.3315 39.1164 96.1875C38.0154 95.8977 37.0455 94.9974 36.8124 93.6834C36.7655 93.4199 32.773 69.855 32.59 69.0321C32.3045 67.7505 32.055 67.0289 32.0441 67.8402C32.0105 70.368 34.1486 84.495 35.4985 93.7792C35.8065 95.8978 37.4084 97.3227 39.2732 97.5691L82.2288 97.6119C84.1862 97.5972 85.979 96.3742 86.5378 94.1879C91.2677 61.6536 91.2202 62.6186 91.0628 61.5901C90.7688 59.6727 89.0949 57.8647 86.5195 57.8909C85.9455 57.8964 49.0875 57.9293 48.716 57.9543C47.7028 58.0221 46.7225 58.4777 46.0899 59.0889C41.9096 63.1273 44.1794 62.3282 36.7636 62.7247C35.5632 62.7888 34.7708 62.7064 33.6532 63.4085C32.7224 63.9929 32.0953 64.9683 31.9135 65.8528C31.7708 66.5458 31.8531 67.1003 31.9532 67.3467C32.0404 67.5986 32.1063 67.5632 32.1331 67.1692L32.1319 67.1686Z" fill="#191919"/>
</svg>
