<svg width="18" height="18" viewBox="0 0 18 18" fill="none" xmlns="http://www.w3.org/2000/svg">
<path d="M11.1947 3.30827L6.20514 5.70339C5.82113 5.88772 5.41082 5.9339 4.99256 5.8402C4.71883 5.77888 4.58194 5.74822 4.47173 5.73563C3.10307 5.57934 2.25 6.66257 2.25 7.9082V8.5918C2.25 9.83743 3.10307 10.9207 4.47173 10.7644C4.58194 10.7518 4.71883 10.7211 4.99256 10.6598C5.41082 10.5661 5.82113 10.6123 6.20514 10.7966L11.1947 13.1917C12.3401 13.7415 12.9128 14.0165 13.5513 13.8022C14.1898 13.5879 14.409 13.1281 14.8473 12.2085C16.0509 9.68337 16.0509 6.81663 14.8473 4.29147C14.409 3.37189 14.1898 2.9121 13.5513 2.69783C12.9128 2.48355 12.3401 2.75846 11.1947 3.30827Z" stroke="#475467" stroke-width="1.5" stroke-linecap="round" stroke-linejoin="round"/>
<path d="M9.75 12.75V13.125C9.75 14.0881 9.75 14.5696 9.58198 14.8414C9.35796 15.2039 8.94837 15.4087 8.52397 15.3705C8.20567 15.3418 7.82045 15.0528 7.05 14.475L6.15 13.8C5.4169 13.2502 5.25 12.9164 5.25 12V10.875" stroke="#475467" stroke-width="1.5" stroke-linecap="round" stroke-linejoin="round"/>
<path d="M5.625 10.5V6" stroke="#475467" stroke-width="1.5" stroke-linecap="round" stroke-linejoin="round"/>
</svg>
