<svg width="18" height="18" viewBox="0 0 18 18" fill="none" xmlns="http://www.w3.org/2000/svg">
<path d="M10.628 15.6679C13.7652 15.4594 16.2642 12.9249 16.4698 9.74316C16.5101 9.12051 16.5101 8.47569 16.4698 7.85304C16.2642 4.67128 13.7652 2.13685 10.628 1.92831C9.55764 1.85716 8.44018 1.8573 7.37205 1.92831C4.23479 2.13685 1.73581 4.67128 1.53018 7.85304C1.48994 8.47569 1.48994 9.12051 1.53018 9.74316C1.60507 10.902 2.11757 11.975 2.72093 12.881C3.07126 13.5152 2.84006 14.3069 2.47516 14.9984C2.21206 15.4969 2.08051 15.7462 2.18613 15.9263C2.29176 16.1064 2.52769 16.1122 2.99957 16.1236C3.93275 16.1464 4.56201 15.8818 5.06151 15.5135C5.3448 15.3046 5.48645 15.2001 5.58408 15.1881C5.6817 15.1761 5.87383 15.2552 6.25801 15.4135C6.6033 15.5557 7.00422 15.6434 7.37205 15.6679C8.44018 15.7389 9.55764 15.739 10.628 15.6679Z" stroke="#475467" stroke-width="1.5" stroke-linejoin="round"/>
<path d="M7.875 7.15385C7.875 6.51659 8.37868 6 9 6C9.62132 6 10.125 6.51659 10.125 7.15385C10.125 7.38355 10.0596 7.59757 9.94675 7.77738C9.61054 8.31327 9 8.82429 9 9.46154V9.75" stroke="#475467" stroke-width="1.5" stroke-linecap="round"/>
<path d="M9 11.25H9.00674" stroke="#475467" stroke-width="1.5" stroke-linecap="round" stroke-linejoin="round"/>
</svg>
