<svg width="18" height="18" viewBox="0 0 18 18" fill="none" xmlns="http://www.w3.org/2000/svg">
<g id="fi_2121954" clip-path="url(#clip0_3308_191757)">
<path id="Vector" d="M15.3603 2.63676C11.8449 -0.878655 6.15506 -0.879183 2.63916 2.63676C-0.187753 5.46363 -0.721941 9.66698 0.949337 13.0144L0.0227842 17.09C-0.0976483 17.6198 0.377115 18.0947 0.907047 17.9743L4.98265 17.0477C10.9085 20.0064 17.9951 15.723 17.9951 8.99737C17.9951 6.5947 17.0594 4.33579 15.3603 2.63676ZM10.8762 11.2374H5.24684C4.83878 11.2374 4.50799 10.9066 4.50799 10.4985C4.50799 10.0904 4.83878 9.75966 5.24684 9.75966H10.8762C11.2842 9.75966 11.615 10.0904 11.615 10.4985C11.615 10.9066 11.2842 11.2374 10.8762 11.2374ZM12.7526 8.23506H5.24684C4.83878 8.23506 4.50799 7.90426 4.50799 7.49621C4.50799 7.08815 4.83878 6.75736 5.24684 6.75736H12.7526C13.1607 6.75736 13.4915 7.08815 13.4915 7.49621C13.4915 7.90426 13.1607 8.23506 12.7526 8.23506Z" fill="white"/>
</g>
<defs>
<clipPath id="clip0_3308_191757">
<rect width="18" height="18" fill="white"/>
</clipPath>
</defs>
</svg>
