<svg width="18" height="17" viewBox="0 0 18 17" fill="none" xmlns="http://www.w3.org/2000/svg">
<path d="M8.7733 12.3424C11.5881 12.157 13.8303 9.90418 14.0148 7.07595C14.0509 6.52248 14.0509 5.94931 14.0148 5.39585C13.8303 2.56761 11.5881 0.314787 8.7733 0.129414C7.81299 0.0661724 6.81038 0.0663014 5.85203 0.129414C3.03721 0.314787 0.795067 2.56761 0.610574 5.39585C0.57447 5.94931 0.57447 6.52248 0.610574 7.07595C0.677769 8.10602 1.1376 9.05977 1.67894 9.8651C1.99326 10.4289 1.78583 11.1326 1.45843 11.7472C1.22237 12.1904 1.10434 12.412 1.19911 12.5721C1.29388 12.7322 1.50557 12.7373 1.92894 12.7475C2.76621 12.7677 3.3308 12.5325 3.77896 12.2051C4.03314 12.0194 4.16023 11.9266 4.24782 11.9159C4.33541 11.9052 4.50779 11.9756 4.85248 12.1162C5.16229 12.2426 5.52201 12.3206 5.85203 12.3424C6.81038 12.4055 7.81299 12.4056 8.7733 12.3424Z" fill="#475467"/>
<path d="M4.9375 8H9.6875M4.9375 4.83333H7.3125" stroke="white" stroke-width="1.5" stroke-linecap="round" stroke-linejoin="round"/>
<path d="M5.72949 14.332C6.56105 15.0205 7.56181 15.4592 8.70894 15.5344C9.61276 15.5937 10.5564 15.5936 11.4584 15.5344C11.769 15.5141 12.1075 15.4409 12.3991 15.3224C12.7235 15.1906 12.8858 15.1246 12.9682 15.1346C13.0507 15.1446 13.1703 15.2317 13.4095 15.4058C13.8313 15.7127 14.3627 15.9332 15.1507 15.9142C15.5492 15.9047 15.7484 15.8999 15.8376 15.7498C15.9268 15.5997 15.8157 15.392 15.5935 14.9765C15.2854 14.4003 15.0902 13.7406 15.386 13.212C15.8955 12.457 16.3283 11.5629 16.3915 10.5972C16.4255 10.0783 16.4255 9.54094 16.3915 9.02207C16.3494 8.37862 16.1932 7.76695 15.9429 7.20703" stroke="#475467" stroke-width="1.5" stroke-linecap="round" stroke-linejoin="round"/>
</svg>
