<svg width="18" height="18" viewBox="0 0 18 18" fill="none" xmlns="http://www.w3.org/2000/svg">
<path d="M1.89744 11.0772C1.73795 12.1227 2.451 12.8484 3.32404 13.2101C6.67111 14.5966 11.3289 14.5966 14.676 13.2101C15.549 12.8484 16.2621 12.1227 16.1026 11.0772C16.0045 10.4347 15.5199 9.89964 15.1608 9.37718C14.6905 8.68445 14.6437 7.92887 14.6437 7.125C14.6437 4.0184 12.1169 1.5 9 1.5C5.8831 1.5 3.35634 4.0184 3.35634 7.125C3.35628 7.92887 3.30954 8.68445 2.83921 9.37718C2.48013 9.89964 1.99546 10.4347 1.89744 11.0772Z" stroke="#475467" stroke-width="1.5" stroke-linecap="round" stroke-linejoin="round"/>
<path d="M6 14.25C6.34387 15.5439 7.55665 16.5 9 16.5C10.4434 16.5 11.6561 15.5439 12 14.25" stroke="#475467" stroke-width="1.5" stroke-linecap="round" stroke-linejoin="round"/>
</svg>
