<svg width="18" height="18" viewBox="0 0 18 18" fill="none" xmlns="http://www.w3.org/2000/svg">
<g clip-path="url(#clip0_3308_240284)">
<path d="M13.5 13.6255C10.2972 14.5791 6.29447 14.4406 3.32404 13.2101C2.451 12.8484 1.73795 12.1228 1.89744 11.0772C1.99546 10.4347 2.48013 9.89966 2.83921 9.3772C3.30954 8.68447 3.35628 7.92889 3.35634 7.12502C3.35634 6.0908 3.63638 4.95762 4.125 4.125" stroke="#475467" stroke-width="1.5" stroke-linecap="round" stroke-linejoin="round"/>
<path d="M5.625 2.61623C6.56553 1.91514 7.73276 1.5 8.99719 1.5C12.1115 1.5 14.6361 4.0184 14.6361 7.125C14.6362 7.92887 14.6829 8.68445 15.1528 9.37718C15.5116 9.89964 15.9959 10.4347 16.0938 11.0772C16.1841 11.6697 16.0817 11.996 15.7416 12.375" stroke="#475467" stroke-width="1.5" stroke-linecap="round" stroke-linejoin="round"/>
<path d="M16.5 16.5L1.5 1.5" stroke="#475467" stroke-width="1.5" stroke-linecap="round"/>
<path d="M6 14.25C6.34387 15.5439 7.55665 16.5 9 16.5C10.4434 16.5 11.6561 15.5439 12 14.25" stroke="#475467" stroke-width="1.5" stroke-linecap="round" stroke-linejoin="round"/>
</g>
<defs>
<clipPath id="clip0_3308_240284">
<rect width="18" height="18" fill="white"/>
</clipPath>
</defs>
</svg>
