<svg width="16" height="16" viewBox="0 0 16 16" fill="none" xmlns="http://www.w3.org/2000/svg">
<g id="notification-off-02" clip-path="url(#clip0_3586_93154)">
<g id="elements">
<path id="Vector" d="M11.9993 12.1129C9.15245 12.9605 5.59443 12.8374 2.95405 11.7436C2.17801 11.4221 1.54419 10.7771 1.68596 9.84773C1.77309 9.27658 2.20391 8.801 2.52309 8.33659C2.94116 7.72083 2.98271 7.0492 2.98277 6.33465C2.98277 5.41535 3.23169 4.40808 3.66602 3.66797" stroke="#98A2B3" stroke-width="1.2" stroke-linecap="round" stroke-linejoin="round"/>
<path id="Vector_2" d="M5 2.32619C5.83602 1.703 6.87356 1.33398 7.9975 1.33398C10.7658 1.33398 13.0099 3.57256 13.0099 6.33398C13.01 7.04854 13.0515 7.72016 13.4692 8.33593C13.7881 8.80033 14.2186 9.27592 14.3056 9.84707C14.3859 10.3737 14.2948 10.6637 13.9925 11.0007" stroke="#98A2B3" stroke-width="1.2" stroke-linecap="round" stroke-linejoin="round"/>
<path id="Vector 3475" d="M14.6663 14.6673L1.33301 1.33398" stroke="#98A2B3" stroke-width="1.2" stroke-linecap="round"/>
<path id="Ellipse 1990" d="M5.33301 12.668C5.63867 13.8181 6.7167 14.668 7.99967 14.668C9.28265 14.668 10.3607 13.8181 10.6663 12.668" stroke="#98A2B3" stroke-width="1.2" stroke-linecap="round" stroke-linejoin="round"/>
</g>
</g>
<defs>
<clipPath id="clip0_3586_93154">
<rect width="16" height="16" fill="white"/>
</clipPath>
</defs>
</svg>
