<svg width="20" height="20" viewBox="0 0 20 20" fill="none" xmlns="http://www.w3.org/2000/svg">
<path d="M2.10697 12.3083C1.92976 13.47 2.72203 14.2763 3.69207 14.6782C7.41104 16.2188 12.5864 16.2188 16.3053 14.6782C17.2754 14.2763 18.0676 13.47 17.8904 12.3083C17.7815 11.5944 17.243 10.9999 16.844 10.4194C16.3214 9.64974 16.2695 8.81016 16.2694 7.91699C16.2694 4.46521 13.4619 1.66699 9.9987 1.66699C6.53547 1.66699 3.72797 4.46521 3.72797 7.91699C3.72789 8.81016 3.67597 9.64974 3.15337 10.4194C2.7544 10.9999 2.21587 11.5944 2.10697 12.3083Z" stroke="#667085" stroke-width="1.25" stroke-linecap="round" stroke-linejoin="round"/>
<path d="M6.66797 15.833C7.05004 17.2707 8.39755 18.333 10.0013 18.333C11.6051 18.333 12.9526 17.2707 13.3346 15.833" stroke="#667085" stroke-width="1.25" stroke-linecap="round" stroke-linejoin="round"/>
</svg>
