<svg width="20" height="21" viewBox="0 0 20 21" fill="none" xmlns="http://www.w3.org/2000/svg">
<path d="M1.66699 15.4993C1.66699 14.2157 1.66699 13.5738 1.95593 13.1023C2.11761 12.8384 2.33943 12.6166 2.60327 12.4549C3.07478 12.166 3.71663 12.166 5.00033 12.166C6.28403 12.166 6.92588 12.166 7.39738 12.4549C7.66122 12.6166 7.88304 12.8384 8.04472 13.1023C8.33366 13.5738 8.33366 14.2157 8.33366 15.4993C8.33366 16.783 8.33366 17.4249 8.04472 17.8964C7.88304 18.1603 7.66122 18.3821 7.39738 18.5438C6.92588 18.8327 6.28403 18.8327 5.00033 18.8327C3.71663 18.8327 3.07478 18.8327 2.60327 18.5438C2.33943 18.3821 2.11761 18.1603 1.95593 17.8964C1.66699 17.4249 1.66699 16.783 1.66699 15.4993Z" stroke="#667085" stroke-width="1.25"/>
<path d="M11.667 15.4993C11.667 14.2157 11.667 13.5738 11.9559 13.1023C12.1176 12.8384 12.3394 12.6166 12.6032 12.4549C13.0747 12.166 13.7167 12.166 15.0003 12.166C16.284 12.166 16.9259 12.166 17.3974 12.4549C17.6612 12.6166 17.8831 12.8384 18.0447 13.1023C18.3337 13.5738 18.3337 14.2157 18.3337 15.4993C18.3337 16.783 18.3337 17.4249 18.0447 17.8964C17.8831 18.1603 17.6612 18.3821 17.3974 18.5438C16.9259 18.8327 16.284 18.8327 15.0003 18.8327C13.7167 18.8327 13.0747 18.8327 12.6032 18.5438C12.3394 18.3821 12.1176 18.1603 11.9559 17.8964C11.667 17.4249 11.667 16.783 11.667 15.4993Z" stroke="#667085" stroke-width="1.25"/>
<path d="M1.66699 5.49935C1.66699 4.21565 1.66699 3.5738 1.95593 3.10229C2.11761 2.83846 2.33943 2.61663 2.60327 2.45496C3.07478 2.16602 3.71663 2.16602 5.00033 2.16602C6.28403 2.16602 6.92588 2.16602 7.39738 2.45496C7.66122 2.61663 7.88304 2.83846 8.04472 3.10229C8.33366 3.5738 8.33366 4.21565 8.33366 5.49935C8.33366 6.78305 8.33366 7.4249 8.04472 7.89641C7.88304 8.16024 7.66122 8.38207 7.39738 8.54374C6.92588 8.83268 6.28403 8.83268 5.00033 8.83268C3.71663 8.83268 3.07478 8.83268 2.60327 8.54374C2.33943 8.38207 2.11761 8.16024 1.95593 7.89641C1.66699 7.4249 1.66699 6.78305 1.66699 5.49935Z" stroke="#667085" stroke-width="1.25"/>
<path d="M11.667 5.49935C11.667 4.21565 11.667 3.5738 11.9559 3.10229C12.1176 2.83846 12.3394 2.61663 12.6032 2.45496C13.0747 2.16602 13.7167 2.16602 15.0003 2.16602C16.284 2.16602 16.9259 2.16602 17.3974 2.45496C17.6612 2.61663 17.8831 2.83846 18.0447 3.10229C18.3337 3.5738 18.3337 4.21565 18.3337 5.49935C18.3337 6.78305 18.3337 7.4249 18.0447 7.89641C17.8831 8.16024 17.6612 8.38207 17.3974 8.54374C16.9259 8.83268 16.284 8.83268 15.0003 8.83268C13.7167 8.83268 13.0747 8.83268 12.6032 8.54374C12.3394 8.38207 12.1176 8.16024 11.9559 7.89641C11.667 7.4249 11.667 6.78305 11.667 5.49935Z" stroke="#667085" stroke-width="1.25"/>
</svg>
