<svg width="20" height="21" viewBox="0 0 20 21" fill="none" xmlns="http://www.w3.org/2000/svg">
<path d="M3.33398 6.33398C3.33398 5.15547 3.33398 4.56622 3.7001 4.2001C4.06622 3.83398 4.65547 3.83398 5.83398 3.83398C7.0125 3.83398 7.60175 3.83398 7.96787 4.2001C8.33398 4.56622 8.33398 5.15547 8.33398 6.33398V14.6673C8.33398 15.8458 8.33398 16.4351 7.96787 16.8012C7.60175 17.1673 7.0125 17.1673 5.83398 17.1673C4.65547 17.1673 4.06622 17.1673 3.7001 16.8012C3.33398 16.4351 3.33398 15.8458 3.33398 14.6673V6.33398Z" stroke="white" stroke-width="1.5"/>
<path d="M11.668 6.33398C11.668 5.15547 11.668 4.56622 12.0341 4.2001C12.4002 3.83398 12.9895 3.83398 14.168 3.83398C15.3465 3.83398 15.9357 3.83398 16.3019 4.2001C16.668 4.56622 16.668 5.15547 16.668 6.33398V14.6673C16.668 15.8458 16.668 16.4351 16.3019 16.8012C15.9357 17.1673 15.3465 17.1673 14.168 17.1673C12.9895 17.1673 12.4002 17.1673 12.0341 16.8012C11.668 16.4351 11.668 15.8458 11.668 14.6673V6.33398Z" stroke="white" stroke-width="1.5"/>
</svg>
