<svg width="74" height="24" viewBox="0 0 74 24" fill="none" xmlns="http://www.w3.org/2000/svg">
<rect x="0.5" width="73" height="24" rx="6" fill="#FFEFC6"/>
<circle cx="16.5" cy="12" r="3" fill="#93360D"/>
<path d="M31.232 10.144C31.232 10.568 31.132 10.968 30.932 11.344C30.732 11.72 30.412 12.028 29.972 12.268C29.532 12.5 28.968 12.616 28.28 12.616H26.768V16H25.4V7.66H28.28C28.92 7.66 29.46 7.772 29.9 7.996C30.348 8.212 30.68 8.508 30.896 8.884C31.12 9.26 31.232 9.68 31.232 10.144ZM28.28 11.5C28.8 11.5 29.188 11.384 29.444 11.152C29.7 10.912 29.828 10.576 29.828 10.144C29.828 9.232 29.312 8.776 28.28 8.776H26.768V11.5H28.28ZM32.0807 12.664C32.0807 12 32.2167 11.412 32.4887 10.9C32.7687 10.388 33.1447 9.992 33.6167 9.712C34.0967 9.424 34.6247 9.28 35.2007 9.28C35.7207 9.28 36.1727 9.384 36.5567 9.592C36.9487 9.792 37.2607 10.044 37.4927 10.348V9.388H38.8727V16H37.4927V15.016C37.2607 15.328 36.9447 15.588 36.5447 15.796C36.1447 16.004 35.6887 16.108 35.1767 16.108C34.6087 16.108 34.0887 15.964 33.6167 15.676C33.1447 15.38 32.7687 14.972 32.4887 14.452C32.2167 13.924 32.0807 13.328 32.0807 12.664ZM37.4927 12.688C37.4927 12.232 37.3967 11.836 37.2047 11.5C37.0207 11.164 36.7767 10.908 36.4727 10.732C36.1687 10.556 35.8407 10.468 35.4887 10.468C35.1367 10.468 34.8087 10.556 34.5047 10.732C34.2007 10.9 33.9527 11.152 33.7607 11.488C33.5767 11.816 33.4847 12.208 33.4847 12.664C33.4847 13.12 33.5767 13.52 33.7607 13.864C33.9527 14.208 34.2007 14.472 34.5047 14.656C34.8167 14.832 35.1447 14.92 35.4887 14.92C35.8407 14.92 36.1687 14.832 36.4727 14.656C36.7767 14.48 37.0207 14.224 37.2047 13.888C37.3967 13.544 37.4927 13.144 37.4927 12.688ZM46.6575 9.388V16H45.2895V15.22C45.0735 15.492 44.7895 15.708 44.4375 15.868C44.0935 16.02 43.7255 16.096 43.3335 16.096C42.8135 16.096 42.3455 15.988 41.9295 15.772C41.5215 15.556 41.1975 15.236 40.9575 14.812C40.7255 14.388 40.6095 13.876 40.6095 13.276V9.388H41.9655V13.072C41.9655 13.664 42.1135 14.12 42.4095 14.44C42.7055 14.752 43.1095 14.908 43.6215 14.908C44.1335 14.908 44.5375 14.752 44.8335 14.44C45.1375 14.12 45.2895 13.664 45.2895 13.072V9.388H46.6575ZM50.8625 16.108C50.3425 16.108 49.8745 16.016 49.4585 15.832C49.0505 15.64 48.7265 15.384 48.4865 15.064C48.2465 14.736 48.1185 14.372 48.1025 13.972H49.5185C49.5425 14.252 49.6745 14.488 49.9145 14.68C50.1625 14.864 50.4705 14.956 50.8385 14.956C51.2225 14.956 51.5185 14.884 51.7265 14.74C51.9425 14.588 52.0505 14.396 52.0505 14.164C52.0505 13.916 51.9305 13.732 51.6905 13.612C51.4585 13.492 51.0865 13.36 50.5745 13.216C50.0785 13.08 49.6745 12.948 49.3625 12.82C49.0505 12.692 48.7785 12.496 48.5465 12.232C48.3225 11.968 48.2105 11.62 48.2105 11.188C48.2105 10.836 48.3145 10.516 48.5225 10.228C48.7305 9.932 49.0265 9.7 49.4105 9.532C49.8025 9.364 50.2505 9.28 50.7545 9.28C51.5065 9.28 52.1105 9.472 52.5665 9.856C53.0305 10.232 53.2785 10.748 53.3105 11.404H51.9425C51.9185 11.108 51.7985 10.872 51.5825 10.696C51.3665 10.52 51.0745 10.432 50.7065 10.432C50.3465 10.432 50.0705 10.5 49.8785 10.636C49.6865 10.772 49.5905 10.952 49.5905 11.176C49.5905 11.352 49.6545 11.5 49.7825 11.62C49.9105 11.74 50.0665 11.836 50.2505 11.908C50.4345 11.972 50.7065 12.056 51.0665 12.16C51.5465 12.288 51.9385 12.42 52.2425 12.556C52.5545 12.684 52.8225 12.876 53.0465 13.132C53.2705 13.388 53.3865 13.728 53.3945 14.152C53.3945 14.528 53.2905 14.864 53.0825 15.16C52.8745 15.456 52.5785 15.688 52.1945 15.856C51.8185 16.024 51.3745 16.108 50.8625 16.108ZM60.9327 12.532C60.9327 12.78 60.9167 13.004 60.8847 13.204H55.8327C55.8727 13.732 56.0687 14.156 56.4207 14.476C56.7727 14.796 57.2047 14.956 57.7167 14.956C58.4527 14.956 58.9727 14.648 59.2767 14.032H60.7527C60.5527 14.64 60.1887 15.14 59.6607 15.532C59.1407 15.916 58.4927 16.108 57.7167 16.108C57.0847 16.108 56.5167 15.968 56.0127 15.688C55.5167 15.4 55.1247 15 54.8367 14.488C54.5567 13.968 54.4167 13.368 54.4167 12.688C54.4167 12.008 54.5527 11.412 54.8247 10.9C55.1047 10.38 55.4927 9.98 55.9887 9.7C56.4927 9.42 57.0687 9.28 57.7167 9.28C58.3407 9.28 58.8967 9.416 59.3847 9.688C59.8727 9.96 60.2527 10.344 60.5247 10.84C60.7967 11.328 60.9327 11.892 60.9327 12.532ZM59.5047 12.1C59.4967 11.596 59.3167 11.192 58.9647 10.888C58.6127 10.584 58.1767 10.432 57.6567 10.432C57.1847 10.432 56.7807 10.584 56.4447 10.888C56.1087 11.184 55.9087 11.588 55.8447 12.1H59.5047Z" fill="#93360D"/>
</svg>
