<svg width="18" height="18" viewBox="0 0 18 18" fill="none" xmlns="http://www.w3.org/2000/svg">
<path d="M3 5.25C3 4.18934 3 3.65901 3.3295 3.3295C3.65901 3 4.18934 3 5.25 3C6.31066 3 6.84099 3 7.1705 3.3295C7.5 3.65901 7.5 4.18934 7.5 5.25V12.75C7.5 13.8107 7.5 14.341 7.1705 14.6705C6.84099 15 6.31066 15 5.25 15C4.18934 15 3.65901 15 3.3295 14.6705C3 14.341 3 13.8107 3 12.75V5.25Z" stroke="#475467" stroke-width="1.5"/>
<path d="M10.5 5.25C10.5 4.18934 10.5 3.65901 10.8295 3.3295C11.159 3 11.6893 3 12.75 3C13.8107 3 14.341 3 14.6705 3.3295C15 3.65901 15 4.18934 15 5.25V12.75C15 13.8107 15 14.341 14.6705 14.6705C14.341 15 13.8107 15 12.75 15C11.6893 15 11.159 15 10.8295 14.6705C10.5 14.341 10.5 13.8107 10.5 12.75V5.25Z" stroke="#475467" stroke-width="1.5"/>
</svg>
