<svg width="32" height="42" viewBox="0 0 32 42" fill="none" xmlns="http://www.w3.org/2000/svg">
<path fill-rule="evenodd" clip-rule="evenodd" d="M5.76218 0H19.8042L31.7052 12.4048V36.5322C31.7052 39.5547 29.2599 42 26.2479 42H5.76218C2.7397 42 0.294434 39.5547 0.294434 36.5322V5.46775C0.294381 2.44527 2.73965 0 5.76218 0Z" fill="#E5252A"/>
<path fill-rule="evenodd" clip-rule="evenodd" d="M19.7939 0V12.3104H31.7055L19.7939 0Z" fill="white" fill-opacity="0.4"/>
<path d="M6.37109 31.3377V23.666H9.63497C10.4431 23.666 11.0833 23.8864 11.566 24.3377C12.0488 24.7785 12.2902 25.3767 12.2902 26.1218C12.2902 26.8669 12.0488 27.4651 11.566 27.9059C11.0833 28.3572 10.4431 28.5776 9.63497 28.5776H8.33361V31.3377H6.37109ZM8.33361 26.9089H9.41459C9.70842 26.9089 9.93931 26.8459 10.0968 26.6991C10.2542 26.5626 10.3382 26.3737 10.3382 26.1218C10.3382 25.87 10.2542 25.6811 10.0968 25.5446C9.93936 25.3977 9.70847 25.3348 9.41459 25.3348H8.33361V26.9089ZM13.0982 31.3377V23.666H15.8164C16.3516 23.666 16.8554 23.7395 17.3276 23.8969C17.7998 24.0543 18.2302 24.2747 18.6079 24.5791C18.9858 24.8729 19.2901 25.2717 19.5105 25.7755C19.7204 26.2792 19.8359 26.8564 19.8359 27.5071C19.8359 28.1473 19.7204 28.7245 19.5105 29.2282C19.2901 29.732 18.9858 30.1308 18.6079 30.4246C18.2301 30.729 17.7998 30.9493 17.3276 31.1068C16.8554 31.2642 16.3516 31.3377 15.8164 31.3377H13.0982ZM15.0188 29.669H15.5855C15.8898 29.669 16.1732 29.6376 16.4355 29.5641C16.6874 29.4906 16.9288 29.3752 17.1597 29.2178C17.3801 29.0604 17.5585 28.8399 17.6844 28.5461C17.8104 28.2523 17.8733 27.9059 17.8733 27.5071C17.8733 27.0978 17.8104 26.7515 17.6844 26.4577C17.5585 26.1638 17.3801 25.9434 17.1597 25.786C16.9288 25.6286 16.6875 25.5131 16.4355 25.4397C16.1732 25.3662 15.8898 25.3347 15.5855 25.3347H15.0188V29.669ZM20.8224 31.3377V23.666H26.2797V25.3347H22.7849V26.5626H25.5765V28.2207H22.7849V31.3377H20.8224Z" fill="white"/>
</svg>
