<svg width="20" height="21" viewBox="0 0 20 21" fill="none" xmlns="http://www.w3.org/2000/svg">
<path d="M10 5.32762C10.9276 5.99912 11.8707 6.80143 12.7847 7.71531C13.6986 8.62922 14.5009 9.57242 15.1724 10.5001M10 5.32762C9.07242 5.99912 8.12924 6.80143 7.21536 7.71532C6.30146 8.62922 5.49912 9.57242 4.82762 10.5001M10 5.32762C12.9749 3.17399 15.7893 2.3659 16.9617 3.53828C18.1341 4.71067 17.326 7.52512 15.1724 10.5001M15.1724 10.5001C17.326 13.4749 18.134 16.2893 16.9617 17.4617C16.0924 18.3309 14.3207 18.1115 12.25 17.0622M15.1724 10.5001C14.5009 11.4277 13.6986 12.3708 12.7847 13.2847C11.8708 14.1986 10.9276 15.0009 10 15.6724M4.82762 10.5001C5.49911 11.4277 6.30142 12.3708 7.21528 13.2847C8.12919 14.1986 9.07242 15.0009 10 15.6724M4.82762 10.5001C2.67404 13.4749 1.86597 16.2893 3.03835 17.4617C4.21072 18.6341 7.02512 17.826 10 15.6724M4.82762 10.5001C2.67398 7.52512 1.86589 4.71067 3.03827 3.53827C3.9075 2.66905 5.67934 2.88849 7.75 3.93782" stroke="#667085" stroke-width="1.25" stroke-linecap="round"/>
<path d="M9.99967 12.1673C10.9201 12.1673 11.6663 11.4211 11.6663 10.5007C11.6663 9.58018 10.9201 8.83398 9.99967 8.83398C9.0792 8.83398 8.33301 9.58018 8.33301 10.5007C8.33301 11.4211 9.0792 12.1673 9.99967 12.1673Z" stroke="#667085" stroke-width="1.25"/>
</svg>
