<svg width="20" height="20" viewBox="0 0 20 20" fill="none" xmlns="http://www.w3.org/2000/svg">
<g clip-path="url(#clip0_608_25690)">
<circle cx="9.9974" cy="9.98958" r="8.33333" stroke="#667085" stroke-width="1.5"/>
<path d="M12.875 10.3082C12.7488 10.8304 12.1522 11.1995 10.959 11.9376C9.80551 12.6512 9.22878 13.008 8.764 12.8646C8.57185 12.8053 8.39677 12.6927 8.25558 12.5375C7.91406 12.1624 7.91406 11.4346 7.91406 9.97917C7.91406 8.52371 7.91406 7.79598 8.25558 7.42079C8.39677 7.26567 8.57185 7.15307 8.764 7.09377C9.22878 6.95036 9.80551 7.30714 10.959 8.02069C12.1522 8.75882 12.7488 9.12789 12.875 9.65018C12.9271 9.86576 12.9271 10.0926 12.875 10.3082Z" stroke="#667085" stroke-width="1.5" stroke-linejoin="round"/>
</g>
<defs>
<clipPath id="clip0_608_25690">
<rect width="20" height="20" fill="white"/>
</clipPath>
</defs>
</svg>
