<svg width="40" height="40" viewBox="0 0 40 40" fill="none" xmlns="http://www.w3.org/2000/svg">
<rect width="40" height="40" rx="20" fill="black" fill-opacity="0.5"/>
<path d="M26.8906 20.846C26.5371 22.189 24.8667 23.138 21.5257 25.0361C18.296 26.8709 16.6812 27.7884 15.3798 27.4196C14.8418 27.2671 14.3516 26.9776 13.9562 26.5787C13 25.6139 13 23.7426 13 20C13 16.2574 13 14.3861 13.9562 13.4213C14.3516 13.0225 14.8418 12.7329 15.3798 12.5804C16.6812 12.2117 18.296 13.1291 21.5257 14.9639C24.8667 16.862 26.5371 17.811 26.8906 19.154C27.0365 19.7084 27.0365 20.2916 26.8906 20.846Z" stroke="white" stroke-width="1.5" stroke-linejoin="round"/>
</svg>
