<svg width="16" height="16" viewBox="0 0 16 16" fill="none" xmlns="http://www.w3.org/2000/svg">
<g id="Group 73992">
<path id="Polygon 3" d="M6.25 1.58771C7.3329 0.962498 8.6671 0.962498 9.75 1.58771L12.6782 3.27831C13.7611 3.90353 14.4282 5.05897 14.4282 6.3094V9.6906C14.4282 10.941 13.7611 12.0965 12.6782 12.7217L9.75 14.4123C8.6671 15.0375 7.3329 15.0375 6.25 14.4123L3.3218 12.7217C2.23889 12.0965 1.5718 10.941 1.5718 9.6906V6.3094C1.5718 5.05897 2.23889 3.90353 3.3218 3.27831L6.25 1.58771Z" fill="#FF8028" stroke="white"/>
<g id="Group" filter="url(#filter0_i_3308_226755)">
<path id="Vector" d="M11.2576 6.56282C11.1903 6.50561 11.1085 6.4688 11.0216 6.45661C10.9347 6.44444 10.8462 6.45737 10.7662 6.49394L9.27786 7.16728L8.41132 5.57951C8.37055 5.5048 8.31091 5.44255 8.23856 5.39921C8.1662 5.35587 8.08377 5.33301 7.99981 5.33301C7.91585 5.33301 7.83342 5.35587 7.76107 5.39921C7.68871 5.44255 7.62907 5.5048 7.5883 5.57951L6.72174 7.16726L5.23321 6.49382C5.15311 6.45759 5.06468 6.44484 4.97787 6.45702C4.89104 6.46919 4.80929 6.50577 4.74179 6.56268C4.67431 6.61958 4.62375 6.69453 4.59583 6.77908C4.56789 6.86366 4.56372 6.95447 4.58376 7.04133L5.33242 10.2859C5.34666 10.3487 5.37333 10.4079 5.41082 10.4599C5.4483 10.5118 5.49577 10.5555 5.55038 10.5881C5.60527 10.621 5.66609 10.6424 5.72924 10.6508C5.7924 10.6593 5.85656 10.6548 5.91797 10.6376C7.27991 10.2549 8.71825 10.2547 10.0803 10.6372C10.1417 10.6544 10.2058 10.6589 10.2689 10.6504C10.332 10.6419 10.3928 10.6206 10.4477 10.5877C10.5023 10.5551 10.5497 10.5115 10.5872 10.4595C10.6247 10.4076 10.6514 10.3485 10.6656 10.2857L11.4156 7.04159C11.436 6.95473 11.432 6.86378 11.4041 6.77913C11.3762 6.69448 11.3254 6.61954 11.2576 6.56282Z" fill="white"/>
</g>
</g>
<defs>
<filter id="filter0_i_3308_226755" x="4.26689" y="5.02861" width="7.16133" height="5.62666" filterUnits="userSpaceOnUse" color-interpolation-filters="sRGB">
<feFlood flood-opacity="0" result="BackgroundImageFix"/>
<feBlend mode="normal" in="SourceGraphic" in2="BackgroundImageFix" result="shape"/>
<feColorMatrix in="SourceAlpha" type="matrix" values="0 0 0 0 0 0 0 0 0 0 0 0 0 0 0 0 0 0 127 0" result="hardAlpha"/>
<feOffset dx="-0.304395" dy="-0.304395"/>
<feGaussianBlur stdDeviation="0.304395"/>
<feComposite in2="hardAlpha" operator="arithmetic" k2="-1" k3="1"/>
<feColorMatrix type="matrix" values="0 0 0 0 0 0 0 0 0 0 0 0 0 0 0 0 0 0 0.16 0"/>
<feBlend mode="normal" in2="shape" result="effect1_innerShadow_3308_226755"/>
</filter>
</defs>
</svg>
