<svg width="16" height="16" viewBox="0 0 16 16" fill="none" xmlns="http://www.w3.org/2000/svg">
<path d="M9.75 1.58771L12.6782 3.27831C13.7611 3.90353 14.4282 5.05897 14.4282 6.3094V9.6906C14.4282 10.941 13.7611 12.0965 12.6782 12.7217L9.75 14.4123C8.6671 15.0375 7.3329 15.0375 6.25 14.4123L3.3218 12.7217C2.23889 12.0965 1.5718 10.941 1.5718 9.6906V6.3094C1.5718 5.05897 2.23889 3.90353 3.3218 3.27831L6.25 1.58771C7.3329 0.962498 8.6671 0.962498 9.75 1.58771Z" fill="#FF8028" stroke="white"/>
<path d="M11.2578 6.56316C11.1904 6.50594 11.1086 6.46914 11.0217 6.45694C10.9348 6.44477 10.8463 6.45771 10.7663 6.49427L9.27799 7.16762L8.41144 5.57984C8.37068 5.50514 8.31103 5.44289 8.23868 5.39954C8.16632 5.3562 8.08389 5.33334 7.99993 5.33334C7.91597 5.33334 7.83355 5.3562 7.76119 5.39954C7.68884 5.44289 7.62919 5.50514 7.58842 5.57984L6.72186 7.1676L5.23333 6.49415C5.15323 6.45793 5.0648 6.44518 4.97799 6.45735C4.89116 6.46952 4.80942 6.50611 4.74191 6.56301C4.67443 6.61992 4.62387 6.69487 4.59595 6.77942C4.56801 6.864 4.56385 6.95481 4.58388 7.04166L5.33254 10.2862C5.34678 10.349 5.37345 10.4082 5.41095 10.4602C5.44842 10.5122 5.49589 10.5558 5.5505 10.5885C5.60539 10.6213 5.66621 10.6427 5.72937 10.6512C5.79252 10.6597 5.85668 10.6552 5.91809 10.6379C7.28003 10.2552 8.71838 10.255 10.0804 10.6375C10.1418 10.6547 10.2059 10.6592 10.269 10.6507C10.3321 10.6422 10.3929 10.6209 10.4478 10.5881C10.5024 10.5554 10.5499 10.5118 10.5873 10.4599C10.6248 10.408 10.6515 10.3488 10.6658 10.2861L11.4157 7.04193C11.4361 6.95507 11.4321 6.86412 11.4042 6.77947C11.3763 6.69482 11.3255 6.61987 11.2578 6.56316Z" fill="white"/>
</svg>
