<svg width="32" height="32" viewBox="0 0 32 32" fill="none" xmlns="http://www.w3.org/2000/svg">
<path d="M10.6641 22.667H21.3307" stroke="#7400E0" stroke-width="2" stroke-linecap="round" stroke-linejoin="round"/>
<path d="M10.6641 17.333H15.9974" stroke="#7400E0" stroke-width="2" stroke-linecap="round" stroke-linejoin="round"/>
<path d="M17.3359 3.33366V4.00033C17.3359 7.77157 17.3359 9.65718 18.5075 10.8288C19.6791 12.0003 21.5647 12.0003 25.3359 12.0003H26.0026M26.6693 14.2095V18.667C26.6693 23.6953 26.6693 26.2095 25.1071 27.7715C23.5451 29.3337 21.0309 29.3337 16.0026 29.3337C10.9743 29.3337 8.46014 29.3337 6.89803 27.7715C5.33594 26.2095 5.33594 23.6953 5.33594 18.667V12.6081C5.33594 8.28142 5.33594 6.11807 6.51736 4.65277C6.75604 4.35674 7.02568 4.0871 7.32171 3.84842C8.78702 2.66699 10.9504 2.66699 15.277 2.66699C16.2178 2.66699 16.6881 2.66699 17.1189 2.81901C17.2085 2.85062 17.2962 2.88699 17.3819 2.92799C17.7941 3.12506 18.1266 3.45766 18.7918 4.12283L25.1071 10.4382C25.8779 11.209 26.2633 11.5944 26.4663 12.0844C26.6693 12.5745 26.6693 13.1195 26.6693 14.2095Z" stroke="#7400E0" stroke-width="2" stroke-linecap="round" stroke-linejoin="round"/>
</svg>
