<svg width="24" height="25" viewBox="0 0 24 25" fill="none" xmlns="http://www.w3.org/2000/svg">
<path d="M10.1591 2.14021C11.2982 1.48251 12.7018 1.48251 13.8409 2.1402L20.0514 5.72584C21.1906 6.38353 21.8923 7.599 21.8923 8.91439V16.0857C21.8923 17.4011 21.1906 18.6165 20.0514 19.2742L13.8409 22.8599C12.7018 23.5176 11.2982 23.5176 10.1591 22.8599L3.9486 19.2742C2.80945 18.6165 2.1077 17.4011 2.1077 16.0857V8.91439C2.1077 7.599 2.80944 6.38353 3.9486 5.72584L10.1591 2.14021Z" fill="#98A2B3" stroke="white"/>
<path d="M8.88077 15.438V14.228L12.4778 9.08H14.2708V14.096H15.2388V15.438H14.2708V17H12.7308V15.438H8.88077ZM12.8298 10.73L10.5748 14.096H12.8298V10.73Z" fill="white"/>
</svg>
