<svg width="23" height="23" viewBox="0 0 23 23" fill="none" xmlns="http://www.w3.org/2000/svg">
<path d="M9.65909 1.64014C10.7982 0.982448 12.2018 0.982447 13.3409 1.64014L19.1184 4.97578C20.2575 5.63347 20.9593 6.84894 20.9593 8.16432V14.8356C20.9593 16.151 20.2575 17.3665 19.1184 18.0242L13.3409 21.3598C12.2018 22.0175 10.7982 22.0175 9.65909 21.3598L3.88161 18.0242C2.74246 17.3665 2.04071 16.151 2.04071 14.8356V8.16432C2.04071 6.84894 2.74246 5.63347 3.88161 4.97578L9.65909 1.64014Z" fill="#00D95F" stroke="white"/>
<path d="M8.81252 10.0929C8.84919 9.35961 9.10585 8.79494 9.58252 8.39894C10.0665 7.99561 10.7009 7.79394 11.4855 7.79394C12.0209 7.79394 12.4792 7.88927 12.8605 8.07994C13.2419 8.26327 13.5279 8.51627 13.7185 8.83894C13.9165 9.15427 14.0155 9.51361 14.0155 9.91694C14.0155 10.3789 13.8945 10.7713 13.6525 11.0939C13.4179 11.4093 13.1355 11.6219 12.8055 11.7319V11.7759C13.2309 11.9079 13.5609 12.1426 13.7955 12.4799C14.0375 12.8173 14.1585 13.2499 14.1585 13.7779C14.1585 14.2179 14.0559 14.6103 13.8505 14.9549C13.6525 15.2996 13.3555 15.5709 12.9595 15.7689C12.5709 15.9596 12.1015 16.0549 11.5515 16.0549C10.7229 16.0549 10.0482 15.8459 9.52752 15.4279C9.00685 15.0099 8.73185 14.3939 8.70252 13.5799H10.1985C10.2132 13.9393 10.3342 14.2289 10.5615 14.4489C10.7962 14.6616 11.1152 14.7679 11.5185 14.7679C11.8925 14.7679 12.1785 14.6653 12.3765 14.4599C12.5819 14.2473 12.6845 13.9759 12.6845 13.6459C12.6845 13.2059 12.5452 12.8906 12.2665 12.6999C11.9879 12.5093 11.5552 12.4139 10.9685 12.4139H10.6495V11.1489H10.9685C12.0099 11.1489 12.5305 10.8006 12.5305 10.1039C12.5305 9.78861 12.4352 9.54294 12.2445 9.36694C12.0612 9.19094 11.7935 9.10294 11.4415 9.10294C11.0969 9.10294 10.8292 9.19827 10.6385 9.38894C10.4552 9.57227 10.3489 9.80694 10.3195 10.0929H8.81252Z" fill="white"/>
</svg>
