<svg width="23" height="23" viewBox="0 0 23 23" fill="none" xmlns="http://www.w3.org/2000/svg">
<path d="M9.65909 1.64014C10.7982 0.982448 12.2018 0.982447 13.3409 1.64014L19.1184 4.97578C20.2575 5.63347 20.9593 6.84894 20.9593 8.16432V14.8356C20.9593 16.151 20.2575 17.3665 19.1184 18.0242L13.3409 21.3598C12.2018 22.0175 10.7982 22.0175 9.65909 21.3598L3.88161 18.0242C2.74246 17.3665 2.04071 16.151 2.04071 14.8356V8.16432C2.04071 6.84894 2.74246 5.63347 3.88161 4.97578L9.65909 1.64014Z" fill="#009BD6" stroke="white"/>
<path d="M9.4088 14.2619C10.1128 13.6753 10.6738 13.1876 11.0918 12.7989C11.5098 12.4029 11.8581 11.9923 12.1368 11.5669C12.4155 11.1416 12.5548 10.7236 12.5548 10.3129C12.5548 9.93894 12.4668 9.64561 12.2908 9.43294C12.1148 9.22027 11.8435 9.11394 11.4768 9.11394C11.1101 9.11394 10.8278 9.23861 10.6298 9.48794C10.4318 9.72994 10.3291 10.0636 10.3218 10.4889H8.8258C8.85513 9.60894 9.11546 8.94161 9.6068 8.48694C10.1055 8.03227 10.7361 7.80494 11.4988 7.80494C12.3348 7.80494 12.9765 8.02861 13.4238 8.47594C13.8711 8.91594 14.0948 9.49894 14.0948 10.2249C14.0948 10.7969 13.9408 11.3433 13.6328 11.8639C13.3248 12.3846 12.9728 12.8393 12.5768 13.2279C12.1808 13.6093 11.6638 14.0713 11.0258 14.6139H14.2708V15.8899H8.8368V14.7459L9.4088 14.2619Z" fill="white"/>
</svg>
