<svg width="24" height="24" viewBox="0 0 24 24" fill="none" xmlns="http://www.w3.org/2000/svg">
<path d="M12.0005 7.2L12.0005 18.4" stroke="#1D2939" stroke-width="1.5" stroke-linecap="round"/>
<path d="M7.18445 5.02834C9.8574 5.53727 11.4505 6.60185 12 7.21302C12.5495 6.60185 14.1426 5.53727 16.8156 5.02834C18.1697 4.77052 18.8468 4.64161 19.4234 5.13571C20 5.62982 20 6.43217 20 8.03689V13.804C20 15.2713 20 16.0049 19.6299 16.4629C19.2598 16.921 18.4451 17.0761 16.8156 17.3864C15.3629 17.6629 14.2292 18.1036 13.4087 18.5465C12.6013 18.9821 12.1976 19.2 12 19.2C11.8024 19.2 11.3987 18.9821 10.5913 18.5465C9.77076 18.1036 8.63706 17.6629 7.18445 17.3864C5.55492 17.0761 4.74016 16.921 4.37008 16.4629C4 16.0049 4 15.2713 4 13.804V8.03689C4 6.43217 4 5.62982 4.57663 5.13571C5.15325 4.64161 5.83032 4.77052 7.18445 5.02834Z" stroke="#1D2939" stroke-width="1.5" stroke-linecap="round" stroke-linejoin="round"/>
</svg>
