<svg width="20" height="18" viewBox="0 0 20 18" fill="none" xmlns="http://www.w3.org/2000/svg">
<path d="M10 4L10 15.6667" stroke="#667085" stroke-width="1.5" stroke-linecap="round"/>
<path d="M4.9851 1.73786C7.76943 2.268 9.42889 3.37693 10.0013 4.01357C10.5737 3.37693 12.2332 2.268 15.0175 1.73786C16.4281 1.46929 17.1333 1.33501 17.734 1.8497C18.3346 2.3644 18.3346 3.20019 18.3346 4.87176V10.8791C18.3346 12.4076 18.3346 13.1718 17.9491 13.6489C17.5636 14.126 16.7149 14.2876 15.0175 14.6108C13.5044 14.8989 12.3234 15.3579 11.4686 15.8192C10.6277 16.2731 10.2071 16.5 10.0013 16.5C9.79547 16.5 9.37495 16.2731 8.53395 15.8192C7.67917 15.3579 6.49824 14.8989 4.9851 14.6108C3.28768 14.2876 2.43897 14.126 2.05347 13.6489C1.66797 13.1718 1.66797 12.4076 1.66797 10.8791V4.87176C1.66797 3.20019 1.66797 2.3644 2.26862 1.8497C2.86927 1.33501 3.57455 1.46929 4.9851 1.73786Z" stroke="#667085" stroke-width="1.5" stroke-linecap="round" stroke-linejoin="round"/>
</svg>
