<svg width="75" height="24" viewBox="0 0 75 24" fill="none" xmlns="http://www.w3.org/2000/svg">
<rect x="0.5" width="74" height="24" rx="6" fill="#F2F4F7"/>
<circle cx="16.5" cy="12" r="3" fill="#182230"/>
<path d="M28.148 16.084C27.588 16.084 27.084 15.988 26.636 15.796C26.188 15.596 25.836 15.316 25.58 14.956C25.324 14.596 25.196 14.176 25.196 13.696H26.66C26.692 14.056 26.832 14.352 27.08 14.584C27.336 14.816 27.692 14.932 28.148 14.932C28.62 14.932 28.988 14.82 29.252 14.596C29.516 14.364 29.648 14.068 29.648 13.708C29.648 13.428 29.564 13.2 29.396 13.024C29.236 12.848 29.032 12.712 28.784 12.616C28.544 12.52 28.208 12.416 27.776 12.304C27.232 12.16 26.788 12.016 26.444 11.872C26.108 11.72 25.82 11.488 25.58 11.176C25.34 10.864 25.22 10.448 25.22 9.928C25.22 9.448 25.34 9.028 25.58 8.668C25.82 8.308 26.156 8.032 26.588 7.84C27.02 7.648 27.52 7.552 28.088 7.552C28.896 7.552 29.556 7.756 30.068 8.164C30.588 8.564 30.876 9.116 30.932 9.82H29.42C29.396 9.516 29.252 9.256 28.988 9.04C28.724 8.824 28.376 8.716 27.944 8.716C27.552 8.716 27.232 8.816 26.984 9.016C26.736 9.216 26.612 9.504 26.612 9.88C26.612 10.136 26.688 10.348 26.84 10.516C27 10.676 27.2 10.804 27.44 10.9C27.68 10.996 28.008 11.1 28.424 11.212C28.976 11.364 29.424 11.516 29.768 11.668C30.12 11.82 30.416 12.056 30.656 12.376C30.904 12.688 31.028 13.108 31.028 13.636C31.028 14.06 30.912 14.46 30.68 14.836C30.456 15.212 30.124 15.516 29.684 15.748C29.252 15.972 28.74 16.084 28.148 16.084ZM32.1862 12.664C32.1862 12 32.3222 11.412 32.5942 10.9C32.8742 10.388 33.2502 9.992 33.7222 9.712C34.2022 9.424 34.7302 9.28 35.3062 9.28C35.8262 9.28 36.2782 9.384 36.6622 9.592C37.0542 9.792 37.3662 10.044 37.5982 10.348V9.388H38.9782V16H37.5982V15.016C37.3662 15.328 37.0502 15.588 36.6502 15.796C36.2502 16.004 35.7942 16.108 35.2822 16.108C34.7142 16.108 34.1942 15.964 33.7222 15.676C33.2502 15.38 32.8742 14.972 32.5942 14.452C32.3222 13.924 32.1862 13.328 32.1862 12.664ZM37.5982 12.688C37.5982 12.232 37.5022 11.836 37.3102 11.5C37.1262 11.164 36.8822 10.908 36.5782 10.732C36.2742 10.556 35.9462 10.468 35.5942 10.468C35.2422 10.468 34.9142 10.556 34.6102 10.732C34.3062 10.9 34.0582 11.152 33.8662 11.488C33.6822 11.816 33.5902 12.208 33.5902 12.664C33.5902 13.12 33.6822 13.52 33.8662 13.864C34.0582 14.208 34.3062 14.472 34.6102 14.656C34.9222 14.832 35.2502 14.92 35.5942 14.92C35.9462 14.92 36.2742 14.832 36.5782 14.656C36.8822 14.48 37.1262 14.224 37.3102 13.888C37.5022 13.544 37.5982 13.144 37.5982 12.688ZM43.331 14.776L45.203 9.388H46.655L44.135 16H42.503L39.995 9.388H41.459L43.331 14.776ZM53.7491 12.532C53.7491 12.78 53.7331 13.004 53.7011 13.204H48.6491C48.6891 13.732 48.8851 14.156 49.2371 14.476C49.5891 14.796 50.0211 14.956 50.5331 14.956C51.2691 14.956 51.7891 14.648 52.0931 14.032H53.5691C53.3691 14.64 53.0051 15.14 52.4771 15.532C51.9571 15.916 51.3091 16.108 50.5331 16.108C49.9011 16.108 49.3331 15.968 48.8291 15.688C48.3331 15.4 47.9411 15 47.6531 14.488C47.3731 13.968 47.2331 13.368 47.2331 12.688C47.2331 12.008 47.3691 11.412 47.6411 10.9C47.9211 10.38 48.3091 9.98 48.8051 9.7C49.3091 9.42 49.8851 9.28 50.5331 9.28C51.1571 9.28 51.7131 9.416 52.2011 9.688C52.6891 9.96 53.0691 10.344 53.3411 10.84C53.6131 11.328 53.7491 11.892 53.7491 12.532ZM52.3211 12.1C52.3131 11.596 52.1331 11.192 51.7811 10.888C51.4291 10.584 50.9931 10.432 50.4731 10.432C50.0011 10.432 49.5971 10.584 49.2611 10.888C48.9251 11.184 48.7251 11.588 48.6611 12.1H52.3211ZM54.6393 12.664C54.6393 12 54.7753 11.412 55.0473 10.9C55.3273 10.388 55.7033 9.992 56.1753 9.712C56.6553 9.424 57.1873 9.28 57.7713 9.28C58.2033 9.28 58.6273 9.376 59.0433 9.568C59.4673 9.752 59.8033 10 60.0513 10.312V7.12H61.4313V16H60.0513V15.004C59.8273 15.324 59.5153 15.588 59.1153 15.796C58.7233 16.004 58.2713 16.108 57.7593 16.108C57.1833 16.108 56.6553 15.964 56.1753 15.676C55.7033 15.38 55.3273 14.972 55.0473 14.452C54.7753 13.924 54.6393 13.328 54.6393 12.664ZM60.0513 12.688C60.0513 12.232 59.9553 11.836 59.7633 11.5C59.5793 11.164 59.3353 10.908 59.0313 10.732C58.7273 10.556 58.3993 10.468 58.0473 10.468C57.6953 10.468 57.3673 10.556 57.0633 10.732C56.7593 10.9 56.5113 11.152 56.3193 11.488C56.1353 11.816 56.0433 12.208 56.0433 12.664C56.0433 13.12 56.1353 13.52 56.3193 13.864C56.5113 14.208 56.7593 14.472 57.0633 14.656C57.3753 14.832 57.7033 14.92 58.0473 14.92C58.3993 14.92 58.7273 14.832 59.0313 14.656C59.3353 14.48 59.5793 14.224 59.7633 13.888C59.9553 13.544 60.0513 13.144 60.0513 12.688Z" fill="#182230"/>
</svg>
