<svg width="14" height="16" viewBox="0 0 14 16" fill="none" xmlns="http://www.w3.org/2000/svg">
<path d="M11 1.33337V2.66671M3 1.33337V2.66671" stroke="#667085" stroke-width="1.25" stroke-linecap="round" stroke-linejoin="round"/>
<path d="M6.99693 8.66675H7.00291M6.99693 11.3334H7.00291M9.6606 8.66675H9.66659M4.33325 8.66675H4.33923M4.33325 11.3334H4.33923" stroke="#667085" stroke-width="1.25" stroke-linecap="round" stroke-linejoin="round"/>
<path d="M1.33325 5.33337H12.6666" stroke="#667085" stroke-width="1.25" stroke-linecap="round" stroke-linejoin="round"/>
<path d="M0.666626 8.16216C0.666626 5.25729 0.666626 3.80486 1.50137 2.90243C2.33612 2 3.67962 2 6.36663 2H7.63329C10.3203 2 11.6638 2 12.4985 2.90243C13.3333 3.80486 13.3333 5.25729 13.3333 8.16216V8.5045C13.3333 11.4094 13.3333 12.8618 12.4985 13.7642C11.6638 14.6667 10.3203 14.6667 7.63329 14.6667H6.36663C3.67962 14.6667 2.33612 14.6667 1.50137 13.7642C0.666626 12.8618 0.666626 11.4094 0.666626 8.5045V8.16216Z" stroke="#667085" stroke-width="1.25" stroke-linecap="round" stroke-linejoin="round"/>
<path d="M1 5.33337H13" stroke="#667085" stroke-width="1.25" stroke-linecap="round" stroke-linejoin="round"/>
</svg>
