<svg width="102" height="24" viewBox="0 0 102 24" fill="none" xmlns="http://www.w3.org/2000/svg">
<rect x="0.5" width="101" height="24" rx="6" fill="#E6F4FF"/>
<circle cx="16.5" cy="12" r="3" fill="#175CD3"/>
<path d="M28.148 16.084C27.588 16.084 27.084 15.988 26.636 15.796C26.188 15.596 25.836 15.316 25.58 14.956C25.324 14.596 25.196 14.176 25.196 13.696H26.66C26.692 14.056 26.832 14.352 27.08 14.584C27.336 14.816 27.692 14.932 28.148 14.932C28.62 14.932 28.988 14.82 29.252 14.596C29.516 14.364 29.648 14.068 29.648 13.708C29.648 13.428 29.564 13.2 29.396 13.024C29.236 12.848 29.032 12.712 28.784 12.616C28.544 12.52 28.208 12.416 27.776 12.304C27.232 12.16 26.788 12.016 26.444 11.872C26.108 11.72 25.82 11.488 25.58 11.176C25.34 10.864 25.22 10.448 25.22 9.928C25.22 9.448 25.34 9.028 25.58 8.668C25.82 8.308 26.156 8.032 26.588 7.84C27.02 7.648 27.52 7.552 28.088 7.552C28.896 7.552 29.556 7.756 30.068 8.164C30.588 8.564 30.876 9.116 30.932 9.82H29.42C29.396 9.516 29.252 9.256 28.988 9.04C28.724 8.824 28.376 8.716 27.944 8.716C27.552 8.716 27.232 8.816 26.984 9.016C26.736 9.216 26.612 9.504 26.612 9.88C26.612 10.136 26.688 10.348 26.84 10.516C27 10.676 27.2 10.804 27.44 10.9C27.68 10.996 28.008 11.1 28.424 11.212C28.976 11.364 29.424 11.516 29.768 11.668C30.12 11.82 30.416 12.056 30.656 12.376C30.904 12.688 31.028 13.108 31.028 13.636C31.028 14.06 30.912 14.46 30.68 14.836C30.456 15.212 30.124 15.516 29.684 15.748C29.252 15.972 28.74 16.084 28.148 16.084ZM32.1862 12.688C32.1862 12.008 32.3222 11.412 32.5942 10.9C32.8742 10.38 33.2582 9.98 33.7462 9.7C34.2342 9.42 34.7942 9.28 35.4262 9.28C36.2262 9.28 36.8862 9.472 37.4062 9.856C37.9342 10.232 38.2902 10.772 38.4742 11.476H36.9982C36.8782 11.148 36.6862 10.892 36.4222 10.708C36.1582 10.524 35.8262 10.432 35.4262 10.432C34.8662 10.432 34.4182 10.632 34.0822 11.032C33.7542 11.424 33.5902 11.976 33.5902 12.688C33.5902 13.4 33.7542 13.956 34.0822 14.356C34.4182 14.756 34.8662 14.956 35.4262 14.956C36.2182 14.956 36.7422 14.608 36.9982 13.912H38.4742C38.2822 14.584 37.9222 15.12 37.3942 15.52C36.8662 15.912 36.2102 16.108 35.4262 16.108C34.7942 16.108 34.2342 15.968 33.7462 15.688C33.2582 15.4 32.8742 15 32.5942 14.488C32.3222 13.968 32.1862 13.368 32.1862 12.688ZM43.2575 9.28C43.7615 9.28 44.2095 9.388 44.6015 9.604C45.0015 9.82 45.3135 10.14 45.5375 10.564C45.7695 10.988 45.8855 11.5 45.8855 12.1V16H44.5295V12.304C44.5295 11.712 44.3815 11.26 44.0855 10.948C43.7895 10.628 43.3855 10.468 42.8735 10.468C42.3615 10.468 41.9535 10.628 41.6495 10.948C41.3535 11.26 41.2055 11.712 41.2055 12.304V16H39.8375V7.12H41.2055V10.156C41.4375 9.876 41.7295 9.66 42.0815 9.508C42.4415 9.356 42.8335 9.28 43.2575 9.28ZM53.6905 12.532C53.6905 12.78 53.6745 13.004 53.6425 13.204H48.5905C48.6305 13.732 48.8265 14.156 49.1785 14.476C49.5305 14.796 49.9625 14.956 50.4745 14.956C51.2105 14.956 51.7305 14.648 52.0345 14.032H53.5105C53.3105 14.64 52.9465 15.14 52.4185 15.532C51.8985 15.916 51.2505 16.108 50.4745 16.108C49.8425 16.108 49.2745 15.968 48.7705 15.688C48.2745 15.4 47.8825 15 47.5945 14.488C47.3145 13.968 47.1745 13.368 47.1745 12.688C47.1745 12.008 47.3105 11.412 47.5825 10.9C47.8625 10.38 48.2505 9.98 48.7465 9.7C49.2505 9.42 49.8265 9.28 50.4745 9.28C51.0985 9.28 51.6545 9.416 52.1425 9.688C52.6305 9.96 53.0105 10.344 53.2825 10.84C53.5545 11.328 53.6905 11.892 53.6905 12.532ZM52.2625 12.1C52.2545 11.596 52.0745 11.192 51.7225 10.888C51.3705 10.584 50.9345 10.432 50.4145 10.432C49.9425 10.432 49.5385 10.584 49.2025 10.888C48.8665 11.184 48.6665 11.588 48.6025 12.1H52.2625ZM54.5807 12.664C54.5807 12 54.7167 11.412 54.9887 10.9C55.2687 10.388 55.6447 9.992 56.1167 9.712C56.5967 9.424 57.1287 9.28 57.7127 9.28C58.1447 9.28 58.5687 9.376 58.9847 9.568C59.4087 9.752 59.7447 10 59.9927 10.312V7.12H61.3727V16H59.9927V15.004C59.7687 15.324 59.4567 15.588 59.0567 15.796C58.6647 16.004 58.2127 16.108 57.7007 16.108C57.1247 16.108 56.5967 15.964 56.1167 15.676C55.6447 15.38 55.2687 14.972 54.9887 14.452C54.7167 13.924 54.5807 13.328 54.5807 12.664ZM59.9927 12.688C59.9927 12.232 59.8967 11.836 59.7047 11.5C59.5207 11.164 59.2767 10.908 58.9727 10.732C58.6687 10.556 58.3407 10.468 57.9887 10.468C57.6367 10.468 57.3087 10.556 57.0047 10.732C56.7007 10.9 56.4527 11.152 56.2607 11.488C56.0767 11.816 55.9847 12.208 55.9847 12.664C55.9847 13.12 56.0767 13.52 56.2607 13.864C56.4527 14.208 56.7007 14.472 57.0047 14.656C57.3167 14.832 57.6447 14.92 57.9887 14.92C58.3407 14.92 58.6687 14.832 58.9727 14.656C59.2767 14.48 59.5207 14.224 59.7047 13.888C59.8967 13.544 59.9927 13.144 59.9927 12.688ZM69.1575 9.388V16H67.7895V15.22C67.5735 15.492 67.2895 15.708 66.9375 15.868C66.5935 16.02 66.2255 16.096 65.8335 16.096C65.3135 16.096 64.8455 15.988 64.4295 15.772C64.0215 15.556 63.6975 15.236 63.4575 14.812C63.2255 14.388 63.1095 13.876 63.1095 13.276V9.388H64.4655V13.072C64.4655 13.664 64.6135 14.12 64.9095 14.44C65.2055 14.752 65.6095 14.908 66.1215 14.908C66.6335 14.908 67.0375 14.752 67.3335 14.44C67.6375 14.12 67.7895 13.664 67.7895 13.072V9.388H69.1575ZM72.3305 7.12V16H70.9625V7.12H72.3305ZM80.1866 12.532C80.1866 12.78 80.1706 13.004 80.1386 13.204H75.0866C75.1266 13.732 75.3226 14.156 75.6746 14.476C76.0266 14.796 76.4586 14.956 76.9706 14.956C77.7066 14.956 78.2266 14.648 78.5306 14.032H80.0066C79.8066 14.64 79.4426 15.14 78.9146 15.532C78.3946 15.916 77.7466 16.108 76.9706 16.108C76.3386 16.108 75.7706 15.968 75.2666 15.688C74.7706 15.4 74.3786 15 74.0906 14.488C73.8106 13.968 73.6706 13.368 73.6706 12.688C73.6706 12.008 73.8066 11.412 74.0786 10.9C74.3586 10.38 74.7466 9.98 75.2426 9.7C75.7466 9.42 76.3226 9.28 76.9706 9.28C77.5946 9.28 78.1506 9.416 78.6386 9.688C79.1266 9.96 79.5066 10.344 79.7786 10.84C80.0506 11.328 80.1866 11.892 80.1866 12.532ZM78.7586 12.1C78.7506 11.596 78.5706 11.192 78.2186 10.888C77.8666 10.584 77.4306 10.432 76.9106 10.432C76.4386 10.432 76.0346 10.584 75.6986 10.888C75.3626 11.184 75.1626 11.588 75.0986 12.1H78.7586ZM81.0768 12.664C81.0768 12 81.2128 11.412 81.4848 10.9C81.7648 10.388 82.1408 9.992 82.6128 9.712C83.0928 9.424 83.6248 9.28 84.2088 9.28C84.6408 9.28 85.0648 9.376 85.4808 9.568C85.9048 9.752 86.2408 10 86.4888 10.312V7.12H87.8688V16H86.4888V15.004C86.2648 15.324 85.9528 15.588 85.5528 15.796C85.1608 16.004 84.7088 16.108 84.1968 16.108C83.6208 16.108 83.0928 15.964 82.6128 15.676C82.1408 15.38 81.7648 14.972 81.4848 14.452C81.2128 13.924 81.0768 13.328 81.0768 12.664ZM86.4888 12.688C86.4888 12.232 86.3928 11.836 86.2008 11.5C86.0168 11.164 85.7728 10.908 85.4688 10.732C85.1648 10.556 84.8368 10.468 84.4848 10.468C84.1328 10.468 83.8048 10.556 83.5008 10.732C83.1968 10.9 82.9488 11.152 82.7568 11.488C82.5728 11.816 82.4808 12.208 82.4808 12.664C82.4808 13.12 82.5728 13.52 82.7568 13.864C82.9488 14.208 83.1968 14.472 83.5008 14.656C83.8128 14.832 84.1408 14.92 84.4848 14.92C84.8368 14.92 85.1648 14.832 85.4688 14.656C85.7728 14.48 86.0168 14.224 86.2008 13.888C86.3928 13.544 86.4888 13.144 86.4888 12.688Z" fill="#175CD3"/>
</svg>
