<svg width="24" height="24" viewBox="0 0 24 24" fill="none" xmlns="http://www.w3.org/2000/svg">
<path fill-rule="evenodd" clip-rule="evenodd" d="M4.15706 2.84322C5.63086 1.35028 21.2785 8.87205 21.16 12.0707C21.0444 15.1923 5.35178 22.4767 3.98226 20.9805C3.12298 20.0419 4.50552 17.8705 7.29251 13.5123C7.48117 13.2173 7.6134 12.9735 7.69047 12.7494C7.70305 12.75 7.71572 12.7503 7.72846 12.7503H12.6782C13.0924 12.7503 13.4282 12.4145 13.4282 12.0003C13.4282 11.5861 13.0924 11.2503 12.6782 11.2503H7.72846C7.63179 11.2503 7.53939 11.2686 7.45454 11.3019C7.43145 11.2587 7.40711 11.2144 7.38153 11.1689C7.20778 10.8596 6.91862 10.4225 6.57713 9.90628C5.14988 7.74878 2.80845 4.20933 4.15706 2.84322Z" fill="#9012FF"/>
</svg>
