<svg width="20" height="21" viewBox="0 0 20 21" fill="none" xmlns="http://www.w3.org/2000/svg">
<path d="M17.7652 6.45181L17.3539 5.73798C17.0428 5.19812 16.8873 4.92819 16.6226 4.82055C16.358 4.71292 16.0587 4.79785 15.4601 4.96772L14.4432 5.25413C14.061 5.34226 13.6601 5.29227 13.3111 5.11298L13.0304 4.951C12.7311 4.75935 12.501 4.47676 12.3736 4.1446L12.0953 3.31345C11.9123 2.76343 11.8208 2.48842 11.603 2.33113C11.3852 2.17383 11.0959 2.17383 10.5172 2.17383H9.58826C9.00963 2.17383 8.72032 2.17383 8.5025 2.33113C8.28469 2.48842 8.1932 2.76343 8.01022 3.31345L7.73193 4.1446C7.60452 4.47676 7.37436 4.75935 7.07512 4.951L6.79439 5.11298C6.44543 5.29227 6.04448 5.34226 5.6623 5.25413L4.64544 4.96772C4.04683 4.79785 3.74752 4.71292 3.48288 4.82055C3.21823 4.92819 3.06269 5.19812 2.75161 5.73798L2.34029 6.45181C2.0487 6.95785 1.9029 7.21087 1.9312 7.48022C1.9595 7.74957 2.15468 7.96663 2.54503 8.40075L3.40424 9.36134C3.61423 9.62719 3.76332 10.0905 3.76332 10.507C3.76332 10.9238 3.61428 11.387 3.40426 11.6529L2.54504 12.6135C2.15468 13.0476 1.9595 13.2647 1.9312 13.534C1.9029 13.8034 2.0487 14.0564 2.34029 14.5624L2.7516 15.2763C3.06267 15.8161 3.21823 16.0861 3.48288 16.1937C3.74753 16.3013 4.04684 16.2164 4.64546 16.0465L5.66227 15.7601C6.04451 15.6719 6.44554 15.722 6.79454 15.9013L7.07523 16.0633C7.37441 16.255 7.60452 16.5375 7.7319 16.8696L8.01022 17.7009C8.1932 18.2509 8.28469 18.5259 8.5025 18.6832C8.72032 18.8405 9.00963 18.8405 9.58826 18.8405H10.5172C11.0959 18.8405 11.3852 18.8405 11.603 18.6832C11.8208 18.5259 11.9123 18.2509 12.0953 17.7009L12.3736 16.8696C12.501 16.5375 12.7311 16.255 13.0303 16.0633L13.311 15.9013C13.66 15.722 14.061 15.6719 14.4432 15.7601L15.4601 16.0465C16.0587 16.2164 16.358 16.3013 16.6226 16.1937C16.8873 16.0861 17.0428 15.8161 17.3539 15.2763L17.3539 15.2763L17.7652 14.5624C18.0568 14.0564 18.2026 13.8034 18.1743 13.534C18.146 13.2647 17.9508 13.0476 17.5605 12.6135L16.7013 11.6529C16.4912 11.387 16.3422 10.9238 16.3422 10.507C16.3422 10.0905 16.4913 9.62719 16.7013 9.36134L17.5605 8.40075C17.9508 7.96663 18.146 7.74957 18.1743 7.48022C18.2026 7.21087 18.0568 6.95785 17.7652 6.45181Z" stroke="white" stroke-width="1.25" stroke-linecap="round"/>
<path d="M12.9329 10.5007C12.9329 12.1115 11.6271 13.4173 10.0163 13.4173C8.40545 13.4173 7.09961 12.1115 7.09961 10.5007C7.09961 8.88982 8.40545 7.58398 10.0163 7.58398C11.6271 7.58398 12.9329 8.88982 12.9329 10.5007Z" stroke="white" stroke-width="1.25"/>
</svg>
