<svg width="16" height="16" viewBox="0 0 16 16" fill="none" xmlns="http://www.w3.org/2000/svg">
<path d="M7.00234 3.89639C5.492 4.24461 4.27818 5.44242 3.91003 6.94795C3.54837 8.42686 3.97018 9.93642 5.03834 10.986C5.431 11.3719 5.65653 11.9476 5.65653 12.5655V13.5204C5.65659 14.9415 6.69528 16.0002 7.99997 16.0002C9.29231 16.0002 10.3434 14.9488 10.3434 13.6565L10.3435 12.5667C10.3435 11.956 10.5802 11.3688 10.9924 10.9555C11.7832 10.1626 12.2188 9.11305 12.2188 8.0002C12.2188 5.33926 9.75675 3.26142 7.00234 3.89639ZM8 15.0627C7.19834 15.0627 6.59378 14.3996 6.59375 13.5204V13.1565H9.40628V13.6565C9.40628 14.4319 8.7754 15.0627 8 15.0627ZM10.3287 10.2935C9.82228 10.8012 9.50268 11.4887 9.425 12.219H6.57603C6.50118 11.4823 6.18962 10.803 5.69547 10.3174C4.85297 9.48951 4.53412 8.34258 4.82068 7.17064C5.1055 6.00595 6.04453 5.07933 7.213 4.80995C9.36328 4.31417 11.2813 5.91814 11.2813 8.0002C11.2813 8.86311 10.943 9.67755 10.3287 10.2935Z" fill="#344054"/>
<path d="M7.53125 0.46875V1.4375C7.53125 1.69638 7.74112 1.90625 8 1.90625C8.25888 1.90625 8.46875 1.69638 8.46875 1.4375V0.46875C8.46875 0.209875 8.25888 0 8 0C7.74112 0 7.53125 0.209875 7.53125 0.46875Z" fill="#344054"/>
<path d="M1.90625 8C1.90625 7.74112 1.69638 7.53125 1.4375 7.53125H0.46875C0.209875 7.53125 0 7.74112 0 8C0 8.25888 0.209875 8.46875 0.46875 8.46875H1.4375C1.69638 8.46875 1.90625 8.25888 1.90625 8Z" fill="#344054"/>
<path d="M15.5312 7.53125H14.5625C14.3036 7.53125 14.0938 7.74112 14.0938 8C14.0938 8.25888 14.3036 8.46875 14.5625 8.46875H15.5312C15.7901 8.46875 16 8.25888 16 8C16 7.74112 15.7901 7.53125 15.5312 7.53125Z" fill="#344054"/>
<path d="M2.08235 10.8754L1.27047 11.3441C1.04625 11.4736 0.96944 11.7603 1.09891 11.9844C1.22875 12.2094 1.51566 12.2851 1.73922 12.156L2.5511 11.6873C2.77532 11.5578 2.85213 11.2711 2.72266 11.0469C2.59319 10.8227 2.30653 10.7459 2.08235 10.8754Z" fill="#344054"/>
<path d="M14.2608 3.84413L13.4489 4.31288C13.2247 4.44232 13.1479 4.72901 13.2774 4.9532C13.4072 5.1781 13.6941 5.25382 13.9177 5.12476L14.7296 4.65601C14.9538 4.52657 15.0306 4.23988 14.9011 4.0157C14.7717 3.79148 14.485 3.7147 14.2608 3.84413Z" fill="#344054"/>
<path d="M11.3441 1.27061L10.8753 2.08251C10.7459 2.3067 10.8227 2.59339 11.0469 2.72283C11.2701 2.85173 11.5572 2.77642 11.6872 2.55126L12.156 1.73936C12.2854 1.51517 12.2086 1.22848 11.9844 1.09904C11.7601 0.969545 11.4735 1.04639 11.3441 1.27061Z" fill="#344054"/>
<path d="M4.31284 2.55124C4.44268 2.77614 4.72959 2.85186 4.95315 2.7228C5.17737 2.59336 5.25418 2.30667 5.12471 2.08249L4.65596 1.27058C4.52652 1.04636 4.23984 0.96958 4.01565 1.09902C3.79143 1.22845 3.71462 1.51514 3.84409 1.73933L4.31284 2.55124Z" fill="#344054"/>
<path d="M14.7296 11.3442L13.9177 10.8754C13.6934 10.7459 13.4068 10.8228 13.2774 11.047C13.1479 11.2712 13.2247 11.5578 13.4489 11.6873L14.2608 12.156C14.484 12.2849 14.7711 12.2096 14.9011 11.9845C15.0306 11.7603 14.9538 11.4736 14.7296 11.3442Z" fill="#344054"/>
<path d="M2.5511 4.31293L1.73922 3.84418C1.515 3.71464 1.22835 3.79152 1.09891 4.01574C0.96944 4.23993 1.04625 4.52661 1.27047 4.65605L2.08235 5.1248C2.30557 5.25371 2.59266 5.17839 2.72266 4.95324C2.85213 4.72905 2.77532 4.44236 2.5511 4.31293Z" fill="#344054"/>
<path d="M8 6.125C7.22459 6.125 6.59375 6.75584 6.59375 7.53125C6.59375 7.79013 6.80362 8 7.0625 8C7.32138 8 7.53125 7.79013 7.53125 7.53125C7.53125 7.27278 7.74153 7.0625 8 7.0625C8.25847 7.0625 8.46875 7.27278 8.46875 7.53125C8.46875 7.7245 8.35278 7.89556 8.17328 7.96706C7.78325 8.12244 7.53125 8.49412 7.53125 8.91391V8.9375C7.53125 9.19637 7.74112 9.40625 8 9.40625C8.25888 9.40625 8.46875 9.19637 8.46875 8.9375V8.91391C8.46875 8.88078 8.48944 8.85028 8.52025 8.838C9.05847 8.62359 9.40625 8.11066 9.40625 7.53125C9.40625 6.75584 8.77541 6.125 8 6.125Z" fill="#344054"/>
<path d="M8 11.2812C8.25888 11.2812 8.46875 11.0714 8.46875 10.8125C8.46875 10.5536 8.25888 10.3438 8 10.3438C7.74112 10.3438 7.53125 10.5536 7.53125 10.8125C7.53125 11.0714 7.74112 11.2812 8 11.2812Z" fill="#344054"/>
</svg>
