<svg width="18" height="18" viewBox="0 0 18 18" fill="none" xmlns="http://www.w3.org/2000/svg">
<g clip-path="url(#clip0_4106_3505)">
<path d="M9.375 16.5H4.94315C3.78412 16.5 2.86223 15.936 2.0345 15.1474C0.340023 13.5331 3.1221 12.243 4.18318 11.6112C5.75878 10.673 7.60263 10.3289 9.375 10.5789C10.0181 10.6696 10.6445 10.8385 11.25 11.0857" stroke="#9012FF" stroke-width="1.5" stroke-linecap="round" stroke-linejoin="round"/>
<path d="M12.375 4.875C12.375 6.73896 10.864 8.25 9 8.25C7.13604 8.25 5.625 6.73896 5.625 4.875C5.625 3.01104 7.13604 1.5 9 1.5C10.864 1.5 12.375 3.01104 12.375 4.875Z" stroke="#9012FF" stroke-width="1.5"/>
<path d="M13.875 16.5L13.875 11.25M11.25 13.875H16.5" stroke="#9012FF" stroke-width="1.5" stroke-linecap="round"/>
</g>
<defs>
<clipPath id="clip0_4106_3505">
<rect width="18" height="18" fill="white"/>
</clipPath>
</defs>
</svg>
