<svg width="18" height="18" viewBox="0 0 18 18" fill="none" xmlns="http://www.w3.org/2000/svg">
<g id="user-block-01" clip-path="url(#clip0_4106_5895)">
<g id="elements">
<path id="Vector" d="M9.75 16.5H4.94315C3.78412 16.5 2.86223 15.936 2.0345 15.1474C0.340023 13.5331 3.1221 12.243 4.18318 11.6112C5.98259 10.5397 8.13188 10.2431 10.125 10.7214" stroke="#DE3024" stroke-width="1.5" stroke-linecap="round" stroke-linejoin="round"/>
<path id="Ellipse 1382" d="M12.375 4.875C12.375 6.73896 10.864 8.25 9 8.25C7.13604 8.25 5.625 6.73896 5.625 4.875C5.625 3.01104 7.13604 1.5 9 1.5C10.864 1.5 12.375 3.01104 12.375 4.875Z" stroke="#DE3024" stroke-width="1.5"/>
<path id="Vector_2" d="M12.0375 12.0375L15.7125 15.7125M16.5 13.875C16.5 12.4253 15.3247 11.25 13.875 11.25C12.4253 11.25 11.25 12.4253 11.25 13.875C11.25 15.3247 12.4253 16.5 13.875 16.5C15.3247 16.5 16.5 15.3247 16.5 13.875Z" stroke="#DE3024" stroke-width="1.5" stroke-linecap="round"/>
</g>
</g>
<defs>
<clipPath id="clip0_4106_5895">
<rect width="18" height="18" fill="white"/>
</clipPath>
</defs>
</svg>
