<svg width="20" height="20" viewBox="0 0 20 20" fill="none" xmlns="http://www.w3.org/2000/svg">
<path d="M5.48131 12.9013C4.30234 13.6034 1.21114 15.0368 3.09388 16.8305C4.01359 17.7067 5.03791 18.3334 6.32572 18.3334H13.6743C14.9621 18.3334 15.9864 17.7067 16.9061 16.8305C18.7889 15.0368 15.6977 13.6034 14.5187 12.9013C11.754 11.2551 8.24599 11.2551 5.48131 12.9013Z" stroke="#1D2939" stroke-width="1.5" stroke-linecap="round" stroke-linejoin="round"/>
<path d="M13.75 5.41669C13.75 7.48776 12.0711 9.16669 10 9.16669C7.92893 9.16669 6.25 7.48776 6.25 5.41669C6.25 3.34562 7.92893 1.66669 10 1.66669C12.0711 1.66669 13.75 3.34562 13.75 5.41669Z" stroke="#1D2939" stroke-width="1.5"/>
</svg>
