<svg width="19" height="18" viewBox="0 0 19 18" fill="none" xmlns="http://www.w3.org/2000/svg">
<g id="user-block-01">
<g id="elements">
<path id="Vector" d="M10.25 16.5H5.44315C4.28412 16.5 3.36223 15.936 2.5345 15.1474C0.840023 13.5331 3.6221 12.243 4.68318 11.6112C6.48259 10.5397 8.63188 10.2431 10.625 10.7214" stroke="#475467" stroke-width="1.5" stroke-linecap="round" stroke-linejoin="round"/>
<path id="Ellipse 1382" d="M12.875 4.875C12.875 6.73896 11.364 8.25 9.5 8.25C7.63604 8.25 6.125 6.73896 6.125 4.875C6.125 3.01104 7.63604 1.5 9.5 1.5C11.364 1.5 12.875 3.01104 12.875 4.875Z" stroke="#475467" stroke-width="1.5"/>
<path id="Vector_2" d="M12.5375 12.0375L16.2125 15.7125M17 13.875C17 12.4253 15.8247 11.25 14.375 11.25C12.9253 11.25 11.75 12.4253 11.75 13.875C11.75 15.3247 12.9253 16.5 14.375 16.5C15.8247 16.5 17 15.3247 17 13.875Z" stroke="#475467" stroke-width="1.5" stroke-linecap="round"/>
</g>
</g>
</svg>
