<svg width="18" height="18" viewBox="0 0 18 18" fill="none" xmlns="http://www.w3.org/2000/svg">
<path d="M9 16.5C13.1421 16.5 16.5 13.1421 16.5 9C16.5 4.85786 13.1421 1.5 9 1.5C4.85786 1.5 1.5 4.85786 1.5 9C1.5 13.1421 4.85786 16.5 9 16.5Z" stroke="#475467" stroke-width="1.5"/>
<path d="M5.625 12.75C7.37378 10.9183 10.6074 10.8321 12.375 12.75M10.8713 7.125C10.8713 8.16052 10.0306 9 8.99362 9C7.95667 9 7.11598 8.16052 7.11598 7.125C7.11598 6.08947 7.95667 5.25 8.99362 5.25C10.0306 5.25 10.8713 6.08947 10.8713 7.125Z" stroke="#475467" stroke-width="1.5" stroke-linecap="round"/>
</svg>
