<svg width="18" height="22" viewBox="0 0 18 22" fill="none" xmlns="http://www.w3.org/2000/svg">
<path d="M10 1.5V2C10 4.82843 10 6.24264 10.8787 7.12132C11.7574 8 13.1716 8 16 8H16.5M17 9.6569V13C17 16.7712 17 18.6569 15.8284 19.8284C14.6569 21 12.7712 21 9 21C5.22876 21 3.34315 21 2.17157 19.8284C1 18.6569 1 16.7712 1 13V8.45584C1 5.21082 1 3.58831 1.88607 2.48933C2.06508 2.26731 2.26731 2.06508 2.48933 1.88607C3.58831 1 5.21082 1 8.4558 1C9.1614 1 9.5141 1 9.8372 1.11401C9.9044 1.13772 9.9702 1.165 10.0345 1.19575C10.3436 1.34355 10.593 1.593 11.0919 2.09188L15.8284 6.82843C16.4065 7.40649 16.6955 7.69552 16.8478 8.06306C17 8.4306 17 8.83935 17 9.6569Z" stroke="#292D32" stroke-width="1.5" stroke-linecap="round" stroke-linejoin="round"/>
</svg>
