<svg width="16" height="16" viewBox="0 0 16 16" fill="none" xmlns="http://www.w3.org/2000/svg">
<path d="M1.3335 7.33464C1.3335 5.13475 1.3335 4.0348 2.01691 3.35139C2.70033 2.66797 3.80028 2.66797 6.00016 2.66797H6.66683C8.86672 2.66797 9.96666 2.66797 10.6501 3.35139C11.3335 4.0348 11.3335 5.13475 11.3335 7.33464V8.66797C11.3335 10.8679 11.3335 11.9678 10.6501 12.6512C9.96666 13.3346 8.86672 13.3346 6.66683 13.3346H6.00016C3.80027 13.3346 2.70033 13.3346 2.01691 12.6512C1.3335 11.9678 1.3335 10.8679 1.3335 8.66797V7.33464Z" stroke="white"/>
<path d="M11.3335 5.93984L11.4174 5.87058C12.828 4.70676 13.5332 4.12485 14.1 4.40582C14.6668 4.68679 14.6668 5.6183 14.6668 7.48133V8.52388C14.6668 10.3869 14.6668 11.3184 14.1 11.5994C13.5332 11.8804 12.828 11.2985 11.4174 10.1346L11.3335 10.0654" stroke="white" stroke-linecap="round"/>
<ellipse cx="7.66699" cy="6.33594" rx="1" ry="1" stroke="white"/>
</svg>
