<svg width="18" height="18" viewBox="0 0 18 18" fill="none" xmlns="http://www.w3.org/2000/svg">
<path d="M13.275 16.0015C12.396 16.125 11.2497 16.125 9.7125 16.125H8.2875C5.26462 16.125 3.75318 16.125 2.81409 15.1859C1.875 14.2468 1.875 12.7354 1.875 9.7125V8.2875C1.875 5.26462 1.875 3.75318 2.81409 2.81409C3.75318 1.875 5.26462 1.875 8.2875 1.875H9.7125C12.7354 1.875 14.2468 1.875 15.1859 2.81409C16.125 3.75318 16.125 5.26462 16.125 8.2875V9.7125C16.125 10.4371 16.125 11.0749 16.1121 11.6387C16.096 12.3373 16.088 12.6866 15.8197 12.8216C15.5514 12.9565 15.2549 12.7468 14.6619 12.3272L13.9875 11.85" stroke="#475467" stroke-width="1.5" stroke-linecap="round" stroke-linejoin="round"/>
<path d="M11.209 9.29609C11.0764 9.76615 10.45 10.0983 9.19715 10.7626C7.98602 11.4048 7.38045 11.7259 6.89244 11.5969C6.69067 11.5435 6.50685 11.4421 6.35859 11.3025C6 10.9649 6 10.3099 6 9C6 7.69009 6 7.03513 6.35859 6.69746C6.50685 6.55786 6.69067 6.45651 6.89244 6.40315C7.38045 6.27408 7.98602 6.59518 9.19715 7.23737C10.45 7.90169 11.0764 8.23385 11.209 8.70391C11.2637 8.89794 11.2637 9.10206 11.209 9.29609Z" stroke="#475467" stroke-width="1.5" stroke-linejoin="round"/>
</svg>
