<svg width="20" height="21" viewBox="0 0 20 21" fill="none" xmlns="http://www.w3.org/2000/svg">
<path d="M11.666 12.8448V8.15555C11.666 5.53455 11.666 4.22405 10.8949 3.89791C10.1238 3.57177 9.21631 4.49844 7.40128 6.35176C6.46134 7.31153 5.92505 7.52407 4.58771 7.52407C3.41816 7.52407 2.83338 7.52407 2.41331 7.81068C1.54131 8.40562 1.67312 9.56849 1.67312 10.5002C1.67312 11.4318 1.54131 12.5947 2.41331 13.1896C2.83338 13.4763 3.41816 13.4763 4.58771 13.4763C5.92506 13.4763 6.46134 13.6888 7.40128 14.6486C9.21631 16.5019 10.1238 17.4286 10.8949 17.1024C11.666 16.7763 11.666 15.4658 11.666 12.8448Z" stroke="white" stroke-width="1.5" stroke-linecap="round" stroke-linejoin="round"/>
<path d="M14.166 8C14.6872 8.68306 14.9993 9.55287 14.9993 10.5C14.9993 11.4471 14.6872 12.3169 14.166 13" stroke="white" stroke-width="1.5" stroke-linecap="round" stroke-linejoin="round"/>
<path d="M16.666 6.3335C17.7083 7.47193 18.3327 8.92161 18.3327 10.5002C18.3327 12.0787 17.7083 13.5284 16.666 14.6668" stroke="white" stroke-width="1.5" stroke-linecap="round" stroke-linejoin="round"/>
</svg>
