<svg width="18" height="18" viewBox="0 0 18 18" fill="none" xmlns="http://www.w3.org/2000/svg">
<path d="M7.25 1.58771C8.3329 0.962498 9.6671 0.962498 10.75 1.58771L14.5442 3.77831C15.6271 4.40353 16.2942 5.55897 16.2942 6.8094V11.1906C16.2942 12.441 15.6271 13.5965 14.5442 14.2217L10.75 16.4123C9.6671 17.0375 8.3329 17.0375 7.25 16.4123L3.45577 14.2217C2.37287 13.5965 1.70577 12.441 1.70577 11.1906V6.8094C1.70577 5.55897 2.37287 4.40353 3.45577 3.77831L7.25 1.58771Z" fill="#FF8028" stroke="white"/>
<g filter="url(#filter0_i_4235_2212)">
<path d="M12.6652 7.38354C12.5895 7.31917 12.4974 7.27777 12.3997 7.26405C12.3019 7.25036 12.2023 7.26491 12.1123 7.30605L10.438 8.06356L9.4631 6.27731C9.41724 6.19327 9.35014 6.12324 9.26874 6.07448C9.18734 6.02572 9.09461 6 9.00015 6C8.9057 6 8.81297 6.02572 8.73157 6.07448C8.65017 6.12324 8.58307 6.19327 8.53721 6.27731L7.56232 8.06353L5.88773 7.30591C5.79761 7.26516 5.69813 7.25082 5.60047 7.26451C5.50279 7.2782 5.41082 7.31936 5.33488 7.38338C5.25896 7.4474 5.20208 7.53171 5.17068 7.62684C5.13924 7.72199 5.13456 7.82415 5.15709 7.92186L5.99934 11.572C6.01536 11.6427 6.04536 11.7092 6.08754 11.7677C6.1297 11.8262 6.18311 11.8753 6.24454 11.912C6.30629 11.949 6.37472 11.973 6.44577 11.9826C6.51681 11.9921 6.589 11.9871 6.65808 11.9677C8.19026 11.5371 9.8084 11.5369 11.3407 11.9672C11.4097 11.9866 11.4819 11.9916 11.5529 11.9821C11.6239 11.9725 11.6923 11.9485 11.754 11.9116C11.8154 11.8748 11.8688 11.8258 11.911 11.7674C11.9531 11.7089 11.9832 11.6424 11.9992 11.5718L12.8429 7.92215C12.8659 7.82444 12.8614 7.72212 12.83 7.62689C12.7985 7.53166 12.7415 7.44734 12.6652 7.38354Z" fill="white"/>
</g>
<defs>
<filter id="filter0_i_4235_2212" x="4.83867" y="5.6956" width="8.01875" height="6.2917" filterUnits="userSpaceOnUse" color-interpolation-filters="sRGB">
<feFlood flood-opacity="0" result="BackgroundImageFix"/>
<feBlend mode="normal" in="SourceGraphic" in2="BackgroundImageFix" result="shape"/>
<feColorMatrix in="SourceAlpha" type="matrix" values="0 0 0 0 0 0 0 0 0 0 0 0 0 0 0 0 0 0 127 0" result="hardAlpha"/>
<feOffset dx="-0.304395" dy="-0.304395"/>
<feGaussianBlur stdDeviation="0.304395"/>
<feComposite in2="hardAlpha" operator="arithmetic" k2="-1" k3="1"/>
<feColorMatrix type="matrix" values="0 0 0 0 0 0 0 0 0 0 0 0 0 0 0 0 0 0 0.16 0"/>
<feBlend mode="normal" in2="shape" result="effect1_innerShadow_4235_2212"/>
</filter>
</defs>
</svg>
