<svg width="20" height="21" viewBox="0 0 20 21" fill="none" xmlns="http://www.w3.org/2000/svg">
<path d="M4.16666 3V11.3333C4.16666 14.476 4.16666 16.0474 5.14297 17.0237C6.11928 18 7.69063 18 10.8333 18H17.5" stroke="#667085" stroke-width="1.2" stroke-linecap="round"/>
<path d="M2.5 8L9.16667 8M16.6667 8L13.3333 8" stroke="#667085" stroke-width="1.2" stroke-linecap="round"/>
<path d="M8.75 3.83334L13.75 3.83334" stroke="#667085" stroke-width="1.2" stroke-linecap="round" stroke-linejoin="round"/>
<path d="M9.75 3.83334V7.84999C9.75 8.25118 9.50289 8.60345 9.16664 8.82228C8.16167 9.47632 7.5 10.5901 7.5 11.8542C7.5 13.8677 9.17893 15.5 11.25 15.5C13.3211 15.5 15 13.8677 15 11.8542C15 10.5901 14.3383 9.47632 13.3334 8.82228C12.9971 8.60345 12.75 8.25118 12.75 7.84999V3.83334" stroke="#667085" stroke-width="1.2" stroke-linecap="round"/>
</svg>
