<svg width="20" height="20" viewBox="0 0 20 20" fill="none" xmlns="http://www.w3.org/2000/svg">
  <g id="star">
    <g id="elements">
      <path 
        id="Vector" 
        d="M11.439 2.86754L12.9056 5.82479C13.1055 6.23645 13.6388 6.63131 14.0888 6.70692L16.7468 7.15219C18.4466 7.43784 18.8466 8.68122 17.6217 9.90781L15.5553 11.9913C15.2053 12.3442 15.0136 13.0247 15.122 13.512L15.7136 16.0911C16.1802 18.1327 15.1053 18.9224 13.3138 17.8554L10.8224 16.3684C10.3725 16.0995 9.63091 16.0995 9.17263 16.3684L6.68124 17.8554C4.8981 18.9224 3.81489 18.1243 4.2815 16.0911L4.87311 13.512C4.98143 13.0247 4.78978 12.3442 4.43982 11.9913L2.37338 9.90781C1.15685 8.68122 1.54847 7.43784 3.24828 7.15219L5.90632 6.70692C6.34794 6.63131 6.88122 6.23645 7.08119 5.82479L8.5477 2.86754C9.34761 1.2629 10.6475 1.2629 11.439 2.86754Z" 
        fill="none" 
          stroke="#FF8C00"  
        strokeWidth="100"  
      />
    </g>
  </g>
</svg>
