<svg width="42" height="42" viewBox="0 0 42 42" fill="none" xmlns="http://www.w3.org/2000/svg">
<path fill-rule="evenodd" clip-rule="evenodd" d="M10.7622 0H24.8042L36.7052 12.4048V36.5322C36.7052 39.5547 34.2599 42 31.2479 42H10.7622C7.7397 42 5.29443 39.5547 5.29443 36.5322V5.46775C5.29438 2.44527 7.73965 0 10.7622 0Z" fill="#E5252A"/>
<path fill-rule="evenodd" clip-rule="evenodd" d="M24.7939 0V12.3104H36.7055L24.7939 0Z" fill="white" fill-opacity="0.4"/>
<path d="M11.3711 31.3377V23.666H14.635C15.4431 23.666 16.0833 23.8864 16.566 24.3377C17.0488 24.7785 17.2902 25.3767 17.2902 26.1218C17.2902 26.8669 17.0488 27.4651 16.566 27.9059C16.0833 28.3572 15.4431 28.5776 14.635 28.5776H13.3336V31.3377H11.3711ZM13.3336 26.9089H14.4146C14.7084 26.9089 14.9393 26.8459 15.0968 26.6991C15.2542 26.5626 15.3382 26.3737 15.3382 26.1218C15.3382 25.87 15.2542 25.6811 15.0968 25.5446C14.9394 25.3977 14.7085 25.3348 14.4146 25.3348H13.3336V26.9089ZM18.0982 31.3377V23.666H20.8164C21.3516 23.666 21.8554 23.7395 22.3276 23.8969C22.7998 24.0543 23.2302 24.2747 23.6079 24.5791C23.9858 24.8729 24.2901 25.2717 24.5105 25.7755C24.7204 26.2792 24.8359 26.8564 24.8359 27.5071C24.8359 28.1473 24.7204 28.7245 24.5105 29.2282C24.2901 29.732 23.9858 30.1308 23.6079 30.4246C23.2301 30.729 22.7998 30.9493 22.3276 31.1068C21.8554 31.2642 21.3516 31.3377 20.8164 31.3377H18.0982ZM20.0188 29.669H20.5855C20.8898 29.669 21.1732 29.6376 21.4355 29.5641C21.6874 29.4906 21.9288 29.3752 22.1597 29.2178C22.3801 29.0604 22.5585 28.8399 22.6844 28.5461C22.8104 28.2523 22.8733 27.9059 22.8733 27.5071C22.8733 27.0978 22.8104 26.7515 22.6844 26.4577C22.5585 26.1638 22.3801 25.9434 22.1597 25.786C21.9288 25.6286 21.6875 25.5131 21.4355 25.4397C21.1732 25.3662 20.8898 25.3347 20.5855 25.3347H20.0188V29.669ZM25.8224 31.3377V23.666H31.2797V25.3347H27.7849V26.5626H30.5765V28.2207H27.7849V31.3377H25.8224Z" fill="white"/>
</svg>
